ply
format ascii 1.0
comment Created by Open3D
element vertex 24
property double x
property double y
property double z
element face 34
property list uchar uint vertex_indices
end_header
153.069 -59.123 0
120.824 -38.6421 0
119.976 -38.3521 0
119.593 -38.1122 0
118.969 -37.4754 0
118.555 -36.6808 0
118.401 -35.8055 0
118.518 -34.916 0
118.905 -34.1011 0
119.506 -33.4503 0
126.185 -22.9268 0
160.19 -48.1392 0
153.069 -59.123 34.6
120.824 -38.6421 34.6
119.976 -38.3521 34.6
119.593 -38.1122 34.6
118.969 -37.4754 34.6
118.555 -36.6808 34.6
118.401 -35.8055 34.6
118.518 -34.916 34.6
118.905 -34.1011 34.6
119.506 -33.4503 34.6
126.185 -22.9268 34.6
160.19 -48.1392 34.6
3 6 5 4
3 6 4 8
3 6 8 7
3 8 4 9
3 4 1 9
3 1 0 11
3 1 11 10
3 1 4 2
3 1 10 9
3 4 3 2
3 6 5 18
3 18 5 17
3 5 4 17
3 17 4 16
3 8 7 20
3 20 7 19
3 7 6 19
3 19 6 18
3 9 8 21
3 21 8 20
3 1 0 13
3 13 0 12
3 0 11 12
3 12 11 23
3 11 10 23
3 23 10 22
3 2 1 14
3 14 1 13
3 10 9 22
3 22 9 21
3 4 3 16
3 16 3 15
3 3 2 15
3 15 2 14
