ply
format ascii 1.0
comment Created by Open3D
element vertex 12
property double x
property double y
property double z
element face 16
property list uchar uint vertex_indices
end_header
-131.311 -185.128 0
-135.419 -191.558 0
-137.027 -190.533 0
-159.531 -176.179 0
-155.432 -169.738 0
-133.983 -183.415 0
-131.311 -185.128 25.6
-135.419 -191.558 25.6
-137.027 -190.533 25.6
-159.531 -176.179 25.6
-155.432 -169.738 25.6
-133.983 -183.415 25.6
3 4 3 5
3 5 3 2
3 0 5 2
3 0 2 1
3 4 3 10
3 10 3 9
3 5 4 11
3 11 4 10
3 3 2 9
3 9 2 8
3 0 5 6
3 6 5 11
3 2 1 8
3 8 1 7
3 1 0 7
3 7 0 6
