ply
format ascii 1.0
comment Created by Open3D
element vertex 14
property double x
property double y
property double z
element face 19
property list uchar uint vertex_indices
end_header
-217.632 63.253 0
-221.764 56.6668 0
-230.525 62.1513 0
-240.759 68.5628 0
-236.628 75.149 0
-235.837 74.6584 0
-226.624 68.8904 0
-217.632 63.253 17.6
-221.764 56.6668 17.6
-230.525 62.1513 17.6
-240.759 68.5628 17.6
-236.628 75.149 17.6
-235.837 74.6584 17.6
-226.624 68.8904 17.6
3 3 5 4
3 5 3 2
3 2 1 0
3 0 6 2
3 2 6 5
3 5 4 12
3 12 4 11
3 4 3 11
3 11 3 10
3 3 2 10
3 10 2 9
3 2 1 9
3 9 1 8
3 1 0 8
3 8 0 7
3 0 6 7
3 7 6 13
3 6 5 13
3 13 5 12
