ply
format ascii 1.0
comment Created by Open3D
element vertex 12
property double x
property double y
property double z
element face 16
property list uchar uint vertex_indices
end_header
235.064 34.5518 0
228.445 38.7503 0
233.556 46.758 0
243.869 62.9076 0
250.488 58.7202 0
235.753 35.6366 0
235.064 34.5518 18.2
228.445 38.7503 18.2
233.556 46.758 18.2
243.869 62.9076 18.2
250.488 58.7202 18.2
235.753 35.6366 18.2
3 2 1 5
3 5 1 0
3 4 3 2
3 4 2 5
3 2 1 8
3 8 1 7
3 1 0 7
3 7 0 6
3 0 5 6
3 6 5 11
3 4 3 10
3 10 3 9
3 3 2 9
3 9 2 8
3 5 4 11
3 11 4 10
