ply
format ascii 1.0
comment Created by Open3D
element vertex 11
property double x
property double y
property double z
element face 9
property list uchar uint vertex_indices
end_header
-169.35 190.19 19.8
-172.328 185.449 19.8
-179.779 190.126 19.8
-179.323 190.853 19.8
-181.059 191.944 19.8
-181.581 191.116 19.8
-184.482 192.937 19.8
-185.627 191.114 19.8
-195.869 197.537 19.8
-191.68 204.213 19.8
-186.142 200.734 19.8
3 7 6 8
3 8 10 9
3 10 8 6
3 6 4 10
3 3 2 1
3 3 1 0
3 4 3 0
3 5 4 6
3 0 10 4
