ply
format ascii 1.0
comment Created by Open3D
element vertex 10
property double x
property double y
property double z
element face 13
property list uchar uint vertex_indices
end_header
-172.573 -106.429 0
-184.281 -124.837 0
-208.391 -109.602 0
-196.683 -91.2052 0
-173.858 -105.622 0
-172.573 -106.429 17.5
-184.281 -124.837 17.5
-208.391 -109.602 17.5
-196.683 -91.2052 17.5
-173.858 -105.622 17.5
3 3 2 4
3 1 0 4
3 1 4 2
3 3 2 8
3 8 2 7
3 4 3 9
3 9 3 8
3 1 0 6
3 6 0 5
3 0 4 5
3 5 4 9
3 2 1 7
3 7 1 6
