ply
format ascii 1.0
comment Created by Open3D
element vertex 22
property double x
property double y
property double z
element face 31
property list uchar uint vertex_indices
end_header
93.8511 -120.251 0
94.3918 -122.488 0
95.9322 -123.503 0
101.474 -126.581 0
104.064 -126.307 0
105.06 -124.786 0
124.906 -137.815 0
118.535 -147.935 0
67.7083 -117.142 0
75.2156 -105.199 0
95.1462 -118.283 0
93.8511 -120.251 29.5
94.3918 -122.488 29.5
95.9322 -123.503 29.5
101.474 -126.581 29.5
104.064 -126.307 29.5
105.06 -124.786 29.5
124.906 -137.815 29.5
118.535 -147.935 29.5
67.7083 -117.142 29.5
75.2156 -105.199 29.5
95.1462 -118.283 29.5
3 1 0 8
3 0 9 8
3 9 0 10
3 1 8 2
3 4 3 7
3 7 3 2
3 4 7 6
3 5 4 6
3 7 2 8
3 1 0 12
3 12 0 11
3 9 8 20
3 20 8 19
3 0 10 11
3 11 10 21
3 10 9 21
3 21 9 20
3 2 1 13
3 13 1 12
3 4 3 15
3 15 3 14
3 3 2 14
3 14 2 13
3 7 6 18
3 18 6 17
3 5 4 16
3 16 4 15
3 6 5 17
3 17 5 16
3 8 7 19
3 19 7 18
