ply
format ascii 1.0
comment Created by Open3D
element vertex 20
property double x
property double y
property double z
element face 28
property list uchar uint vertex_indices
end_header
-125.348 252.475 0
-127.032 253.533 0
-129.108 254.83 0
-128.485 255.814 0
-131.446 257.69 0
-113.103 286.665 0
-106.382 282.412 0
-109.941 276.798 0
-118.968 262.551 0
-122.469 257.015 0
-125.348 252.475 17.2
-127.032 253.533 17.2
-129.108 254.83 17.2
-128.485 255.814 17.2
-131.446 257.69 17.2
-113.103 286.665 17.2
-106.382 282.412 17.2
-109.941 276.798 17.2
-118.968 262.551 17.2
-122.469 257.015 17.2
3 3 1 9
3 3 2 1
3 4 3 9
3 1 0 9
3 8 5 4
3 5 7 6
3 7 5 8
3 8 4 9
3 3 2 13
3 13 2 12
3 2 1 12
3 12 1 11
3 4 3 14
3 14 3 13
3 1 0 11
3 11 0 10
3 0 9 10
3 10 9 19
3 5 4 15
3 15 4 14
3 7 6 17
3 17 6 16
3 6 5 16
3 16 5 15
3 8 7 18
3 18 7 17
3 9 8 19
3 19 8 18
