ply
format ascii 1.0
comment Created by Open3D
element vertex 12
property double x
property double y
property double z
element face 16
property list uchar uint vertex_indices
end_header
247.334 25.1445 0
241.481 28.8522 0
242.916 31.1002 0
242.491 31.3617 0
257.226 54.4454 0
263.505 50.4761 0
247.334 25.1445 20.5
241.481 28.8522 20.5
242.916 31.1002 20.5
242.491 31.3617 20.5
257.226 54.4454 20.5
263.505 50.4761 20.5
3 2 1 0
3 3 2 4
3 5 4 2
3 5 2 0
3 2 1 8
3 8 1 7
3 1 0 7
3 7 0 6
3 3 2 9
3 9 2 8
3 4 3 10
3 10 3 9
3 5 4 11
3 11 4 10
3 0 5 6
3 6 5 11
