ply
format ascii 1.0
comment Created by Open3D
element vertex 16
property double x
property double y
property double z
element face 14
property list uchar uint vertex_indices
end_header
-162.983 237.002 20.1
-162.964 235.315 20.1
-157.587 231.935 20.1
-155.804 233.265 20.1
-154.717 234.998 20.1
-148.796 231.28 20.1
-156.876 218.42 20.1
-162.661 222.051 20.1
-161.491 223.897 20.1
-161.207 225.676 20.1
-166.558 229.035 20.1
-168.545 228.557 20.1
-169.815 226.544 20.1
-175.438 230.066 20.1
-167.292 243.037 20.1
-161.481 239.384 20.1
3 12 11 13
3 1 10 2
3 11 10 1
3 14 13 0
3 1 0 13
3 13 11 1
3 14 0 15
3 2 10 9
3 9 8 6
3 6 5 9
3 8 7 6
3 9 5 2
3 4 3 5
3 2 5 3
