ply
format ascii 1.0
comment Created by Open3D
element vertex 18
property double x
property double y
property double z
element face 25
property list uchar uint vertex_indices
end_header
62.6947 -78.2864 0
54.4145 -91.3261 0
32.6683 -77.5193 0
34.6513 -74.3992 0
27.3856 -69.786 0
25.4026 -72.9061 0
3.41829 -58.9465 0
11.6986 -45.9069 0
37.2221 -62.113 0
62.6947 -78.2864 45.7
54.4145 -91.3261 45.7
32.6683 -77.5193 45.7
34.6513 -74.3992 45.7
27.3856 -69.786 45.7
25.4026 -72.9061 45.7
3.41829 -58.9465 45.7
11.6986 -45.9069 45.7
37.2221 -62.113 45.7
3 5 4 6
3 7 6 4
3 4 8 7
3 1 0 3
3 3 8 4
3 3 2 1
3 8 3 0
3 5 4 14
3 14 4 13
3 6 5 15
3 15 5 14
3 7 6 16
3 16 6 15
3 8 7 17
3 17 7 16
3 1 0 10
3 10 0 9
3 4 3 13
3 13 3 12
3 3 2 12
3 12 2 11
3 2 1 11
3 11 1 10
3 0 8 9
3 9 8 17
