ply
format ascii 1.0
comment Created by Open3D
element vertex 26
property double x
property double y
property double z
element face 24
property list uchar uint vertex_indices
end_header
126.675 63.4423 55.4
140.71 85.7738 55.4
139.042 86.8316 55.4
142.891 92.9596 55.4
143.699 92.4471 55.4
145.624 95.5111 55.4
121.974 110.373 55.4
122.994 111.994 55.4
120.663 113.455 55.4
120.381 113.008 55.4
114.103 116.955 55.4
118.035 123.217 55.4
121.455 121.069 55.4
122.351 122.489 55.4
121.483 123.035 55.4
126.012 130.236 55.4
162.023 107.611 55.4
158.829 102.534 55.4
167.523 97.0718 55.4
162.123 88.4724 55.4
160.992 89.1922 55.4
159.466 86.7545 55.4
160.597 86.0458 55.4
143.626 59.0399 55.4
141.941 60.0976 55.4
139.129 55.6245 55.4
3 24 0 25
3 15 7 16
3 11 10 12
3 8 10 9
3 12 10 8
3 12 8 7
3 15 14 13
3 7 13 12
3 7 15 13
3 21 1 24
3 24 1 0
3 21 24 23
3 22 21 23
3 1 21 4
3 3 2 4
3 4 21 5
3 5 7 6
3 20 18 17
3 18 20 19
3 17 16 5
3 20 17 5
3 21 20 5
3 5 16 7
3 4 2 1
