ply
format ascii 1.0
comment Created by Open3D
element vertex 12
property double x
property double y
property double z
element face 16
property list uchar uint vertex_indices
end_header
-231.204 -214.887 0
-236.487 -211.617 0
-234.023 -207.648 0
-231.029 -202.817 0
-227.372 -196.914 0
-222.089 -200.184 0
-231.204 -214.887 8.1
-236.487 -211.617 8.1
-234.023 -207.648 8.1
-231.029 -202.817 8.1
-227.372 -196.914 8.1
-222.089 -200.184 8.1
3 1 0 2
3 2 0 3
3 3 5 4
3 5 3 0
3 1 0 7
3 7 0 6
3 2 1 8
3 8 1 7
3 3 2 9
3 9 2 8
3 5 4 11
3 11 4 10
3 4 3 10
3 10 3 9
3 0 5 6
3 6 5 11
