ply
format ascii 1.0
comment Created by Open3D
element vertex 26
property double x
property double y
property double z
element face 37
property list uchar uint vertex_indices
end_header
-250.665 240.511 0
-248.649 239.246 0
-247.615 239.679 0
-245.719 238.546 0
-249.725 232.106 0
-251.621 233.283 0
-251.776 234.27 0
-253.792 235.535 0
-254.65 235.181 0
-259.89 238.463 0
-255.866 244.848 0
-253.119 243.114 0
-250.643 241.577 0
-250.665 240.511 17.1
-248.649 239.246 17.1
-247.615 239.679 17.1
-245.719 238.546 17.1
-249.725 232.106 17.1
-251.621 233.283 17.1
-251.776 234.27 17.1
-253.792 235.535 17.1
-254.65 235.181 17.1
-259.89 238.463 17.1
-255.866 244.848 17.1
-253.119 243.114 17.1
-250.643 241.577 17.1
3 11 7 0
3 8 7 9
3 9 11 10
3 11 9 7
3 7 6 0
3 6 4 1
3 1 4 3
3 12 11 0
3 2 1 3
3 6 1 0
3 5 4 6
3 8 7 21
3 21 7 20
3 9 8 22
3 22 8 21
3 11 10 24
3 24 10 23
3 10 9 23
3 23 9 22
3 7 6 20
3 20 6 19
3 4 3 17
3 17 3 16
3 12 11 25
3 25 11 24
3 0 12 13
3 13 12 25
3 2 1 15
3 15 1 14
3 3 2 16
3 16 2 15
3 1 0 14
3 14 0 13
3 5 4 18
3 18 4 17
3 6 5 19
3 19 5 18
