ply
format ascii 1.0
comment Created by Open3D
element vertex 10
property double x
property double y
property double z
element face 16
property list uchar uint vertex_indices
end_header
247.035 24.6748 0
247.334 25.1445 0
263.505 50.4761 0
270.022 46.3431 0
256.164 18.8841 0
247.035 24.6748 22.3
247.334 25.1445 22.3
263.505 50.4761 22.3
270.022 46.3431 22.3
256.164 18.8841 22.3
3 1 0 4
3 6 5 9
3 3 2 1
3 8 7 6
3 3 1 4
3 8 6 9
3 1 0 6
3 6 0 5
3 0 4 5
3 5 4 9
3 3 2 8
3 8 2 7
3 2 1 7
3 7 1 6
3 4 3 9
3 9 3 8
