ply
format ascii 1.0
comment Created by Open3D
element vertex 22
property double x
property double y
property double z
element face 40
property list uchar uint vertex_indices
end_header
-260.104 37.7007 0
-266.45 41.6807 0
-255.707 58.8114 0
-252.107 64.5589 0
-249.002 62.607 0
-254.684 53.5385 0
-255.314 53.931 0
-257.388 50.6323 0
-256.163 49.8691 0
-254.363 52.7428 0
-251.708 51.0744 0
-260.104 37.7007 12.9
-266.45 41.6807 12.9
-255.707 58.8114 12.9
-252.107 64.5589 12.9
-249.002 62.607 12.9
-254.684 53.5385 12.9
-255.314 53.931 12.9
-257.388 50.6323 12.9
-256.163 49.8691 12.9
-254.363 52.7428 12.9
-251.708 51.0744 12.9
3 1 0 8
3 12 11 19
3 2 7 6
3 13 18 17
3 8 7 1
3 19 18 12
3 7 2 1
3 18 13 12
3 0 10 8
3 11 21 19
3 10 9 8
3 21 20 19
3 4 3 2
3 15 14 13
3 2 5 4
3 13 16 15
3 2 6 5
3 13 17 16
3 1 0 12
3 12 0 11
3 7 6 18
3 18 6 17
3 8 7 19
3 19 7 18
3 2 1 13
3 13 1 12
3 0 10 11
3 11 10 21
3 10 9 21
3 21 9 20
3 9 8 20
3 20 8 19
3 4 3 15
3 15 3 14
3 3 2 14
3 14 2 13
3 5 4 16
3 16 4 15
3 6 5 17
3 17 5 16
