ply
format ascii 1.0
comment Created by Open3D
element vertex 16
property double x
property double y
property double z
element face 22
property list uchar uint vertex_indices
end_header
113.365 -86.5332 0
125.423 -94.4443 0
127.117 -91.8604 0
146.009 -104.256 0
137.772 -117.362 0
88.0818 -84.7462 0
96.3275 -71.6514 0
115.058 -83.9492 0
113.365 -86.5332 52.5
125.423 -94.4443 52.5
127.117 -91.8604 52.5
146.009 -104.256 52.5
137.772 -117.362 52.5
88.0818 -84.7462 52.5
96.3275 -71.6514 52.5
115.058 -83.9492 52.5
3 5 0 6
3 0 5 1
3 7 6 0
3 4 3 1
3 2 1 3
3 4 1 5
3 6 5 14
3 14 5 13
3 1 0 9
3 9 0 8
3 7 6 15
3 15 6 14
3 0 7 8
3 8 7 15
3 4 3 12
3 12 3 11
3 2 1 10
3 10 1 9
3 3 2 11
3 11 2 10
3 5 4 13
3 13 4 12
