ply
format ascii 1.0
comment Created by Open3D
element vertex 24
property double x
property double y
property double z
element face 34
property list uchar uint vertex_indices
end_header
-116.629 -16.5522 0
-117.691 -18.2186 0
-111.285 -22.2866 0
-117.624 -32.1954 0
-119.36 -31.0939 0
-123.459 -37.5021 0
-143.214 -24.96 0
-142.318 -23.562 0
-148.758 -19.4832 0
-142.319 -9.39571 0
-141.017 -10.2246 0
-136.851 -3.71569 0
-116.629 -16.5522 85
-117.691 -18.2186 85
-111.285 -22.2866 85
-117.624 -32.1954 85
-119.36 -31.0939 85
-123.459 -37.5021 85
-143.214 -24.96 85
-142.318 -23.562 85
-148.758 -19.4832 85
-142.319 -9.39571 85
-141.017 -10.2246 85
-136.851 -3.71569 85
3 7 6 5
3 8 7 10
3 10 9 8
3 1 11 10
3 10 7 1
3 4 3 2
3 4 1 7
3 2 1 4
3 1 0 11
3 4 7 5
3 7 6 19
3 19 6 18
3 6 5 18
3 18 5 17
3 8 7 20
3 20 7 19
3 10 9 22
3 22 9 21
3 9 8 21
3 21 8 20
3 11 10 23
3 23 10 22
3 4 3 16
3 16 3 15
3 3 2 15
3 15 2 14
3 2 1 14
3 14 1 13
3 1 0 13
3 13 0 12
3 0 11 12
3 12 11 23
3 5 4 17
3 17 4 16
