ply
format ascii 1.0
comment Created by Open3D
element vertex 28
property double x
property double y
property double z
element face 26
property list uchar uint vertex_indices
end_header
5.90743 64.7485 48.2
6.96103 66.4147 48.2
21.1173 57.4727 48.2
20.1136 55.8736 48.2
30.8925 49.0691 48.2
28.0719 44.596 48.2
29.6542 43.6038 48.2
25.0004 36.2232 48.2
23.452 37.2047 48.2
20.565 32.6309 48.2
9.35228 39.7081 48.2
8.48948 38.3438 48.2
-5.02878 46.8824 48.2
-4.17442 48.2466 48.2
-15.1404 55.1712 48.2
-14.236 56.5915 48.2
-20.4294 60.5064 48.2
-27.4309 64.9228 48.2
-28.36 63.4467 48.2
-44.711 73.7626 48.2
-45.6069 72.3425 48.2
-56.3176 79.1035 48.2
-44.1806 98.3266 48.2
-41.186 96.429 48.2
-28.7653 88.5884 48.2
-29.6446 87.1906 48.2
-17.8961 79.7753 48.2
-11.1561 75.3337 48.2
3 19 18 17
3 20 19 21
3 15 14 13
3 17 16 27
3 15 27 16
3 19 17 25
3 21 23 22
3 21 19 23
3 23 19 25
3 25 24 23
3 17 26 25
3 17 27 26
3 15 0 27
3 10 9 8
3 11 10 12
3 8 7 6
3 6 5 8
3 10 8 3
3 3 8 5
3 13 0 15
3 12 10 13
3 13 10 0
3 10 3 0
3 2 1 3
3 3 1 0
3 5 4 3
