ply
format ascii 1.0
comment Created by Open3D
element vertex 12
property double x
property double y
property double z
element face 16
property list uchar uint vertex_indices
end_header
162.906 -38.2495 0
158.661 -35.5558 0
159.847 -33.6771 0
130.98 -15.3669 0
135.85 -7.69513 0
168.963 -28.71 0
162.906 -38.2495 21.5
158.661 -35.5558 21.5
159.847 -33.6771 21.5
130.98 -15.3669 21.5
135.85 -7.69513 21.5
168.963 -28.71 21.5
3 4 3 2
3 2 0 5
3 0 2 1
3 2 5 4
3 4 3 10
3 10 3 9
3 3 2 9
3 9 2 8
3 0 5 6
3 6 5 11
3 2 1 8
3 8 1 7
3 1 0 7
3 7 0 6
3 5 4 11
3 11 4 10
