ply
format ascii 1.0
comment Created by Open3D
element vertex 18
property double x
property double y
property double z
element face 18
property list uchar uint vertex_indices
end_header
192.324 190.458 67.3
222.293 171.783 67.3
208.418 149.509 67.3
206.929 150.436 67.3
185.93 116.756 67.3
161.099 132.236 67.3
161.522 132.918 67.3
134.326 149.871 67.3
168.023 203.936 67.3
169.665 202.911 67.3
191.578 189.262 67.3
185.886 169.246 67.3
180.977 172.421 67.3
185.508 179.411 67.3
171.485 188.499 67.3
164.008 176.956 67.3
175.75 169.352 67.3
182.94 164.694 67.3
3 7 6 15
3 5 4 6
3 15 6 16
3 15 8 7
3 8 15 14
3 9 14 10
3 14 9 8
3 16 6 17
3 17 4 3
3 4 17 6
3 3 2 1
3 17 3 11
3 13 11 10
3 13 12 11
3 10 1 0
3 1 10 11
3 11 3 1
3 13 10 14
