ply
format ascii 1.0
comment Created by Open3D
element vertex 11
property double x
property double y
property double z
element face 9
property list uchar uint vertex_indices
end_header
86.1662 -41.3144 19.8
76.9141 -55.7752 19.8
61.6586 -46.0132 19.8
62.5796 -44.5705 19.8
49.162 -35.9865 19.8
48.8634 -36.4673 19.8
48.2252 -36.0527 19.8
44.707 -41.5552 19.8
22.9172 -27.6156 19.8
35.0737 -8.62533 19.8
46.4919 -15.9333 19.8
3 7 6 8
3 8 10 9
3 10 8 6
3 6 4 10
3 2 1 3
3 3 1 0
3 3 0 10
3 3 10 4
3 5 4 6
