ply
format ascii 1.0
comment Created by Open3D
element vertex 12
property double x
property double y
property double z
element face 16
property list uchar uint vertex_indices
end_header
-141.595 -117.289 0
-147.453 -126.526 0
-169.148 -112.785 0
-163.298 -103.548 0
-153.072 -110.015 0
-142.54 -116.689 0
-141.595 -117.289 29.5
-147.453 -126.526 29.5
-169.148 -112.785 29.5
-163.298 -103.548 29.5
-153.072 -110.015 29.5
-142.54 -116.689 29.5
3 2 4 3
3 4 2 1
3 1 0 5
3 1 5 4
3 4 3 10
3 10 3 9
3 3 2 9
3 9 2 8
3 2 1 8
3 8 1 7
3 1 0 7
3 7 0 6
3 0 5 6
3 6 5 11
3 5 4 11
3 11 4 10
