ply
format ascii 1.0
comment Created by Open3D
element vertex 15
property double x
property double y
property double z
element face 13
property list uchar uint vertex_indices
end_header
125.508 21.4962 29
116.805 26.9588 29
118.091 29.0052 29
113.275 32.0365 29
111.99 29.9901 29
106.766 33.261 29
93.1551 41.8094 29
88.7142 44.6119 29
90.0332 46.7031 29
85.703 49.4291 29
84.3841 47.3268 29
79.3055 50.5106 29
74.3288 53.64 29
81.5538 65.1356 29
132.724 32.9806 29
3 8 7 6
3 12 11 13
3 13 9 8
3 9 13 11
3 11 10 9
3 8 14 13
3 2 0 14
3 0 2 1
3 5 3 8
3 14 8 3
3 14 3 2
3 5 4 3
3 8 6 5
