ply
format ascii 1.0
comment Created by Open3D
element vertex 32
property double x
property double y
property double z
element face 46
property list uchar uint vertex_indices
end_header
-162.983 237.002 0
-162.964 235.315 0
-157.587 231.935 0
-155.804 233.265 0
-154.717 234.998 0
-148.796 231.28 0
-156.876 218.42 0
-162.661 222.051 0
-161.491 223.897 0
-161.207 225.676 0
-166.558 229.035 0
-168.545 228.557 0
-169.815 226.544 0
-175.438 230.066 0
-167.292 243.037 0
-161.481 239.384 0
-162.983 237.002 20.1
-162.964 235.315 20.1
-157.587 231.935 20.1
-155.804 233.265 20.1
-154.717 234.998 20.1
-148.796 231.28 20.1
-156.876 218.42 20.1
-162.661 222.051 20.1
-161.491 223.897 20.1
-161.207 225.676 20.1
-166.558 229.035 20.1
-168.545 228.557 20.1
-169.815 226.544 20.1
-175.438 230.066 20.1
-167.292 243.037 20.1
-161.481 239.384 20.1
3 12 11 13
3 1 10 2
3 11 10 1
3 14 13 0
3 1 0 13
3 13 11 1
3 14 0 15
3 2 10 9
3 9 8 6
3 6 5 9
3 8 7 6
3 9 5 2
3 4 3 5
3 2 5 3
3 12 11 28
3 28 11 27
3 13 12 29
3 29 12 28
3 2 1 18
3 18 1 17
3 11 10 27
3 27 10 26
3 14 13 30
3 30 13 29
3 1 0 17
3 17 0 16
3 0 15 16
3 16 15 31
3 15 14 31
3 31 14 30
3 10 9 26
3 26 9 25
3 9 8 25
3 25 8 24
3 6 5 22
3 22 5 21
3 8 7 24
3 24 7 23
3 7 6 23
3 23 6 22
3 4 3 20
3 20 3 19
3 5 4 21
3 21 4 20
3 3 2 19
3 19 2 18
