ply
format ascii 1.0
comment Created by Open3D
element vertex 18
property double x
property double y
property double z
element face 25
property list uchar uint vertex_indices
end_header
279.693 106.727 0
284.347 114.064 0
278.945 117.466 0
271.221 122.329 0
266.618 125.229 0
232.325 146.807 0
239.626 158.315 0
311.036 113.382 0
299.081 94.5374 0
279.693 106.727 50.5
284.347 114.064 50.5
278.945 117.466 50.5
271.221 122.329 50.5
266.618 125.229 50.5
232.325 146.807 50.5
239.626 158.315 50.5
311.036 113.382 50.5
299.081 94.5374 50.5
3 6 4 7
3 6 5 4
3 4 3 7
3 0 8 1
3 2 1 7
3 7 1 8
3 2 7 3
3 7 6 16
3 16 6 15
3 6 5 15
3 15 5 14
3 5 4 14
3 14 4 13
3 4 3 13
3 13 3 12
3 0 8 9
3 9 8 17
3 1 0 10
3 10 0 9
3 2 1 11
3 11 1 10
3 8 7 17
3 17 7 16
3 3 2 12
3 12 2 11
