ply
format ascii 1.0
comment Created by Open3D
element vertex 20
property double x
property double y
property double z
element face 28
property list uchar uint vertex_indices
end_header
124.906 -137.815 0
105.06 -124.786 0
105.442 -124.205 0
104.388 -122.14 0
99.1629 -118.703 0
97.495 -117.612 0
95.1462 -118.283 0
75.2156 -105.199 0
79.9939 -97.6173 0
130.074 -129.596 0
124.906 -137.815 29.5
105.06 -124.786 29.5
105.442 -124.205 29.5
104.388 -122.14 29.5
99.1629 -118.703 29.5
97.495 -117.612 29.5
95.1462 -118.283 29.5
75.2156 -105.199 29.5
79.9939 -97.6173 29.5
130.074 -129.596 29.5
3 6 8 7
3 8 6 5
3 8 5 4
3 4 9 8
3 0 9 2
3 2 1 0
3 3 2 9
3 9 4 3
3 8 7 18
3 18 7 17
3 7 6 17
3 17 6 16
3 6 5 16
3 16 5 15
3 5 4 15
3 15 4 14
3 9 8 19
3 19 8 18
3 0 9 10
3 10 9 19
3 2 1 12
3 12 1 11
3 1 0 11
3 11 0 10
3 3 2 13
3 13 2 12
3 4 3 14
3 14 3 13
