ply
format ascii 1.0
comment Created by Open3D
element vertex 12
property double x
property double y
property double z
element face 16
property list uchar uint vertex_indices
end_header
-253.518 234.472 0
-256.529 229.664 0
-269.752 208.575 0
-276.115 212.565 0
-259.89 238.463 0
-254.65 235.181 0
-253.518 234.472 18.4
-256.529 229.664 18.4
-269.752 208.575 18.4
-276.115 212.565 18.4
-259.89 238.463 18.4
-254.65 235.181 18.4
3 4 3 1
3 1 3 2
3 1 0 5
3 1 5 4
3 4 3 10
3 10 3 9
3 3 2 9
3 9 2 8
3 2 1 8
3 8 1 7
3 1 0 7
3 7 0 6
3 0 5 6
3 6 5 11
3 5 4 11
3 11 4 10
