ply
format ascii 1.0
comment Created by Open3D
element vertex 18
property double x
property double y
property double z
element face 25
property list uchar uint vertex_indices
end_header
-191.764 -198.24 0
-194.921 -199.098 0
-206.092 -192.02 0
-205.735 -191.461 0
-192.759 -170.962 0
-192.435 -170.448 0
-187.858 -173.349 0
-185.85 -170.173 0
-177.385 -175.539 0
-191.764 -198.24 28.1
-194.921 -199.098 28.1
-206.092 -192.02 28.1
-205.735 -191.461 28.1
-192.759 -170.962 28.1
-192.435 -170.448 28.1
-187.858 -173.349 28.1
-185.85 -170.173 28.1
-177.385 -175.539 28.1
3 2 1 3
3 6 4 3
3 3 1 0
3 0 8 6
3 5 4 6
3 7 6 8
3 6 3 0
3 2 1 11
3 11 1 10
3 3 2 12
3 12 2 11
3 4 3 13
3 13 3 12
3 1 0 10
3 10 0 9
3 0 8 9
3 9 8 17
3 5 4 14
3 14 4 13
3 6 5 15
3 15 5 14
3 7 6 16
3 16 6 15
3 8 7 17
3 17 7 16
