ply
format ascii 1.0
comment Created by Open3D
element vertex 27
property double x
property double y
property double z
element face 25
property list uchar uint vertex_indices
end_header
-57.8972 105.02 48.3
-57.0179 106.418 48.3
-44.1806 98.3266 48.3
-56.3176 79.1035 48.3
-64.3145 84.1525 48.3
-63.4185 85.5727 48.3
-79.6929 95.8452 48.3
-78.913 97.0753 48.3
-86.4526 102.03 48.3
-91.9546 105.309 48.3
-92.693 104.146 48.3
-104.016 111.299 48.3
-105.02 109.7 48.3
-118.376 118.13 48.3
-117.372 119.729 48.3
-128.712 126.883 48.3
-125.966 131.233 48.3
-127.404 132.138 48.3
-122.584 139.775 48.3
-121.146 138.859 48.3
-118.401 143.22 48.3
-107.333 136.23 48.3
-106.337 137.818 48.3
-92.2663 128.93 48.3
-93.2618 127.354 48.3
-76.9775 116.937 48.3
-71.0239 113.308 48.3
3 14 13 11
3 16 15 14
3 11 9 24
3 14 11 21
3 12 11 13
3 24 21 11
3 18 17 19
3 19 17 16
3 23 22 21
3 20 19 21
3 21 19 16
3 16 14 21
3 21 24 23
3 7 6 5
3 26 8 7
3 4 3 5
3 7 5 0
3 2 5 3
3 2 0 5
3 25 24 9
3 9 11 10
3 1 0 2
3 9 8 25
3 26 25 8
3 7 0 26
