ply
format ascii 1.0
comment Created by Open3D
element vertex 24
property double x
property double y
property double z
element face 36
property list uchar uint vertex_indices
end_header
17.8122 -271.288 0
18.9255 -269.665 0
6.90384 -260.577 0
5.09283 -263.229 0
-15.8831 -248.858 0
0.298526 -222.838 0
48.5007 -260.446 0
34.6084 -282.798 0
12.3682 -250.189 0
24.5387 -258.999 0
26.4043 -256.69 0
14.7168 -247.276 0
17.8122 -271.288 52.8
18.9255 -269.665 52.8
6.90384 -260.577 52.8
5.09283 -263.229 52.8
-15.8831 -248.858 52.8
0.298526 -222.838 52.8
48.5007 -260.446 52.8
34.6084 -282.798 52.8
12.3682 -250.189 52.8
24.5387 -258.999 52.8
26.4043 -256.69 52.8
14.7168 -247.276 52.8
3 4 3 2
3 4 2 8
3 8 5 4
3 5 8 11
3 5 11 6
3 8 2 9
3 0 7 1
3 1 7 9
3 1 9 2
3 9 6 10
3 6 9 7
3 10 6 11
3 4 3 16
3 16 3 15
3 3 2 15
3 15 2 14
3 5 4 17
3 17 4 16
3 8 11 20
3 20 11 23
3 6 5 18
3 18 5 17
3 9 8 21
3 21 8 20
3 0 7 12
3 12 7 19
3 1 0 13
3 13 0 12
3 2 1 14
3 14 1 13
3 10 9 22
3 22 9 21
3 7 6 19
3 19 6 18
3 11 10 23
3 23 10 22
