ply
format ascii 1.0
comment Created by Open3D
element vertex 18
property double x
property double y
property double z
element face 25
property list uchar uint vertex_indices
end_header
180.396 251.916 0
165.091 227.661 0
146.801 239.197 0
160.082 260.243 0
160.677 259.873 0
161.083 260.521 0
166.545 257.076 0
168.163 259.637 0
169.575 258.753 0
180.396 251.916 32.4
165.091 227.661 32.4
146.801 239.197 32.4
160.082 260.243 32.4
160.677 259.873 32.4
161.083 260.521 32.4
166.545 257.076 32.4
168.163 259.637 32.4
169.575 258.753 32.4
3 2 4 3
3 4 2 6
3 4 6 5
3 1 0 6
3 6 8 7
3 8 6 0
3 1 6 2
3 4 3 13
3 13 3 12
3 3 2 12
3 12 2 11
3 6 5 15
3 15 5 14
3 5 4 14
3 14 4 13
3 1 0 10
3 10 0 9
3 8 7 17
3 17 7 16
3 7 6 16
3 16 6 15
3 0 8 9
3 9 8 17
3 2 1 11
3 11 1 10
