ply
format ascii 1.0
comment Created by Open3D
element vertex 20
property double x
property double y
property double z
element face 28
property list uchar uint vertex_indices
end_header
-162.596 -237.043 0
-162.836 -237.423 0
-169.506 -248.09 0
-173.215 -245.768 0
-175.049 -246.355 0
-177.247 -249.877 0
-198.481 -236.597 0
-192.06 -226.332 0
-178.772 -234.651 0
-175.297 -229.094 0
-162.596 -237.043 28.9
-162.836 -237.423 28.9
-169.506 -248.09 28.9
-173.215 -245.768 28.9
-175.049 -246.355 28.9
-177.247 -249.877 28.9
-198.481 -236.597 28.9
-192.06 -226.332 28.9
-178.772 -234.651 28.9
-175.297 -229.094 28.9
3 6 5 8
3 8 7 6
3 1 9 8
3 8 5 4
3 0 9 1
3 1 3 2
3 8 3 1
3 8 4 3
3 6 5 16
3 16 5 15
3 8 7 18
3 18 7 17
3 7 6 17
3 17 6 16
3 9 8 19
3 19 8 18
3 5 4 15
3 15 4 14
3 0 9 10
3 10 9 19
3 1 0 11
3 11 0 10
3 3 2 13
3 13 2 12
3 2 1 12
3 12 1 11
3 4 3 14
3 14 3 13
