ply
format ascii 1.0
comment Created by Open3D
element vertex 18
property double x
property double y
property double z
element face 16
property list uchar uint vertex_indices
end_header
-190.482 177.637 20.5
-194.074 171.923 20.5
-195.919 173.078 20.5
-196.77 172.835 20.5
-198.014 170.845 20.5
-193.658 168.108 20.5
-196.504 163.579 20.5
-197.093 162.64 20.5
-211.929 171.963 20.5
-208.561 177.32 20.5
-205.064 175.117 20.5
-204.332 175.325 20.5
-203.146 177.215 20.5
-203.434 178.044 20.5
-206.785 180.149 20.5
-203.31 185.695 20.5
-198.019 182.369 20.5
-191.962 178.563 20.5
3 9 8 10
3 11 10 4
3 16 12 3
3 10 8 4
3 13 16 15
3 16 13 12
3 13 15 14
3 12 11 3
3 4 7 6
3 7 4 8
3 6 5 4
3 2 17 16
3 1 0 17
3 1 17 2
3 2 16 3
3 4 3 11
