ply
format ascii 1.0
comment Created by Open3D
element vertex 16
property double x
property double y
property double z
element face 22
property list uchar uint vertex_indices
end_header
-135.954 243.428 0
-151.3 253.067 0
-150.868 253.738 0
-152.153 254.545 0
-153.538 252.331 0
-159.212 255.897 0
-155.247 262.226 0
-132.943 248.225 0
-135.954 243.428 20.2
-151.3 253.067 20.2
-150.868 253.738 20.2
-152.153 254.545 20.2
-153.538 252.331 20.2
-159.212 255.897 20.2
-155.247 262.226 20.2
-132.943 248.225 20.2
3 4 3 5
3 6 5 3
3 3 2 6
3 0 7 2
3 2 1 0
3 7 6 2
3 4 3 12
3 12 3 11
3 5 4 13
3 13 4 12
3 6 5 14
3 14 5 13
3 3 2 11
3 11 2 10
3 0 7 8
3 8 7 15
3 2 1 10
3 10 1 9
3 1 0 9
3 9 0 8
3 7 6 15
3 15 6 14
