ply
format ascii 1.0
comment Created by Open3D
element vertex 16
property double x
property double y
property double z
element face 24
property list uchar uint vertex_indices
end_header
0.364946 -222.738 0
14.0829 -200.654 0
63.2721 -236.685 0
48.6165 -260.233 0
42.2072 -233.75 0
30.2636 -224.839 0
26.1373 -230.359 0
38.0726 -239.282 0
0.364946 -222.738 52.5
14.0829 -200.654 52.5
63.2721 -236.685 52.5
48.6165 -260.233 52.5
42.2072 -233.75 52.5
30.2636 -224.839 52.5
26.1373 -230.359 52.5
38.0726 -239.282 52.5
3 6 5 0
3 1 0 5
3 5 2 1
3 6 0 3
3 7 3 2
3 3 7 6
3 4 2 5
3 2 4 7
3 6 5 14
3 14 5 13
3 1 0 9
3 9 0 8
3 2 1 10
3 10 1 9
3 0 3 8
3 8 3 11
3 3 2 11
3 11 2 10
3 7 6 15
3 15 6 14
3 5 4 13
3 13 4 12
3 4 7 12
3 12 7 15
