ply
format ascii 1.0
comment Created by Open3D
element vertex 40
property double x
property double y
property double z
element face 58
property list uchar uint vertex_indices
end_header
-248.646 100.358 0
-243.534 97.1525 0
-244.322 95.9001 0
-241.447 94.101 0
-240.75 95.208 0
-238.189 93.6052 0
-236.604 93.8342 0
-231.585 90.6939 0
-235.758 84.0406 0
-241.007 87.3337 0
-241.319 88.8178 0
-243.837 90.3989 0
-243.439 91.0252 0
-246.374 92.868 0
-246.888 92.0406 0
-251.949 95.2248 0
-253.267 95.2542 0
-258.099 98.2855 0
-254.035 104.782 0
-248.752 101.467 0
-248.646 100.358 20.8
-243.534 97.1525 20.8
-244.322 95.9001 20.8
-241.447 94.101 20.8
-240.75 95.208 20.8
-238.189 93.6052 20.8
-236.604 93.8342 20.8
-231.585 90.6939 20.8
-235.758 84.0406 20.8
-241.007 87.3337 20.8
-241.319 88.8178 20.8
-243.837 90.3989 20.8
-243.439 91.0252 20.8
-246.374 92.868 20.8
-246.888 92.0406 20.8
-251.949 95.2248 20.8
-253.267 95.2542 20.8
-258.099 98.2855 20.8
-254.035 104.782 20.8
-248.752 101.467 20.8
3 16 15 0
3 2 13 12
3 14 13 15
3 15 13 2
3 17 16 18
3 0 19 18
3 18 16 0
3 1 0 2
3 15 2 0
3 3 12 10
3 12 11 10
3 6 9 8
3 10 9 6
3 8 7 6
3 5 4 3
3 6 5 10
3 3 10 5
3 3 2 12
3 16 15 36
3 36 15 35
3 13 12 33
3 33 12 32
3 14 13 34
3 34 13 33
3 15 14 35
3 35 14 34
3 17 16 37
3 37 16 36
3 18 17 38
3 38 17 37
3 0 19 20
3 20 19 39
3 19 18 39
3 39 18 38
3 1 0 21
3 21 0 20
3 2 1 22
3 22 1 21
3 12 11 32
3 32 11 31
3 11 10 31
3 31 10 30
3 9 8 29
3 29 8 28
3 10 9 30
3 30 9 29
3 8 7 28
3 28 7 27
3 7 6 27
3 27 6 26
3 5 4 25
3 25 4 24
3 4 3 24
3 24 3 23
3 6 5 26
3 26 5 25
3 3 2 23
3 23 2 22
