ply
format ascii 1.0
comment Created by Open3D
element vertex 16
property double x
property double y
property double z
element face 22
property list uchar uint vertex_indices
end_header
-55.718 -219.837 0
-68.1391 -211.996 0
-70.0142 -214.948 0
-87.523 -203.879 0
-79.3509 -190.952 0
-28.2453 -223.253 0
-36.4172 -236.192 0
-57.593 -222.8 0
-55.718 -219.837 56.2
-68.1391 -211.996 56.2
-70.0142 -214.948 56.2
-87.523 -203.879 56.2
-79.3509 -190.952 56.2
-28.2453 -223.253 56.2
-36.4172 -236.192 56.2
-57.593 -222.8 56.2
3 2 1 3
3 4 3 1
3 1 0 4
3 6 5 0
3 0 7 6
3 5 4 0
3 2 1 10
3 10 1 9
3 3 2 11
3 11 2 10
3 4 3 12
3 12 3 11
3 1 0 9
3 9 0 8
3 6 5 14
3 14 5 13
3 0 7 8
3 8 7 15
3 7 6 15
3 15 6 14
3 5 4 13
3 13 4 12
