ply
format ascii 1.0
comment Created by Open3D
element vertex 18
property double x
property double y
property double z
element face 25
property list uchar uint vertex_indices
end_header
-253.672 -91.7545 0
-258.605 -88.691 0
-262.155 -94.3935 0
-257.205 -97.4679 0
-261.443 -104.3 0
-285.728 -89.2329 0
-273.793 -70.0458 0
-249.541 -85.1239 0
-249.79 -85.5153 0
-253.672 -91.7545 23.7
-258.605 -88.691 23.7
-262.155 -94.3935 23.7
-257.205 -97.4679 23.7
-261.443 -104.3 23.7
-285.728 -89.2329 23.7
-273.793 -70.0458 23.7
-249.541 -85.1239 23.7
-249.79 -85.5153 23.7
3 2 4 3
3 4 2 5
3 6 5 2
3 2 1 6
3 1 8 7
3 8 1 0
3 1 7 6
3 4 3 13
3 13 3 12
3 3 2 12
3 12 2 11
3 5 4 14
3 14 4 13
3 6 5 15
3 15 5 14
3 2 1 11
3 11 1 10
3 8 7 17
3 17 7 16
3 1 0 10
3 10 0 9
3 0 8 9
3 9 8 17
3 7 6 16
3 16 6 15
