ply
format ascii 1.0
comment Created by Open3D
element vertex 40
property double x
property double y
property double z
element face 58
property list uchar uint vertex_indices
end_header
242.172 207.427 0
239.569 209.04 0
238.018 206.536 0
240.519 204.988 0
229.464 187.209 0
198.458 206.482 0
196.812 213.036 0
188.476 213.029 0
185.926 215.975 0
181.338 223.483 0
184.937 229.264 0
192.922 230.411 0
190.898 239.78 0
206.354 230.165 0
206.122 229.784 0
215.02 224.258 0
218.295 229.524 0
222.651 226.81 0
221.672 225.244 0
244.444 211.083 0
242.172 207.427 22.9
239.569 209.04 22.9
238.018 206.536 22.9
240.519 204.988 22.9
229.464 187.209 22.9
198.458 206.482 22.9
196.812 213.036 22.9
188.476 213.029 22.9
185.926 215.975 22.9
181.338 223.483 22.9
184.937 229.264 22.9
192.922 230.411 22.9
190.898 239.78 22.9
206.354 230.165 22.9
206.122 229.784 22.9
215.02 224.258 22.9
218.295 229.524 22.9
222.651 226.81 22.9
221.672 225.244 22.9
244.444 211.083 22.9
3 10 9 8
3 14 6 15
3 7 6 8
3 11 8 6
3 11 14 13
3 11 10 8
3 11 13 12
3 6 14 11
3 15 6 5
3 2 15 5
3 2 4 3
3 1 0 19
3 2 1 18
3 16 15 18
3 19 18 1
3 18 15 2
3 18 17 16
3 2 5 4
3 10 9 30
3 30 9 29
3 9 8 29
3 29 8 28
3 15 14 35
3 35 14 34
3 7 6 27
3 27 6 26
3 8 7 28
3 28 7 27
3 14 13 34
3 34 13 33
3 11 10 31
3 31 10 30
3 13 12 33
3 33 12 32
3 12 11 32
3 32 11 31
3 6 5 26
3 26 5 25
3 4 3 24
3 24 3 23
3 3 2 23
3 23 2 22
3 1 0 21
3 21 0 20
3 0 19 20
3 20 19 39
3 2 1 22
3 22 1 21
3 16 15 36
3 36 15 35
3 19 18 39
3 39 18 38
3 18 17 38
3 38 17 37
3 17 16 37
3 37 16 36
3 5 4 25
3 25 4 24
