ply
format ascii 1.0
comment Created by Open3D
element vertex 14
property double x
property double y
property double z
element face 19
property list uchar uint vertex_indices
end_header
-132.78 240.666 0
-126.01 251.346 0
-124.617 249.852 0
-125.222 248.901 0
-122.381 247.102 0
-128.263 237.809 0
-132.066 240.208 0
-132.78 240.666 12.5
-126.01 251.346 12.5
-124.617 249.852 12.5
-125.222 248.901 12.5
-122.381 247.102 12.5
-128.263 237.809 12.5
-132.066 240.208 12.5
3 3 0 6
3 3 6 5
3 4 3 5
3 2 1 3
3 3 1 0
3 0 6 7
3 7 6 13
3 6 5 13
3 13 5 12
3 4 3 11
3 11 3 10
3 5 4 12
3 12 4 11
3 2 1 9
3 9 1 8
3 3 2 10
3 10 2 9
3 1 0 8
3 8 0 7
