ply
format ascii 1.0
comment Created by Open3D
element vertex 56
property double x
property double y
property double z
element face 108
property list uchar uint vertex_indices
end_header
139.37 221.338 0
138.001 219.179 0
138.623 217.976 0
135.845 213.504 0
134.477 213.51 0
111.637 176.79 0
109.655 178.021 0
109.456 177.708 0
111.452 174.489 0
108.632 169.95 0
108.04 170.043 0
106.697 167.84 0
91.6749 177.161 0
92.2886 178.145 0
91.6677 178.526 0
90.314 181.686 0
93.1089 186.181 0
96.9622 186.003 0
97.178 186.339 0
94.8813 187.767 0
116.004 221.725 0
119.041 219.84 0
119.232 220.141 0
117.346 224.827 0
120.422 229.77 0
123.727 229.607 0
124.203 229.302 0
124.875 230.387 0
139.37 221.338 49.6
138.001 219.179 49.6
138.623 217.976 49.6
135.845 213.504 49.6
134.477 213.51 49.6
111.637 176.79 49.6
109.655 178.021 49.6
109.456 177.708 49.6
111.452 174.489 49.6
108.632 169.95 49.6
108.04 170.043 49.6
106.697 167.84 49.6
91.6749 177.161 49.6
92.2886 178.145 49.6
91.6677 178.526 49.6
90.314 181.686 49.6
93.1089 186.181 49.6
96.9622 186.003 49.6
97.178 186.339 49.6
94.8813 187.767 49.6
116.004 221.725 49.6
119.041 219.84 49.6
119.232 220.141 49.6
117.346 224.827 49.6
120.422 229.77 49.6
123.727 229.607 49.6
124.203 229.302 49.6
124.875 230.387 49.6
3 13 12 11
3 41 40 39
3 10 13 11
3 38 41 39
3 8 7 10
3 36 35 38
3 13 10 7
3 41 38 35
3 8 10 9
3 36 38 37
3 17 7 6
3 45 35 34
3 15 14 13
3 43 42 41
3 15 13 17
3 43 41 45
3 17 16 15
3 45 44 43
3 19 18 20
3 47 46 48
3 13 7 17
3 41 35 45
3 6 18 17
3 34 46 45
3 6 21 18
3 34 49 46
3 21 4 22
3 49 32 50
3 21 6 4
3 49 34 32
3 21 20 18
3 49 48 46
3 4 3 1
3 32 31 29
3 2 1 3
3 30 29 31
3 22 4 26
3 50 32 54
3 26 4 1
3 54 32 29
3 23 26 24
3 51 54 52
3 26 0 27
3 54 28 55
3 23 22 26
3 51 50 54
3 26 25 24
3 54 53 52
3 1 0 26
3 29 28 54
3 6 5 4
3 34 33 32
3 13 12 41
3 41 12 40
3 12 11 40
3 40 11 39
3 11 10 39
3 39 10 38
3 8 7 36
3 36 7 35
3 10 9 38
3 38 9 37
3 9 8 37
3 37 8 36
3 7 6 35
3 35 6 34
3 15 14 43
3 43 14 42
3 14 13 42
3 42 13 41
3 17 16 45
3 45 16 44
3 16 15 44
3 44 15 43
3 19 18 47
3 47 18 46
3 20 19 48
3 48 19 47
3 18 17 46
3 46 17 45
3 22 21 50
3 50 21 49
3 21 20 49
3 49 20 48
3 4 3 32
3 32 3 31
3 2 1 30
3 30 1 29
3 3 2 31
3 31 2 30
3 24 23 52
3 52 23 51
3 0 27 28
3 28 27 55
3 27 26 55
3 55 26 54
3 23 22 51
3 51 22 50
3 26 25 54
3 54 25 53
3 25 24 53
3 53 24 52
3 1 0 29
3 29 0 28
3 6 5 34
3 34 5 33
3 5 4 33
3 33 4 32
