ply
format ascii 1.0
comment Created by Open3D
element vertex 14
property double x
property double y
property double z
element face 19
property list uchar uint vertex_indices
end_header
-133.265 -104.127 0
-137.414 -110.68 0
-138.358 -110.08 0
-148.891 -103.406 0
-160.172 -96.2624 0
-156.015 -89.7092 0
-155.649 -89.9492 0
-133.265 -104.127 15.2
-137.414 -110.68 15.2
-138.358 -110.08 15.2
-148.891 -103.406 15.2
-160.172 -96.2624 15.2
-156.015 -89.7092 15.2
-155.649 -89.9492 15.2
3 4 6 5
3 6 4 3
3 2 1 0
3 3 0 6
3 0 3 2
3 6 5 13
3 13 5 12
3 5 4 12
3 12 4 11
3 4 3 11
3 11 3 10
3 2 1 9
3 9 1 8
3 1 0 8
3 8 0 7
3 0 6 7
3 7 6 13
3 3 2 10
3 10 2 9
