ply
format ascii 1.0
comment Created by Open3D
element vertex 12
property double x
property double y
property double z
element face 10
property list uchar uint vertex_indices
end_header
-65.31 16.7179 85
-58.7082 12.5412 85
-71.5863 -7.62293 85
-73.0922 -6.66313 85
-77.1084 -12.9484 85
-87.1475 -6.57927 85
-86.2927 -5.24836 85
-92.5203 -1.30045 85
-79.5839 18.942 85
-78.2651 18.1022 85
-74.1494 24.544 85
-64.2976 18.2949 85
3 5 4 6
3 9 6 3
3 7 9 8
3 9 7 6
3 6 4 3
3 3 2 1
3 3 1 0
3 10 0 11
3 10 9 0
3 0 9 3
