ply
format ascii 1.0
comment Created by Open3D
element vertex 30
property double x
property double y
property double z
element face 43
property list uchar uint vertex_indices
end_header
109.236 -162.708 0
108.509 -163.382 0
107.61 -163.792 0
107.121 -163.898 0
106.132 -163.865 0
101.343 -162.376 0
102.395 -159.045 0
95.7657 -156.955 0
94.7144 -160.298 0
58.3411 -148.89 0
49.5164 -146.071 0
62.6065 -125.249 0
114.893 -153.717 0
114.479 -154.388 0
113.691 -155.64 0
109.236 -162.708 31
108.509 -163.382 31
107.61 -163.792 31
107.121 -163.898 31
106.132 -163.865 31
101.343 -162.376 31
102.395 -159.045 31
95.7657 -156.955 31
94.7144 -160.298 31
58.3411 -148.89 31
49.5164 -146.071 31
62.6065 -125.249 31
114.893 -153.717 31
114.479 -154.388 31
113.691 -155.64 31
3 6 5 4
3 10 9 11
3 12 11 7
3 7 11 9
3 9 8 7
3 7 6 12
3 4 3 2
3 4 2 0
3 0 2 1
3 6 14 13
3 6 13 12
3 6 0 14
3 4 0 6
3 6 5 21
3 21 5 20
3 5 4 20
3 20 4 19
3 10 9 25
3 25 9 24
3 11 10 26
3 26 10 25
3 12 11 27
3 27 11 26
3 9 8 24
3 24 8 23
3 8 7 23
3 23 7 22
3 7 6 22
3 22 6 21
3 4 3 19
3 19 3 18
3 3 2 18
3 18 2 17
3 2 1 17
3 17 1 16
3 1 0 16
3 16 0 15
3 14 13 29
3 29 13 28
3 13 12 28
3 28 12 27
3 0 14 15
3 15 14 29
