ply
format ascii 1.0
comment Created by Open3D
element vertex 12
property double x
property double y
property double z
element face 16
property list uchar uint vertex_indices
end_header
-123.054 86.9129 0
-132.003 72.4891 0
-127.171 69.5133 0
-139.18 50.1586 0
-170.167 69.234 0
-149.209 103.012 0
-123.054 86.9129 5.1
-132.003 72.4891 5.1
-127.171 69.5133 5.1
-139.18 50.1586 5.1
-170.167 69.234 5.1
-149.209 103.012 5.1
3 5 4 1
3 1 4 3
3 2 1 3
3 1 0 5
3 5 4 11
3 11 4 10
3 4 3 10
3 10 3 9
3 2 1 8
3 8 1 7
3 3 2 9
3 9 2 8
3 1 0 7
3 7 0 6
3 0 5 6
3 6 5 11
