ply
format ascii 1.0
comment Created by Open3D
element vertex 13
property double x
property double y
property double z
element face 11
property list uchar uint vertex_indices
end_header
-250.665 240.511 17.1
-248.649 239.246 17.1
-247.615 239.679 17.1
-245.719 238.546 17.1
-249.725 232.106 17.1
-251.621 233.283 17.1
-251.776 234.27 17.1
-253.792 235.535 17.1
-254.65 235.181 17.1
-259.89 238.463 17.1
-255.866 244.848 17.1
-253.119 243.114 17.1
-250.643 241.577 17.1
3 11 7 0
3 8 7 9
3 9 11 10
3 11 9 7
3 7 6 0
3 6 4 1
3 1 4 3
3 12 11 0
3 2 1 3
3 6 1 0
3 5 4 6
