ply
format ascii 1.0
comment Created by Open3D
element vertex 54
property double x
property double y
property double z
element face 104
property list uchar uint vertex_indices
end_header
3.68515 171.304 0
-10.292 180.114 0
-9.30475 181.669 0
-22.5928 190.044 0
-28.2415 193.598 0
-44.8303 204.056 0
-45.8176 202.501 0
-60.1348 211.519 0
-59.1475 213.074 0
-69.9854 219.9 0
-67.3553 224.038 0
-68.7931 224.954 0
-64.1139 232.335 0
-62.6593 231.419 0
-59.8966 235.78 0
-48.9396 228.878 0
-48.052 230.287 0
-34.16 221.53 0
-35.0477 220.132 0
-23.946 213.132 0
-24.8171 211.756 0
-19.0238 208.103 0
-11.8949 203.61 0
-10.9656 205.075 0
5.0788 194.956 0
5.87529 196.208 0
15.5989 190.08 0
3.68515 171.304 48.6
-10.292 180.114 48.6
-9.30475 181.669 48.6
-22.5928 190.044 48.6
-28.2415 193.598 48.6
-44.8303 204.056 48.6
-45.8176 202.501 48.6
-60.1348 211.519 48.6
-59.1475 213.074 48.6
-69.9854 219.9 48.6
-67.3553 224.038 48.6
-68.7931 224.954 48.6
-64.1139 232.335 48.6
-62.6593 231.419 48.6
-59.8966 235.78 48.6
-48.9396 228.878 48.6
-48.052 230.287 48.6
-34.16 221.53 48.6
-35.0477 220.132 48.6
-23.946 213.132 48.6
-24.8171 211.756 48.6
-19.0238 208.103 48.6
-11.8949 203.61 48.6
-10.9656 205.075 48.6
5.0788 194.956 48.6
5.87529 196.208 48.6
15.5989 190.08 48.6
3 8 7 6
3 35 34 33
3 10 9 8
3 37 36 35
3 5 18 8
3 32 45 35
3 18 5 20
3 45 32 47
3 5 8 6
3 32 35 33
3 15 8 18
3 42 35 45
3 11 10 12
3 38 37 39
3 12 10 13
3 39 37 40
3 16 15 18
3 43 42 45
3 14 13 15
3 41 40 42
3 13 10 8
3 40 37 35
3 8 15 13
3 35 42 40
3 18 17 16
3 45 44 43
3 21 4 3
3 48 31 30
3 2 0 24
3 29 27 51
3 0 2 1
3 27 29 28
3 24 26 25
3 51 53 52
3 26 24 0
3 53 51 27
3 3 2 22
3 30 29 49
3 24 22 2
3 51 49 29
3 18 20 19
3 45 47 46
3 24 23 22
3 51 50 49
3 22 21 3
3 49 48 30
3 20 4 21
3 47 31 48
3 20 5 4
3 47 32 31
3 8 7 35
3 35 7 34
3 7 6 34
3 34 6 33
3 10 9 37
3 37 9 36
3 9 8 36
3 36 8 35
3 6 5 33
3 33 5 32
3 11 10 38
3 38 10 37
3 12 11 39
3 39 11 38
3 13 12 40
3 40 12 39
3 16 15 43
3 43 15 42
3 14 13 41
3 41 13 40
3 15 14 42
3 42 14 41
3 18 17 45
3 45 17 44
3 17 16 44
3 44 16 43
3 4 3 31
3 31 3 30
3 2 1 29
3 29 1 28
3 1 0 28
3 28 0 27
3 26 25 53
3 53 25 52
3 25 24 52
3 52 24 51
3 0 26 27
3 27 26 53
3 3 2 30
3 30 2 29
3 20 19 47
3 47 19 46
3 19 18 46
3 46 18 45
3 24 23 51
3 51 23 50
3 23 22 50
3 50 22 49
3 22 21 49
3 49 21 48
3 21 20 48
3 48 20 47
3 5 4 32
3 32 4 31
