ply
format ascii 1.0
comment Created by Open3D
element vertex 16
property double x
property double y
property double z
element face 22
property list uchar uint vertex_indices
end_header
63.2721 -236.685 0
14.0829 -200.654 0
18.6364 -193.342 0
41.455 -210.056 0
39.8914 -212.183 0
51.799 -220.907 0
53.1131 -219.115 0
67.6016 -229.73 0
63.2721 -236.685 52.3
14.0829 -200.654 52.3
18.6364 -193.342 52.3
41.455 -210.056 52.3
39.8914 -212.183 52.3
51.799 -220.907 52.3
53.1131 -219.115 52.3
67.6016 -229.73 52.3
3 4 3 2
3 2 1 4
3 4 1 0
3 0 7 5
3 6 5 7
3 0 5 4
3 4 3 12
3 12 3 11
3 3 2 11
3 11 2 10
3 2 1 10
3 10 1 9
3 1 0 9
3 9 0 8
3 0 7 8
3 8 7 15
3 6 5 14
3 14 5 13
3 7 6 15
3 15 6 14
3 5 4 13
3 13 4 12
