ply
format ascii 1.0
comment Created by Open3D
element vertex 22
property double x
property double y
property double z
element face 31
property list uchar uint vertex_indices
end_header
-221.764 56.6668 0
-225.579 50.5727 0
-230.122 53.4186 0
-234.307 56.0465 0
-233.868 56.7509 0
-242.366 62.0831 0
-241.802 62.9777 0
-243.198 64.6937 0
-241.655 67.1537 0
-231.413 60.7424 0
-230.525 62.1513 0
-221.764 56.6668 13.3
-225.579 50.5727 13.3
-230.122 53.4186 13.3
-234.307 56.0465 13.3
-233.868 56.7509 13.3
-242.366 62.0831 13.3
-241.802 62.9777 13.3
-243.198 64.6937 13.3
-241.655 67.1537 13.3
-231.413 60.7424 13.3
-230.525 62.1513 13.3
3 6 5 4
3 7 6 8
3 8 6 9
3 2 1 0
3 2 0 9
3 2 9 4
3 9 0 10
3 4 9 6
3 2 4 3
3 6 5 17
3 17 5 16
3 5 4 16
3 16 4 15
3 7 6 18
3 18 6 17
3 8 7 19
3 19 7 18
3 9 8 20
3 20 8 19
3 2 1 13
3 13 1 12
3 1 0 12
3 12 0 11
3 0 10 11
3 11 10 21
3 10 9 21
3 21 9 20
3 4 3 15
3 15 3 14
3 3 2 14
3 14 2 13
