ply
format ascii 1.0
comment Created by Open3D
element vertex 16
property double x
property double y
property double z
element face 22
property list uchar uint vertex_indices
end_header
-242.321 -45.6513 0
-238.196 -48.2245 0
-237.38 -47.8932 0
-231.783 -51.3821 0
-235.59 -57.4873 0
-257.511 -43.8593 0
-253.513 -37.43 0
-241.757 -44.7457 0
-242.321 -45.6513 14.6
-238.196 -48.2245 14.6
-237.38 -47.8932 14.6
-231.783 -51.3821 14.6
-235.59 -57.4873 14.6
-257.511 -43.8593 14.6
-253.513 -37.43 14.6
-241.757 -44.7457 14.6
3 0 7 6
3 6 5 0
3 0 5 4
3 4 3 1
3 2 1 3
3 4 1 0
3 0 7 8
3 8 7 15
3 7 6 15
3 15 6 14
3 6 5 14
3 14 5 13
3 5 4 13
3 13 4 12
3 4 3 12
3 12 3 11
3 2 1 10
3 10 1 9
3 3 2 11
3 11 2 10
3 1 0 9
3 9 0 8
