ply
format ascii 1.0
comment Created by Open3D
element vertex 14
property double x
property double y
property double z
element face 19
property list uchar uint vertex_indices
end_header
-103.552 -134.43 0
-124.414 -121.123 0
-125.299 -120.556 0
-116.844 -107.315 0
-113.806 -109.256 0
-114.014 -109.58 0
-95.3127 -121.513 0
-103.552 -134.43 29.5
-124.414 -121.123 29.5
-125.299 -120.556 29.5
-116.844 -107.315 29.5
-113.806 -109.256 29.5
-114.014 -109.58 29.5
-95.3127 -121.513 29.5
3 2 1 3
3 3 1 5
3 0 6 5
3 5 4 3
3 0 5 1
3 2 1 9
3 9 1 8
3 3 2 10
3 10 2 9
3 0 6 7
3 7 6 13
3 6 5 13
3 13 5 12
3 5 4 12
3 12 4 11
3 4 3 11
3 11 3 10
3 1 0 8
3 8 0 7
