ply
format ascii 1.0
comment Created by Open3D
element vertex 22
property double x
property double y
property double z
element face 31
property list uchar uint vertex_indices
end_header
86.1662 -41.3144 0
76.9141 -55.7752 0
61.6586 -46.0132 0
62.5796 -44.5705 0
49.162 -35.9865 0
48.8634 -36.4673 0
48.2252 -36.0527 0
44.707 -41.5552 0
22.9172 -27.6156 0
35.0737 -8.62533 0
46.4919 -15.9333 0
86.1662 -41.3144 19.8
76.9141 -55.7752 19.8
61.6586 -46.0132 19.8
62.5796 -44.5705 19.8
49.162 -35.9865 19.8
48.8634 -36.4673 19.8
48.2252 -36.0527 19.8
44.707 -41.5552 19.8
22.9172 -27.6156 19.8
35.0737 -8.62533 19.8
46.4919 -15.9333 19.8
3 7 6 8
3 8 10 9
3 10 8 6
3 6 4 10
3 2 1 3
3 3 1 0
3 3 0 10
3 3 10 4
3 5 4 6
3 7 6 18
3 18 6 17
3 8 7 19
3 19 7 18
3 10 9 21
3 21 9 20
3 9 8 20
3 20 8 19
3 2 1 13
3 13 1 12
3 3 2 14
3 14 2 13
3 1 0 12
3 12 0 11
3 0 10 11
3 11 10 21
3 4 3 15
3 15 3 14
3 5 4 16
3 16 4 15
3 6 5 17
3 17 5 16
