ply
format ascii 1.0
comment Created by Open3D
element vertex 28
property double x
property double y
property double z
element face 40
property list uchar uint vertex_indices
end_header
-55.35 197.064 0
-65.8502 180.224 0
-62.4734 178.142 0
-65.9072 172.64 0
-68.2803 174.101 0
-72.8254 166.811 0
-74.1523 167.628 0
-90.1347 141.966 0
-110.549 154.579 0
-88.6029 189.812 0
-90.3467 190.891 0
-88.3064 194.167 0
-86.3755 192.968 0
-75.9086 209.774 0
-55.35 197.064 4.8
-65.8502 180.224 4.8
-62.4734 178.142 4.8
-65.9072 172.64 4.8
-68.2803 174.101 4.8
-72.8254 166.811 4.8
-74.1523 167.628 4.8
-90.1347 141.966 4.8
-110.549 154.579 4.8
-88.6029 189.812 4.8
-90.3467 190.891 4.8
-88.3064 194.167 4.8
-86.3755 192.968 4.8
-75.9086 209.774 4.8
3 9 8 6
3 12 9 1
3 10 9 11
3 1 13 12
3 9 12 11
3 7 6 8
3 4 6 5
3 1 9 4
3 1 4 2
3 4 3 2
3 0 13 1
3 9 6 4
3 9 8 23
3 23 8 22
3 10 9 24
3 24 9 23
3 11 10 25
3 25 10 24
3 13 12 27
3 27 12 26
3 12 11 26
3 26 11 25
3 7 6 21
3 21 6 20
3 8 7 22
3 22 7 21
3 6 5 20
3 20 5 19
3 5 4 19
3 19 4 18
3 2 1 16
3 16 1 15
3 4 3 18
3 18 3 17
3 3 2 17
3 17 2 16
3 0 13 14
3 14 13 27
3 1 0 15
3 15 0 14
