ply
format ascii 1.0
comment Created by Open3D
element vertex 20
property double x
property double y
property double z
element face 18
property list uchar uint vertex_indices
end_header
242.172 207.427 22.9
239.569 209.04 22.9
238.018 206.536 22.9
240.519 204.988 22.9
229.464 187.209 22.9
198.458 206.482 22.9
196.812 213.036 22.9
188.476 213.029 22.9
185.926 215.975 22.9
181.338 223.483 22.9
184.937 229.264 22.9
192.922 230.411 22.9
190.898 239.78 22.9
206.354 230.165 22.9
206.122 229.784 22.9
215.02 224.258 22.9
218.295 229.524 22.9
222.651 226.81 22.9
221.672 225.244 22.9
244.444 211.083 22.9
3 10 9 8
3 14 6 15
3 7 6 8
3 11 8 6
3 11 14 13
3 11 10 8
3 11 13 12
3 6 14 11
3 15 6 5
3 2 15 5
3 2 4 3
3 1 0 19
3 2 1 18
3 16 15 18
3 19 18 1
3 18 15 2
3 18 17 16
3 2 5 4
