ply
format ascii 1.0
comment Created by Open3D
element vertex 14
property double x
property double y
property double z
element face 19
property list uchar uint vertex_indices
end_header
256.164 18.8841 0
242.323 -8.51906 0
224.311 2.89858 0
232.974 16.4647 0
240.018 27.4921 0
240.757 28.6552 0
247.035 24.6748 0
256.164 18.8841 27.1
242.323 -8.51906 27.1
224.311 2.89858 27.1
232.974 16.4647 27.1
240.018 27.4921 27.1
240.757 28.6552 27.1
247.035 24.6748 27.1
3 3 6 4
3 1 3 2
3 0 6 3
3 5 4 6
3 3 1 0
3 4 3 11
3 11 3 10
3 3 2 10
3 10 2 9
3 2 1 9
3 9 1 8
3 0 6 7
3 7 6 13
3 5 4 12
3 12 4 11
3 6 5 13
3 13 5 12
3 1 0 8
3 8 0 7
