ply
format ascii 1.0
comment Created by Open3D
element vertex 22
property double x
property double y
property double z
element face 31
property list uchar uint vertex_indices
end_header
-184.47 190.373 0
-186.17 187.667 0
-182.734 185.508 0
-186.583 179.38 0
-190.079 181.571 0
-191.962 178.563 0
-198.019 182.369 0
-196.857 184.225 0
-202.14 187.54 0
-195.869 197.537 0
-185.627 191.114 0
-184.47 190.373 21.3
-186.17 187.667 21.3
-182.734 185.508 21.3
-186.583 179.38 21.3
-190.079 181.571 21.3
-191.962 178.563 21.3
-198.019 182.369 21.3
-196.857 184.225 21.3
-202.14 187.54 21.3
-195.869 197.537 21.3
-185.627 191.114 21.3
3 6 5 7
3 8 7 9
3 10 9 7
3 7 5 4
3 1 4 3
3 1 3 2
3 1 0 10
3 10 7 1
3 1 7 4
3 6 5 17
3 17 5 16
3 7 6 18
3 18 6 17
3 8 7 19
3 19 7 18
3 9 8 20
3 20 8 19
3 10 9 21
3 21 9 20
3 5 4 16
3 16 4 15
3 4 3 15
3 15 3 14
3 3 2 14
3 14 2 13
3 2 1 13
3 13 1 12
3 1 0 12
3 12 0 11
3 0 10 11
3 11 10 21
