ply
format ascii 1.0
comment Created by Open3D
element vertex 16
property double x
property double y
property double z
element face 14
property list uchar uint vertex_indices
end_header
-155.172 249.737 20.1
-154.531 248.312 20.1
-149.265 244.997 20.1
-147.751 245.48 20.1
-146.457 247.549 20.1
-140.808 244.005 20.1
-148.796 231.28 20.1
-154.717 234.998 20.1
-153.564 236.832 20.1
-153.009 238.537 20.1
-158.59 242.048 20.1
-160.071 241.632 20.1
-161.481 239.384 20.1
-167.292 243.037 20.1
-159.212 255.897 20.1
-153.538 252.331 20.1
3 12 11 13
3 1 10 2
3 11 10 0
3 14 13 0
3 0 13 11
3 10 1 0
3 14 0 15
3 2 10 9
3 9 8 6
3 6 5 9
3 8 7 6
3 9 5 3
3 4 3 5
3 2 9 3
