ply
format ascii 1.0
comment Created by Open3D
element vertex 16
property double x
property double y
property double z
element face 22
property list uchar uint vertex_indices
end_header
-6.90868 -76.9278 0
43.3134 -108.817 0
25.5372 -137.175 0
19.7735 -138.362 0
-23.2577 -110.454 0
-24.7121 -101.434 0
-8.33021 -75.2232 0
-6.55201 -76.3575 0
-6.90868 -76.9278 41.3
43.3134 -108.817 41.3
25.5372 -137.175 41.3
19.7735 -138.362 41.3
-23.2577 -110.454 41.3
-24.7121 -101.434 41.3
-8.33021 -75.2232 41.3
-6.55201 -76.3575 41.3
3 5 4 0
3 6 0 7
3 0 6 5
3 4 1 0
3 3 2 1
3 1 4 3
3 5 4 13
3 13 4 12
3 0 7 8
3 8 7 15
3 7 6 15
3 15 6 14
3 6 5 14
3 14 5 13
3 1 0 9
3 9 0 8
3 3 2 11
3 11 2 10
3 2 1 10
3 10 1 9
3 4 3 12
3 12 3 11
