ply
format ascii 1.0
comment Created by Open3D
element vertex 24
property double x
property double y
property double z
element face 22
property list uchar uint vertex_indices
end_header
-244.82 107.751 22.7
-245.235 107.103 22.7
-239.459 103.483 22.7
-240.264 102.197 22.7
-237.78 100.637 22.7
-237.655 100.839 22.7
-237.043 100.457 22.7
-236.329 101.598 22.7
-233.837 100.027 22.7
-232.46 99.9986 22.7
-228.377 97.4361 22.7
-227.645 96.9782 22.7
-231.585 90.6939 22.7
-236.604 93.8342 22.7
-236.951 95.3623 22.7
-239.299 96.8454 22.7
-239.05 97.2368 22.7
-242.223 99.2324 22.7
-242.63 98.5838 22.7
-247.683 101.757 22.7
-248.752 101.467 22.7
-254.035 104.782 22.7
-250.094 111.066 22.7
-248.776 110.238 22.7
3 19 18 17
3 20 19 1
3 3 17 4
3 17 3 19
3 19 3 1
3 21 23 22
3 21 20 23
3 23 20 1
3 1 0 23
3 3 2 1
3 15 14 16
3 9 14 13
3 6 16 14
3 12 11 10
3 12 10 13
3 10 9 13
3 4 6 5
3 6 4 16
3 8 7 6
3 9 8 14
3 6 14 8
3 16 4 17
