ply
format ascii 1.0
comment Created by Open3D
element vertex 18
property double x
property double y
property double z
element face 16
property list uchar uint vertex_indices
end_header
-197.592 257.546 25.9
-189.306 252.345 25.9
-187.216 255.689 25.9
-180.121 251.24 25.9
-188.284 238.224 25.9
-194.357 242.029 25.9
-195.378 242.673 25.9
-192.301 247.57 25.9
-194.24 248.792 25.9
-195.252 247.182 25.9
-199.71 249.973 25.9
-198.698 251.583 25.9
-200.586 252.772 25.9
-203.663 247.863 25.9
-205.373 248.942 25.9
-210.673 252.257 25.9
-202.502 265.284 25.9
-195.493 260.89 25.9
3 12 14 13
3 11 10 9
3 16 15 12
3 11 0 12
3 0 17 16
3 12 0 16
3 15 14 12
3 0 11 8
3 7 6 5
3 7 5 4
3 8 7 1
3 1 3 2
3 3 1 7
3 7 4 3
3 1 0 8
3 9 8 11
