ply
format ascii 1.0
comment Created by Open3D
element vertex 14
property double x
property double y
property double z
element face 19
property list uchar uint vertex_indices
end_header
-168.636 -264.389 0
-176.59 -259.406 0
-169.506 -248.09 0
-162.836 -237.423 0
-154.882 -242.406 0
-164.621 -257.982 0
-167.582 -262.712 0
-168.636 -264.389 23.4
-176.59 -259.406 23.4
-169.506 -248.09 23.4
-162.836 -237.423 23.4
-154.882 -242.406 23.4
-164.621 -257.982 23.4
-167.582 -262.712 23.4
3 2 1 5
3 6 1 0
3 4 2 5
3 3 2 4
3 5 1 6
3 2 1 9
3 9 1 8
3 1 0 8
3 8 0 7
3 0 6 7
3 7 6 13
3 5 4 12
3 12 4 11
3 3 2 10
3 10 2 9
3 4 3 11
3 11 3 10
3 6 5 13
3 13 5 12
