ply
format ascii 1.0
comment Created by Open3D
element vertex 14
property double x
property double y
property double z
element face 19
property list uchar uint vertex_indices
end_header
-220.231 110.441 0
-228.377 97.4361 0
-232.46 99.9986 0
-244.82 107.751 0
-248.776 110.238 0
-240.638 123.22 0
-222.749 112.011 0
-220.231 110.441 21.7
-228.377 97.4361 21.7
-232.46 99.9986 21.7
-244.82 107.751 21.7
-248.776 110.238 21.7
-240.638 123.22 21.7
-222.749 112.011 21.7
3 4 3 5
3 5 3 6
3 2 1 6
3 0 6 1
3 2 6 3
3 4 3 11
3 11 3 10
3 5 4 12
3 12 4 11
3 6 5 13
3 13 5 12
3 2 1 9
3 9 1 8
3 0 6 7
3 7 6 13
3 1 0 8
3 8 0 7
3 3 2 10
3 10 2 9
