ply
format ascii 1.0
comment Created by Open3D
element vertex 18
property double x
property double y
property double z
element face 25
property list uchar uint vertex_indices
end_header
23.9839 -75.1428 0
31.2496 -79.7559 0
32.6683 -77.5193 0
54.4145 -91.3261 0
48.8226 -100.15 0
-1.40787 -68.2608 0
-2.18207 -67.7701 0
3.41829 -58.9465 0
25.4026 -72.9061 0
23.9839 -75.1428 48
31.2496 -79.7559 48
32.6683 -77.5193 48
54.4145 -91.3261 48
48.8226 -100.15 48
-1.40787 -68.2608 48
-2.18207 -67.7701 48
3.41829 -58.9465 48
25.4026 -72.9061 48
3 5 0 7
3 0 5 1
3 7 6 5
3 0 8 7
3 4 3 1
3 2 1 3
3 4 1 5
3 1 0 10
3 10 0 9
3 7 6 16
3 16 6 15
3 6 5 15
3 15 5 14
3 0 8 9
3 9 8 17
3 8 7 17
3 17 7 16
3 4 3 13
3 13 3 12
3 2 1 11
3 11 1 10
3 3 2 12
3 12 2 11
3 5 4 14
3 14 4 13
