ply
format ascii 1.0
comment Created by Open3D
element vertex 13
property double x
property double y
property double z
element face 11
property list uchar uint vertex_indices
end_header
-265.193 149.408 22.8
-256.415 143.979 22.8
-255.818 144.94 22.8
-249.158 140.82 22.8
-259.624 123.925 22.8
-260.177 124.274 22.8
-266.208 128.002 22.8
-263.902 131.726 22.8
-273.65 137.754 22.8
-275.956 134.042 22.8
-282.173 137.89 22.8
-271.715 154.785 22.8
-264.596 150.38 22.8
3 0 8 7
3 9 8 10
3 8 11 10
3 11 8 0
3 11 0 12
3 7 5 4
3 5 7 6
3 7 4 3
3 3 2 1
3 1 7 3
3 1 0 7
