ply
format ascii 1.0
comment Created by Open3D
element vertex 36
property double x
property double y
property double z
element face 54
property list uchar uint vertex_indices
end_header
192.324 190.458 0
222.293 171.783 0
208.418 149.509 0
206.929 150.436 0
185.93 116.756 0
161.099 132.236 0
161.522 132.918 0
134.326 149.871 0
168.023 203.936 0
169.665 202.911 0
191.578 189.262 0
185.886 169.246 0
180.977 172.421 0
185.508 179.411 0
171.485 188.499 0
164.008 176.956 0
175.75 169.352 0
182.94 164.694 0
192.324 190.458 67.3
222.293 171.783 67.3
208.418 149.509 67.3
206.929 150.436 67.3
185.93 116.756 67.3
161.099 132.236 67.3
161.522 132.918 67.3
134.326 149.871 67.3
168.023 203.936 67.3
169.665 202.911 67.3
191.578 189.262 67.3
185.886 169.246 67.3
180.977 172.421 67.3
185.508 179.411 67.3
171.485 188.499 67.3
164.008 176.956 67.3
175.75 169.352 67.3
182.94 164.694 67.3
3 7 6 15
3 5 4 6
3 15 6 16
3 15 8 7
3 8 15 14
3 9 14 10
3 14 9 8
3 16 6 17
3 17 4 3
3 4 17 6
3 3 2 1
3 17 3 11
3 13 11 10
3 13 12 11
3 10 1 0
3 1 10 11
3 11 3 1
3 13 10 14
3 7 6 25
3 25 6 24
3 5 4 23
3 23 4 22
3 6 5 24
3 24 5 23
3 16 15 34
3 34 15 33
3 8 7 26
3 26 7 25
3 15 14 33
3 33 14 32
3 10 9 28
3 28 9 27
3 9 8 27
3 27 8 26
3 17 16 35
3 35 16 34
3 4 3 22
3 22 3 21
3 3 2 21
3 21 2 20
3 2 1 20
3 20 1 19
3 11 17 29
3 29 17 35
3 13 12 31
3 31 12 30
3 12 11 30
3 30 11 29
3 1 0 19
3 19 0 18
3 0 10 18
3 18 10 28
3 14 13 32
3 32 13 31
