ply
format ascii 1.0
comment Created by Open3D
element vertex 20
property double x
property double y
property double z
element face 18
property list uchar uint vertex_indices
end_header
-252.719 93.8393 20.9
-247.845 90.7752 20.9
-248.566 89.6234 20.9
-245.419 87.6387 20.9
-244.739 88.7233 20.9
-242.323 87.2077 20.9
-241.007 87.3337 20.9
-235.758 84.0406 20.9
-239.74 77.7004 20.9
-244.852 80.9062 20.9
-245.289 82.2112 20.9
-247.697 83.727 20.9
-247.282 84.3867 20.9
-250.455 86.3823 20.9
-250.92 85.6443 20.9
-255.981 88.8284 20.9
-257.315 88.7133 20.9
-262.189 91.7664 20.9
-258.099 98.2855 20.9
-253.267 95.2542 20.9
3 19 16 15
3 13 2 15
3 13 15 14
3 0 15 2
3 18 17 19
3 19 17 16
3 19 15 0
3 2 1 0
3 2 13 3
3 12 11 10
3 9 8 7
3 10 9 6
3 7 6 9
3 3 13 12
3 12 10 3
3 5 4 3
3 3 10 5
3 10 6 5
