ply
format ascii 1.0
comment Created by Open3D
element vertex 16
property double x
property double y
property double z
element face 22
property list uchar uint vertex_indices
end_header
206.903 -271.468 0
208.564 -266.742 0
215.214 -247.781 0
232.704 -255.696 0
229.939 -264.288 0
225.535 -278.005 0
218.428 -275.51 0
210.906 -272.876 0
206.903 -271.468 18.4
208.564 -266.742 18.4
215.214 -247.781 18.4
232.704 -255.696 18.4
229.939 -264.288 18.4
225.535 -278.005 18.4
218.428 -275.51 18.4
210.906 -272.876 18.4
3 0 7 1
3 4 2 1
3 1 7 6
3 6 5 4
3 3 2 4
3 4 1 6
3 0 7 8
3 8 7 15
3 1 0 9
3 9 0 8
3 2 1 10
3 10 1 9
3 7 6 15
3 15 6 14
3 6 5 14
3 14 5 13
3 5 4 13
3 13 4 12
3 3 2 11
3 11 2 10
3 4 3 12
3 12 3 11
