ply
format ascii 1.0
comment Created by Open3D
element vertex 18
property double x
property double y
property double z
element face 25
property list uchar uint vertex_indices
end_header
-189.367 159.098 0
-196.504 163.579 0
-193.658 168.108 0
-186.583 179.38 0
-182.734 185.508 0
-180.884 188.449 0
-174.563 184.479 0
-178.893 177.58 0
-178.085 177.067 0
-189.367 159.098 20.5
-196.504 163.579 20.5
-193.658 168.108 20.5
-186.583 179.38 20.5
-182.734 185.508 20.5
-180.884 188.449 20.5
-174.563 184.479 20.5
-178.893 177.58 20.5
-178.085 177.067 20.5
3 1 0 2
3 7 3 2
3 2 0 8
3 8 7 2
3 4 6 5
3 6 4 7
3 7 4 3
3 1 0 10
3 10 0 9
3 2 1 11
3 11 1 10
3 3 2 12
3 12 2 11
3 0 8 9
3 9 8 17
3 8 7 17
3 17 7 16
3 6 5 15
3 15 5 14
3 5 4 14
3 14 4 13
3 7 6 16
3 16 6 15
3 4 3 13
3 13 3 12
