ply
format ascii 1.0
comment Created by Open3D
element vertex 42
property double x
property double y
property double z
element face 61
property list uchar uint vertex_indices
end_header
-260.762 80.7028 0
-255.607 77.4752 0
-256.03 76.7932 0
-252.627 74.6559 0
-252.196 75.3603 0
-250.214 74.1172 0
-248.678 74.2457 0
-243.821 71.1924 0
-243.149 70.7782 0
-247.197 64.3262 0
-252.71 67.7828 0
-253.292 69.2638 0
-255.325 70.5396 0
-254.72 71.5124 0
-258.072 73.6169 0
-258.719 72.5771 0
-263.899 75.8376 0
-265.436 75.7646 0
-270.302 78.8178 0
-266.262 85.2586 0
-261.353 82.1837 0
-260.762 80.7028 21
-255.607 77.4752 21
-256.03 76.7932 21
-252.627 74.6559 21
-252.196 75.3603 21
-250.214 74.1172 21
-248.678 74.2457 21
-243.821 71.1924 21
-243.149 70.7782 21
-247.197 64.3262 21
-252.71 67.7828 21
-253.292 69.2638 21
-255.325 70.5396 21
-254.72 71.5124 21
-258.072 73.6169 21
-258.719 72.5771 21
-263.899 75.8376 21
-265.436 75.7646 21
-270.302 78.8178 21
-266.262 85.2586 21
-261.353 82.1837 21
3 0 17 16
3 14 13 2
3 16 14 0
3 15 14 16
3 2 0 14
3 18 17 19
3 19 17 20
3 20 17 0
3 2 1 0
3 13 12 11
3 7 10 9
3 11 10 5
3 9 8 7
3 3 13 5
3 4 3 5
3 3 2 13
3 10 6 5
3 5 13 11
3 7 6 10
3 17 16 38
3 38 16 37
3 14 13 35
3 35 13 34
3 15 14 36
3 36 14 35
3 16 15 37
3 37 15 36
3 18 17 39
3 39 17 38
3 19 18 40
3 40 18 39
3 20 19 41
3 41 19 40
3 0 20 21
3 21 20 41
3 2 1 23
3 23 1 22
3 1 0 22
3 22 0 21
3 13 12 34
3 34 12 33
3 12 11 33
3 33 11 32
3 10 9 31
3 31 9 30
3 11 10 32
3 32 10 31
3 9 8 30
3 30 8 29
3 8 7 29
3 29 7 28
3 4 3 25
3 25 3 24
3 5 4 26
3 26 4 25
3 3 2 24
3 24 2 23
3 6 5 27
3 27 5 26
3 7 6 28
3 28 6 27
