ply
format ascii 1.0
comment Created by Open3D
element vertex 30
property double x
property double y
property double z
element face 43
property list uchar uint vertex_indices
end_header
49.4349 -196.587 0
48.0231 -198.701 0
48.484 -201.338 0
57.138 -207.679 0
59.7619 -207.427 0
61.4669 -205.109 0
76.3599 -215.641 0
67.6016 -229.73 0
53.1131 -219.115 0
51.799 -220.907 0
39.8914 -212.183 0
41.455 -210.056 0
18.6364 -193.342 0
23.1731 -186.04 0
26.6399 -180.46 0
49.4349 -196.587 29.5
48.0231 -198.701 29.5
48.484 -201.338 29.5
57.138 -207.679 29.5
59.7619 -207.427 29.5
61.4669 -205.109 29.5
76.3599 -215.641 29.5
67.6016 -229.73 29.5
53.1131 -219.115 29.5
51.799 -220.907 29.5
39.8914 -212.183 29.5
41.455 -210.056 29.5
18.6364 -193.342 29.5
23.1731 -186.04 29.5
26.6399 -180.46 29.5
3 11 3 2
3 8 11 10
3 11 2 1
3 13 12 1
3 14 1 0
3 1 14 13
3 12 11 1
3 3 11 8
3 7 6 8
3 8 6 4
3 5 4 6
3 3 8 4
3 8 10 9
3 3 2 18
3 18 2 17
3 11 10 26
3 26 10 25
3 2 1 17
3 17 1 16
3 13 12 28
3 28 12 27
3 1 0 16
3 16 0 15
3 0 14 15
3 15 14 29
3 14 13 29
3 29 13 28
3 12 11 27
3 27 11 26
3 7 6 22
3 22 6 21
3 8 7 23
3 23 7 22
3 5 4 20
3 20 4 19
3 6 5 21
3 21 5 20
3 4 3 19
3 19 3 18
3 10 9 25
3 25 9 24
3 9 8 24
3 24 8 23
