ply
format ascii 1.0
comment Created by Open3D
element vertex 12
property double x
property double y
property double z
element face 16
property list uchar uint vertex_indices
end_header
-109.911 234.155 0
-120.996 241.178 0
-120.009 242.733 0
-123.216 244.761 0
-120.743 248.664 0
-106.451 239.612 0
-109.911 234.155 14.8
-120.996 241.178 14.8
-120.009 242.733 14.8
-123.216 244.761 14.8
-120.743 248.664 14.8
-106.451 239.612 14.8
3 4 3 2
3 2 0 5
3 0 2 1
3 2 5 4
3 4 3 10
3 10 3 9
3 3 2 9
3 9 2 8
3 0 5 6
3 6 5 11
3 2 1 8
3 8 1 7
3 1 0 7
3 7 0 6
3 5 4 11
3 11 4 10
