ply
format ascii 1.0
comment Created by Open3D
element vertex 16
property double x
property double y
property double z
element face 22
property list uchar uint vertex_indices
end_header
-155.079 -81.4385 0
-159.178 -87.9023 0
-161.636 -86.3427 0
-184.445 -71.8924 0
-177.351 -60.6872 0
-126.246 -93.0445 0
-129.25 -97.7861 0
-151.633 -83.6086 0
-155.079 -81.4385 36
-159.178 -87.9023 36
-161.636 -86.3427 36
-184.445 -71.8924 36
-177.351 -60.6872 36
-126.246 -93.0445 36
-129.25 -97.7861 36
-151.633 -83.6086 36
3 4 2 0
3 4 3 2
3 2 1 0
3 6 5 7
3 0 7 5
3 5 4 0
3 4 3 12
3 12 3 11
3 3 2 11
3 11 2 10
3 2 1 10
3 10 1 9
3 1 0 9
3 9 0 8
3 6 5 14
3 14 5 13
3 7 6 15
3 15 6 14
3 0 7 8
3 8 7 15
3 5 4 13
3 13 4 12
