ply
format ascii 1.0
comment Created by Open3D
element vertex 14
property double x
property double y
property double z
element face 19
property list uchar uint vertex_indices
end_header
-266.45 41.6807 0
-276.096 47.7214 0
-267.925 60.7484 0
-267.154 61.9784 0
-262.424 59.0125 0
-260.624 61.8862 0
-255.707 58.8114 0
-266.45 41.6807 23
-276.096 47.7214 23
-267.925 60.7484 23
-267.154 61.9784 23
-262.424 59.0125 23
-260.624 61.8862 23
-255.707 58.8114 23
3 2 1 4
3 3 2 4
3 0 6 4
3 5 4 6
3 0 4 1
3 2 1 9
3 9 1 8
3 3 2 10
3 10 2 9
3 4 3 11
3 11 3 10
3 0 6 7
3 7 6 13
3 5 4 12
3 12 4 11
3 6 5 13
3 13 5 12
3 1 0 8
3 8 0 7
