ply
format ascii 1.0
comment Created by Open3D
element vertex 16
property double x
property double y
property double z
element face 22
property list uchar uint vertex_indices
end_header
220.316 -178.489 0
233.776 -183.365 0
233.057 -185.504 0
249.896 -191.173 0
241.358 -217.772 0
197.561 -197.657 0
206.764 -172.205 0
220.758 -177.274 0
220.316 -178.489 23.9
233.776 -183.365 23.9
233.057 -185.504 23.9
249.896 -191.173 23.9
241.358 -217.772 23.9
197.561 -197.657 23.9
206.764 -172.205 23.9
220.758 -177.274 23.9
3 5 0 6
3 0 5 2
3 7 6 0
3 4 3 2
3 2 1 0
3 4 2 5
3 6 5 14
3 14 5 13
3 7 6 15
3 15 6 14
3 0 7 8
3 8 7 15
3 4 3 12
3 12 3 11
3 3 2 11
3 11 2 10
3 2 1 10
3 10 1 9
3 1 0 9
3 9 0 8
3 5 4 13
3 13 4 12
