ply
format ascii 1.0
comment Created by Open3D
element vertex 32
property double x
property double y
property double z
element face 46
property list uchar uint vertex_indices
end_header
-155.172 249.737 0
-154.531 248.312 0
-149.265 244.997 0
-147.751 245.48 0
-146.457 247.549 0
-140.808 244.005 0
-148.796 231.28 0
-154.717 234.998 0
-153.564 236.832 0
-153.009 238.537 0
-158.59 242.048 0
-160.071 241.632 0
-161.481 239.384 0
-167.292 243.037 0
-159.212 255.897 0
-153.538 252.331 0
-155.172 249.737 20.1
-154.531 248.312 20.1
-149.265 244.997 20.1
-147.751 245.48 20.1
-146.457 247.549 20.1
-140.808 244.005 20.1
-148.796 231.28 20.1
-154.717 234.998 20.1
-153.564 236.832 20.1
-153.009 238.537 20.1
-158.59 242.048 20.1
-160.071 241.632 20.1
-161.481 239.384 20.1
-167.292 243.037 20.1
-159.212 255.897 20.1
-153.538 252.331 20.1
3 12 11 13
3 1 10 2
3 11 10 0
3 14 13 0
3 0 13 11
3 10 1 0
3 14 0 15
3 2 10 9
3 9 8 6
3 6 5 9
3 8 7 6
3 9 5 3
3 4 3 5
3 2 9 3
3 12 11 28
3 28 11 27
3 13 12 29
3 29 12 28
3 2 1 18
3 18 1 17
3 11 10 27
3 27 10 26
3 14 13 30
3 30 13 29
3 1 0 17
3 17 0 16
3 0 15 16
3 16 15 31
3 15 14 31
3 31 14 30
3 10 9 26
3 26 9 25
3 9 8 25
3 25 8 24
3 6 5 22
3 22 5 21
3 8 7 24
3 24 7 23
3 7 6 23
3 23 6 22
3 4 3 20
3 20 3 19
3 5 4 21
3 21 4 20
3 3 2 19
3 19 2 18
