ply
format ascii 1.0
comment Created by Open3D
element vertex 18
property double x
property double y
property double z
element face 25
property list uchar uint vertex_indices
end_header
-233.098 -59.0354 0
-237.378 -65.9119 0
-242.337 -62.8265 0
-246.02 -68.7415 0
-241.213 -71.7287 0
-245.195 -78.1245 0
-269.446 -63.0464 0
-257.511 -43.8593 0
-235.59 -57.4873 0
-233.098 -59.0354 23.2
-237.378 -65.9119 23.2
-242.337 -62.8265 23.2
-246.02 -68.7415 23.2
-241.213 -71.7287 23.2
-245.195 -78.1245 23.2
-269.446 -63.0464 23.2
-257.511 -43.8593 23.2
-235.59 -57.4873 23.2
3 3 5 4
3 5 3 6
3 2 7 6
3 6 3 2
3 1 8 2
3 8 1 0
3 2 8 7
3 5 4 14
3 14 4 13
3 4 3 13
3 13 3 12
3 6 5 15
3 15 5 14
3 7 6 16
3 16 6 15
3 3 2 12
3 12 2 11
3 2 1 11
3 11 1 10
3 1 0 10
3 10 0 9
3 0 8 9
3 9 8 17
3 8 7 17
3 17 7 16
