ply
format ascii 1.0
comment Created by Open3D
element vertex 16
property double x
property double y
property double z
element face 22
property list uchar uint vertex_indices
end_header
-256.923 -158.549 0
-267.352 -152.073 0
-257.747 -136.631 0
-256.913 -137.155 0
-255.379 -134.695 0
-267.024 -127.444 0
-263.225 -121.339 0
-241.993 -134.542 0
-256.923 -158.549 26.5
-267.352 -152.073 26.5
-257.747 -136.631 26.5
-256.913 -137.155 26.5
-255.379 -134.695 26.5
-267.024 -127.444 26.5
-263.225 -121.339 26.5
-241.993 -134.542 26.5
3 2 1 3
3 4 6 5
3 0 3 1
3 3 0 7
3 4 7 6
3 7 4 3
3 2 1 10
3 10 1 9
3 3 2 11
3 11 2 10
3 6 5 14
3 14 5 13
3 5 4 13
3 13 4 12
3 1 0 9
3 9 0 8
3 0 7 8
3 8 7 15
3 7 6 15
3 15 6 14
3 4 3 12
3 12 3 11
