ply
format ascii 1.0
comment Created by Open3D
element vertex 14
property double x
property double y
property double z
element face 19
property list uchar uint vertex_indices
end_header
-202.919 99.4914 0
-199.335 105.194 0
-182.753 131.651 0
-178.372 128.903 0
-178.065 126.386 0
-180.205 122.965 0
-197.177 95.8932 0
-202.919 99.4914 22.7
-199.335 105.194 22.7
-182.753 131.651 22.7
-178.372 128.903 22.7
-178.065 126.386 22.7
-180.205 122.965 22.7
-197.177 95.8932 22.7
3 0 6 1
3 1 6 5
3 5 4 2
3 3 2 4
3 5 2 1
3 0 6 7
3 7 6 13
3 1 0 8
3 8 0 7
3 6 5 13
3 13 5 12
3 5 4 12
3 12 4 11
3 3 2 10
3 10 2 9
3 4 3 11
3 11 3 10
3 2 1 9
3 9 1 8
