ply
format ascii 1.0
comment Created by Open3D
element vertex 16
property double x
property double y
property double z
element face 22
property list uchar uint vertex_indices
end_header
-181.476 208.537 0
-164.598 197.938 0
-168.257 192.112 0
-184.964 202.602 0
-186.142 200.734 0
-191.68 204.213 0
-185.591 213.896 0
-180.223 210.527 0
-181.476 208.537 23.1
-164.598 197.938 23.1
-168.257 192.112 23.1
-184.964 202.602 23.1
-186.142 200.734 23.1
-191.68 204.213 23.1
-185.591 213.896 23.1
-180.223 210.527 23.1
3 4 3 5
3 0 6 5
3 5 3 0
3 1 0 3
3 0 7 6
3 1 3 2
3 4 3 12
3 12 3 11
3 5 4 13
3 13 4 12
3 6 5 14
3 14 5 13
3 1 0 9
3 9 0 8
3 0 7 8
3 8 7 15
3 7 6 15
3 15 6 14
3 3 2 11
3 11 2 10
3 2 1 10
3 10 1 9
