ply
format ascii 1.0
comment Created by Open3D
element vertex 12
property double x
property double y
property double z
element face 16
property list uchar uint vertex_indices
end_header
-174.463 149.742 0
-182.051 154.507 0
-173.183 168.63 0
-169.976 166.624 0
-163.332 177.213 0
-158.942 174.455 0
-174.463 149.742 20.3
-182.051 154.507 20.3
-173.183 168.63 20.3
-169.976 166.624 20.3
-163.332 177.213 20.3
-158.942 174.455 20.3
3 2 1 3
3 3 1 0
3 3 5 4
3 5 3 0
3 2 1 8
3 8 1 7
3 3 2 9
3 9 2 8
3 1 0 7
3 7 0 6
3 5 4 11
3 11 4 10
3 4 3 10
3 10 3 9
3 0 5 6
3 6 5 11
