ply
format ascii 1.0
comment Created by Open3D
element vertex 40
property double x
property double y
property double z
element face 58
property list uchar uint vertex_indices
end_header
-256.819 87.4977 0
-251.613 84.2375 0
-252.426 82.9404 0
-249.27 80.9558 0
-248.499 82.1969 0
-245.921 80.5831 0
-244.852 80.9062 0
-239.74 77.7004 0
-243.821 71.1924 0
-248.678 74.2457 0
-249.057 75.6181 0
-251.677 77.2646 0
-251.271 77.9132 0
-254.231 79.7668 0
-254.77 78.9058 0
-260.104 82.2535 0
-261.353 82.1837 0
-266.262 85.2586 0
-262.189 91.7664 0
-257.315 88.7133 0
-256.819 87.4977 20.6
-251.613 84.2375 20.6
-252.426 82.9404 20.6
-249.27 80.9558 20.6
-248.499 82.1969 20.6
-245.921 80.5831 20.6
-244.852 80.9062 20.6
-239.74 77.7004 20.6
-243.821 71.1924 20.6
-248.678 74.2457 20.6
-249.057 75.6181 20.6
-251.677 77.2646 20.6
-251.271 77.9132 20.6
-254.231 79.7668 20.6
-254.77 78.9058 20.6
-260.104 82.2535 20.6
-261.353 82.1837 20.6
-266.262 85.2586 20.6
-262.189 91.7664 20.6
-257.315 88.7133 20.6
3 16 15 0
3 2 13 3
3 14 13 15
3 15 13 2
3 18 17 19
3 19 17 16
3 19 16 0
3 1 0 2
3 15 2 0
3 3 12 10
3 12 11 10
3 9 8 7
3 10 9 5
3 7 5 9
3 5 4 3
3 6 5 7
3 3 10 5
3 3 13 12
3 16 15 36
3 36 15 35
3 3 2 23
3 23 2 22
3 14 13 34
3 34 13 33
3 15 14 35
3 35 14 34
3 18 17 38
3 38 17 37
3 19 18 39
3 39 18 38
3 17 16 37
3 37 16 36
3 0 19 20
3 20 19 39
3 1 0 21
3 21 0 20
3 2 1 22
3 22 1 21
3 12 11 32
3 32 11 31
3 11 10 31
3 31 10 30
3 9 8 29
3 29 8 28
3 8 7 28
3 28 7 27
3 10 9 30
3 30 9 29
3 5 4 25
3 25 4 24
3 4 3 24
3 24 3 23
3 6 5 26
3 26 5 25
3 7 6 27
3 27 6 26
3 13 12 33
3 33 12 32
