ply
format ascii 1.0
comment Created by Open3D
element vertex 12
property double x
property double y
property double z
element face 20
property list uchar uint vertex_indices
end_header
-161.198 -149.986 0
-165.239 -156.36 0
-187.724 -142.117 0
-183.692 -135.743 0
-182.867 -136.256 0
-161.989 -149.484 0
-161.198 -149.986 26.3
-165.239 -156.36 26.3
-187.724 -142.117 26.3
-183.692 -135.743 26.3
-182.867 -136.256 26.3
-161.989 -149.484 26.3
3 2 4 3
3 8 10 9
3 4 2 1
3 10 8 7
3 1 0 5
3 7 6 11
3 1 5 4
3 7 11 10
3 4 3 10
3 10 3 9
3 3 2 9
3 9 2 8
3 2 1 8
3 8 1 7
3 1 0 7
3 7 0 6
3 0 5 6
3 6 5 11
3 5 4 11
3 11 4 10
