ply
format ascii 1.0
comment Created by Open3D
element vertex 12
property double x
property double y
property double z
element face 16
property list uchar uint vertex_indices
end_header
-105.652 -142.103 0
-114.083 -155.311 0
-115.487 -154.416 0
-136.927 -140.739 0
-128.497 -127.52 0
-107.635 -140.827 0
-105.652 -142.103 25.1
-114.083 -155.311 25.1
-115.487 -154.416 25.1
-136.927 -140.739 25.1
-128.497 -127.52 25.1
-107.635 -140.827 25.1
3 4 3 5
3 5 3 2
3 0 5 2
3 0 2 1
3 4 3 10
3 10 3 9
3 5 4 11
3 11 4 10
3 3 2 9
3 9 2 8
3 0 5 6
3 6 5 11
3 2 1 8
3 8 1 7
3 1 0 7
3 7 0 6
