ply
format ascii 1.0
comment Created by Open3D
element vertex 26
property double x
property double y
property double z
element face 37
property list uchar uint vertex_indices
end_header
-150.104 34.8241 0
-151.091 33.2585 0
-144.736 29.2454 0
-151.025 19.3483 0
-152.378 20.1989 0
-156.278 14.0704 0
-176.074 26.5567 0
-175.178 27.9658 0
-181.643 32.0443 0
-175.42 41.8296 0
-174.093 40.9898 0
-170.027 47.3866 0
-154.442 37.5613 0
-150.104 34.8241 85
-151.091 33.2585 85
-144.736 29.2454 85
-151.025 19.3483 85
-152.378 20.1989 85
-156.278 14.0704 85
-176.074 26.5567 85
-175.178 27.9658 85
-181.643 32.0443 85
-175.42 41.8296 85
-174.093 40.9898 85
-170.027 47.3866 85
-154.442 37.5613 85
3 7 6 5
3 8 7 10
3 10 9 8
3 12 11 10
3 10 7 12
3 4 3 2
3 1 7 4
3 12 1 0
3 12 7 1
3 1 4 2
3 4 7 5
3 7 6 20
3 20 6 19
3 6 5 19
3 19 5 18
3 8 7 21
3 21 7 20
3 10 9 23
3 23 9 22
3 9 8 22
3 22 8 21
3 12 11 25
3 25 11 24
3 11 10 24
3 24 10 23
3 4 3 17
3 17 3 16
3 3 2 16
3 16 2 15
3 1 0 14
3 14 0 13
3 0 12 13
3 13 12 25
3 2 1 15
3 15 1 14
3 5 4 18
3 18 4 17
