ply
format ascii 1.0
comment Created by Open3D
element vertex 22
property double x
property double y
property double z
element face 31
property list uchar uint vertex_indices
end_header
-169.35 190.19 0
-172.328 185.449 0
-179.779 190.126 0
-179.323 190.853 0
-181.059 191.944 0
-181.581 191.116 0
-184.482 192.937 0
-185.627 191.114 0
-195.869 197.537 0
-191.68 204.213 0
-186.142 200.734 0
-169.35 190.19 19.8
-172.328 185.449 19.8
-179.779 190.126 19.8
-179.323 190.853 19.8
-181.059 191.944 19.8
-181.581 191.116 19.8
-184.482 192.937 19.8
-185.627 191.114 19.8
-195.869 197.537 19.8
-191.68 204.213 19.8
-186.142 200.734 19.8
3 7 6 8
3 8 10 9
3 10 8 6
3 6 4 10
3 3 2 1
3 3 1 0
3 4 3 0
3 5 4 6
3 0 10 4
3 7 6 18
3 18 6 17
3 8 7 19
3 19 7 18
3 10 9 21
3 21 9 20
3 9 8 20
3 20 8 19
3 3 2 14
3 14 2 13
3 2 1 13
3 13 1 12
3 1 0 12
3 12 0 11
3 4 3 15
3 15 3 14
3 5 4 16
3 16 4 15
3 6 5 17
3 17 5 16
3 0 10 11
3 11 10 21
