ply
format ascii 1.0
comment Created by Open3D
element vertex 12
property double x
property double y
property double z
element face 16
property list uchar uint vertex_indices
end_header
-255.314 34.691 0
-260.104 37.7007 0
-251.708 51.0744 0
-250.365 53.2213 0
-245.575 50.2228 0
-246.223 49.194 0
-255.314 34.691 12.7
-260.104 37.7007 12.7
-251.708 51.0744 12.7
-250.365 53.2213 12.7
-245.575 50.2228 12.7
-246.223 49.194 12.7
3 1 0 2
3 2 0 5
3 3 5 4
3 5 3 2
3 1 0 7
3 7 0 6
3 2 1 8
3 8 1 7
3 0 5 6
3 6 5 11
3 5 4 11
3 11 4 10
3 4 3 10
3 10 3 9
3 3 2 9
3 9 2 8
