ply
format ascii 1.0
comment Created by Open3D
element vertex 12
property double x
property double y
property double z
element face 16
property list uchar uint vertex_indices
end_header
174.1 -21.4904 0
169.363 -28.9608 0
168.963 -28.71 0
135.85 -7.69513 0
140.587 -0.224704 0
170.084 -18.9495 0
174.1 -21.4904 46.8
169.363 -28.9608 46.8
168.963 -28.71 46.8
135.85 -7.69513 46.8
140.587 -0.224704 46.8
170.084 -18.9495 46.8
3 4 3 5
3 5 3 2
3 0 5 2
3 0 2 1
3 4 3 10
3 10 3 9
3 5 4 11
3 11 4 10
3 3 2 9
3 9 2 8
3 0 5 6
3 6 5 11
3 2 1 8
3 8 1 7
3 1 0 7
3 7 0 6
