ply
format ascii 1.0
comment Created by Open3D
element vertex 10
property double x
property double y
property double z
element face 13
property list uchar uint vertex_indices
end_header
-231.769 -174.982 0
-238.064 -170.99 0
-224.507 -149.586 0
-218.211 -153.578 0
-218.784 -154.484 0
-231.769 -174.982 29.1
-238.064 -170.99 29.1
-224.507 -149.586 29.1
-218.211 -153.578 29.1
-218.784 -154.484 29.1
3 1 0 4
3 2 4 3
3 4 2 1
3 1 0 6
3 6 0 5
3 0 4 5
3 5 4 9
3 4 3 9
3 9 3 8
3 3 2 8
3 8 2 7
3 2 1 7
3 7 1 6
