ply
format ascii 1.0
comment Created by Open3D
element vertex 20
property double x
property double y
property double z
element face 28
property list uchar uint vertex_indices
end_header
118.943 49.3276 0
126.647 45.4063 0
127.45 47.0992 0
136.004 43.0738 0
134.727 40.7604 0
136.433 39.8309 0
131.66 31.4171 0
129.016 32.7817 0
118.976 37.9633 0
114.171 40.4365 0
118.943 49.3276 14
126.647 45.4063 14
127.45 47.0992 14
136.004 43.0738 14
134.727 40.7604 14
136.433 39.8309 14
131.66 31.4171 14
129.016 32.7817 14
118.976 37.9633 14
114.171 40.4365 14
3 9 8 0
3 1 0 8
3 2 1 3
3 8 7 1
3 7 6 4
3 5 4 6
3 3 1 4
3 4 1 7
3 9 8 19
3 19 8 18
3 0 9 10
3 10 9 19
3 1 0 11
3 11 0 10
3 2 1 12
3 12 1 11
3 3 2 13
3 13 2 12
3 8 7 18
3 18 7 17
3 7 6 17
3 17 6 16
3 5 4 15
3 15 4 14
3 6 5 16
3 16 5 15
3 4 3 14
3 14 3 13
