ply
format ascii 1.0
comment Created by Open3D
element vertex 148
property double x
property double y
property double z
element face 220
property list uchar uint vertex_indices
end_header
-109.222 229.551 0
-108.027 231.885 0
-106.203 230.925 0
-104.597 230.071 0
-105.773 227.637 0
-104.112 226.718 0
-90.8418 250.861 0
-81.78 245.825 0
-83.9585 241.794 0
-75.9379 237.38 0
-78.1173 233.394 0
-54.0666 220.24 0
-59.0422 211.156 0
-63.2668 213.475 0
-67.5523 205.449 0
-71.4576 207.597 0
-73.1673 204.431 0
-75.2762 200.524 0
-60.0577 192.211 0
-62.3175 188.19 0
-53.4679 183.383 0
-55.6191 179.342 0
-39.576 170.425 0
-44.5106 161.53 0
-47.1654 162.972 0
-51.496 154.945 0
-54.2406 156.363 0
-58.6484 148.579 0
-61.282 149.866 0
-65.8026 141.868 0
-73.7691 146.284 0
-75.2185 143.6 0
-84.2239 148.527 0
-78.5237 159.169 0
-84.1256 162.224 0
-76.8451 175.33 0
-78.3318 176.12 0
-81.0189 170.98 0
-114.37 188.932 0
-109.865 197.252 0
-117.783 201.524 0
-117.161 202.78 0
-124.097 206.651 0
-124.72 205.428 0
-128.807 207.662 0
-130.938 203.51 0
-134.981 205.777 0
-137.107 201.793 0
-141.193 203.948 0
-143.401 200.039 0
-147.652 202.336 0
-149.663 198.508 0
-163.167 205.892 0
-161.638 208.688 0
-172.033 214.051 0
-173.618 210.988 0
-191.846 220.847 0
-191.058 222.417 0
-190.575 222.161 0
-180.349 241.001 0
-176.56 238.828 0
-160.55 267.723 0
-144.896 259.285 0
-146.499 255.744 0
-141.901 253.256 0
-140.991 255.028 0
-135.598 252.013 0
-134.639 253.598 0
-129.246 250.626 0
-128.288 252.222 0
-121.938 248.738 0
-122.928 246.964 0
-106.928 238.345 0
-111.047 230.556 0
-109.222 229.551 14
-108.027 231.885 14
-106.203 230.925 14
-104.597 230.071 14
-105.773 227.637 14
-104.112 226.718 14
-90.8418 250.861 14
-81.78 245.825 14
-83.9585 241.794 14
-75.9379 237.38 14
-78.1173 233.394 14
-54.0666 220.24 14
-59.0422 211.156 14
-63.2668 213.475 14
-67.5523 205.449 14
-71.4576 207.597 14
-73.1673 204.431 14
-75.2762 200.524 14
-60.0577 192.211 14
-62.3175 188.19 14
-53.4679 183.383 14
-55.6191 179.342 14
-39.576 170.425 14
-44.5106 161.53 14
-47.1654 162.972 14
-51.496 154.945 14
-54.2406 156.363 14
-58.6484 148.579 14
-61.282 149.866 14
-65.8026 141.868 14
-73.7691 146.284 14
-75.2185 143.6 14
-84.2239 148.527 14
-78.5237 159.169 14
-84.1256 162.224 14
-76.8451 175.33 14
-78.3318 176.12 14
-81.0189 170.98 14
-114.37 188.932 14
-109.865 197.252 14
-117.783 201.524 14
-117.161 202.78 14
-124.097 206.651 14
-124.72 205.428 14
-128.807 207.662 14
-130.938 203.51 14
-134.981 205.777 14
-137.107 201.793 14
-141.193 203.948 14
-143.401 200.039 14
-147.652 202.336 14
-149.663 198.508 14
-163.167 205.892 14
-161.638 208.688 14
-172.033 214.051 14
-173.618 210.988 14
-191.846 220.847 14
-191.058 222.417 14
-190.575 222.161 14
-180.349 241.001 14
-176.56 238.828 14
-160.55 267.723 14
-144.896 259.285 14
-146.499 255.744 14
-141.901 253.256 14
-140.991 255.028 14
-135.598 252.013 14
-134.639 253.598 14
-129.246 250.626 14
-128.288 252.222 14
-121.938 248.738 14
-122.928 246.964 14
-106.928 238.345 14
-111.047 230.556 14
3 51 50 53
3 50 49 48
3 55 54 58
3 51 53 52
3 53 50 48
3 60 54 53
3 48 64 53
3 47 46 48
3 41 40 39
3 39 38 36
3 4 42 41
3 46 45 44
3 44 43 42
3 44 42 73
3 64 48 46
3 42 4 0
3 44 66 46
3 57 56 58
3 60 53 64
3 58 54 60
3 59 58 60
3 61 60 63
3 63 62 61
3 60 64 63
3 56 55 58
3 71 70 69
3 44 73 71
3 2 1 0
3 71 73 72
3 66 44 71
3 65 64 66
3 68 67 66
3 69 68 71
3 66 71 68
3 64 46 66
3 42 0 73
3 5 41 39
3 32 31 30
3 33 30 28
3 32 30 33
3 38 37 36
3 34 33 35
3 26 35 33
3 19 36 35
3 17 39 36
3 28 30 29
3 28 27 26
3 26 25 24
3 26 21 35
3 35 21 19
3 24 23 22
3 24 22 21
3 21 26 24
3 26 33 28
3 20 19 21
3 2 4 3
3 4 2 0
3 5 10 8
3 5 4 41
3 9 8 10
3 8 7 6
3 6 5 8
3 5 15 10
3 15 5 16
3 18 17 19
3 17 5 39
3 13 11 10
3 10 15 13
3 13 12 11
3 13 15 14
3 16 5 17
3 36 19 17
3 51 50 125
3 125 50 124
3 50 49 124
3 124 49 123
3 49 48 123
3 123 48 122
3 55 54 129
3 129 54 128
3 53 52 127
3 127 52 126
3 52 51 126
3 126 51 125
3 54 53 128
3 128 53 127
3 47 46 121
3 121 46 120
3 48 47 122
3 122 47 121
3 41 40 115
3 115 40 114
3 40 39 114
3 114 39 113
3 39 38 113
3 113 38 112
3 42 41 116
3 116 41 115
3 46 45 120
3 120 45 119
3 45 44 119
3 119 44 118
3 44 43 118
3 118 43 117
3 43 42 117
3 117 42 116
3 57 56 131
3 131 56 130
3 58 57 132
3 132 57 131
3 59 58 133
3 133 58 132
3 60 59 134
3 134 59 133
3 61 60 135
3 135 60 134
3 63 62 137
3 137 62 136
3 62 61 136
3 136 61 135
3 64 63 138
3 138 63 137
3 56 55 130
3 130 55 129
3 71 70 145
3 145 70 144
3 70 69 144
3 144 69 143
3 2 1 76
3 76 1 75
3 1 0 75
3 75 0 74
3 73 72 147
3 147 72 146
3 72 71 146
3 146 71 145
3 65 64 139
3 139 64 138
3 66 65 140
3 140 65 139
3 68 67 142
3 142 67 141
3 67 66 141
3 141 66 140
3 69 68 143
3 143 68 142
3 0 73 74
3 74 73 147
3 32 31 106
3 106 31 105
3 31 30 105
3 105 30 104
3 33 32 107
3 107 32 106
3 38 37 112
3 112 37 111
3 37 36 111
3 111 36 110
3 34 33 108
3 108 33 107
3 35 34 109
3 109 34 108
3 36 35 110
3 110 35 109
3 30 29 104
3 104 29 103
3 29 28 103
3 103 28 102
3 28 27 102
3 102 27 101
3 27 26 101
3 101 26 100
3 26 25 100
3 100 25 99
3 25 24 99
3 99 24 98
3 24 23 98
3 98 23 97
3 23 22 97
3 97 22 96
3 22 21 96
3 96 21 95
3 20 19 94
3 94 19 93
3 21 20 95
3 95 20 94
3 4 3 78
3 78 3 77
3 3 2 77
3 77 2 76
3 5 4 79
3 79 4 78
3 9 8 83
3 83 8 82
3 10 9 84
3 84 9 83
3 8 7 82
3 82 7 81
3 7 6 81
3 81 6 80
3 6 5 80
3 80 5 79
3 16 15 90
3 90 15 89
3 18 17 92
3 92 17 91
3 19 18 93
3 93 18 92
3 11 10 85
3 85 10 84
3 13 12 87
3 87 12 86
3 12 11 86
3 86 11 85
3 15 14 89
3 89 14 88
3 14 13 88
3 88 13 87
3 17 16 91
3 91 16 90
