ply
format ascii 1.0
comment Created by Open3D
element vertex 20
property double x
property double y
property double z
element face 28
property list uchar uint vertex_indices
end_header
20.0784 -203.493 0
59.2921 -191.099 0
89.9274 -285.245 0
49.938 -297.655 0
34.216 -248.088 0
22.1856 -251.117 0
20.7093 -254.234 0
13.6429 -249.755 0
24.847 -230.251 0
27.9717 -231.728 0
20.0784 -203.493 21
59.2921 -191.099 21
89.9274 -285.245 21
49.938 -297.655 21
34.216 -248.088 21
22.1856 -251.117 21
20.7093 -254.234 21
13.6429 -249.755 21
24.847 -230.251 21
27.9717 -231.728 21
3 6 5 7
3 8 7 5
3 5 9 8
3 3 2 4
3 9 4 1
3 9 5 4
3 1 4 2
3 9 1 0
3 6 5 16
3 16 5 15
3 7 6 17
3 17 6 16
3 8 7 18
3 18 7 17
3 9 8 19
3 19 8 18
3 3 2 13
3 13 2 12
3 4 3 14
3 14 3 13
3 5 4 15
3 15 4 14
3 2 1 12
3 12 1 11
3 1 0 11
3 11 0 10
3 0 9 10
3 10 9 19
