ply
format ascii 1.0
comment Created by Open3D
element vertex 14
property double x
property double y
property double z
element face 12
property list uchar uint vertex_indices
end_header
23.6479 105.835 17.5
33.5522 100.629 17.5
28.0073 89.8899 17.5
33.0163 87.5874 17.5
28.49 78.5795 17.5
26.1685 79.6069 17.5
20.7015 69.0253 17.5
12.6244 73.5493 17.5
17.2846 82.1938 17.5
9.45194 86.2456 17.5
14.1147 94.7681 17.5
11.2987 96.1514 17.5
17.1209 106.996 17.5
22.7491 103.985 17.5
3 7 6 8
3 2 10 8
3 10 12 11
3 13 12 10
3 9 8 10
3 8 6 5
3 5 4 3
3 5 3 2
3 0 13 1
3 2 1 13
3 10 2 13
3 2 8 5
