ply
format ascii 1.0
comment Created by Open3D
element vertex 24
property double x
property double y
property double z
element face 34
property list uchar uint vertex_indices
end_header
-266.475 -102.423 0
-236.421 -118.847 0
-234.597 -115.512 0
-223.429 -121.614 0
-255.939 -181.134 0
-256.833 -180.642 0
-257.536 -181.945 0
-256.953 -182.265 0
-260.009 -187.857 0
-267.044 -184.021 0
-265.133 -180.518 0
-299.02 -162.011 0
-266.475 -102.423 14
-236.421 -118.847 14
-234.597 -115.512 14
-223.429 -121.614 14
-255.939 -181.134 14
-256.833 -180.642 14
-257.536 -181.945 14
-256.953 -182.265 14
-260.009 -187.857 14
-267.044 -184.021 14
-265.133 -180.518 14
-299.02 -162.011 14
3 10 9 8
3 6 8 7
3 10 8 6
3 0 11 1
3 10 1 11
3 10 6 5
3 5 4 1
3 1 3 2
3 3 1 4
3 5 1 10
3 10 9 22
3 22 9 21
3 9 8 21
3 21 8 20
3 8 7 20
3 20 7 19
3 7 6 19
3 19 6 18
3 0 11 12
3 12 11 23
3 1 0 13
3 13 0 12
3 11 10 23
3 23 10 22
3 6 5 18
3 18 5 17
3 5 4 17
3 17 4 16
3 3 2 15
3 15 2 14
3 2 1 14
3 14 1 13
3 4 3 16
3 16 3 15
