ply
format ascii 1.0
comment Created by Open3D
element vertex 24
property double x
property double y
property double z
element face 34
property list uchar uint vertex_indices
end_header
104.011 11.6869 0
114.651 6.25169 0
112.078 2.10186 0
113.913 1.0641 0
109.605 -6.74061 0
106.915 -5.35468 0
105.87 -7.54103 0
98.0462 -3.48904 0
99.0873 -1.54695 0
91.9963 2.39846 0
96.1734 10.4335 0
101.925 7.54739 0
104.011 11.6869 24.5
114.651 6.25169 24.5
112.078 2.10186 24.5
113.913 1.0641 24.5
109.605 -6.74061 24.5
106.915 -5.35468 24.5
105.87 -7.54103 24.5
98.0462 -3.48904 24.5
99.0873 -1.54695 24.5
91.9963 2.39846 24.5
96.1734 10.4335 24.5
101.925 7.54739 24.5
3 8 7 6
3 9 8 11
3 11 10 9
3 2 0 11
3 11 8 2
3 5 4 2
3 6 5 8
3 3 2 4
3 1 0 2
3 2 8 5
3 8 7 20
3 20 7 19
3 7 6 19
3 19 6 18
3 9 8 21
3 21 8 20
3 11 10 23
3 23 10 22
3 10 9 22
3 22 9 21
3 0 11 12
3 12 11 23
3 5 4 17
3 17 4 16
3 6 5 18
3 18 5 17
3 3 2 15
3 15 2 14
3 4 3 16
3 16 3 15
3 1 0 13
3 13 0 12
3 2 1 14
3 14 1 13
