ply
format ascii 1.0
comment Created by Open3D
element vertex 32
property double x
property double y
property double z
element face 46
property list uchar uint vertex_indices
end_header
39.4776 -6.42587 0
38.781 -8.02771 0
33.6852 -5.46069 0
21.0603 0.876056 0
21.9895 2.5716 0
17.0989 5.24286 0
11.1543 -5.35997 0
14.3271 -6.97988 0
15.2751 -5.75008 0
29.3362 -13.0442 0
28.4174 -15.2279 0
37.2872 -19.7018 0
49.0739 -25.6345 0
52.9222 -18.683 0
49.989 -17.3022 0
52.2957 -13.3689 0
39.4776 -6.42587 14
38.781 -8.02771 14
33.6852 -5.46069 14
21.0603 0.876056 14
21.9895 2.5716 14
17.0989 5.24286 14
11.1543 -5.35997 14
14.3271 -6.97988 14
15.2751 -5.75008 14
29.3362 -13.0442 14
28.4174 -15.2279 14
37.2872 -19.7018 14
49.0739 -25.6345 14
52.9222 -18.683 14
49.989 -17.3022 14
52.2957 -13.3689 14
3 7 8 6
3 9 10 11
3 8 9 3
3 6 8 5
3 3 4 5
3 8 3 5
3 3 9 2
3 11 12 14
3 13 14 12
3 11 14 1
3 2 9 1
3 15 0 1
3 1 14 15
3 1 9 11
3 7 8 23
3 23 8 24
3 6 7 22
3 22 7 23
3 9 10 25
3 25 10 26
3 10 11 26
3 26 11 27
3 8 9 24
3 24 9 25
3 5 6 21
3 21 6 22
3 3 4 19
3 19 4 20
3 4 5 20
3 20 5 21
3 2 3 18
3 18 3 19
3 11 12 27
3 27 12 28
3 13 14 29
3 29 14 30
3 12 13 28
3 28 13 29
3 1 2 17
3 17 2 18
3 15 0 31
3 31 0 16
3 0 1 16
3 16 1 17
3 14 15 30
3 30 15 31
