ply
format ascii 1.0
comment Created by Open3D
element vertex 24
property double x
property double y
property double z
element face 34
property list uchar uint vertex_indices
end_header
218.837 54.305 0
252.825 36.5563 0
273.876 25.4483 0
275.298 28.1199 0
289.344 19.4385 0
280.929 3.26712 0
265.041 11.6543 0
266.36 14.1128 0
246.76 24.4524 0
225.894 35.3536 0
222.452 28.8324 0
209.092 35.8081 0
218.837 54.305 21
252.825 36.5563 21
273.876 25.4483 21
275.298 28.1199 21
289.344 19.4385 21
280.929 3.26712 21
265.041 11.6543 21
266.36 14.1128 21
246.76 24.4524 21
225.894 35.3536 21
222.452 28.8324 21
209.092 35.8081 21
3 9 8 1
3 10 9 11
3 9 0 11
3 0 9 1
3 8 7 1
3 6 5 7
3 7 5 2
3 2 4 3
3 4 2 5
3 2 1 7
3 9 8 21
3 21 8 20
3 10 9 22
3 22 9 21
3 11 10 23
3 23 10 22
3 0 11 12
3 12 11 23
3 1 0 13
3 13 0 12
3 8 7 20
3 20 7 19
3 6 5 18
3 18 5 17
3 7 6 19
3 19 6 18
3 4 3 16
3 16 3 15
3 3 2 15
3 15 2 14
3 5 4 17
3 17 4 16
3 2 1 14
3 14 1 13
