ply
format ascii 1.0
comment Created by Open3D
element vertex 52
property double x
property double y
property double z
element face 76
property list uchar uint vertex_indices
end_header
-51.2624 -229.895 0
-47.982 -223.8 0
-14.2861 -241.777 0
-39.5657 -288.737 0
-71.9755 -271.454 0
-84.6025 -294.906 0
-87.1112 -293.56 0
-93.403 -305.247 0
-135.181 -282.933 0
-122.858 -260.065 0
-131.423 -255.485 0
-123.647 -241.059 0
-115.821 -245.233 0
-111.967 -238.082 0
-109.814 -239.235 0
-106.143 -232.42 0
-111.817 -229.388 0
-108.207 -222.686 0
-104.677 -224.565 0
-100.928 -217.604 0
-110.204 -212.662 0
-104.503 -202.075 0
-95.7823 -206.73 0
-91.2609 -198.333 0
-78.7552 -204.994 0
-83.0336 -212.942 0
-51.2624 -229.895 17.5
-47.982 -223.8 17.5
-14.2861 -241.777 17.5
-39.5657 -288.737 17.5
-71.9755 -271.454 17.5
-84.6025 -294.906 17.5
-87.1112 -293.56 17.5
-93.403 -305.247 17.5
-135.181 -282.933 17.5
-122.858 -260.065 17.5
-131.423 -255.485 17.5
-123.647 -241.059 17.5
-115.821 -245.233 17.5
-111.967 -238.082 17.5
-109.814 -239.235 17.5
-106.143 -232.42 17.5
-111.817 -229.388 17.5
-108.207 -222.686 17.5
-104.677 -224.565 17.5
-100.928 -217.604 17.5
-110.204 -212.662 17.5
-104.503 -202.075 17.5
-95.7823 -206.73 17.5
-91.2609 -198.333 17.5
-78.7552 -204.994 17.5
-83.0336 -212.942 17.5
3 10 12 11
3 12 4 14
3 9 4 12
3 9 12 10
3 9 8 6
3 13 12 14
3 18 17 16
3 18 15 25
3 21 20 22
3 18 16 15
3 14 4 15
3 6 5 4
3 4 9 6
3 0 4 3
3 0 3 2
3 15 4 0
3 22 25 23
3 25 22 19
3 19 22 20
3 1 0 2
3 25 24 23
3 19 18 25
3 0 25 15
3 6 8 7
3 12 11 38
3 38 11 37
3 11 10 37
3 37 10 36
3 10 9 36
3 36 9 35
3 9 8 35
3 35 8 34
3 13 12 39
3 39 12 38
3 14 13 40
3 40 13 39
3 18 17 44
3 44 17 43
3 17 16 43
3 43 16 42
3 21 20 47
3 47 20 46
3 22 21 48
3 48 21 47
3 16 15 42
3 42 15 41
3 15 14 41
3 41 14 40
3 6 5 32
3 32 5 31
3 5 4 31
3 31 4 30
3 4 3 30
3 30 3 29
3 3 2 29
3 29 2 28
3 23 22 49
3 49 22 48
3 20 19 46
3 46 19 45
3 1 0 27
3 27 0 26
3 2 1 28
3 28 1 27
3 25 24 51
3 51 24 50
3 24 23 50
3 50 23 49
3 19 18 45
3 45 18 44
3 0 25 26
3 26 25 51
3 8 7 34
3 34 7 33
3 7 6 33
3 33 6 32
