ply
format ascii 1.0
comment Created by Open3D
element vertex 84
property double x
property double y
property double z
element face 124
property list uchar uint vertex_indices
end_header
-242.184 -197.014 0
-240.897 -197.731 0
-243.102 -201.795 0
-241.588 -206.857 0
-235.731 -210.041 0
-236.01 -210.502 0
-235.727 -210.629 0
-238.349 -215.49 0
-238.842 -215.201 0
-244.286 -225.161 0
-243.776 -225.416 0
-245.947 -229.391 0
-239.112 -233.142 0
-240.45 -235.557 0
-232.832 -239.702 0
-225.907 -243.474 0
-224.641 -241.072 0
-217.744 -244.811 0
-215.591 -240.803 0
-215.098 -241.103 0
-209.671 -231.167 0
-210.173 -230.877 0
-207.306 -225.712 0
-201.566 -228.876 0
-196.251 -227.32 0
-182.949 -202.933 0
-180.914 -204.067 0
-181.688 -205.437 0
-177.938 -207.489 0
-168.508 -190.231 0
-172.294 -188.169 0
-173.023 -189.527 0
-175.03 -188.438 0
-161.666 -164.016 0
-163.229 -158.744 0
-168.95 -155.624 0
-168.715 -155.197 0
-197.228 -139.617 0
-197.437 -139.999 0
-203.176 -136.857 0
-208.655 -138.76 0
-209.951 -138.044 0
-242.184 -197.014 17.5
-240.897 -197.731 17.5
-243.102 -201.795 17.5
-241.588 -206.857 17.5
-235.731 -210.041 17.5
-236.01 -210.502 17.5
-235.727 -210.629 17.5
-238.349 -215.49 17.5
-238.842 -215.201 17.5
-244.286 -225.161 17.5
-243.776 -225.416 17.5
-245.947 -229.391 17.5
-239.112 -233.142 17.5
-240.45 -235.557 17.5
-232.832 -239.702 17.5
-225.907 -243.474 17.5
-224.641 -241.072 17.5
-217.744 -244.811 17.5
-215.591 -240.803 17.5
-215.098 -241.103 17.5
-209.671 -231.167 17.5
-210.173 -230.877 17.5
-207.306 -225.712 17.5
-201.566 -228.876 17.5
-196.251 -227.32 17.5
-182.949 -202.933 17.5
-180.914 -204.067 17.5
-181.688 -205.437 17.5
-177.938 -207.489 17.5
-168.508 -190.231 17.5
-172.294 -188.169 17.5
-173.023 -189.527 17.5
-175.03 -188.438 17.5
-161.666 -164.016 17.5
-163.229 -158.744 17.5
-168.95 -155.624 17.5
-168.715 -155.197 17.5
-197.228 -139.617 17.5
-197.437 -139.999 17.5
-203.176 -136.857 17.5
-208.655 -138.76 17.5
-209.951 -138.044 17.5
3 12 14 16
3 12 13 14
3 10 11 12
3 14 15 16
3 16 18 21
3 18 16 17
3 20 21 18
3 16 21 12
3 18 19 20
3 7 12 21
3 1 2 3
3 9 10 8
3 7 8 10
3 6 7 21
3 3 4 1
3 4 5 6
3 25 1 4
3 4 6 22
3 10 12 7
3 0 1 40
3 22 6 21
3 22 24 25
3 24 22 23
3 25 32 1
3 4 22 25
3 27 28 26
3 26 29 31
3 29 26 28
3 31 29 30
3 31 25 26
3 32 25 31
3 37 38 35
3 0 40 41
3 39 40 38
3 38 40 32
3 32 33 35
3 34 35 33
3 35 36 37
3 32 35 38
3 32 40 1
3 12 13 54
3 54 13 55
3 13 14 55
3 55 14 56
3 10 11 52
3 52 11 53
3 11 12 53
3 53 12 54
3 14 15 56
3 56 15 57
3 15 16 57
3 57 16 58
3 16 17 58
3 58 17 59
3 17 18 59
3 59 18 60
3 20 21 62
3 62 21 63
3 18 19 60
3 60 19 61
3 19 20 61
3 61 20 62
3 1 2 43
3 43 2 44
3 2 3 44
3 44 3 45
3 9 10 51
3 51 10 52
3 8 9 50
3 50 9 51
3 7 8 49
3 49 8 50
3 6 7 48
3 48 7 49
3 3 4 45
3 45 4 46
3 4 5 46
3 46 5 47
3 5 6 47
3 47 6 48
3 0 1 42
3 42 1 43
3 21 22 63
3 63 22 64
3 24 25 66
3 66 25 67
3 22 23 64
3 64 23 65
3 23 24 65
3 65 24 66
3 27 28 69
3 69 28 70
3 26 27 68
3 68 27 69
3 28 29 70
3 70 29 71
3 29 30 71
3 71 30 72
3 30 31 72
3 72 31 73
3 25 26 67
3 67 26 68
3 31 32 73
3 73 32 74
3 37 38 79
3 79 38 80
3 40 41 82
3 82 41 83
3 41 0 83
3 83 0 42
3 39 40 81
3 81 40 82
3 38 39 80
3 80 39 81
3 32 33 74
3 74 33 75
3 34 35 76
3 76 35 77
3 33 34 75
3 75 34 76
3 35 36 77
3 77 36 78
3 36 37 78
3 78 37 79
