ply
format ascii 1.0
comment Created by Open3D
element vertex 14
property double x
property double y
property double z
element face 19
property list uchar uint vertex_indices
end_header
-84.0346 138.287 0
-63.848 127.049 0
-72.4787 114.669 0
-85.2154 84.4887 0
-92.0226 88.2404 0
-92.4047 87.5443 0
-107.415 95.8285 0
-84.0346 138.287 17.5
-63.848 127.049 17.5
-72.4787 114.669 17.5
-85.2154 84.4887 17.5
-92.0226 88.2404 17.5
-92.4047 87.5443 17.5
-107.415 95.8285 17.5
3 6 5 4
3 6 4 2
3 2 0 6
3 1 0 2
3 2 4 3
3 6 5 13
3 13 5 12
3 5 4 12
3 12 4 11
3 0 6 7
3 7 6 13
3 1 0 8
3 8 0 7
3 2 1 9
3 9 1 8
3 4 3 11
3 11 3 10
3 3 2 10
3 10 2 9
