ply
format ascii 1.0
comment Created by Open3D
element vertex 32
property double x
property double y
property double z
element face 46
property list uchar uint vertex_indices
end_header
248.447 -163.013 0
245.504 -168.447 0
249.29 -170.475 0
247.285 -174.192 0
288.318 -196.208 0
289.794 -193.48 0
301.699 -199.865 0
310.239 -184.09 0
308.68 -183.258 0
316.318 -169.167 0
314.858 -168.377 0
322.965 -153.4 0
294.958 -138.377 0
276.679 -172.138 0
255.743 -160.905 0
253.208 -165.565 0
248.447 -163.013 14
245.504 -168.447 14
249.29 -170.475 14
247.285 -174.192 14
288.318 -196.208 14
289.794 -193.48 14
301.699 -199.865 14
310.239 -184.09 14
308.68 -183.258 14
316.318 -169.167 14
314.858 -168.377 14
322.965 -153.4 14
294.958 -138.377 14
276.679 -172.138 14
255.743 -160.905 14
253.208 -165.565 14
3 2 3 13
3 13 4 5
3 4 13 3
3 2 13 15
3 1 2 0
3 14 15 13
3 2 15 0
3 5 6 8
3 7 8 6
3 8 10 13
3 12 10 11
3 12 13 10
3 10 8 9
3 13 5 8
3 2 3 18
3 18 3 19
3 4 5 20
3 20 5 21
3 3 4 19
3 19 4 20
3 1 2 17
3 17 2 18
3 0 1 16
3 16 1 17
3 14 15 30
3 30 15 31
3 13 14 29
3 29 14 30
3 15 0 31
3 31 0 16
3 5 6 21
3 21 6 22
3 7 8 23
3 23 8 24
3 6 7 22
3 22 7 23
3 10 11 26
3 26 11 27
3 11 12 27
3 27 12 28
3 12 13 28
3 28 13 29
3 8 9 24
3 24 9 25
3 9 10 25
3 25 10 26
