ply
format ascii 1.0
comment Created by Open3D
element vertex 24
property double x
property double y
property double z
element face 22
property list uchar uint vertex_indices
end_header
151.889 98.315 14
161.428 93.3449 14
158.868 88.5959 14
187.121 73.7778 14
203.573 104.814 14
212.909 100.039 14
199.729 75.5097 14
194.549 65.8663 14
199.439 63.1951 14
195.246 55.526 14
187.783 59.5744 14
186.027 56.8958 14
179.538 60.4876 14
181.3 63.2996 14
153.047 78.1066 14
146.152 66.407 14
146.771 65.6987 14
141.778 56.2036 14
140.431 56.7744 14
138.56 53.9602 14
132.935 56.8489 14
134.685 59.7827 14
129.425 62.4349 14
150.182 98.8782 14
3 21 20 19
3 22 21 15
3 21 18 15
3 19 18 21
3 16 18 17
3 22 14 23
3 16 15 18
3 14 22 15
3 0 14 2
3 14 0 23
3 13 2 14
3 0 2 1
3 12 11 13
3 13 11 10
3 3 2 13
3 7 10 9
3 13 10 7
3 8 7 9
3 3 13 7
3 3 7 6
3 6 5 4
3 6 4 3
