ply
format ascii 1.0
comment Created by Open3D
element vertex 14
property double x
property double y
property double z
element face 12
property list uchar uint vertex_indices
end_header
195.109 40.6509 21
207.031 33.8666 21
181.134 -12.7964 21
183.38 -17.0441 21
176.172 -28.9168 21
173.591 -27.5619 21
167.695 -38.3192 21
155.672 -31.8811 21
161.506 -22.0019 21
154.752 -18.2381 21
161.757 -6.16992 21
165.456 -4.52674 21
169.006 -5.62808 21
170.582 -5.98317 21
3 7 6 8
3 12 8 13
3 9 8 10
3 12 11 10
3 8 12 10
3 8 6 5
3 5 4 3
3 5 3 2
3 13 2 1
3 13 8 2
3 1 0 13
3 2 8 5
