ply
format ascii 1.0
comment Created by Open3D
element vertex 12
property double x
property double y
property double z
element face 16
property list uchar uint vertex_indices
end_header
-206.044 314.963 0
-245.58 250.844 0
-206.038 226.685 0
-197.833 221.664 0
-158.298 285.783 0
-199.915 310.42 0
-206.044 314.963 21
-245.58 250.844 21
-206.038 226.685 21
-197.833 221.664 21
-158.298 285.783 21
-199.915 310.42 21
3 0 1 5
3 5 1 2
3 2 4 5
3 4 2 3
3 0 1 6
3 6 1 7
3 5 0 11
3 11 0 6
3 1 2 7
3 7 2 8
3 4 5 10
3 10 5 11
3 2 3 8
3 8 3 9
3 3 4 9
3 9 4 10
