ply
format ascii 1.0
comment Created by Open3D
element vertex 20
property double x
property double y
property double z
element face 28
property list uchar uint vertex_indices
end_header
-21.1602 75.7206 0
-26.975 64.5212 0
-37.612 69.8346 0
-38.8889 67.5213 0
-46.2347 71.5835 0
-39.6183 84.9641 0
-36.8165 83.8246 0
-34.3684 88.3269 0
-24.9584 83.4649 0
-27.4027 79.2068 0
-21.1602 75.7206 7
-26.975 64.5212 7
-37.612 69.8346 7
-38.8889 67.5213 7
-46.2347 71.5835 7
-39.6183 84.9641 7
-36.8165 83.8246 7
-34.3684 88.3269 7
-24.9584 83.4649 7
-27.4027 79.2068 7
3 3 2 4
3 4 6 5
3 6 4 2
3 2 9 6
3 1 0 9
3 7 9 8
3 7 6 9
3 9 2 1
3 3 2 13
3 13 2 12
3 4 3 14
3 14 3 13
3 6 5 16
3 16 5 15
3 5 4 15
3 15 4 14
3 1 0 11
3 11 0 10
3 0 9 10
3 10 9 19
3 9 8 19
3 19 8 18
3 8 7 18
3 18 7 17
3 7 6 17
3 17 6 16
3 2 1 12
3 12 1 11
