ply
format ascii 1.0
comment Created by Open3D
element vertex 12
property double x
property double y
property double z
element face 10
property list uchar uint vertex_indices
end_header
20.5772 -50.9205 14
20.0037 -52.3754 14
23.6824 -54.4619 14
19.1486 -63.1148 14
6.2563 -56.5062 14
3.12883 -54.8965 14
2.07628 -56.7278 14
-5.74984 -52.5648 14
-4.47064 -50.3624 14
-11.0761 -46.7729 14
-5.8247 -37.5055 14
11.4131 -46.1753 14
3 8 7 6
3 8 6 5
3 9 8 10
3 11 10 8
3 8 5 11
3 1 4 3
3 1 3 2
3 11 1 0
3 1 11 4
3 4 11 5
