ply
format ascii 1.0
comment Created by Open3D
element vertex 27
property double x
property double y
property double z
element face 25
property list uchar uint vertex_indices
end_header
207.978 256.715 17.5
206.919 254.783 17.5
212.84 251.546 17.5
208.028 242.842 17.5
202.481 245.877 17.5
200.804 242.845 17.5
222.93 230.738 17.5
226.83 237.791 17.5
253.19 223.366 17.5
254.172 225.14 17.5
263.077 220.257 17.5
261.279 217 17.5
266.161 214.329 17.5
260.341 203.795 17.5
254.84 206.808 17.5
252.99 203.451 17.5
245.106 207.768 17.5
246.948 211.103 17.5
232.823 218.828 17.5
227.482 209.148 17.5
222.6 211.819 17.5
176.249 237.198 17.5
180.679 245.216 17.5
182.477 244.233 17.5
191.414 260.415 17.5
194.644 258.641 17.5
196.919 262.774 17.5
3 21 23 22
3 23 21 5
3 20 5 21
3 25 23 5
3 24 23 25
3 26 25 1
3 4 2 1
3 2 4 3
3 1 0 26
3 4 1 25
3 5 4 25
3 6 5 20
3 17 16 15
3 17 14 11
3 13 11 14
3 15 14 17
3 13 12 11
3 6 18 7
3 6 20 18
3 18 8 7
3 11 10 8
3 9 8 10
3 8 18 17
3 17 11 8
3 18 20 19
