ply
format ascii 1.0
comment Created by Open3D
element vertex 24
property double x
property double y
property double z
element face 34
property list uchar uint vertex_indices
end_header
70.0295 -46.7671 0
66.021 -53.8218 0
64.498 -53.0216 0
62.7557 -57.2094 0
63.9468 -58.516 0
58.9287 -65.5921 0
71.4293 -73.2966 0
76.2464 -64.3934 0
77.5912 -64.8644 0
78.6839 -61.5228 0
77.1628 -60.3897 0
82.5147 -53.3176 0
70.0295 -46.7671 17.5
66.021 -53.8218 17.5
64.498 -53.0216 17.5
62.7557 -57.2094 17.5
63.9468 -58.516 17.5
58.9287 -65.5921 17.5
71.4293 -73.2966 17.5
76.2464 -64.3934 17.5
77.5912 -64.8644 17.5
78.6839 -61.5228 17.5
77.1628 -60.3897 17.5
82.5147 -53.3176 17.5
3 4 5 6
3 3 4 1
3 1 2 3
3 10 0 1
3 1 4 10
3 7 8 9
3 7 10 4
3 9 10 7
3 10 11 0
3 7 4 6
3 4 5 16
3 16 5 17
3 5 6 17
3 17 6 18
3 3 4 15
3 15 4 16
3 1 2 13
3 13 2 14
3 2 3 14
3 14 3 15
3 0 1 12
3 12 1 13
3 7 8 19
3 19 8 20
3 8 9 20
3 20 9 21
3 9 10 21
3 21 10 22
3 10 11 22
3 22 11 23
3 11 0 23
3 23 0 12
3 6 7 18
3 18 7 19
