ply
format ascii 1.0
comment Created by Open3D
element vertex 18
property double x
property double y
property double z
element face 25
property list uchar uint vertex_indices
end_header
-21.9492 113.04 0
-24.402 114.309 0
-20.2133 122.222 0
-17.8916 121.183 0
-16.2555 123.992 0
-10.7611 121.334 0
17.1209 106.996 0
11.2987 96.1514 0
-11.9326 108.069 0
-21.9492 113.04 14
-24.402 114.309 14
-20.2133 122.222 14
-17.8916 121.183 14
-16.2555 123.992 14
-10.7611 121.334 14
17.1209 106.996 14
11.2987 96.1514 14
-11.9326 108.069 14
3 1 0 2
3 3 2 0
3 0 8 3
3 7 6 8
3 3 5 4
3 5 3 8
3 5 8 6
3 1 0 10
3 10 0 9
3 2 1 11
3 11 1 10
3 3 2 12
3 12 2 11
3 0 8 9
3 9 8 17
3 7 6 16
3 16 6 15
3 8 7 17
3 17 7 16
3 5 4 14
3 14 4 13
3 4 3 13
3 13 3 12
3 6 5 15
3 15 5 14
