ply
format ascii 1.0
comment Created by Open3D
element vertex 74
property double x
property double y
property double z
element face 72
property list uchar uint vertex_indices
end_header
-109.222 229.551 14
-108.027 231.885 14
-106.203 230.925 14
-104.597 230.071 14
-105.773 227.637 14
-104.112 226.718 14
-90.8418 250.861 14
-81.78 245.825 14
-83.9585 241.794 14
-75.9379 237.38 14
-78.1173 233.394 14
-54.0666 220.24 14
-59.0422 211.156 14
-63.2668 213.475 14
-67.5523 205.449 14
-71.4576 207.597 14
-73.1673 204.431 14
-75.2762 200.524 14
-60.0577 192.211 14
-62.3175 188.19 14
-53.4679 183.383 14
-55.6191 179.342 14
-39.576 170.425 14
-44.5106 161.53 14
-47.1654 162.972 14
-51.496 154.945 14
-54.2406 156.363 14
-58.6484 148.579 14
-61.282 149.866 14
-65.8026 141.868 14
-73.7691 146.284 14
-75.2185 143.6 14
-84.2239 148.527 14
-78.5237 159.169 14
-84.1256 162.224 14
-76.8451 175.33 14
-78.3318 176.12 14
-81.0189 170.98 14
-114.37 188.932 14
-109.865 197.252 14
-117.783 201.524 14
-117.161 202.78 14
-124.097 206.651 14
-124.72 205.428 14
-128.807 207.662 14
-130.938 203.51 14
-134.981 205.777 14
-137.107 201.793 14
-141.193 203.948 14
-143.401 200.039 14
-147.652 202.336 14
-149.663 198.508 14
-163.167 205.892 14
-161.638 208.688 14
-172.033 214.051 14
-173.618 210.988 14
-191.846 220.847 14
-191.058 222.417 14
-190.575 222.161 14
-180.349 241.001 14
-176.56 238.828 14
-160.55 267.723 14
-144.896 259.285 14
-146.499 255.744 14
-141.901 253.256 14
-140.991 255.028 14
-135.598 252.013 14
-134.639 253.598 14
-129.246 250.626 14
-128.288 252.222 14
-121.938 248.738 14
-122.928 246.964 14
-106.928 238.345 14
-111.047 230.556 14
3 51 50 53
3 50 49 48
3 55 54 58
3 51 53 52
3 53 50 48
3 60 54 53
3 48 64 53
3 47 46 48
3 41 40 39
3 39 38 36
3 4 42 41
3 46 45 44
3 44 43 42
3 44 42 73
3 64 48 46
3 42 4 0
3 44 66 46
3 57 56 58
3 60 53 64
3 58 54 60
3 59 58 60
3 61 60 63
3 63 62 61
3 60 64 63
3 56 55 58
3 71 70 69
3 44 73 71
3 2 1 0
3 71 73 72
3 66 44 71
3 65 64 66
3 68 67 66
3 69 68 71
3 66 71 68
3 64 46 66
3 42 0 73
3 5 41 39
3 32 31 30
3 33 30 28
3 32 30 33
3 38 37 36
3 34 33 35
3 26 35 33
3 19 36 35
3 17 39 36
3 28 30 29
3 28 27 26
3 26 25 24
3 26 21 35
3 35 21 19
3 24 23 22
3 24 22 21
3 21 26 24
3 26 33 28
3 20 19 21
3 2 4 3
3 4 2 0
3 5 10 8
3 5 4 41
3 9 8 10
3 8 7 6
3 6 5 8
3 5 15 10
3 15 5 16
3 18 17 19
3 17 5 39
3 13 11 10
3 10 15 13
3 13 12 11
3 13 15 14
3 16 5 17
3 36 19 17
