ply
format ascii 1.0
comment Created by Open3D
element vertex 12
property double x
property double y
property double z
element face 10
property list uchar uint vertex_indices
end_header
70.0295 -46.7671 17.5
66.021 -53.8218 17.5
64.498 -53.0216 17.5
62.7557 -57.2094 17.5
63.9468 -58.516 17.5
58.9287 -65.5921 17.5
71.4293 -73.2966 17.5
76.2464 -64.3934 17.5
77.5912 -64.8644 17.5
78.6839 -61.5228 17.5
77.1628 -60.3897 17.5
82.5147 -53.3176 17.5
3 4 5 6
3 3 4 1
3 1 2 3
3 10 0 1
3 1 4 10
3 7 8 9
3 7 10 4
3 9 10 7
3 10 11 0
3 7 4 6
