ply
format ascii 1.0
comment Created by Open3D
element vertex 13
property double x
property double y
property double z
element face 11
property list uchar uint vertex_indices
end_header
136.048 166.736 14
177.159 144.365 14
175.803 141.962 14
172.152 135.469 14
141.925 151.933 14
128.892 127.695 14
120.688 132.704 14
123.012 137.082 14
122.149 137.785 14
130.684 151.695 14
129.456 152.634 14
132.84 158.488 14
131.732 159.309 14
3 6 5 7
3 9 7 4
3 9 8 7
3 10 9 11
3 7 5 4
3 2 1 4
3 3 2 4
3 12 11 0
3 0 4 1
3 4 0 11
3 11 9 4
