ply
format ascii 1.0
comment Created by Open3D
element vertex 42
property double x
property double y
property double z
element face 40
property list uchar uint vertex_indices
end_header
-242.184 -197.014 17.5
-240.897 -197.731 17.5
-243.102 -201.795 17.5
-241.588 -206.857 17.5
-235.731 -210.041 17.5
-236.01 -210.502 17.5
-235.727 -210.629 17.5
-238.349 -215.49 17.5
-238.842 -215.201 17.5
-244.286 -225.161 17.5
-243.776 -225.416 17.5
-245.947 -229.391 17.5
-239.112 -233.142 17.5
-240.45 -235.557 17.5
-232.832 -239.702 17.5
-225.907 -243.474 17.5
-224.641 -241.072 17.5
-217.744 -244.811 17.5
-215.591 -240.803 17.5
-215.098 -241.103 17.5
-209.671 -231.167 17.5
-210.173 -230.877 17.5
-207.306 -225.712 17.5
-201.566 -228.876 17.5
-196.251 -227.32 17.5
-182.949 -202.933 17.5
-180.914 -204.067 17.5
-181.688 -205.437 17.5
-177.938 -207.489 17.5
-168.508 -190.231 17.5
-172.294 -188.169 17.5
-173.023 -189.527 17.5
-175.03 -188.438 17.5
-161.666 -164.016 17.5
-163.229 -158.744 17.5
-168.95 -155.624 17.5
-168.715 -155.197 17.5
-197.228 -139.617 17.5
-197.437 -139.999 17.5
-203.176 -136.857 17.5
-208.655 -138.76 17.5
-209.951 -138.044 17.5
3 12 14 16
3 12 13 14
3 10 11 12
3 14 15 16
3 16 18 21
3 18 16 17
3 20 21 18
3 16 21 12
3 18 19 20
3 7 12 21
3 1 2 3
3 9 10 8
3 7 8 10
3 6 7 21
3 3 4 1
3 4 5 6
3 25 1 4
3 4 6 22
3 10 12 7
3 0 1 40
3 22 6 21
3 22 24 25
3 24 22 23
3 25 32 1
3 4 22 25
3 27 28 26
3 26 29 31
3 29 26 28
3 31 29 30
3 31 25 26
3 32 25 31
3 37 38 35
3 0 40 41
3 39 40 38
3 38 40 32
3 32 33 35
3 34 35 33
3 35 36 37
3 32 35 38
3 32 40 1
