ply
format ascii 1.0
comment Created by Open3D
element vertex 24
property double x
property double y
property double z
element face 34
property list uchar uint vertex_indices
end_header
171.097 133.771 0
200.683 118.615 0
201.492 120.441 0
210.056 115.928 0
209.004 114.096 0
222.577 107.28 0
217.331 97.7799 0
212.909 100.039 0
203.573 104.814 0
175.027 119.404 0
161.428 93.3449 0
151.889 98.315 0
171.097 133.771 14
200.683 118.615 14
201.492 120.441 14
210.056 115.928 14
209.004 114.096 14
222.577 107.28 14
217.331 97.7799 14
212.909 100.039 14
203.573 104.814 14
175.027 119.404 14
161.428 93.3449 14
151.889 98.315 14
3 9 11 10
3 1 9 8
3 9 1 0
3 9 0 11
3 1 3 2
3 4 8 7
3 5 7 6
3 5 4 7
3 3 1 4
3 4 1 8
3 11 10 23
3 23 10 22
3 10 9 22
3 22 9 21
3 9 8 21
3 21 8 20
3 1 0 13
3 13 0 12
3 0 11 12
3 12 11 23
3 3 2 15
3 15 2 14
3 2 1 14
3 14 1 13
3 8 7 20
3 20 7 19
3 7 6 19
3 19 6 18
3 6 5 18
3 18 5 17
3 5 4 17
3 17 4 16
3 4 3 16
3 16 3 15
