ply
format ascii 1.0
comment Created by Open3D
element vertex 17
property double x
property double y
property double z
element face 15
property list uchar uint vertex_indices
end_header
-25.1057 208.599 17.5
-8.46003 239.428 17.5
-12.6652 241.681 17.5
-15.3103 243.09 17.5
-12.75 247.828 17.5
-16.2529 249.707 17.5
-9.25768 262.652 17.5
1.66087 256.812 17.5
-1.1595 251.58 17.5
26.689 236.675 17.5
28.3033 239.661 17.5
35.628 235.743 17.5
27.5568 220.8 17.5
23.1695 223.138 17.5
23.9156 224.53 17.5
11.3002 231.289 17.5
-6.37875 198.573 17.5
3 8 4 1
3 16 1 0
3 2 1 4
3 4 6 5
3 8 6 4
3 3 2 4
3 1 16 15
3 14 12 11
3 12 14 13
3 15 14 9
3 8 7 6
3 9 8 15
3 9 11 10
3 11 9 14
3 15 8 1
