ply
format ascii 1.0
comment Created by Open3D
element vertex 18
property double x
property double y
property double z
element face 25
property list uchar uint vertex_indices
end_header
84.2146 67.1388 0
93.5125 62.0414 0
83.6202 43.6526 0
78.3779 34.3853 0
65.5351 41.2168 0
71.3687 51.0959 0
69.2854 52.3726 0
74.761 62.122 0
79.9037 59.4673 0
84.2146 67.1388 17.5
93.5125 62.0414 17.5
83.6202 43.6526 17.5
78.3779 34.3853 17.5
65.5351 41.2168 17.5
71.3687 51.0959 17.5
69.2854 52.3726 17.5
74.761 62.122 17.5
79.9037 59.4673 17.5
3 5 4 3
3 7 6 5
3 5 8 7
3 2 8 5
3 8 1 0
3 1 8 2
3 2 5 3
3 5 4 14
3 14 4 13
3 4 3 13
3 13 3 12
3 7 6 16
3 16 6 15
3 6 5 15
3 15 5 14
3 8 7 17
3 17 7 16
3 1 0 10
3 10 0 9
3 0 8 9
3 9 8 17
3 2 1 11
3 11 1 10
3 3 2 12
3 12 2 11
