ply
format ascii 1.0
comment Created by Open3D
element vertex 20
property double x
property double y
property double z
element face 28
property list uchar uint vertex_indices
end_header
-5.8247 -37.5055 0
-11.0761 -46.7729 0
-30.2735 -36.7016 0
-31.2166 -38.1644 0
-36.5988 -35.2704 0
-35.6725 -33.4417 0
-43.2502 -29.5065 0
-38.3632 -20.491 0
-34.0588 -22.7418 0
-24.4832 -27.7558 0
-5.8247 -37.5055 10.5
-11.0761 -46.7729 10.5
-30.2735 -36.7016 10.5
-31.2166 -38.1644 10.5
-36.5988 -35.2704 10.5
-35.6725 -33.4417 10.5
-43.2502 -29.5065 10.5
-38.3632 -20.491 10.5
-34.0588 -22.7418 10.5
-24.4832 -27.7558 10.5
3 5 4 3
3 6 8 7
3 8 6 5
3 5 9 8
3 1 9 2
3 9 1 0
3 2 9 5
3 3 2 5
3 5 4 15
3 15 4 14
3 4 3 14
3 14 3 13
3 8 7 18
3 18 7 17
3 7 6 17
3 17 6 16
3 6 5 16
3 16 5 15
3 9 8 19
3 19 8 18
3 2 1 12
3 12 1 11
3 1 0 11
3 11 0 10
3 0 9 10
3 10 9 19
3 3 2 13
3 13 2 12
