ply
format ascii 1.0
comment Created by Open3D
element vertex 34
property double x
property double y
property double z
element face 49
property list uchar uint vertex_indices
end_header
-25.1057 208.599 0
-8.46003 239.428 0
-12.6652 241.681 0
-15.3103 243.09 0
-12.75 247.828 0
-16.2529 249.707 0
-9.25768 262.652 0
1.66087 256.812 0
-1.1595 251.58 0
26.689 236.675 0
28.3033 239.661 0
35.628 235.743 0
27.5568 220.8 0
23.1695 223.138 0
23.9156 224.53 0
11.3002 231.289 0
-6.37875 198.573 0
-25.1057 208.599 17.5
-8.46003 239.428 17.5
-12.6652 241.681 17.5
-15.3103 243.09 17.5
-12.75 247.828 17.5
-16.2529 249.707 17.5
-9.25768 262.652 17.5
1.66087 256.812 17.5
-1.1595 251.58 17.5
26.689 236.675 17.5
28.3033 239.661 17.5
35.628 235.743 17.5
27.5568 220.8 17.5
23.1695 223.138 17.5
23.9156 224.53 17.5
11.3002 231.289 17.5
-6.37875 198.573 17.5
3 8 4 1
3 16 1 0
3 2 1 4
3 4 6 5
3 8 6 4
3 3 2 4
3 1 16 15
3 14 12 11
3 12 14 13
3 15 14 9
3 8 7 6
3 9 8 15
3 9 11 10
3 11 9 14
3 15 8 1
3 1 0 18
3 18 0 17
3 0 16 17
3 17 16 33
3 2 1 19
3 19 1 18
3 6 5 23
3 23 5 22
3 5 4 22
3 22 4 21
3 3 2 20
3 20 2 19
3 4 3 21
3 21 3 20
3 16 15 33
3 33 15 32
3 12 11 29
3 29 11 28
3 14 13 31
3 31 13 30
3 13 12 30
3 30 12 29
3 15 14 32
3 32 14 31
3 8 7 25
3 25 7 24
3 7 6 24
3 24 6 23
3 9 8 26
3 26 8 25
3 11 10 28
3 28 10 27
3 10 9 27
3 27 9 26
