ply
format ascii 1.0
comment Created by Open3D
element vertex 187
property double x
property double y
property double z
element face 185
property list uchar uint vertex_indices
end_header
19.7945 169.926 17.5
16.5374 164.019 17.5
15.9352 164.351 17.5
15.3522 163.772 17.5
14.5583 164.211 17.5
14.8277 164.694 17.5
9.45316 167.654 17.5
9.1838 167.171 17.5
8.38992 167.61 17.5
8.57158 168.401 17.5
7.96935 168.733 17.5
9.10709 170.799 17.5
8.70553 171.024 17.5
10.0018 172.416 17.5
9.60024 172.641 17.5
10.0172 173.393 17.5
10.4186 173.18 17.5
11.1827 174.572 17.5
11.8342 175.751 17.5
11.4329 175.965 17.5
11.8496 176.728 17.5
12.2512 176.504 17.5
12.6159 177.166 17.5
12.9079 177.006 17.5
13.5679 178.207 17.5
13.2759 178.368 17.5
13.6668 179.075 17.5
13.2653 179.3 17.5
13.6822 180.052 17.5
14.0838 179.828 17.5
15.4992 182.41 17.5
15.1069 182.624 17.5
15.5149 183.376 17.5
15.9162 183.163 17.5
17.3408 185.734 17.5
16.9393 185.959 17.5
17.3563 186.711 17.5
17.7488 186.487 17.5
19.1735 189.058 17.5
18.7719 189.283 17.5
19.1889 190.035 17.5
19.5902 189.822 17.5
21.0058 192.393 17.5
20.6043 192.618 17.5
21.0213 193.37 17.5
21.4228 193.146 17.5
22.9339 195.897 17.5
22.6453 196.324 17.5
23.0623 197.076 17.5
23.4638 196.851 17.5
23.957 198.693 17.5
24.3585 198.469 17.5
25.9218 201.31 17.5
25.5202 201.534 17.5
26.1719 202.702 17.5
27.0569 202.222 17.5
28.2817 204.434 17.5
27.3965 204.926 17.5
27.9174 205.88 17.5
28.3187 205.667 17.5
29.882 208.508 17.5
29.4897 208.721 17.5
29.8976 209.474 17.5
30.299 209.26 17.5
31.8622 212.101 17.5
31.4699 212.315 17.5
31.8867 213.078 17.5
32.2792 212.853 17.5
33.8515 215.695 17.5
33.4501 215.908 17.5
33.8669 216.672 17.5
34.2594 216.447 17.5
35.8315 219.299 17.5
35.4389 219.524 17.5
38.6176 225.296 17.5
39.0189 225.082 17.5
39.2622 225.52 17.5
40.2303 225.796 17.5
41.1153 225.315 17.5
41.3974 224.345 17.5
45.6312 222.015 17.5
46.5994 222.291 17.5
47.4846 221.799 17.5
47.7664 220.839 17.5
47.358 220.109 17.5
49.6666 218.837 17.5
49.8927 219.23 17.5
50.577 218.856 17.5
50.3601 218.452 17.5
50.7524 218.239 17.5
50.353 217.509 17.5
49.9517 217.722 17.5
48.5014 215.083 17.5
48.894 214.859 17.5
48.6246 214.376 17.5
49.6191 213.831 17.5
50.413 213.392 17.5
50.6824 213.875 17.5
51.4122 213.48 17.5
51.1431 212.986 17.5
53.1687 211.875 17.5
53.4381 212.358 17.5
54.1679 211.962 17.5
53.8988 211.468 17.5
55.8879 210.378 17.5
56.1572 210.861 17.5
56.8871 210.466 17.5
56.6179 209.972 17.5
58.589 208.882 17.5
58.8581 209.376 17.5
59.5972 208.97 17.5
59.3281 208.476 17.5
61.3264 207.375 17.5
61.5955 207.869 17.5
62.3256 207.462 17.5
62.0562 206.979 17.5
64.0728 205.868 17.5
64.3422 206.351 17.5
65.0723 205.944 17.5
64.8029 205.462 17.5
66.7557 204.382 17.5
67.0248 204.876 17.5
67.7639 204.47 17.5
67.4948 203.976 17.5
69.5114 202.864 17.5
69.7805 203.358 17.5
70.5106 202.952 17.5
70.2415 202.458 17.5
70.9806 202.052 17.5
72.2671 201.346 17.5
72.8508 201.891 17.5
75.643 200.352 17.5
75.8689 200.757 17.5
77.429 201.189 17.5
77.8457 201.953 17.5
79.2876 201.151 17.5
78.8707 200.398 17.5
79.232 198.664 17.5
79.6945 198.118 17.5
81.9848 196.857 17.5
82.6903 196.761 17.5
82.9077 197.143 17.5
86.4115 195.219 17.5
84.2839 191.345 17.5
84.722 191.099 17.5
84.1403 190.033 17.5
83.6932 190.279 17.5
82.4425 188.01 17.5
82.8896 187.764 17.5
82.2987 186.709 17.5
81.8608 186.943 17.5
80.1063 183.765 17.5
79.0387 184.353 17.5
71.0656 169.89 17.5
73.8028 168.394 17.5
71.9444 165.014 17.5
69.2069 166.521 17.5
61.4597 152.461 17.5
63.4518 151.66 17.5
63.1131 151.042 17.5
63.6423 150.754 17.5
63.2082 149.957 17.5
62.67 150.245 17.5
59.9166 145.259 17.5
60.455 144.96 17.5
60.0119 144.162 17.5
59.4827 144.451 17.5
59.1351 143.833 17.5
56.5393 145.465 17.5
53.9598 140.782 17.5
46.97 144.641 17.5
48.7679 147.898 17.5
45.3552 149.779 17.5
45.1122 149.33 17.5
44.2725 149.8 17.5
44.5158 150.238 17.5
44.0687 150.484 17.5
44.5379 151.326 17.5
44.9847 151.092 17.5
47.1821 155.078 17.5
45.0287 156.265 17.5
41.7801 158.061 17.5
38.6248 152.034 17.5
21.8634 161.224 17.5
25.0908 167.252 17.5
22.5931 168.509 17.5
21.6816 168.967 17.5
3 9 8 6
3 11 10 9
3 12 11 13
3 9 6 11
3 6 13 11
3 16 13 0
3 13 15 14
3 15 13 16
3 16 0 17
3 6 8 7
3 21 18 23
3 19 18 20
3 21 20 18
3 22 21 23
3 23 18 0
3 0 24 23
3 25 24 26
3 28 27 29
3 29 27 26
3 24 29 26
3 0 18 17
3 13 6 5
3 181 183 182
3 184 183 181
3 175 174 172
3 178 175 172
3 175 177 176
3 178 177 175
3 173 172 174
3 46 184 181
3 5 0 13
3 4 3 5
3 30 29 0
3 32 31 30
3 0 33 30
3 32 30 33
3 29 24 0
3 0 2 1
3 5 3 2
3 33 186 34
3 34 186 185
3 0 186 33
3 2 0 5
3 184 37 185
3 49 181 111
3 35 37 36
3 37 35 34
3 185 37 34
3 40 39 38
3 41 184 42
3 40 38 41
3 43 42 45
3 38 184 41
3 38 37 184
3 45 44 43
3 46 181 49
3 47 49 48
3 49 47 46
3 49 51 50
3 45 184 46
3 52 51 55
3 52 54 53
3 54 52 55
3 51 49 111
3 42 184 45
3 111 55 51
3 57 56 59
3 59 56 60
3 57 59 58
3 61 60 62
3 60 94 63
3 63 62 60
3 64 63 94
3 65 67 66
3 67 65 64
3 64 94 67
3 56 95 60
3 69 68 71
3 79 72 80
3 69 71 70
3 73 72 75
3 92 72 71
3 75 74 73
3 79 75 72
3 78 75 79
3 75 77 76
3 77 75 78
3 94 71 68
3 56 55 103
3 68 67 94
3 181 180 156
3 170 169 171
3 179 178 171
3 168 171 169
3 168 157 171
3 166 165 164
3 166 163 168
3 164 163 166
3 168 163 162
3 166 168 167
3 161 159 162
3 159 161 160
3 162 159 157
3 157 179 171
3 157 159 158
3 179 157 156
3 157 168 162
3 156 155 153
3 124 153 152
3 112 181 153
3 152 128 127
3 152 129 128
3 153 155 154
3 181 156 153
3 127 124 152
3 179 156 180
3 152 151 150
3 131 129 152
3 150 149 147
3 147 149 148
3 150 147 152
3 138 152 147
3 146 145 144
3 144 143 146
3 146 143 139
3 147 146 138
3 140 143 142
3 132 131 133
3 136 131 137
3 133 131 136
3 135 134 133
3 133 136 135
3 129 131 130
3 140 139 143
3 141 140 142
3 138 137 131
3 139 138 146
3 152 138 131
3 95 56 96
3 92 94 93
3 84 72 92
3 94 60 95
3 100 103 101
3 99 56 100
3 97 99 98
3 99 97 96
3 103 100 56
3 96 56 99
3 85 84 91
3 84 83 82
3 84 81 80
3 81 84 82
3 80 72 84
3 88 91 90
3 88 90 89
3 86 88 87
3 86 85 88
3 88 85 91
3 84 92 91
3 101 103 102
3 71 94 92
3 117 116 119
3 116 115 153
3 119 116 153
3 117 119 118
3 112 153 115
3 124 126 125
3 126 124 127
3 120 122 121
3 122 120 123
3 123 120 153
3 153 124 123
3 105 104 107
3 103 55 104
3 55 107 104
3 106 105 107
3 115 113 112
3 113 115 114
3 108 110 109
3 110 108 111
3 108 55 111
3 111 181 112
3 153 120 119
3 107 55 108
3 178 172 171
