ply
format ascii 1.0
comment Created by Open3D
element vertex 20
property double x
property double y
property double z
element face 18
property list uchar uint vertex_indices
end_header
-211.086 77.3506 20.8
-205.973 74.1448 20.8
-206.761 72.8924 20.8
-203.886 71.0933 20.8
-203.189 72.2003 20.8
-200.629 70.5975 20.8
-199.044 70.8265 20.8
-194.025 67.6863 20.8
-198.197 61.033 20.8
-203.446 64.326 20.8
-203.759 65.8101 20.8
-206.277 67.3913 20.8
-205.878 68.0175 20.8
-208.813 69.8604 20.8
-209.327 69.0329 20.8
-214.389 72.2171 20.8
-215.707 72.2465 20.8
-220.539 75.2779 20.8
-216.474 81.7745 20.8
-211.191 78.4596 20.8
3 16 15 0
3 2 13 12
3 14 13 15
3 15 13 2
3 17 16 18
3 0 19 18
3 18 16 0
3 1 0 2
3 15 2 0
3 3 12 10
3 12 11 10
3 6 9 8
3 10 9 6
3 8 7 6
3 5 4 3
3 6 5 10
3 3 10 5
3 3 2 12
