ply
format ascii 1.0
comment Created by Open3D
element vertex 28
property double x
property double y
property double z
element face 26
property list uchar uint vertex_indices
end_header
176.931 198.33 49.6
175.562 196.172 49.6
176.184 194.969 49.6
173.405 190.496 49.6
172.037 190.503 49.6
149.197 153.782 49.6
147.215 155.014 49.6
147.016 154.701 49.6
149.012 151.482 49.6
146.193 146.942 49.6
145.6 147.035 49.6
144.257 144.833 49.6
129.235 154.153 49.6
129.849 155.137 49.6
129.228 155.519 49.6
127.875 158.678 49.6
130.669 163.173 49.6
134.523 162.995 49.6
134.739 163.331 49.6
132.442 164.759 49.6
153.565 198.718 49.6
156.602 196.832 49.6
156.792 197.134 49.6
154.906 201.82 49.6
157.983 206.762 49.6
161.287 206.6 49.6
161.764 206.294 49.6
162.435 207.379 49.6
3 13 12 11
3 10 13 11
3 8 7 10
3 13 10 7
3 8 10 9
3 17 7 6
3 15 14 13
3 15 13 17
3 17 16 15
3 19 18 20
3 13 7 17
3 6 18 17
3 6 21 18
3 21 4 22
3 21 6 4
3 21 20 18
3 4 3 1
3 2 1 3
3 22 4 26
3 26 4 1
3 23 26 24
3 26 0 27
3 23 22 26
3 26 25 24
3 1 0 26
3 6 5 4
