ply
format ascii 1.0
comment Created by Open3D
element vertex 16
property double x
property double y
property double z
element face 22
property list uchar uint vertex_indices
end_header
150.925 -109.541 0
162.984 -117.452 0
164.677 -114.868 0
183.57 -127.264 0
175.333 -140.37 0
125.642 -107.754 0
133.888 -94.659 0
152.619 -106.957 0
150.925 -109.541 52.5
162.984 -117.452 52.5
164.677 -114.868 52.5
183.57 -127.264 52.5
175.333 -140.37 52.5
125.642 -107.754 52.5
133.888 -94.659 52.5
152.619 -106.957 52.5
3 5 0 6
3 0 5 1
3 7 6 0
3 4 3 1
3 2 1 3
3 4 1 5
3 6 5 14
3 14 5 13
3 1 0 9
3 9 0 8
3 7 6 15
3 15 6 14
3 0 7 8
3 8 7 15
3 4 3 12
3 12 3 11
3 2 1 10
3 10 1 9
3 3 2 11
3 11 2 10
3 5 4 13
3 13 4 12
