ply
format ascii 1.0
comment Created by Open3D
element vertex 12
property double x
property double y
property double z
element face 16
property list uchar uint vertex_indices
end_header
-136.902 126.734 0
-144.49 131.499 0
-135.623 145.623 0
-132.416 143.616 0
-125.771 154.206 0
-121.382 151.447 0
-136.902 126.734 20.3
-144.49 131.499 20.3
-135.623 145.623 20.3
-132.416 143.616 20.3
-125.771 154.206 20.3
-121.382 151.447 20.3
3 2 1 3
3 3 1 0
3 3 5 4
3 5 3 0
3 2 1 8
3 8 1 7
3 3 2 9
3 9 2 8
3 1 0 7
3 7 0 6
3 5 4 11
3 11 4 10
3 4 3 10
3 10 3 9
3 0 5 6
3 6 5 11
