ply
format ascii 1.0
comment Created by Open3D
element vertex 42
property double x
property double y
property double z
element face 61
property list uchar uint vertex_indices
end_header
-223.202 57.6951 0
-218.047 54.4676 0
-218.47 53.7855 0
-215.067 51.6483 0
-214.636 52.3526 0
-212.654 51.1096 0
-211.118 51.2381 0
-206.26 48.1848 0
-205.589 47.7706 0
-209.637 41.3185 0
-215.149 44.7751 0
-215.732 46.2562 0
-217.765 47.532 0
-217.159 48.5047 0
-220.511 50.6093 0
-221.158 49.5694 0
-226.339 52.83 0
-227.875 52.757 0
-232.741 55.8101 0
-228.701 62.251 0
-223.793 59.1761 0
-223.202 57.6951 21
-218.047 54.4676 21
-218.47 53.7855 21
-215.067 51.6483 21
-214.636 52.3526 21
-212.654 51.1096 21
-211.118 51.2381 21
-206.26 48.1848 21
-205.589 47.7706 21
-209.637 41.3185 21
-215.149 44.7751 21
-215.732 46.2562 21
-217.765 47.532 21
-217.159 48.5047 21
-220.511 50.6093 21
-221.158 49.5694 21
-226.339 52.83 21
-227.875 52.757 21
-232.741 55.8101 21
-228.701 62.251 21
-223.793 59.1761 21
3 0 17 16
3 14 13 2
3 16 14 0
3 15 14 16
3 2 0 14
3 18 17 19
3 19 17 20
3 20 17 0
3 2 1 0
3 13 12 11
3 7 10 9
3 11 10 5
3 9 8 7
3 3 13 5
3 4 3 5
3 3 2 13
3 10 6 5
3 5 13 11
3 7 6 10
3 17 16 38
3 38 16 37
3 14 13 35
3 35 13 34
3 15 14 36
3 36 14 35
3 16 15 37
3 37 15 36
3 18 17 39
3 39 17 38
3 19 18 40
3 40 18 39
3 20 19 41
3 41 19 40
3 0 20 21
3 21 20 41
3 2 1 23
3 23 1 22
3 1 0 22
3 22 0 21
3 13 12 34
3 34 12 33
3 12 11 33
3 33 11 32
3 10 9 31
3 31 9 30
3 11 10 32
3 32 10 31
3 9 8 30
3 30 8 29
3 8 7 29
3 29 7 28
3 4 3 25
3 25 3 24
3 5 4 26
3 26 4 25
3 3 2 24
3 24 2 23
3 6 5 27
3 27 5 26
3 7 6 28
3 28 6 27
