ply
format ascii 1.0
comment Created by Open3D
element vertex 14
property double x
property double y
property double z
element face 19
property list uchar uint vertex_indices
end_header
-95.2199 217.659 0
-88.4499 228.338 0
-87.0562 226.844 0
-87.6619 225.894 0
-84.8205 224.094 0
-90.7026 214.801 0
-94.5052 217.2 0
-95.2199 217.659 12.5
-88.4499 228.338 12.5
-87.0562 226.844 12.5
-87.6619 225.894 12.5
-84.8205 224.094 12.5
-90.7026 214.801 12.5
-94.5052 217.2 12.5
3 3 0 6
3 3 6 5
3 4 3 5
3 2 1 3
3 3 1 0
3 0 6 7
3 7 6 13
3 6 5 13
3 13 5 12
3 4 3 11
3 11 3 10
3 5 4 12
3 12 4 11
3 2 1 9
3 9 1 8
3 3 2 10
3 10 2 9
3 1 0 8
3 8 0 7
