ply
format ascii 1.0
comment Created by Open3D
element vertex 18
property double x
property double y
property double z
element face 16
property list uchar uint vertex_indices
end_header
-152.921 154.629 20.5
-156.513 148.915 20.5
-158.359 150.071 20.5
-159.209 149.828 20.5
-160.453 147.837 20.5
-156.098 145.1 20.5
-158.943 140.572 20.5
-159.532 139.632 20.5
-174.368 148.956 20.5
-171 154.312 20.5
-167.504 152.109 20.5
-166.771 152.317 20.5
-165.585 154.207 20.5
-165.873 155.037 20.5
-169.225 157.141 20.5
-165.749 162.687 20.5
-160.458 159.361 20.5
-154.401 155.556 20.5
3 9 8 10
3 11 10 4
3 16 12 3
3 10 8 4
3 13 16 15
3 16 13 12
3 13 15 14
3 12 11 3
3 4 7 6
3 7 4 8
3 6 5 4
3 2 17 16
3 1 0 17
3 1 17 2
3 2 16 3
3 4 3 11
