ply
format ascii 1.0
comment Created by Open3D
element vertex 18
property double x
property double y
property double z
element face 25
property list uchar uint vertex_indices
end_header
109.85 -2.29769 0
102.31 -14.3076 0
104.939 -15.9539 0
100.351 -23.2561 0
97.7228 -21.6097 0
96.5284 -23.5218 0
83.1551 -15.1149 0
96.477 6.09808 0
101.454 2.96866 0
109.85 -2.29769 23.5
102.31 -14.3076 23.5
104.939 -15.9539 23.5
100.351 -23.2561 23.5
97.7228 -21.6097 23.5
96.5284 -23.5218 23.5
83.1551 -15.1149 23.5
96.477 6.09808 23.5
101.454 2.96866 23.5
3 5 4 6
3 8 7 6
3 6 4 1
3 3 2 1
3 8 1 0
3 8 6 1
3 1 4 3
3 5 4 14
3 14 4 13
3 6 5 15
3 15 5 14
3 8 7 17
3 17 7 16
3 7 6 16
3 16 6 15
3 3 2 12
3 12 2 11
3 2 1 11
3 11 1 10
3 1 0 10
3 10 0 9
3 0 8 9
3 9 8 17
3 4 3 13
3 13 3 12
