ply
format ascii 1.0
comment Created by Open3D
element vertex 20
property double x
property double y
property double z
element face 18
property list uchar uint vertex_indices
end_header
-257.031 126.21 21.4
-256.044 127.809 21.4
-255.049 129.419 21.4
-253.541 129.78 21.4
-253.869 131.131 21.4
-255.376 130.769 21.4
-261.518 134.574 21.4
-261.789 136.192 21.4
-263.256 135.942 21.4
-262.984 134.324 21.4
-263.971 132.725 21.4
-264.967 131.126 21.4
-271.21 134.986 21.4
-272.375 135.716 21.4
-265.749 146.416 21.4
-250.362 136.888 21.4
-249.101 138.923 21.4
-241.497 134.214 21.4
-249.384 121.478 21.4
-254.794 124.825 21.4
3 12 11 10
3 7 6 5
3 8 10 9
3 13 12 14
3 14 8 7
3 8 14 12
3 14 7 15
3 12 10 8
3 2 1 3
3 19 18 3
3 3 18 17
3 19 3 1
3 1 0 19
3 5 4 15
3 15 17 16
3 15 4 3
3 3 17 15
3 15 7 5
