ply
format ascii 1.0
comment Created by Open3D
element vertex 12
property double x
property double y
property double z
element face 12
property list uchar uint vertex_indices
end_header
55.3727 -294.296 52.8
56.486 -292.673 52.8
44.4644 -283.584 52.8
42.6533 -286.236 52.8
21.6774 -271.866 52.8
37.859 -245.846 52.8
86.0612 -283.453 52.8
72.169 -305.805 52.8
49.9288 -273.197 52.8
62.0992 -282.006 52.8
63.9649 -279.698 52.8
52.2774 -270.284 52.8
3 4 3 2
3 4 2 8
3 8 5 4
3 5 8 11
3 5 11 6
3 8 2 9
3 0 7 1
3 1 7 9
3 1 9 2
3 9 6 10
3 6 9 7
3 10 6 11
