ply
format ascii 1.0
comment Created by Open3D
element vertex 26
property double x
property double y
property double z
element face 37
property list uchar uint vertex_indices
end_header
144.574 275.175 0
154.024 269.377 0
155.172 268.68 0
138.955 242.215 0
111.567 258.988 0
112.745 260.911 0
117.097 268.022 0
121.674 275.491 0
128.05 285.9 0
134.131 282.183 0
131.005 277.074 0
141.714 270.513 0
143.952 274.158 0
144.574 275.175 58.2
154.024 269.377 58.2
155.172 268.68 58.2
138.955 242.215 58.2
111.567 258.988 58.2
112.745 260.911 58.2
117.097 268.022 58.2
121.674 275.491 58.2
128.05 285.9 58.2
134.131 282.183 58.2
131.005 277.074 58.2
141.714 270.513 58.2
143.952 274.158 58.2
3 3 6 5
3 10 6 11
3 7 10 8
3 10 7 6
3 8 10 9
3 5 4 3
3 11 3 2
3 11 2 1
3 0 12 1
3 11 1 12
3 11 6 3
3 6 5 19
3 19 5 18
3 11 10 24
3 24 10 23
3 8 7 21
3 21 7 20
3 7 6 20
3 20 6 19
3 10 9 23
3 23 9 22
3 9 8 22
3 22 8 21
3 5 4 18
3 18 4 17
3 4 3 17
3 17 3 16
3 3 2 16
3 16 2 15
3 2 1 15
3 15 1 14
3 0 12 13
3 13 12 25
3 1 0 14
3 14 0 13
3 12 11 25
3 25 11 24
