ply
format ascii 1.0
comment Created by Open3D
element vertex 12
property double x
property double y
property double z
element face 16
property list uchar uint vertex_indices
end_header
-104.321 -221.145 0
-107.545 -219.095 0
-123.038 -243.374 0
-142.317 -231.071 0
-121.97 -199.187 0
-99.4664 -213.541 0
-104.321 -221.145 11.6
-107.545 -219.095 11.6
-123.038 -243.374 11.6
-142.317 -231.071 11.6
-121.97 -199.187 11.6
-99.4664 -213.541 11.6
3 4 3 1
3 1 3 2
3 1 0 5
3 1 5 4
3 4 3 10
3 10 3 9
3 3 2 9
3 9 2 8
3 2 1 8
3 8 1 7
3 1 0 7
3 7 0 6
3 0 5 6
3 6 5 11
3 5 4 11
3 11 4 10
