ply
format ascii 1.0
comment Created by Open3D
element vertex 14
property double x
property double y
property double z
element face 19
property list uchar uint vertex_indices
end_header
182.296 29.095 0
174.316 16.4028 0
123.146 48.5466 0
131.117 61.2387 0
157.77 44.5018 0
164.235 40.4346 0
176.69 32.6169 0
182.296 29.095 46
174.316 16.4028 46
123.146 48.5466 46
131.117 61.2387 46
157.77 44.5018 46
164.235 40.4346 46
176.69 32.6169 46
3 2 4 3
3 4 2 1
3 1 0 6
3 6 5 1
3 1 5 4
3 4 3 11
3 11 3 10
3 3 2 10
3 10 2 9
3 2 1 9
3 9 1 8
3 1 0 8
3 8 0 7
3 0 6 7
3 7 6 13
3 6 5 13
3 13 5 12
3 5 4 12
3 12 4 11
