ply
format ascii 1.0
comment Created by Open3D
element vertex 18
property double x
property double y
property double z
element face 25
property list uchar uint vertex_indices
end_header
-216.663 196.28 0
-218.161 197.228 0
-219.098 195.741 0
-217.592 194.804 0
-225.871 181.598 0
-232.191 185.567 0
-218.969 206.656 0
-212.649 202.687 0
-214.2 200.204 0
-216.663 196.28 18.2
-218.161 197.228 18.2
-219.098 195.741 18.2
-217.592 194.804 18.2
-225.871 181.598 18.2
-232.191 185.567 18.2
-218.969 206.656 18.2
-212.649 202.687 18.2
-214.2 200.204 18.2
3 5 4 2
3 2 6 5
3 6 2 1
3 4 3 2
3 8 7 6
3 8 1 0
3 8 6 1
3 5 4 14
3 14 4 13
3 6 5 15
3 15 5 14
3 2 1 11
3 11 1 10
3 4 3 13
3 13 3 12
3 3 2 12
3 12 2 11
3 8 7 17
3 17 7 16
3 7 6 16
3 16 6 15
3 1 0 10
3 10 0 9
3 0 8 9
3 9 8 17
