ply
format ascii 1.0
comment Created by Open3D
element vertex 24
property double x
property double y
property double z
element face 34
property list uchar uint vertex_indices
end_header
190.63 -82.1307 0
158.384 -61.6498 0
157.536 -61.3597 0
157.154 -61.1199 0
156.53 -60.4831 0
156.115 -59.6885 0
155.962 -58.8131 0
156.078 -57.9236 0
156.466 -57.1087 0
157.067 -56.458 0
163.745 -45.9345 0
197.751 -71.1469 0
190.63 -82.1307 34.6
158.384 -61.6498 34.6
157.536 -61.3597 34.6
157.154 -61.1199 34.6
156.53 -60.4831 34.6
156.115 -59.6885 34.6
155.962 -58.8131 34.6
156.078 -57.9236 34.6
156.466 -57.1087 34.6
157.067 -56.458 34.6
163.745 -45.9345 34.6
197.751 -71.1469 34.6
3 6 5 4
3 6 4 8
3 6 8 7
3 8 4 9
3 4 1 9
3 1 0 11
3 1 11 10
3 1 4 2
3 1 10 9
3 4 3 2
3 6 5 18
3 18 5 17
3 5 4 17
3 17 4 16
3 8 7 20
3 20 7 19
3 7 6 19
3 19 6 18
3 9 8 21
3 21 8 20
3 1 0 13
3 13 0 12
3 0 11 12
3 12 11 23
3 11 10 23
3 23 10 22
3 2 1 14
3 14 1 13
3 10 9 22
3 22 9 21
3 4 3 16
3 16 3 15
3 3 2 15
3 15 2 14
