ply
format ascii 1.0
comment Created by Open3D
element vertex 15
property double x
property double y
property double z
element face 13
property list uchar uint vertex_indices
end_header
-194.242 245.44 21
-191.174 250.371 21
-184.284 246.119 21
-185.976 243.391 21
-182.361 241.157 21
-201.064 211.145 21
-208.158 215.539 21
-215.558 220.106 21
-211.262 227.005 21
-216.654 230.341 21
-212.034 237.754 21
-206.072 234.07 21
-202.315 240.108 21
-208.43 243.89 21
-203.794 251.337 21
3 7 6 8
3 8 6 11
3 9 8 10
3 8 11 10
3 6 5 11
3 11 4 12
3 12 14 13
3 4 3 12
3 12 3 0
3 0 14 12
3 1 0 3
3 3 2 1
3 11 5 4
