ply
format ascii 1.0
comment Created by Open3D
element vertex 16
property double x
property double y
property double z
element face 22
property list uchar uint vertex_indices
end_header
-219.362 -181.556 0
-229.791 -175.08 0
-220.186 -159.639 0
-219.353 -160.162 0
-217.818 -157.702 0
-229.463 -150.452 0
-225.665 -144.347 0
-204.433 -157.55 0
-219.362 -181.556 26.5
-229.791 -175.08 26.5
-220.186 -159.639 26.5
-219.353 -160.162 26.5
-217.818 -157.702 26.5
-229.463 -150.452 26.5
-225.665 -144.347 26.5
-204.433 -157.55 26.5
3 2 1 3
3 4 6 5
3 0 3 1
3 3 0 7
3 4 7 6
3 7 4 3
3 2 1 10
3 10 1 9
3 3 2 11
3 11 2 10
3 6 5 14
3 14 5 13
3 5 4 13
3 13 4 12
3 1 0 9
3 9 0 8
3 0 7 8
3 8 7 15
3 7 6 15
3 15 6 14
3 4 3 12
3 12 3 11
