ply
format ascii 1.0
comment Created by Open3D
element vertex 22
property double x
property double y
property double z
element face 31
property list uchar uint vertex_indices
end_header
-232.573 -139.907 0
-231.802 -138.677 0
-230.186 -139.68 0
-231.09 -141.134 0
-230.571 -141.461 0
-234.312 -147.476 0
-239.262 -144.391 0
-246.961 -139.605 0
-260.095 -131.439 0
-256.221 -125.211 0
-235.474 -138.108 0
-232.573 -139.907 22.9
-231.802 -138.677 22.9
-230.186 -139.68 22.9
-231.09 -141.134 22.9
-230.571 -141.461 22.9
-234.312 -147.476 22.9
-239.262 -144.391 22.9
-246.961 -139.605 22.9
-260.095 -131.439 22.9
-256.221 -125.211 22.9
-235.474 -138.108 22.9
3 7 6 10
3 7 9 8
3 9 7 10
3 6 0 10
3 5 4 3
3 5 3 0
3 0 2 1
3 2 0 3
3 5 0 6
3 7 6 18
3 18 6 17
3 9 8 20
3 20 8 19
3 8 7 19
3 19 7 18
3 10 9 21
3 21 9 20
3 0 10 11
3 11 10 21
3 5 4 16
3 16 4 15
3 4 3 15
3 15 3 14
3 2 1 13
3 13 1 12
3 1 0 12
3 12 0 11
3 3 2 14
3 14 2 13
3 6 5 17
3 17 5 16
