ply
format ascii 1.0
comment Created by Open3D
element vertex 16
property double x
property double y
property double z
element face 22
property list uchar uint vertex_indices
end_header
-114.041 192.098 0
-118.048 185.702 0
-136.303 197.162 0
-141.884 200.673 0
-137.877 207.058 0
-132.254 203.536 0
-125.1 199.044 0
-119.315 195.413 0
-114.041 192.098 17.1
-118.048 185.702 17.1
-136.303 197.162 17.1
-141.884 200.673 17.1
-137.877 207.058 17.1
-132.254 203.536 17.1
-125.1 199.044 17.1
-119.315 195.413 17.1
3 3 2 4
3 5 4 2
3 2 6 5
3 1 0 7
3 7 6 1
3 1 6 2
3 3 2 11
3 11 2 10
3 4 3 12
3 12 3 11
3 5 4 13
3 13 4 12
3 6 5 14
3 14 5 13
3 1 0 9
3 9 0 8
3 0 7 8
3 8 7 15
3 7 6 15
3 15 6 14
3 2 1 10
3 10 1 9
