ply
format ascii 1.0
comment Created by Open3D
element vertex 17
property double x
property double y
property double z
element face 15
property list uchar uint vertex_indices
end_header
263.475 214.575 44.4
275.162 207.315 44.4
275.743 208.243 44.4
280.013 205.583 44.4
280.519 206.388 44.4
290.149 200.392 44.4
282.353 187.858 44.4
282.004 188.076 44.4
259.233 202.236 44.4
260.211 203.802 44.4
255.856 206.517 44.4
252.58 201.25 44.4
243.683 206.777 44.4
243.915 207.157 44.4
228.459 216.772 44.4
238.634 233.131 44.4
264.868 216.812 44.4
3 11 10 13
3 9 8 1
3 0 13 10
3 15 14 13
3 13 12 11
3 0 15 13
3 10 9 0
3 3 7 5
3 7 3 1
3 6 5 7
3 3 5 4
3 0 16 15
3 3 2 1
3 9 1 0
3 1 8 7
