ply
format ascii 1.0
comment Created by Open3D
element vertex 10
property double x
property double y
property double z
element face 13
property list uchar uint vertex_indices
end_header
-252.728 -234.016 0
-260.81 -246.72 0
-284.581 -231.614 0
-276.499 -218.899 0
-274.312 -220.284 0
-252.728 -234.016 26.5
-260.81 -246.72 26.5
-284.581 -231.614 26.5
-276.499 -218.899 26.5
-274.312 -220.284 26.5
3 3 2 4
3 4 1 0
3 1 4 2
3 3 2 8
3 8 2 7
3 4 3 9
3 9 3 8
3 1 0 6
3 6 0 5
3 0 4 5
3 5 4 9
3 2 1 7
3 7 1 6
