ply
format ascii 1.0
comment Created by Open3D
element vertex 48
property double x
property double y
property double z
element face 46
property list uchar uint vertex_indices
end_header
-169.08 99.9557 28.5
-172.066 101.831 28.5
-170.506 104.314 28.5
-174.02 106.516 28.5
-173.725 105.154 28.5
-174.953 103.197 28.5
-176.412 103.014 28.5
-177.781 100.822 28.5
-177.342 99.3952 28.5
-178.553 97.4497 28.5
-179.987 97.3001 28.5
-182.144 93.8561 28.5
-181.564 92.6636 28.5
-182.817 90.651 28.5
-184.243 90.5126 28.5
-185.188 89.0031 28.5
-203.078 100.212 28.5
-204.396 101.041 28.5
-202.895 103.423 28.5
-203.49 104.493 28.5
-202.212 106.528 28.5
-200.887 106.632 28.5
-198.465 110.501 28.5
-198.997 111.927 28.5
-197.893 113.683 28.5
-196.416 113.766 28.5
-194.4 116.975 28.5
-194.888 118.247 28.5
-193.751 120.058 28.5
-192.294 120.341 28.5
-189.988 124.02 28.5
-190.66 125.234 28.5
-189.491 127.112 28.5
-187.93 127.307 28.5
-184.272 133.144 28.5
-176.369 128.183 28.5
-175.025 128.82 28.5
-173.171 127.653 28.5
-173.137 126.155 28.5
-169.964 124.17 28.5
-168.39 124.655 28.5
-166.68 123.586 28.5
-166.476 121.99 28.5
-163.456 120.092 28.5
-162.172 120.773 28.5
-160.522 119.737 28.5
-160.207 118.053 28.5
-158.437 116.941 28.5
3 17 16 18
3 18 16 21
3 18 20 19
3 20 18 21
3 16 11 21
3 14 13 11
3 11 16 14
3 21 10 22
3 11 13 12
3 10 21 11
3 25 22 7
3 14 16 15
3 23 25 24
3 25 23 22
3 27 26 28
3 28 26 29
3 26 25 6
3 3 29 26
3 31 30 32
3 33 32 30
3 35 33 30
3 33 35 34
3 29 3 30
3 10 9 8
3 10 8 7
3 6 5 4
3 6 25 7
3 6 3 26
3 1 0 2
3 2 0 47
3 4 3 6
3 43 3 2
3 46 2 47
3 38 30 3
3 38 3 39
3 40 39 42
3 35 37 36
3 37 35 38
3 35 30 38
3 43 46 45
3 3 43 42
3 43 45 44
3 42 41 40
3 42 39 3
3 2 46 43
3 7 22 10
