ply
format ascii 1.0
comment Created by Open3D
element vertex 12
property double x
property double y
property double z
element face 16
property list uchar uint vertex_indices
end_header
-244.679 -221.357 0
-252.728 -234.016 0
-274.312 -220.284 0
-269.126 -212.132 0
-266.263 -207.636 0
-252.157 -216.601 0
-244.679 -221.357 26.4
-252.728 -234.016 26.4
-274.312 -220.284 26.4
-269.126 -212.132 26.4
-266.263 -207.636 26.4
-252.157 -216.601 26.4
3 3 5 4
3 5 3 2
3 1 0 5
3 1 5 2
3 5 4 11
3 11 4 10
3 4 3 10
3 10 3 9
3 3 2 9
3 9 2 8
3 1 0 7
3 7 0 6
3 0 5 6
3 6 5 11
3 2 1 8
3 8 1 7
