ply
format ascii 1.0
comment Created by Open3D
element vertex 48
property double x
property double y
property double z
element face 70
property list uchar uint vertex_indices
end_header
-207.26 84.7438 0
-207.675 84.0951 0
-201.899 80.475 0
-202.703 79.1891 0
-200.219 77.6298 0
-200.095 77.8311 0
-199.482 77.4495 0
-198.769 78.59 0
-196.276 77.0197 0
-194.899 76.991 0
-190.816 74.4285 0
-190.085 73.9705 0
-194.025 67.6863 0
-199.044 70.8265 0
-199.391 72.3546 0
-201.738 73.8378 0
-201.49 74.2292 0
-204.663 76.2247 0
-205.069 75.5762 0
-210.122 78.7493 0
-211.191 78.4596 0
-216.474 81.7745 0
-212.534 88.0588 0
-211.215 87.23 0
-207.26 84.7438 22.7
-207.675 84.0951 22.7
-201.899 80.475 22.7
-202.703 79.1891 22.7
-200.219 77.6298 22.7
-200.095 77.8311 22.7
-199.482 77.4495 22.7
-198.769 78.59 22.7
-196.276 77.0197 22.7
-194.899 76.991 22.7
-190.816 74.4285 22.7
-190.085 73.9705 22.7
-194.025 67.6863 22.7
-199.044 70.8265 22.7
-199.391 72.3546 22.7
-201.738 73.8378 22.7
-201.49 74.2292 22.7
-204.663 76.2247 22.7
-205.069 75.5762 22.7
-210.122 78.7493 22.7
-211.191 78.4596 22.7
-216.474 81.7745 22.7
-212.534 88.0588 22.7
-211.215 87.23 22.7
3 19 18 17
3 20 19 1
3 3 17 4
3 17 3 19
3 19 3 1
3 21 23 22
3 21 20 23
3 23 20 1
3 1 0 23
3 3 2 1
3 15 14 16
3 9 14 13
3 6 16 14
3 12 11 10
3 12 10 13
3 10 9 13
3 4 6 5
3 6 4 16
3 8 7 6
3 9 8 14
3 6 14 8
3 16 4 17
3 19 18 43
3 43 18 42
3 18 17 42
3 42 17 41
3 20 19 44
3 44 19 43
3 4 3 28
3 28 3 27
3 23 22 47
3 47 22 46
3 22 21 46
3 46 21 45
3 21 20 45
3 45 20 44
3 1 0 25
3 25 0 24
3 0 23 24
3 24 23 47
3 3 2 27
3 27 2 26
3 2 1 26
3 26 1 25
3 15 14 39
3 39 14 38
3 16 15 40
3 40 15 39
3 14 13 38
3 38 13 37
3 12 11 36
3 36 11 35
3 11 10 35
3 35 10 34
3 13 12 37
3 37 12 36
3 10 9 34
3 34 9 33
3 6 5 30
3 30 5 29
3 5 4 29
3 29 4 28
3 8 7 32
3 32 7 31
3 7 6 31
3 31 6 30
3 9 8 33
3 33 8 32
3 17 16 41
3 41 16 40
