ply
format ascii 1.0
comment Created by Open3D
element vertex 16
property double x
property double y
property double z
element face 24
property list uchar uint vertex_indices
end_header
37.9255 -245.745 0
51.6434 -223.662 0
100.833 -259.693 0
86.1771 -283.241 0
79.7677 -256.758 0
67.8241 -247.846 0
63.6978 -253.367 0
75.6331 -262.29 0
37.9255 -245.745 52.5
51.6434 -223.662 52.5
100.833 -259.693 52.5
86.1771 -283.241 52.5
79.7677 -256.758 52.5
67.8241 -247.846 52.5
63.6978 -253.367 52.5
75.6331 -262.29 52.5
3 6 5 0
3 1 0 5
3 5 2 1
3 6 0 3
3 7 3 2
3 3 7 6
3 4 2 5
3 2 4 7
3 6 5 14
3 14 5 13
3 1 0 9
3 9 0 8
3 2 1 10
3 10 1 9
3 0 3 8
3 8 3 11
3 3 2 11
3 11 2 10
3 7 6 15
3 15 6 14
3 5 4 13
3 13 4 12
3 4 7 12
3 12 7 15
