ply
format ascii 1.0
comment Created by Open3D
element vertex 10
property double x
property double y
property double z
element face 13
property list uchar uint vertex_indices
end_header
-210.621 -251.189 0
-218.973 -264.673 0
-244.161 -249.062 0
-235.809 -235.589 0
-213.82 -249.205 0
-210.621 -251.189 22.6
-218.973 -264.673 22.6
-244.161 -249.062 22.6
-235.809 -235.589 22.6
-213.82 -249.205 22.6
3 3 2 4
3 1 0 4
3 1 4 2
3 3 2 8
3 8 2 7
3 4 3 9
3 9 3 8
3 1 0 6
3 6 0 5
3 0 4 5
3 5 4 9
3 2 1 7
3 7 1 6
