ply
format ascii 1.0
comment Created by Open3D
element vertex 32
property double x
property double y
property double z
element face 46
property list uchar uint vertex_indices
end_header
-222.617 101.266 0
-228.306 92.0758 0
-234.422 95.8586 0
-233.186 97.8488 0
-232.976 100.149 0
-237.824 103.147 0
-239.863 102.724 0
-241.43 100.197 0
-246.815 103.544 0
-245.886 105.043 0
-246.754 106.343 0
-249.28 107.902 0
-246.145 112.967 0
-231.362 103.809 0
-229.468 103.664 0
-228.647 104.995 0
-222.617 101.266 19.9
-228.306 92.0758 19.9
-234.422 95.8586 19.9
-233.186 97.8488 19.9
-232.976 100.149 19.9
-237.824 103.147 19.9
-239.863 102.724 19.9
-241.43 100.197 19.9
-246.815 103.544 19.9
-245.886 105.043 19.9
-246.754 106.343 19.9
-249.28 107.902 19.9
-246.145 112.967 19.9
-231.362 103.809 19.9
-229.468 103.664 19.9
-228.647 104.995 19.9
3 9 8 7
3 9 7 6
3 12 6 5
3 11 10 12
3 12 9 6
3 9 12 10
3 5 13 12
3 3 2 1
3 0 3 1
3 3 14 4
3 13 4 14
3 0 15 14
3 3 0 14
3 4 13 5
3 9 8 25
3 25 8 24
3 8 7 24
3 24 7 23
3 7 6 23
3 23 6 22
3 6 5 22
3 22 5 21
3 11 10 27
3 27 10 26
3 12 11 28
3 28 11 27
3 10 9 26
3 26 9 25
3 13 12 29
3 29 12 28
3 3 2 19
3 19 2 18
3 2 1 18
3 18 1 17
3 1 0 17
3 17 0 16
3 4 3 20
3 20 3 19
3 14 13 30
3 30 13 29
3 0 15 16
3 16 15 31
3 15 14 31
3 31 14 30
3 5 4 21
3 21 4 20
