ply
format ascii 1.0
comment Created by Open3D
element vertex 12
property double x
property double y
property double z
element face 20
property list uchar uint vertex_indices
end_header
-200.504 -193.998 0
-207.029 -189.864 0
-191.862 -165.922 0
-187.345 -168.779 0
-188.954 -171.329 0
-186.946 -172.594 0
-200.504 -193.998 25.3
-207.029 -189.864 25.3
-191.862 -165.922 25.3
-187.345 -168.779 25.3
-188.954 -171.329 25.3
-186.946 -172.594 25.3
3 2 1 4
3 8 7 10
3 4 1 0
3 10 7 6
3 5 4 0
3 11 10 6
3 4 3 2
3 10 9 8
3 2 1 8
3 8 1 7
3 1 0 7
3 7 0 6
3 5 4 11
3 11 4 10
3 0 5 6
3 6 5 11
3 4 3 10
3 10 3 9
3 3 2 9
3 9 2 8
