ply
format ascii 1.0
comment Created by Open3D
element vertex 20
property double x
property double y
property double z
element face 36
property list uchar uint vertex_indices
end_header
-75.951 205.455 0
-82.837 194.585 0
-87.8564 197.77 0
-96.4147 203.19 0
-104.514 208.316 0
-98.5317 217.754 0
-95.4096 215.78 0
-94.5052 217.2 0
-90.7026 214.801 0
-87.036 212.478 0
-75.951 205.455 27.3
-82.837 194.585 27.3
-87.8564 197.77 27.3
-96.4147 203.19 27.3
-104.514 208.316 27.3
-98.5317 217.754 27.3
-95.4096 215.78 27.3
-94.5052 217.2 27.3
-90.7026 214.801 27.3
-87.036 212.478 27.3
3 4 3 6
3 14 13 16
3 6 5 4
3 16 15 14
3 8 7 6
3 18 17 16
3 6 3 8
3 16 13 18
3 2 1 0
3 12 11 10
3 9 8 3
3 19 18 13
3 9 2 0
3 19 12 10
3 9 3 2
3 19 13 12
3 4 3 14
3 14 3 13
3 6 5 16
3 16 5 15
3 5 4 15
3 15 4 14
3 8 7 18
3 18 7 17
3 7 6 17
3 17 6 16
3 2 1 12
3 12 1 11
3 1 0 11
3 11 0 10
3 9 8 19
3 19 8 18
3 0 9 10
3 10 9 19
3 3 2 13
3 13 2 12
