ply
format ascii 1.0
comment Created by Open3D
element vertex 10
property double x
property double y
property double z
element face 13
property list uchar uint vertex_indices
end_header
-66.9269 -225.038 0
-71.0675 -231.535 0
-96.4645 -215.327 0
-92.3238 -208.841 0
-88.6142 -211.208 0
-66.9269 -225.038 8.9
-71.0675 -231.535 8.9
-96.4645 -215.327 8.9
-92.3238 -208.841 8.9
-88.6142 -211.208 8.9
3 3 2 4
3 4 1 0
3 1 4 2
3 3 2 8
3 8 2 7
3 4 3 9
3 9 3 8
3 1 0 6
3 6 0 5
3 0 4 5
3 5 4 9
3 2 1 7
3 7 1 6
