ply
format ascii 1.0
comment Created by Open3D
element vertex 40
property double x
property double y
property double z
element face 58
property list uchar uint vertex_indices
end_header
-211.086 77.3506 0
-205.973 74.1448 0
-206.761 72.8924 0
-203.886 71.0933 0
-203.189 72.2003 0
-200.629 70.5975 0
-199.044 70.8265 0
-194.025 67.6863 0
-198.197 61.033 0
-203.446 64.326 0
-203.759 65.8101 0
-206.277 67.3913 0
-205.878 68.0175 0
-208.813 69.8604 0
-209.327 69.0329 0
-214.389 72.2171 0
-215.707 72.2465 0
-220.539 75.2779 0
-216.474 81.7745 0
-211.191 78.4596 0
-211.086 77.3506 20.8
-205.973 74.1448 20.8
-206.761 72.8924 20.8
-203.886 71.0933 20.8
-203.189 72.2003 20.8
-200.629 70.5975 20.8
-199.044 70.8265 20.8
-194.025 67.6863 20.8
-198.197 61.033 20.8
-203.446 64.326 20.8
-203.759 65.8101 20.8
-206.277 67.3913 20.8
-205.878 68.0175 20.8
-208.813 69.8604 20.8
-209.327 69.0329 20.8
-214.389 72.2171 20.8
-215.707 72.2465 20.8
-220.539 75.2779 20.8
-216.474 81.7745 20.8
-211.191 78.4596 20.8
3 16 15 0
3 2 13 12
3 14 13 15
3 15 13 2
3 17 16 18
3 0 19 18
3 18 16 0
3 1 0 2
3 15 2 0
3 3 12 10
3 12 11 10
3 6 9 8
3 10 9 6
3 8 7 6
3 5 4 3
3 6 5 10
3 3 10 5
3 3 2 12
3 16 15 36
3 36 15 35
3 13 12 33
3 33 12 32
3 14 13 34
3 34 13 33
3 15 14 35
3 35 14 34
3 17 16 37
3 37 16 36
3 18 17 38
3 38 17 37
3 0 19 20
3 20 19 39
3 19 18 39
3 39 18 38
3 1 0 21
3 21 0 20
3 2 1 22
3 22 1 21
3 12 11 32
3 32 11 31
3 11 10 31
3 31 10 30
3 9 8 29
3 29 8 28
3 10 9 30
3 30 9 29
3 8 7 28
3 28 7 27
3 7 6 27
3 27 6 26
3 5 4 25
3 25 4 24
3 4 3 24
3 24 3 23
3 6 5 26
3 26 5 25
3 3 2 23
3 23 2 22
