ply
format ascii 1.0
comment Created by Open3D
element vertex 28
property double x
property double y
property double z
element face 26
property list uchar uint vertex_indices
end_header
43.4679 41.7408 48.2
44.5216 43.4071 48.2
58.6779 34.465 48.2
57.6742 32.866 48.2
68.453 26.0614 48.2
65.6325 21.5883 48.2
67.2148 20.5961 48.2
62.5609 13.2155 48.2
61.0125 14.197 48.2
58.1255 9.62327 48.2
46.9128 16.7005 48.2
46.05 15.3361 48.2
32.5317 23.8747 48.2
33.3861 25.2389 48.2
22.4201 32.1635 48.2
23.3245 33.5838 48.2
17.1311 37.4988 48.2
10.1296 41.9152 48.2
9.20052 40.4391 48.2
-7.15046 50.755 48.2
-8.04641 49.3348 48.2
-18.7571 56.0958 48.2
-6.62008 75.319 48.2
-3.62544 73.4214 48.2
8.79519 65.5808 48.2
7.91588 64.183 48.2
19.6644 56.7677 48.2
26.4044 52.3261 48.2
3 19 18 17
3 20 19 21
3 15 14 13
3 17 16 27
3 15 27 16
3 19 17 25
3 21 23 22
3 21 19 23
3 23 19 25
3 25 24 23
3 17 26 25
3 17 27 26
3 15 0 27
3 10 9 8
3 11 10 12
3 8 7 6
3 6 5 8
3 10 8 3
3 3 8 5
3 13 0 15
3 12 10 13
3 13 10 0
3 10 3 0
3 2 1 3
3 3 1 0
3 5 4 3
