ply
format ascii 1.0
comment Created by Open3D
element vertex 46
property double x
property double y
property double z
element face 67
property list uchar uint vertex_indices
end_header
92.1911 251.75 0
109.477 240.879 0
102.211 229.305 0
104.48 227.355 0
105.987 224.774 0
106.463 222.282 0
106.334 219.605 0
105.183 216.838 0
104.02 215.104 0
101.941 213.77 0
99.123 212.772 0
96.1333 212.76 0
93.9808 213.402 0
92.655 214.119 0
89.7188 209.434 0
79.831 193.711 0
75.7499 187.214 0
58.1832 198.249 0
57.9178 197.824 0
42.2736 207.66 0
76.5386 262.318 0
84.305 257.467 0
92.5892 252.388 0
92.1911 251.75 50.5
109.477 240.879 50.5
102.211 229.305 50.5
104.48 227.355 50.5
105.987 224.774 50.5
106.463 222.282 50.5
106.334 219.605 50.5
105.183 216.838 50.5
104.02 215.104 50.5
101.941 213.77 50.5
99.123 212.772 50.5
96.1333 212.76 50.5
93.9808 213.402 50.5
92.655 214.119 50.5
89.7188 209.434 50.5
79.831 193.711 50.5
75.7499 187.214 50.5
58.1832 198.249 50.5
57.9178 197.824 50.5
42.2736 207.66 50.5
76.5386 262.318 50.5
84.305 257.467 50.5
92.5892 252.388 50.5
3 19 18 17
3 17 16 15
3 19 17 13
3 14 17 15
3 20 19 21
3 13 17 14
3 19 13 21
3 13 0 21
3 2 0 13
3 0 22 21
3 11 5 12
3 10 5 11
3 9 8 7
3 9 5 10
3 5 9 7
3 3 5 4
3 5 3 2
3 2 13 5
3 7 6 5
3 2 1 0
3 5 13 12
3 19 18 42
3 42 18 41
3 18 17 41
3 41 17 40
3 17 16 40
3 40 16 39
3 16 15 39
3 39 15 38
3 15 14 38
3 38 14 37
3 20 19 43
3 43 19 42
3 21 20 44
3 44 20 43
3 14 13 37
3 37 13 36
3 0 22 23
3 23 22 45
3 22 21 45
3 45 21 44
3 12 11 35
3 35 11 34
3 11 10 34
3 34 10 33
3 9 8 32
3 32 8 31
3 8 7 31
3 31 7 30
3 10 9 33
3 33 9 32
3 5 4 28
3 28 4 27
3 4 3 27
3 27 3 26
3 3 2 26
3 26 2 25
3 7 6 30
3 30 6 29
3 6 5 29
3 29 5 28
3 2 1 25
3 25 1 24
3 1 0 24
3 24 0 23
3 13 12 36
3 36 12 35
