ply
format ascii 1.0
comment Created by Open3D
element vertex 14
property double x
property double y
property double z
element face 19
property list uchar uint vertex_indices
end_header
216.282 -208.468 0
221.774 -211.536 0
220.684 -214.49 0
211.402 -210.1 0
207.81 -208.398 0
212.019 -201.256 0
218.292 -204.726 0
216.282 -208.468 3.4
221.774 -211.536 3.4
220.684 -214.49 3.4
211.402 -210.1 3.4
207.81 -208.398 3.4
212.019 -201.256 3.4
218.292 -204.726 3.4
3 4 3 5
3 5 3 0
3 2 1 0
3 0 6 5
3 2 0 3
3 4 3 11
3 11 3 10
3 5 4 12
3 12 4 11
3 2 1 9
3 9 1 8
3 1 0 8
3 8 0 7
3 0 6 7
3 7 6 13
3 6 5 13
3 13 5 12
3 3 2 10
3 10 2 9
