ply
format ascii 1.0
comment Created by Open3D
element vertex 12
property double x
property double y
property double z
element face 10
property list uchar uint vertex_indices
end_header
190.63 -82.1307 34.6
158.384 -61.6498 34.6
157.536 -61.3597 34.6
157.154 -61.1199 34.6
156.53 -60.4831 34.6
156.115 -59.6885 34.6
155.962 -58.8131 34.6
156.078 -57.9236 34.6
156.466 -57.1087 34.6
157.067 -56.458 34.6
163.745 -45.9345 34.6
197.751 -71.1469 34.6
3 6 5 4
3 6 4 8
3 6 8 7
3 8 4 9
3 4 1 9
3 1 0 11
3 1 11 10
3 1 4 2
3 1 10 9
3 4 3 2
