ply
format ascii 1.0
comment Created by Open3D
element vertex 12
property double x
property double y
property double z
element face 16
property list uchar uint vertex_indices
end_header
-193.644 -237.895 0
-198.926 -234.625 0
-196.463 -230.655 0
-193.469 -225.825 0
-189.811 -219.922 0
-184.529 -223.192 0
-193.644 -237.895 8.1
-198.926 -234.625 8.1
-196.463 -230.655 8.1
-193.469 -225.825 8.1
-189.811 -219.922 8.1
-184.529 -223.192 8.1
3 1 0 2
3 2 0 3
3 3 5 4
3 5 3 0
3 1 0 7
3 7 0 6
3 2 1 8
3 8 1 7
3 3 2 9
3 9 2 8
3 5 4 11
3 11 4 10
3 4 3 10
3 10 3 9
3 0 5 6
3 6 5 11
