ply
format ascii 1.0
comment Created by Open3D
element vertex 16
property double x
property double y
property double z
element face 22
property list uchar uint vertex_indices
end_header
-128.97 156.212 0
-135.623 145.623 0
-144.49 131.499 0
-151.806 136.09 0
-140.524 154.06 0
-137.785 152.337 0
-133.546 159.091 0
-130.144 156.954 0
-128.97 156.212 21.2
-135.623 145.623 21.2
-144.49 131.499 21.2
-151.806 136.09 21.2
-140.524 154.06 21.2
-137.785 152.337 21.2
-133.546 159.091 21.2
-130.144 156.954 21.2
3 1 4 3
3 1 5 4
3 3 2 1
3 0 7 5
3 6 5 7
3 5 1 0
3 4 3 12
3 12 3 11
3 5 4 13
3 13 4 12
3 3 2 11
3 11 2 10
3 2 1 10
3 10 1 9
3 0 7 8
3 8 7 15
3 6 5 14
3 14 5 13
3 7 6 15
3 15 6 14
3 1 0 9
3 9 0 8
