ply
format ascii 1.0
comment Created by Open3D
element vertex 26
property double x
property double y
property double z
element face 37
property list uchar uint vertex_indices
end_header
-213.104 217.503 0
-211.088 216.238 0
-210.054 216.672 0
-208.158 215.539 0
-212.164 209.098 0
-214.061 210.276 0
-214.216 211.262 0
-216.232 212.527 0
-217.089 212.173 0
-222.329 215.455 0
-218.306 221.84 0
-215.558 220.106 0
-213.083 218.569 0
-213.104 217.503 17.1
-211.088 216.238 17.1
-210.054 216.672 17.1
-208.158 215.539 17.1
-212.164 209.098 17.1
-214.061 210.276 17.1
-214.216 211.262 17.1
-216.232 212.527 17.1
-217.089 212.173 17.1
-222.329 215.455 17.1
-218.306 221.84 17.1
-215.558 220.106 17.1
-213.083 218.569 17.1
3 11 7 0
3 8 7 9
3 9 11 10
3 11 9 7
3 7 6 0
3 6 4 1
3 1 4 3
3 12 11 0
3 2 1 3
3 6 1 0
3 5 4 6
3 8 7 21
3 21 7 20
3 9 8 22
3 22 8 21
3 11 10 24
3 24 10 23
3 10 9 23
3 23 9 22
3 7 6 20
3 20 6 19
3 4 3 17
3 17 3 16
3 12 11 25
3 25 11 24
3 0 12 13
3 13 12 25
3 2 1 15
3 15 1 14
3 3 2 16
3 16 2 15
3 1 0 14
3 14 0 13
3 5 4 18
3 18 4 17
3 6 5 19
3 19 5 18
