ply
format ascii 1.0
comment Created by Open3D
element vertex 12
property double x
property double y
property double z
element face 16
property list uchar uint vertex_indices
end_header
207.135 235.746 0
209.491 239.481 0
222.747 260.482 0
222.93 260.773 0
233.751 253.947 0
217.957 228.909 0
207.135 235.746 32.6
209.491 239.481 32.6
222.747 260.482 32.6
222.93 260.773 32.6
233.751 253.947 32.6
217.957 228.909 32.6
3 0 5 1
3 1 5 4
3 2 4 3
3 4 2 1
3 0 5 6
3 6 5 11
3 1 0 7
3 7 0 6
3 5 4 11
3 11 4 10
3 4 3 10
3 10 3 9
3 3 2 9
3 9 2 8
3 2 1 8
3 8 1 7
