ply
format ascii 1.0
comment Created by Open3D
element vertex 18
property double x
property double y
property double z
element face 25
property list uchar uint vertex_indices
end_header
-256.044 127.809 0
-257.031 126.21 0
-254.794 124.825 0
-258.749 118.419 0
-262.313 120.632 0
-275.174 128.59 0
-271.21 134.986 0
-264.967 131.126 0
-263.971 132.725 0
-256.044 127.809 17.7
-257.031 126.21 17.7
-254.794 124.825 17.7
-258.749 118.419 17.7
-262.313 120.632 17.7
-275.174 128.59 17.7
-271.21 134.986 17.7
-264.967 131.126 17.7
-263.971 132.725 17.7
3 5 7 6
3 7 5 4
3 7 0 8
3 4 3 1
3 2 1 3
3 0 7 1
3 1 7 4
3 7 6 16
3 16 6 15
3 6 5 15
3 15 5 14
3 5 4 14
3 14 4 13
3 0 8 9
3 9 8 17
3 8 7 17
3 17 7 16
3 4 3 13
3 13 3 12
3 2 1 11
3 11 1 10
3 3 2 12
3 12 2 11
3 1 0 10
3 10 0 9
