ply
format ascii 1.0
comment Created by Open3D
element vertex 54
property double x
property double y
property double z
element face 79
property list uchar uint vertex_indices
end_header
-20.3367 82.0124 0
-19.4574 83.4102 0
-6.62008 75.319 0
-18.7571 56.0958 0
-26.7539 61.1449 0
-25.858 62.565 0
-42.1323 72.8375 0
-41.3525 74.0676 0
-48.8921 79.022 0
-54.3941 82.3009 0
-55.1325 81.1379 0
-66.4556 88.2917 0
-67.4594 86.6926 0
-80.8156 95.1222 0
-79.8119 96.7213 0
-91.1519 103.875 0
-88.4059 108.225 0
-89.8436 109.13 0
-85.0237 116.768 0
-83.5859 115.852 0
-80.84 120.213 0
-69.7721 113.223 0
-68.7768 114.81 0
-54.7058 105.923 0
-55.7013 104.346 0
-39.417 93.9292 0
-33.4634 90.3002 0
-20.3367 82.0124 48.3
-19.4574 83.4102 48.3
-6.62008 75.319 48.3
-18.7571 56.0958 48.3
-26.7539 61.1449 48.3
-25.858 62.565 48.3
-42.1323 72.8375 48.3
-41.3525 74.0676 48.3
-48.8921 79.022 48.3
-54.3941 82.3009 48.3
-55.1325 81.1379 48.3
-66.4556 88.2917 48.3
-67.4594 86.6926 48.3
-80.8156 95.1222 48.3
-79.8119 96.7213 48.3
-91.1519 103.875 48.3
-88.4059 108.225 48.3
-89.8436 109.13 48.3
-85.0237 116.768 48.3
-83.5859 115.852 48.3
-80.84 120.213 48.3
-69.7721 113.223 48.3
-68.7768 114.81 48.3
-54.7058 105.923 48.3
-55.7013 104.346 48.3
-39.417 93.9292 48.3
-33.4634 90.3002 48.3
3 14 13 11
3 16 15 14
3 11 9 24
3 14 11 21
3 12 11 13
3 24 21 11
3 18 17 19
3 19 17 16
3 23 22 21
3 20 19 21
3 21 19 16
3 16 14 21
3 21 24 23
3 7 6 5
3 26 8 7
3 4 3 5
3 7 5 0
3 2 5 3
3 2 0 5
3 25 24 9
3 9 11 10
3 1 0 2
3 9 8 25
3 26 25 8
3 7 0 26
3 14 13 41
3 41 13 40
3 16 15 43
3 43 15 42
3 15 14 42
3 42 14 41
3 12 11 39
3 39 11 38
3 13 12 40
3 40 12 39
3 18 17 45
3 45 17 44
3 19 18 46
3 46 18 45
3 17 16 44
3 44 16 43
3 23 22 50
3 50 22 49
3 22 21 49
3 49 21 48
3 20 19 47
3 47 19 46
3 21 20 48
3 48 20 47
3 24 23 51
3 51 23 50
3 7 6 34
3 34 6 33
3 6 5 33
3 33 5 32
3 8 7 35
3 35 7 34
3 4 3 31
3 31 3 30
3 5 4 32
3 32 4 31
3 3 2 30
3 30 2 29
3 25 24 52
3 52 24 51
3 11 10 38
3 38 10 37
3 10 9 37
3 37 9 36
3 1 0 28
3 28 0 27
3 2 1 29
3 29 1 28
3 9 8 36
3 36 8 35
3 26 25 53
3 53 25 52
3 0 26 27
3 27 26 53
