ply
format ascii 1.0
comment Created by Open3D
element vertex 16
property double x
property double y
property double z
element face 22
property list uchar uint vertex_indices
end_header
-239.801 -145.274 0
-239.104 -145.71 0
-239.759 -146.761 0
-235.625 -149.334 0
-245.545 -165.279 0
-258.075 -157.483 0
-246.961 -139.605 0
-239.262 -144.391 0
-239.801 -145.274 27
-239.104 -145.71 27
-239.759 -146.761 27
-235.625 -149.334 27
-245.545 -165.279 27
-258.075 -157.483 27
-246.961 -139.605 27
-239.262 -144.391 27
3 2 6 5
3 6 0 7
3 2 0 6
3 5 4 2
3 3 2 4
3 1 0 2
3 6 5 14
3 14 5 13
3 0 7 8
3 8 7 15
3 7 6 15
3 15 6 14
3 5 4 13
3 13 4 12
3 3 2 11
3 11 2 10
3 4 3 12
3 12 3 11
3 1 0 9
3 9 0 8
3 2 1 10
3 10 1 9
