ply
format ascii 1.0
comment Created by Open3D
element vertex 30
property double x
property double y
property double z
element face 43
property list uchar uint vertex_indices
end_header
146.796 -185.715 0
146.069 -186.39 0
145.17 -186.8 0
144.681 -186.905 0
143.693 -186.872 0
138.904 -185.384 0
139.955 -182.052 0
133.326 -179.963 0
132.275 -183.306 0
95.9016 -171.898 0
87.0769 -169.079 0
100.167 -148.257 0
152.454 -176.725 0
152.039 -177.395 0
151.251 -178.648 0
146.796 -185.715 31
146.069 -186.39 31
145.17 -186.8 31
144.681 -186.905 31
143.693 -186.872 31
138.904 -185.384 31
139.955 -182.052 31
133.326 -179.963 31
132.275 -183.306 31
95.9016 -171.898 31
87.0769 -169.079 31
100.167 -148.257 31
152.454 -176.725 31
152.039 -177.395 31
151.251 -178.648 31
3 6 5 4
3 10 9 11
3 12 11 7
3 7 11 9
3 9 8 7
3 7 6 12
3 4 3 2
3 4 2 0
3 0 2 1
3 6 14 13
3 6 13 12
3 6 0 14
3 4 0 6
3 6 5 21
3 21 5 20
3 5 4 20
3 20 4 19
3 10 9 25
3 25 9 24
3 11 10 26
3 26 10 25
3 12 11 27
3 27 11 26
3 9 8 24
3 24 8 23
3 8 7 23
3 23 7 22
3 7 6 22
3 22 6 21
3 4 3 19
3 19 3 18
3 3 2 18
3 18 2 17
3 2 1 17
3 17 1 16
3 1 0 16
3 16 0 15
3 14 13 29
3 29 13 28
3 13 12 28
3 28 12 27
3 0 14 15
3 15 14 29
