ply
format ascii 1.0
comment Created by Open3D
element vertex 10
property double x
property double y
property double z
element face 13
property list uchar uint vertex_indices
end_header
-139.825 -198.547 0
-148.29 -193.181 0
-162.31 -184.304 0
-154.138 -171.399 0
-131.652 -185.642 0
-139.825 -198.547 33.8
-148.29 -193.181 33.8
-162.31 -184.304 33.8
-154.138 -171.399 33.8
-131.652 -185.642 33.8
3 3 2 1
3 1 0 4
3 1 4 3
3 3 2 8
3 8 2 7
3 2 1 7
3 7 1 6
3 1 0 6
3 6 0 5
3 0 4 5
3 5 4 9
3 4 3 9
3 9 3 8
