ply
format ascii 1.0
comment Created by Open3D
element vertex 16
property double x
property double y
property double z
element face 22
property list uchar uint vertex_indices
end_header
-18.1574 -242.844 0
-30.5785 -235.003 0
-32.4537 -237.956 0
-49.9625 -226.887 0
-41.7904 -213.96 0
9.31521 -246.261 0
1.1433 -259.199 0
-20.0325 -245.808 0
-18.1574 -242.844 56.2
-30.5785 -235.003 56.2
-32.4537 -237.956 56.2
-49.9625 -226.887 56.2
-41.7904 -213.96 56.2
9.31521 -246.261 56.2
1.1433 -259.199 56.2
-20.0325 -245.808 56.2
3 2 1 3
3 4 3 1
3 1 0 4
3 6 5 0
3 0 7 6
3 5 4 0
3 2 1 10
3 10 1 9
3 3 2 11
3 11 2 10
3 4 3 12
3 12 3 11
3 1 0 9
3 9 0 8
3 6 5 14
3 14 5 13
3 0 7 8
3 8 7 15
3 7 6 15
3 15 6 14
3 5 4 13
3 13 4 12
