ply
format ascii 1.0
comment Created by Open3D
element vertex 32
property double x
property double y
property double z
element face 46
property list uchar uint vertex_indices
end_header
-241.43 100.197 0
-242.467 98.5314 0
-242.103 96.2263 0
-237.187 93.1848 0
-235.458 94.1925 0
-234.422 95.8586 0
-228.306 92.0758 0
-233.473 83.7236 0
-239.656 87.5501 0
-239.059 88.5228 0
-239.956 90.1113 0
-254.662 99.2141 0
-251.453 104.402 0
-248.927 102.832 0
-247.379 102.639 0
-246.815 103.544 0
-241.43 100.197 20
-242.467 98.5314 20
-242.103 96.2263 20
-237.187 93.1848 20
-235.458 94.1925 20
-234.422 95.8586 20
-228.306 92.0758 20
-233.473 83.7236 20
-239.656 87.5501 20
-239.059 88.5228 20
-239.956 90.1113 20
-254.662 99.2141 20
-251.453 104.402 20
-248.927 102.832 20
-247.379 102.639 20
-246.815 103.544 20
3 1 14 2
3 2 14 11
3 11 10 2
3 14 1 0
3 13 12 11
3 15 14 0
3 13 11 14
3 10 9 3
3 7 9 8
3 3 9 7
3 3 7 4
3 6 5 4
3 7 6 4
3 10 3 2
3 2 1 18
3 18 1 17
3 11 10 27
3 27 10 26
3 1 0 17
3 17 0 16
3 13 12 29
3 29 12 28
3 12 11 28
3 28 11 27
3 15 14 31
3 31 14 30
3 0 15 16
3 16 15 31
3 14 13 30
3 30 13 29
3 10 9 26
3 26 9 25
3 9 8 25
3 25 8 24
3 8 7 24
3 24 7 23
3 4 3 20
3 20 3 19
3 6 5 22
3 22 5 21
3 5 4 21
3 21 4 20
3 7 6 23
3 23 6 22
3 3 2 19
3 19 2 18
