ply
format ascii 1.0
comment Created by Open3D
element vertex 10
property double x
property double y
property double z
element face 13
property list uchar uint vertex_indices
end_header
-48.5042 -195.54 0
-70.2427 -181.666 0
-70.6085 -181.437 0
-66.3847 -174.828 0
-44.2805 -188.931 0
-48.5042 -195.54 11.6
-70.2427 -181.666 11.6
-70.6085 -181.437 11.6
-66.3847 -174.828 11.6
-44.2805 -188.931 11.6
3 2 1 3
3 1 4 3
3 4 1 0
3 2 1 7
3 7 1 6
3 3 2 8
3 8 2 7
3 4 3 9
3 9 3 8
3 1 0 6
3 6 0 5
3 0 4 5
3 5 4 9
