ply
format ascii 1.0
comment Created by Open3D
element vertex 27
property double x
property double y
property double z
element face 25
property list uchar uint vertex_indices
end_header
56.398 140.864 47.7
55.4107 139.31 47.7
41.2457 148.296 47.7
53.1594 167.072 47.7
62.7559 160.987 47.7
61.9181 159.656 47.7
77.9882 149.515 47.7
77.1172 148.128 47.7
83.8094 144.164 47.7
90.1673 139.895 47.7
91.0965 141.36 47.7
101.816 134.589 47.7
102.637 135.908 47.7
116.878 126.912 47.7
116.048 125.603 47.7
126.904 118.755 47.7
124.365 114.729 47.7
125.769 113.846 47.7
120.875 106.085 47.7
119.463 106.968 47.7
116.8 102.741 47.7
105.902 109.622 47.7
104.964 108.135 47.7
90.9613 116.979 47.7
91.8987 118.466 47.7
74.5116 129.292 47.7
68.0869 133.493 47.7
3 7 0 26
3 1 0 2
3 9 25 24
3 26 25 8
3 9 8 25
3 2 5 3
3 2 0 5
3 3 5 4
3 5 0 7
3 6 5 7
3 26 8 7
3 21 20 19
3 21 24 23
3 19 18 16
3 17 16 18
3 21 19 14
3 14 19 16
3 9 11 10
3 11 9 24
3 11 24 14
3 14 24 21
3 12 11 13
3 13 11 14
3 16 15 14
3 21 23 22
