ply
format ascii 1.0
comment Created by Open3D
element vertex 12
property double x
property double y
property double z
element face 16
property list uchar uint vertex_indices
end_header
-215.958 211.464 0
-218.969 206.656 0
-232.191 185.567 0
-238.554 189.558 0
-222.329 215.455 0
-217.089 212.173 0
-215.958 211.464 18.4
-218.969 206.656 18.4
-232.191 185.567 18.4
-238.554 189.558 18.4
-222.329 215.455 18.4
-217.089 212.173 18.4
3 4 3 1
3 1 3 2
3 1 0 5
3 1 5 4
3 4 3 10
3 10 3 9
3 3 2 9
3 9 2 8
3 2 1 8
3 8 1 7
3 1 0 7
3 7 0 6
3 0 5 6
3 6 5 11
3 5 4 11
3 11 4 10
