ply
format ascii 1.0
comment Created by Open3D
element vertex 14
property double x
property double y
property double z
element face 19
property list uchar uint vertex_indices
end_header
28.4608 217.616 0
-20.431 247.866 0
-3.362 275.228 0
12.8109 301.169 0
36.7548 286.355 0
61.7026 270.908 0
44.5343 243.39 0
28.4608 217.616 43
-20.431 247.866 43
-3.362 275.228 43
12.8109 301.169 43
36.7548 286.355 43
61.7026 270.908 43
44.5343 243.39 43
3 2 1 6
3 3 2 4
3 6 4 2
3 5 4 6
3 6 1 0
3 2 1 9
3 9 1 8
3 3 2 10
3 10 2 9
3 4 3 11
3 11 3 10
3 5 4 12
3 12 4 11
3 6 5 13
3 13 5 12
3 1 0 8
3 8 0 7
3 0 6 7
3 7 6 13
