ply
format ascii 1.0
comment Created by Open3D
element vertex 18
property double x
property double y
property double z
element face 25
property list uchar uint vertex_indices
end_header
180.463 -323.774 0
151.489 -301.335 0
187.643 -241.902 0
187.752 -241.768 0
188.063 -241.653 0
206.767 -250.088 0
207.125 -250.428 0
207.207 -250.904 0
185.476 -310.105 0
180.463 -323.774 37.8
151.489 -301.335 37.8
187.643 -241.902 37.8
187.752 -241.768 37.8
188.063 -241.653 37.8
206.767 -250.088 37.8
207.125 -250.428 37.8
207.207 -250.904 37.8
185.476 -310.105 37.8
3 0 8 1
3 2 1 8
3 8 7 2
3 7 6 5
3 2 4 3
3 2 5 4
3 5 2 7
3 0 8 9
3 9 8 17
3 1 0 10
3 10 0 9
3 2 1 11
3 11 1 10
3 8 7 17
3 17 7 16
3 7 6 16
3 16 6 15
3 6 5 15
3 15 5 14
3 4 3 13
3 13 3 12
3 3 2 12
3 12 2 11
3 5 4 14
3 14 4 13
