ply
format ascii 1.0
comment Created by Open3D
element vertex 12
property double x
property double y
property double z
element face 16
property list uchar uint vertex_indices
end_header
-68.0919 -165.111 0
-76.5226 -178.318 0
-77.9265 -177.424 0
-99.367 -163.747 0
-90.9364 -150.528 0
-70.0745 -163.834 0
-68.0919 -165.111 25.1
-76.5226 -178.318 25.1
-77.9265 -177.424 25.1
-99.367 -163.747 25.1
-90.9364 -150.528 25.1
-70.0745 -163.834 25.1
3 4 3 5
3 5 3 2
3 0 5 2
3 0 2 1
3 4 3 10
3 10 3 9
3 5 4 11
3 11 4 10
3 3 2 9
3 9 2 8
3 0 5 6
3 6 5 11
3 2 1 8
3 8 1 7
3 1 0 7
3 7 0 6
