ply
format ascii 1.0
comment Created by Open3D
element vertex 20
property double x
property double y
property double z
element face 18
property list uchar uint vertex_indices
end_header
279.732 184.419 22.9
277.129 186.033 22.9
275.578 183.528 22.9
278.079 181.98 22.9
267.025 164.201 22.9
236.019 183.475 22.9
234.373 190.028 22.9
226.037 190.022 22.9
223.486 192.968 22.9
218.899 200.476 22.9
222.498 206.257 22.9
230.483 207.403 22.9
228.459 216.772 22.9
243.915 207.157 22.9
243.683 206.777 22.9
252.58 201.25 22.9
255.856 206.517 22.9
260.211 203.802 22.9
259.233 202.236 22.9
282.004 188.076 22.9
3 10 9 8
3 14 6 15
3 7 6 8
3 11 8 6
3 11 14 13
3 11 10 8
3 11 13 12
3 6 14 11
3 15 6 5
3 2 15 5
3 2 4 3
3 1 0 19
3 2 1 18
3 16 15 18
3 19 18 1
3 18 15 2
3 18 17 16
3 2 5 4
