ply
format ascii 1.0
comment Created by Open3D
element vertex 32
property double x
property double y
property double z
element face 46
property list uchar uint vertex_indices
end_header
-125.422 213.995 0
-125.403 212.307 0
-120.027 208.927 0
-118.243 210.257 0
-117.157 211.991 0
-111.236 208.272 0
-119.315 195.413 0
-125.1 199.044 0
-123.93 200.889 0
-123.646 202.669 0
-128.997 206.027 0
-130.985 205.549 0
-132.254 203.536 0
-137.877 207.058 0
-129.731 220.029 0
-123.921 216.377 0
-125.422 213.995 20.1
-125.403 212.307 20.1
-120.027 208.927 20.1
-118.243 210.257 20.1
-117.157 211.991 20.1
-111.236 208.272 20.1
-119.315 195.413 20.1
-125.1 199.044 20.1
-123.93 200.889 20.1
-123.646 202.669 20.1
-128.997 206.027 20.1
-130.985 205.549 20.1
-132.254 203.536 20.1
-137.877 207.058 20.1
-129.731 220.029 20.1
-123.921 216.377 20.1
3 12 11 13
3 1 10 2
3 11 10 1
3 14 13 0
3 1 0 13
3 13 11 1
3 14 0 15
3 2 10 9
3 9 8 6
3 6 5 9
3 8 7 6
3 9 5 2
3 4 3 5
3 2 5 3
3 12 11 28
3 28 11 27
3 13 12 29
3 29 12 28
3 2 1 18
3 18 1 17
3 11 10 27
3 27 10 26
3 14 13 30
3 30 13 29
3 1 0 17
3 17 0 16
3 0 15 16
3 16 15 31
3 15 14 31
3 31 14 30
3 10 9 26
3 26 9 25
3 9 8 25
3 25 8 24
3 6 5 22
3 22 5 21
3 8 7 24
3 24 7 23
3 7 6 23
3 23 6 22
3 4 3 20
3 20 3 19
3 5 4 21
3 21 4 20
3 3 2 19
3 19 2 18
