ply
format ascii 1.0
comment Created by Open3D
element vertex 16
property double x
property double y
property double z
element face 22
property list uchar uint vertex_indices
end_header
-233.473 83.7236 0
-239.61 73.8284 0
-245.598 77.5349 0
-244.329 79.5811 0
-260.584 89.6544 0
-257.076 95.3231 0
-241.008 85.3698 0
-239.656 87.5501 0
-233.473 83.7236 19.4
-239.61 73.8284 19.4
-245.598 77.5349 19.4
-244.329 79.5811 19.4
-260.584 89.6544 19.4
-257.076 95.3231 19.4
-241.008 85.3698 19.4
-239.656 87.5501 19.4
3 3 2 1
3 6 5 4
3 4 3 6
3 0 6 3
3 7 6 0
3 0 3 1
3 3 2 11
3 11 2 10
3 2 1 10
3 10 1 9
3 6 5 14
3 14 5 13
3 5 4 13
3 13 4 12
3 4 3 12
3 12 3 11
3 7 6 15
3 15 6 14
3 0 7 8
3 8 7 15
3 1 0 9
3 9 0 8
