ply
format ascii 1.0
comment Created by Open3D
element vertex 18
property double x
property double y
property double z
element face 25
property list uchar uint vertex_indices
end_header
-151.806 136.09 0
-158.943 140.572 0
-156.098 145.1 0
-149.022 156.372 0
-145.173 162.5 0
-143.323 165.441 0
-137.003 161.472 0
-141.333 154.572 0
-140.524 154.06 0
-151.806 136.09 20.5
-158.943 140.572 20.5
-156.098 145.1 20.5
-149.022 156.372 20.5
-145.173 162.5 20.5
-143.323 165.441 20.5
-137.003 161.472 20.5
-141.333 154.572 20.5
-140.524 154.06 20.5
3 1 0 2
3 7 3 2
3 2 0 8
3 8 7 2
3 4 6 5
3 6 4 7
3 7 4 3
3 1 0 10
3 10 0 9
3 2 1 11
3 11 1 10
3 3 2 12
3 12 2 11
3 0 8 9
3 9 8 17
3 8 7 17
3 17 7 16
3 6 5 15
3 15 5 14
3 5 4 14
3 14 4 13
3 7 6 16
3 16 6 15
3 4 3 13
3 13 3 12
