ply
format ascii 1.0
comment Created by Open3D
element vertex 18
property double x
property double y
property double z
element face 25
property list uchar uint vertex_indices
end_header
-239.61 73.8284 0
-245.308 64.6265 0
-250.947 68.1261 0
-251.432 68.4203 0
-250.271 70.2987 0
-266.39 80.2847 0
-262.79 86.0988 0
-246.527 76.0256 0
-245.598 77.5349 0
-239.61 73.8284 19.7
-245.308 64.6265 19.7
-250.947 68.1261 19.7
-251.432 68.4203 19.7
-250.271 70.2987 19.7
-266.39 80.2847 19.7
-262.79 86.0988 19.7
-246.527 76.0256 19.7
-245.598 77.5349 19.7
3 4 6 5
3 3 2 4
3 4 1 0
3 1 4 2
3 7 0 8
3 0 7 4
3 7 6 4
3 6 5 15
3 15 5 14
3 5 4 14
3 14 4 13
3 3 2 12
3 12 2 11
3 4 3 13
3 13 3 12
3 1 0 10
3 10 0 9
3 2 1 11
3 11 1 10
3 0 8 9
3 9 8 17
3 8 7 17
3 17 7 16
3 7 6 16
3 16 6 15
