ply
format ascii 1.0
comment Created by Open3D
element vertex 12
property double x
property double y
property double z
element face 10
property list uchar uint vertex_indices
end_header
-79.0682 -39.5599 85
-80.1303 -41.2262 85
-73.724 -45.2943 85
-80.0638 -55.203 85
-81.7994 -54.1015 85
-85.8987 -60.5098 85
-105.654 -47.9676 85
-104.757 -46.5697 85
-111.197 -42.4909 85
-104.758 -32.4034 85
-103.457 -33.2323 85
-99.291 -26.7233 85
3 7 6 5
3 8 7 10
3 10 9 8
3 1 11 10
3 10 7 1
3 4 3 2
3 4 1 7
3 2 1 4
3 1 0 11
3 4 7 5
