ply
format ascii 1.0
comment Created by Open3D
element vertex 18
property double x
property double y
property double z
element face 25
property list uchar uint vertex_indices
end_header
-250.853 -73.6691 0
-270.671 -61.5491 0
-275.757 -58.4429 0
-283.825 -71.6352 0
-288.35 -68.8667 0
-297.178 -63.4716 0
-303.557 -59.5696 0
-285.879 -30.6584 0
-241.243 -57.9501 0
-250.853 -73.6691 22.2
-270.671 -61.5491 22.2
-275.757 -58.4429 22.2
-283.825 -71.6352 22.2
-288.35 -68.8667 22.2
-297.178 -63.4716 22.2
-303.557 -59.5696 22.2
-285.879 -30.6584 22.2
-241.243 -57.9501 22.2
3 7 5 2
3 7 6 5
3 5 4 2
3 1 8 7
3 8 1 0
3 1 7 2
3 3 2 4
3 7 6 16
3 16 6 15
3 6 5 15
3 15 5 14
3 5 4 14
3 14 4 13
3 8 7 17
3 17 7 16
3 1 0 10
3 10 0 9
3 0 8 9
3 9 8 17
3 2 1 11
3 11 1 10
3 3 2 12
3 12 2 11
3 4 3 13
3 13 3 12
