ply
format ascii 1.0
comment Created by Open3D
element vertex 12
property double x
property double y
property double z
element face 20
property list uchar uint vertex_indices
end_header
-101.734 -222.792 0
-103.452 -225.477 0
-117.235 -247.083 0
-123.038 -243.374 0
-107.545 -219.095 0
-104.321 -221.145 0
-101.734 -222.792 23.8
-103.452 -225.477 23.8
-117.235 -247.083 23.8
-123.038 -243.374 23.8
-107.545 -219.095 23.8
-104.321 -221.145 23.8
3 4 3 1
3 10 9 7
3 1 3 2
3 7 9 8
3 5 1 0
3 11 7 6
3 1 5 4
3 7 11 10
3 4 3 10
3 10 3 9
3 3 2 9
3 9 2 8
3 2 1 8
3 8 1 7
3 1 0 7
3 7 0 6
3 0 5 6
3 6 5 11
3 5 4 11
3 11 4 10
