ply
format ascii 1.0
comment Created by Open3D
element vertex 16
property double x
property double y
property double z
element face 14
property list uchar uint vertex_indices
end_header
-241.43 100.197 20
-242.467 98.5314 20
-242.103 96.2263 20
-237.187 93.1848 20
-235.458 94.1925 20
-234.422 95.8586 20
-228.306 92.0758 20
-233.473 83.7236 20
-239.656 87.5501 20
-239.059 88.5228 20
-239.956 90.1113 20
-254.662 99.2141 20
-251.453 104.402 20
-248.927 102.832 20
-247.379 102.639 20
-246.815 103.544 20
3 1 14 2
3 2 14 11
3 11 10 2
3 14 1 0
3 13 12 11
3 15 14 0
3 13 11 14
3 10 9 3
3 7 9 8
3 3 9 7
3 3 7 4
3 6 5 4
3 7 6 4
3 10 3 2
