ply
format ascii 1.0
comment Created by Open3D
element vertex 22
property double x
property double y
property double z
element face 31
property list uchar uint vertex_indices
end_header
-184.203 33.6591 0
-188.019 27.565 0
-192.561 30.4109 0
-196.747 33.0388 0
-196.307 33.7433 0
-204.805 39.0754 0
-204.241 39.97 0
-205.637 41.686 0
-204.095 44.1461 0
-193.853 37.7347 0
-192.965 39.1437 0
-184.203 33.6591 13.3
-188.019 27.565 13.3
-192.561 30.4109 13.3
-196.747 33.0388 13.3
-196.307 33.7433 13.3
-204.805 39.0754 13.3
-204.241 39.97 13.3
-205.637 41.686 13.3
-204.095 44.1461 13.3
-193.853 37.7347 13.3
-192.965 39.1437 13.3
3 6 5 4
3 7 6 8
3 8 6 9
3 2 1 0
3 2 0 9
3 2 9 4
3 9 0 10
3 4 9 6
3 2 4 3
3 6 5 17
3 17 5 16
3 5 4 16
3 16 4 15
3 7 6 18
3 18 6 17
3 8 7 19
3 19 7 18
3 9 8 20
3 20 8 19
3 2 1 13
3 13 1 12
3 1 0 12
3 12 0 11
3 0 10 11
3 11 10 21
3 10 9 21
3 21 9 20
3 4 3 15
3 15 3 14
3 3 2 14
3 14 2 13
