ply
format ascii 1.0
comment Created by Open3D
element vertex 16
property double x
property double y
property double z
element face 22
property list uchar uint vertex_indices
end_header
257.876 -201.497 0
271.336 -206.372 0
270.618 -208.512 0
287.457 -214.181 0
278.918 -240.78 0
235.122 -220.665 0
244.324 -195.213 0
258.319 -200.282 0
257.876 -201.497 23.9
271.336 -206.372 23.9
270.618 -208.512 23.9
287.457 -214.181 23.9
278.918 -240.78 23.9
235.122 -220.665 23.9
244.324 -195.213 23.9
258.319 -200.282 23.9
3 5 0 6
3 0 5 2
3 7 6 0
3 4 3 2
3 2 1 0
3 4 2 5
3 6 5 14
3 14 5 13
3 7 6 15
3 15 6 14
3 0 7 8
3 8 7 15
3 4 3 12
3 12 3 11
3 3 2 11
3 11 2 10
3 2 1 10
3 10 1 9
3 1 0 9
3 9 0 8
3 5 4 13
3 13 4 12
