ply
format ascii 1.0
comment Created by Open3D
element vertex 52
property double x
property double y
property double z
element face 76
property list uchar uint vertex_indices
end_header
164.235 40.4346 0
178.27 62.7662 0
176.603 63.824 0
180.452 69.952 0
181.26 69.4394 0
183.184 72.5034 0
159.535 87.3651 0
160.555 88.9866 0
158.224 90.4476 0
157.942 90.0003 0
151.664 93.9474 0
155.595 100.21 0
159.015 98.0616 0
159.911 99.4818 0
159.044 100.027 0
163.573 107.229 0
199.583 84.6037 0
196.39 79.5268 0
205.084 74.0641 0
199.684 65.4648 0
198.552 66.1846 0
197.026 63.7468 0
198.158 63.0381 0
181.186 36.0323 0
179.502 37.0899 0
176.69 32.6169 0
164.235 40.4346 55.4
178.27 62.7662 55.4
176.603 63.824 55.4
180.452 69.952 55.4
181.26 69.4394 55.4
183.184 72.5034 55.4
159.535 87.3651 55.4
160.555 88.9866 55.4
158.224 90.4476 55.4
157.942 90.0003 55.4
151.664 93.9474 55.4
155.595 100.21 55.4
159.015 98.0616 55.4
159.911 99.4818 55.4
159.044 100.027 55.4
163.573 107.229 55.4
199.583 84.6037 55.4
196.39 79.5268 55.4
205.084 74.0641 55.4
199.684 65.4648 55.4
198.552 66.1846 55.4
197.026 63.7468 55.4
198.158 63.0381 55.4
181.186 36.0323 55.4
179.502 37.0899 55.4
176.69 32.6169 55.4
3 24 0 25
3 15 7 16
3 11 10 12
3 8 10 9
3 12 10 8
3 12 8 7
3 15 14 13
3 7 13 12
3 7 15 13
3 21 1 24
3 24 1 0
3 21 24 23
3 22 21 23
3 1 21 4
3 3 2 4
3 4 21 5
3 5 7 6
3 20 18 17
3 18 20 19
3 17 16 5
3 20 17 5
3 21 20 5
3 5 16 7
3 4 2 1
3 0 25 26
3 26 25 51
3 25 24 51
3 51 24 50
3 16 15 42
3 42 15 41
3 11 10 37
3 37 10 36
3 12 11 38
3 38 11 37
3 10 9 36
3 36 9 35
3 9 8 35
3 35 8 34
3 8 7 34
3 34 7 33
3 15 14 41
3 41 14 40
3 14 13 40
3 40 13 39
3 13 12 39
3 39 12 38
3 1 0 27
3 27 0 26
3 24 23 50
3 50 23 49
3 22 21 48
3 48 21 47
3 23 22 49
3 49 22 48
3 3 2 29
3 29 2 28
3 4 3 30
3 30 3 29
3 5 4 31
3 31 4 30
3 7 6 33
3 33 6 32
3 6 5 32
3 32 5 31
3 18 17 44
3 44 17 43
3 20 19 46
3 46 19 45
3 19 18 45
3 45 18 44
3 17 16 43
3 43 16 42
3 21 20 47
3 47 20 46
3 2 1 28
3 28 1 27
