ply
format ascii 1.0
comment Created by Open3D
element vertex 10
property double x
property double y
property double z
element face 13
property list uchar uint vertex_indices
end_header
-204.433 -157.55 0
-225.665 -144.347 0
-227.885 -142.962 0
-223.887 -136.544 0
-200.435 -151.121 0
-204.433 -157.55 26.6
-225.665 -144.347 26.6
-227.885 -142.962 26.6
-223.887 -136.544 26.6
-200.435 -151.121 26.6
3 2 1 3
3 1 4 3
3 4 1 0
3 2 1 7
3 7 1 6
3 3 2 8
3 8 2 7
3 4 3 9
3 9 3 8
3 1 0 6
3 6 0 5
3 0 4 5
3 5 4 9
