ply
format ascii 1.0
comment Created by Open3D
element vertex 54
property double x
property double y
property double z
element face 104
property list uchar uint vertex_indices
end_header
41.2457 148.296 0
27.2685 157.107 0
28.2558 158.661 0
14.9677 167.036 0
9.31906 170.591 0
-7.26973 181.048 0
-8.25704 179.494 0
-22.5743 188.512 0
-21.587 190.066 0
-32.4249 196.892 0
-29.7948 201.03 0
-31.2326 201.946 0
-26.5534 209.327 0
-25.0987 208.411 0
-22.3361 212.773 0
-11.3791 205.87 0
-10.4915 207.279 0
3.40053 198.523 0
2.51279 197.125 0
13.6145 190.124 0
12.7434 188.748 0
18.5368 185.095 0
25.6657 180.603 0
26.5949 182.068 0
42.6393 171.948 0
43.4358 173.201 0
53.1594 167.072 0
41.2457 148.296 48.6
27.2685 157.107 48.6
28.2558 158.661 48.6
14.9677 167.036 48.6
9.31906 170.591 48.6
-7.26973 181.048 48.6
-8.25704 179.494 48.6
-22.5743 188.512 48.6
-21.587 190.066 48.6
-32.4249 196.892 48.6
-29.7948 201.03 48.6
-31.2326 201.946 48.6
-26.5534 209.327 48.6
-25.0987 208.411 48.6
-22.3361 212.773 48.6
-11.3791 205.87 48.6
-10.4915 207.279 48.6
3.40053 198.523 48.6
2.51279 197.125 48.6
13.6145 190.124 48.6
12.7434 188.748 48.6
18.5368 185.095 48.6
25.6657 180.603 48.6
26.5949 182.068 48.6
42.6393 171.948 48.6
43.4358 173.201 48.6
53.1594 167.072 48.6
3 8 7 6
3 35 34 33
3 10 9 8
3 37 36 35
3 5 18 8
3 32 45 35
3 18 5 20
3 45 32 47
3 5 8 6
3 32 35 33
3 15 8 18
3 42 35 45
3 11 10 12
3 38 37 39
3 12 10 13
3 39 37 40
3 16 15 18
3 43 42 45
3 14 13 15
3 41 40 42
3 13 10 8
3 40 37 35
3 8 15 13
3 35 42 40
3 18 17 16
3 45 44 43
3 21 4 3
3 48 31 30
3 2 0 24
3 29 27 51
3 0 2 1
3 27 29 28
3 24 26 25
3 51 53 52
3 26 24 0
3 53 51 27
3 3 2 22
3 30 29 49
3 24 22 2
3 51 49 29
3 18 20 19
3 45 47 46
3 24 23 22
3 51 50 49
3 22 21 3
3 49 48 30
3 20 4 21
3 47 31 48
3 20 5 4
3 47 32 31
3 8 7 35
3 35 7 34
3 7 6 34
3 34 6 33
3 10 9 37
3 37 9 36
3 9 8 36
3 36 8 35
3 6 5 33
3 33 5 32
3 11 10 38
3 38 10 37
3 12 11 39
3 39 11 38
3 13 12 40
3 40 12 39
3 16 15 43
3 43 15 42
3 14 13 41
3 41 13 40
3 15 14 42
3 42 14 41
3 18 17 45
3 45 17 44
3 17 16 44
3 44 16 43
3 4 3 31
3 31 3 30
3 2 1 29
3 29 1 28
3 1 0 28
3 28 0 27
3 26 25 53
3 53 25 52
3 25 24 52
3 52 24 51
3 0 26 27
3 27 26 53
3 3 2 30
3 30 2 29
3 20 19 47
3 47 19 46
3 19 18 46
3 46 18 45
3 24 23 51
3 51 23 50
3 23 22 50
3 50 22 49
3 22 21 49
3 49 21 48
3 21 20 48
3 48 20 47
3 5 4 32
3 32 4 31
