ply
format ascii 1.0
comment Created by Open3D
element vertex 16
property double x
property double y
property double z
element face 14
property list uchar uint vertex_indices
end_header
-125.422 213.995 20.1
-125.403 212.307 20.1
-120.027 208.927 20.1
-118.243 210.257 20.1
-117.157 211.991 20.1
-111.236 208.272 20.1
-119.315 195.413 20.1
-125.1 199.044 20.1
-123.93 200.889 20.1
-123.646 202.669 20.1
-128.997 206.027 20.1
-130.985 205.549 20.1
-132.254 203.536 20.1
-137.877 207.058 20.1
-129.731 220.029 20.1
-123.921 216.377 20.1
3 12 11 13
3 1 10 2
3 11 10 1
3 14 13 0
3 1 0 13
3 13 11 1
3 14 0 15
3 2 10 9
3 9 8 6
3 6 5 9
3 8 7 6
3 9 5 2
3 4 3 5
3 2 5 3
