ply
format ascii 1.0
comment Created by Open3D
element vertex 15
property double x
property double y
property double z
element face 13
property list uchar uint vertex_indices
end_header
163.068 -1.51147 29
154.365 3.95115 29
155.651 5.99754 29
150.836 9.02886 29
149.55 6.98247 29
144.327 10.2534 29
130.716 18.8018 29
126.275 21.6042 29
127.594 23.6954 29
123.264 26.4214 29
121.945 24.3192 29
116.866 27.5029 29
111.889 30.6323 29
119.114 42.1279 29
170.285 9.97297 29
3 8 7 6
3 12 11 13
3 13 9 8
3 9 13 11
3 11 10 9
3 8 14 13
3 2 0 14
3 0 2 1
3 5 3 8
3 14 8 3
3 14 3 2
3 5 4 3
3 8 6 5
