ply
format ascii 1.0
comment Created by Open3D
element vertex 40
property double x
property double y
property double z
element face 58
property list uchar uint vertex_indices
end_header
-215.159 70.8317 0
-210.284 67.7675 0
-211.006 66.6158 0
-207.858 64.631 0
-207.178 65.7157 0
-204.762 64.2 0
-203.446 64.326 0
-198.197 61.033 0
-202.179 54.6927 0
-207.292 57.8985 0
-207.729 59.2036 0
-210.136 60.7193 0
-209.722 61.3791 0
-212.895 63.3746 0
-213.359 62.6366 0
-218.421 65.8208 0
-219.754 65.7057 0
-224.628 68.7588 0
-220.539 75.2779 0
-215.707 72.2465 0
-215.159 70.8317 20.9
-210.284 67.7675 20.9
-211.006 66.6158 20.9
-207.858 64.631 20.9
-207.178 65.7157 20.9
-204.762 64.2 20.9
-203.446 64.326 20.9
-198.197 61.033 20.9
-202.179 54.6927 20.9
-207.292 57.8985 20.9
-207.729 59.2036 20.9
-210.136 60.7193 20.9
-209.722 61.3791 20.9
-212.895 63.3746 20.9
-213.359 62.6366 20.9
-218.421 65.8208 20.9
-219.754 65.7057 20.9
-224.628 68.7588 20.9
-220.539 75.2779 20.9
-215.707 72.2465 20.9
3 19 16 15
3 13 2 15
3 13 15 14
3 0 15 2
3 18 17 19
3 19 17 16
3 19 15 0
3 2 1 0
3 2 13 3
3 12 11 10
3 9 8 7
3 10 9 6
3 7 6 9
3 3 13 12
3 12 10 3
3 5 4 3
3 3 10 5
3 10 6 5
3 16 15 36
3 36 15 35
3 15 14 35
3 35 14 34
3 14 13 34
3 34 13 33
3 18 17 38
3 38 17 37
3 19 18 39
3 39 18 38
3 17 16 37
3 37 16 36
3 0 19 20
3 20 19 39
3 2 1 22
3 22 1 21
3 1 0 21
3 21 0 20
3 3 2 23
3 23 2 22
3 12 11 32
3 32 11 31
3 11 10 31
3 31 10 30
3 9 8 29
3 29 8 28
3 8 7 28
3 28 7 27
3 10 9 30
3 30 9 29
3 7 6 27
3 27 6 26
3 13 12 33
3 33 12 32
3 5 4 25
3 25 4 24
3 4 3 24
3 24 3 23
3 6 5 26
3 26 5 25
