ply
format ascii 1.0
comment Created by Open3D
element vertex 12
property double x
property double y
property double z
element face 20
property list uchar uint vertex_indices
end_header
-82.0802 -187.952 0
-88.4615 -197.939 0
-90.2737 -196.783 0
-111.714 -183.105 0
-105.342 -173.107 0
-83.9009 -186.796 0
-82.0802 -187.952 28.8
-88.4615 -197.939 28.8
-90.2737 -196.783 28.8
-111.714 -183.105 28.8
-105.342 -173.107 28.8
-83.9009 -186.796 28.8
3 4 3 5
3 10 9 11
3 5 3 2
3 11 9 8
3 1 0 5
3 7 6 11
3 1 5 2
3 7 11 8
3 4 3 10
3 10 3 9
3 5 4 11
3 11 4 10
3 3 2 9
3 9 2 8
3 1 0 7
3 7 0 6
3 0 5 6
3 6 5 11
3 2 1 8
3 8 1 7
