ply
format ascii 1.0
comment Created by Open3D
element vertex 18
property double x
property double y
property double z
element face 25
property list uchar uint vertex_indices
end_header
273.402 -187.575 0
264.123 -184.228 0
258.319 -200.282 0
244.324 -195.213 0
261.648 -147.331 0
269.341 -150.107 0
265.329 -161.211 0
280.901 -166.839 0
273.565 -187.118 0
273.402 -187.575 22.4
264.123 -184.228 22.4
258.319 -200.282 22.4
244.324 -195.213 22.4
261.648 -147.331 22.4
269.341 -150.107 22.4
265.329 -161.211 22.4
280.901 -166.839 22.4
273.565 -187.118 22.4
3 3 2 1
3 6 3 1
3 3 6 4
3 7 1 8
3 6 1 7
3 6 5 4
3 8 1 0
3 3 2 12
3 12 2 11
3 2 1 11
3 11 1 10
3 4 3 13
3 13 3 12
3 8 7 17
3 17 7 16
3 7 6 16
3 16 6 15
3 6 5 15
3 15 5 14
3 5 4 14
3 14 4 13
3 1 0 10
3 10 0 9
3 0 8 9
3 9 8 17
