ply
format ascii 1.0
comment Created by Open3D
element vertex 22
property double x
property double y
property double z
element face 40
property list uchar uint vertex_indices
end_header
-222.543 14.693 0
-228.889 18.673 0
-218.147 35.8038 0
-214.546 41.5513 0
-211.441 39.5994 0
-217.124 30.5308 0
-217.753 30.9233 0
-219.827 27.6246 0
-218.602 26.8614 0
-216.802 29.7351 0
-214.148 28.0667 0
-222.543 14.693 12.9
-228.889 18.673 12.9
-218.147 35.8038 12.9
-214.546 41.5513 12.9
-211.441 39.5994 12.9
-217.124 30.5308 12.9
-217.753 30.9233 12.9
-219.827 27.6246 12.9
-218.602 26.8614 12.9
-216.802 29.7351 12.9
-214.148 28.0667 12.9
3 1 0 8
3 12 11 19
3 2 7 6
3 13 18 17
3 8 7 1
3 19 18 12
3 7 2 1
3 18 13 12
3 0 10 8
3 11 21 19
3 10 9 8
3 21 20 19
3 4 3 2
3 15 14 13
3 2 5 4
3 13 16 15
3 2 6 5
3 13 17 16
3 1 0 12
3 12 0 11
3 7 6 18
3 18 6 17
3 8 7 19
3 19 7 18
3 2 1 13
3 13 1 12
3 0 10 11
3 11 10 21
3 10 9 21
3 21 9 20
3 9 8 20
3 20 8 19
3 4 3 15
3 15 3 14
3 3 2 14
3 14 2 13
3 5 4 16
3 16 4 15
3 6 5 17
3 17 5 16
