ply
format ascii 1.0
comment Created by Open3D
element vertex 15
property double x
property double y
property double z
element face 13
property list uchar uint vertex_indices
end_header
146.796 -185.715 31
146.069 -186.39 31
145.17 -186.8 31
144.681 -186.905 31
143.693 -186.872 31
138.904 -185.384 31
139.955 -182.052 31
133.326 -179.963 31
132.275 -183.306 31
95.9016 -171.898 31
87.0769 -169.079 31
100.167 -148.257 31
152.454 -176.725 31
152.039 -177.395 31
151.251 -178.648 31
3 6 5 4
3 10 9 11
3 12 11 7
3 7 11 9
3 9 8 7
3 7 6 12
3 4 3 2
3 4 2 0
3 0 2 1
3 6 14 13
3 6 13 12
3 6 0 14
3 4 0 6
