ply
format ascii 1.0
comment Created by Open3D
element vertex 13
property double x
property double y
property double z
element face 11
property list uchar uint vertex_indices
end_header
-213.104 217.503 17.1
-211.088 216.238 17.1
-210.054 216.672 17.1
-208.158 215.539 17.1
-212.164 209.098 17.1
-214.061 210.276 17.1
-214.216 211.262 17.1
-216.232 212.527 17.1
-217.089 212.173 17.1
-222.329 215.455 17.1
-218.306 221.84 17.1
-215.558 220.106 17.1
-213.083 218.569 17.1
3 11 7 0
3 8 7 9
3 9 11 10
3 11 9 7
3 7 6 0
3 6 4 1
3 1 4 3
3 12 11 0
3 2 1 3
3 6 1 0
3 5 4 6
