ply
format ascii 1.0
comment Created by Open3D
element vertex 18
property double x
property double y
property double z
element face 32
property list uchar uint vertex_indices
end_header
-86.5366 188.692 0
-96.9138 172.165 0
-113.043 182.295 0
-114.744 183.364 0
-110.439 190.207 0
-114.343 192.661 0
-108.263 202.344 0
-100.147 197.241 0
-91.5726 191.854 0
-86.5366 188.692 31.8
-96.9138 172.165 31.8
-113.043 182.295 31.8
-114.744 183.364 31.8
-110.439 190.207 31.8
-114.343 192.661 31.8
-108.263 202.344 31.8
-100.147 197.241 31.8
-91.5726 191.854 31.8
3 3 2 4
3 12 11 13
3 5 4 6
3 14 13 15
3 2 1 4
3 11 10 13
3 1 0 8
3 10 9 17
3 6 4 7
3 15 13 16
3 7 4 8
3 16 13 17
3 4 1 8
3 13 10 17
3 3 2 12
3 12 2 11
3 4 3 13
3 13 3 12
3 5 4 14
3 14 4 13
3 6 5 15
3 15 5 14
3 2 1 11
3 11 1 10
3 1 0 10
3 10 0 9
3 0 8 9
3 9 8 17
3 7 6 16
3 16 6 15
3 8 7 17
3 17 7 16
