ply
format ascii 1.0
comment Created by Open3D
element vertex 38
property double x
property double y
property double z
element face 55
property list uchar uint vertex_indices
end_header
-98.7418 256.909 0
-100.459 254.18 0
-100.124 252.941 0
-95.4111 249.975 0
-93.5373 250.074 0
-91.928 252.635 0
-88.3722 250.399 0
-97.4966 235.851 0
-100.814 237.934 0
-99.5534 239.947 0
-99.7857 241.798 0
-103.631 244.208 0
-103.374 244.621 0
-104.803 245.527 0
-106.495 244.319 0
-107.889 242.094 0
-113.622 245.693 0
-104.356 260.442 0
-99.2863 257.258 0
-98.7418 256.909 21.3
-100.459 254.18 21.3
-100.124 252.941 21.3
-95.4111 249.975 21.3
-93.5373 250.074 21.3
-91.928 252.635 21.3
-88.3722 250.399 21.3
-97.4966 235.851 21.3
-100.814 237.934 21.3
-99.5534 239.947 21.3
-99.7857 241.798 21.3
-103.631 244.208 21.3
-103.374 244.621 21.3
-104.803 245.527 21.3
-106.495 244.319 21.3
-107.889 242.094 21.3
-113.622 245.693 21.3
-104.356 260.442 21.3
-99.2863 257.258 21.3
3 15 14 16
3 12 11 10
3 16 13 1
3 16 14 13
3 16 1 17
3 2 1 13
3 12 2 13
3 17 1 18
3 10 9 4
3 4 3 10
3 4 7 6
3 4 9 7
3 9 8 7
3 3 2 12
3 1 0 18
3 4 6 5
3 3 12 10
3 15 14 34
3 34 14 33
3 16 15 35
3 35 15 34
3 12 11 31
3 31 11 30
3 11 10 30
3 30 10 29
3 14 13 33
3 33 13 32
3 17 16 36
3 36 16 35
3 2 1 21
3 21 1 20
3 13 12 32
3 32 12 31
3 18 17 37
3 37 17 36
3 10 9 29
3 29 9 28
3 4 3 23
3 23 3 22
3 7 6 26
3 26 6 25
3 9 8 28
3 28 8 27
3 8 7 27
3 27 7 26
3 3 2 22
3 22 2 21
3 1 0 20
3 20 0 19
3 0 18 19
3 19 18 37
3 6 5 25
3 25 5 24
3 5 4 24
3 24 4 23
