ply
format ascii 1.0
comment Created by Open3D
element vertex 22
property double x
property double y
property double z
element face 31
property list uchar uint vertex_indices
end_header
20.8972 -283.842 0
11.6451 -298.303 0
-3.61046 -288.541 0
-2.68943 -287.099 0
-16.1071 -278.514 0
-16.4056 -278.995 0
-17.0438 -278.581 0
-20.5621 -284.083 0
-42.3519 -270.144 0
-30.1953 -251.153 0
-18.7772 -258.461 0
20.8972 -283.842 19.8
11.6451 -298.303 19.8
-3.61046 -288.541 19.8
-2.68943 -287.099 19.8
-16.1071 -278.514 19.8
-16.4056 -278.995 19.8
-17.0438 -278.581 19.8
-20.5621 -284.083 19.8
-42.3519 -270.144 19.8
-30.1953 -251.153 19.8
-18.7772 -258.461 19.8
3 7 6 8
3 8 10 9
3 10 8 6
3 6 4 10
3 2 1 3
3 3 1 0
3 3 0 10
3 3 10 4
3 5 4 6
3 7 6 18
3 18 6 17
3 8 7 19
3 19 7 18
3 10 9 21
3 21 9 20
3 9 8 20
3 20 8 19
3 2 1 13
3 13 1 12
3 3 2 14
3 14 2 13
3 1 0 12
3 12 0 11
3 0 10 11
3 11 10 21
3 4 3 15
3 15 3 14
3 5 4 16
3 16 4 15
3 6 5 17
3 17 5 16
