ply
format ascii 1.0
comment Created by Open3D
element vertex 26
property double x
property double y
property double z
element face 37
property list uchar uint vertex_indices
end_header
41.7444 55.6549 0
51.194 49.8567 0
52.3421 49.1593 0
36.1249 22.695 0
8.73778 39.4681 0
9.91509 41.3911 0
14.2678 48.5018 0
18.8445 55.9704 0
25.2202 66.3794 0
31.3014 62.6631 0
28.1758 57.5537 0
38.884 50.9926 0
41.1227 54.6375 0
41.7444 55.6549 58.2
51.194 49.8567 58.2
52.3421 49.1593 58.2
36.1249 22.695 58.2
8.73778 39.4681 58.2
9.91509 41.3911 58.2
14.2678 48.5018 58.2
18.8445 55.9704 58.2
25.2202 66.3794 58.2
31.3014 62.6631 58.2
28.1758 57.5537 58.2
38.884 50.9926 58.2
41.1227 54.6375 58.2
3 3 6 5
3 10 6 11
3 7 10 8
3 10 7 6
3 8 10 9
3 5 4 3
3 11 3 2
3 11 2 1
3 0 12 1
3 11 1 12
3 11 6 3
3 6 5 19
3 19 5 18
3 11 10 24
3 24 10 23
3 8 7 21
3 21 7 20
3 7 6 20
3 20 6 19
3 10 9 23
3 23 9 22
3 9 8 22
3 22 8 21
3 5 4 18
3 18 4 17
3 4 3 17
3 17 3 16
3 3 2 16
3 16 2 15
3 2 1 15
3 15 1 14
3 0 12 13
3 13 12 25
3 1 0 14
3 14 0 13
3 12 11 25
3 25 11 24
