ply
format ascii 1.0
comment Created by Open3D
element vertex 16
property double x
property double y
property double z
element face 22
property list uchar uint vertex_indices
end_header
-240.418 -24.4048 0
-223.652 -34.9383 0
-227.385 -40.8761 0
-244.364 -30.2118 0
-245.492 -32.0009 0
-250.86 -28.6316 0
-244.713 -18.8472 0
-239.133 -22.3584 0
-240.418 -24.4048 23.1
-223.652 -34.9383 23.1
-227.385 -40.8761 23.1
-244.364 -30.2118 23.1
-245.492 -32.0009 23.1
-250.86 -28.6316 23.1
-244.713 -18.8472 23.1
-239.133 -22.3584 23.1
3 4 3 5
3 6 5 3
3 3 0 6
3 2 1 0
3 0 7 6
3 2 0 3
3 4 3 12
3 12 3 11
3 5 4 13
3 13 4 12
3 6 5 14
3 14 5 13
3 2 1 10
3 10 1 9
3 1 0 9
3 9 0 8
3 0 7 8
3 8 7 15
3 7 6 15
3 15 6 14
3 3 2 11
3 11 2 10
