ply
format ascii 1.0
comment Created by Open3D
element vertex 18
property double x
property double y
property double z
element face 18
property list uchar uint vertex_indices
end_header
127.055 -52.0698 67.3
157.024 -70.7446 67.3
143.149 -93.019 67.3
141.66 -92.0924 67.3
120.661 -125.772 67.3
95.8298 -110.292 67.3
96.2528 -109.61 67.3
69.0572 -92.6569 67.3
102.754 -38.5925 67.3
104.396 -39.6173 67.3
126.309 -53.2663 67.3
120.617 -73.282 67.3
115.708 -70.1075 67.3
120.239 -63.1168 67.3
106.216 -54.0292 67.3
98.7386 -65.5722 67.3
110.481 -73.176 67.3
117.671 -77.8343 67.3
3 7 6 15
3 5 4 6
3 15 6 16
3 15 8 7
3 8 15 14
3 9 14 10
3 14 9 8
3 16 6 17
3 17 4 3
3 4 17 6
3 3 2 1
3 17 3 11
3 13 11 10
3 13 12 11
3 10 1 0
3 1 10 11
3 11 3 1
3 13 10 14
