ply
format ascii 1.0
comment Created by Open3D
element vertex 32
property double x
property double y
property double z
element face 46
property list uchar uint vertex_indices
end_header
-228.252 -5.52569 0
-228.233 -7.21299 0
-222.857 -10.5934 0
-221.073 -9.26297 0
-219.986 -7.52975 0
-214.065 -11.2481 0
-222.145 -24.1076 0
-227.93 -20.4766 0
-226.76 -18.6314 0
-226.476 -16.8518 0
-231.827 -13.4934 0
-233.814 -13.9712 0
-235.084 -15.9841 0
-240.707 -12.4622 0
-232.561 0.509153 0
-226.751 -3.14382 0
-228.252 -5.52569 20.1
-228.233 -7.21299 20.1
-222.857 -10.5934 20.1
-221.073 -9.26297 20.1
-219.986 -7.52975 20.1
-214.065 -11.2481 20.1
-222.145 -24.1076 20.1
-227.93 -20.4766 20.1
-226.76 -18.6314 20.1
-226.476 -16.8518 20.1
-231.827 -13.4934 20.1
-233.814 -13.9712 20.1
-235.084 -15.9841 20.1
-240.707 -12.4622 20.1
-232.561 0.509153 20.1
-226.751 -3.14382 20.1
3 12 11 13
3 1 10 2
3 11 10 1
3 14 13 0
3 1 0 13
3 13 11 1
3 14 0 15
3 2 10 9
3 9 8 6
3 6 5 9
3 8 7 6
3 9 5 2
3 4 3 5
3 2 5 3
3 12 11 28
3 28 11 27
3 13 12 29
3 29 12 28
3 2 1 18
3 18 1 17
3 11 10 27
3 27 10 26
3 14 13 30
3 30 13 29
3 1 0 17
3 17 0 16
3 0 15 16
3 16 15 31
3 15 14 31
3 31 14 30
3 10 9 26
3 26 9 25
3 9 8 25
3 25 8 24
3 6 5 22
3 22 5 21
3 8 7 24
3 24 7 23
3 7 6 23
3 23 6 22
3 4 3 20
3 20 3 19
3 5 4 21
3 21 4 20
3 3 2 19
3 19 2 18
