ply
format ascii 1.0
comment Created by Open3D
element vertex 20
property double x
property double y
property double z
element face 28
property list uchar uint vertex_indices
end_header
81.2628 127.916 0
83.2729 130.87 0
70.0828 138.812 0
81.4131 156.85 0
82.4594 156.195 0
83.6705 158.119 0
108.196 142.712 0
99.4645 127.802 0
94.3883 119.717 0
91.5727 121.472 0
81.2628 127.916 49.7
83.2729 130.87 49.7
70.0828 138.812 49.7
81.4131 156.85 49.7
82.4594 156.195 49.7
83.6705 158.119 49.7
108.196 142.712 49.7
99.4645 127.802 49.7
94.3883 119.717 49.7
91.5727 121.472 49.7
3 1 0 9
3 2 4 3
3 4 2 1
3 1 6 4
3 9 8 7
3 4 6 5
3 1 7 6
3 7 1 9
3 1 0 11
3 11 0 10
3 0 9 10
3 10 9 19
3 4 3 14
3 14 3 13
3 3 2 13
3 13 2 12
3 2 1 12
3 12 1 11
3 9 8 19
3 19 8 18
3 8 7 18
3 18 7 17
3 6 5 16
3 16 5 15
3 5 4 15
3 15 4 14
3 7 6 17
3 17 6 16
