ply
format ascii 1.0
comment Created by Open3D
element vertex 102
property double x
property double y
property double z
element face 151
property list uchar uint vertex_indices
end_header
195.807 222.63 0
201.014 219.325 0
205.037 225.666 0
212.336 221.032 0
219.151 216.702 0
215.186 210.451 0
218.367 208.433 0
219.147 209.652 0
221.215 208.344 0
225.288 214.763 0
231.992 210.499 0
238.627 206.29 0
235.475 201.335 0
234.241 202.109 0
232.267 199 0
233.441 198.259 0
229.252 191.672 0
228.086 192.413 0
226.153 189.371 0
227.327 188.63 0
222.806 181.517 0
216.927 185.247 0
209.577 189.914 0
216.985 201.578 0
213.922 203.531 0
212.271 200.925 0
209.798 201.518 0
207.036 197.168 0
199.66 201.846 0
192.811 206.197 0
195.566 210.537 0
194.349 211.311 0
194.099 212.496 0
195.609 214.878 0
194.332 215.696 0
192.637 216.232 0
191.036 213.715 0
189.671 212.734 0
183.689 203.306 0
176.526 207.854 0
170.35 211.78 0
174.871 218.904 0
175.883 218.26 0
177.626 221 0
176.554 221.676 0
180.851 228.453 0
181.855 227.81 0
183.688 230.695 0
182.625 231.36 0
185.952 236.594 0
199.3 228.121 0
195.807 222.63 18
201.014 219.325 18
205.037 225.666 18
212.336 221.032 18
219.151 216.702 18
215.186 210.451 18
218.367 208.433 18
219.147 209.652 18
221.215 208.344 18
225.288 214.763 18
231.992 210.499 18
238.627 206.29 18
235.475 201.335 18
234.241 202.109 18
232.267 199 18
233.441 198.259 18
229.252 191.672 18
228.086 192.413 18
226.153 189.371 18
227.327 188.63 18
222.806 181.517 18
216.927 185.247 18
209.577 189.914 18
216.985 201.578 18
213.922 203.531 18
212.271 200.925 18
209.798 201.518 18
207.036 197.168 18
199.66 201.846 18
192.811 206.197 18
195.566 210.537 18
194.349 211.311 18
194.099 212.496 18
195.609 214.878 18
194.332 215.696 18
192.637 216.232 18
191.036 213.715 18
189.671 212.734 18
183.689 203.306 18
176.526 207.854 18
170.35 211.78 18
174.871 218.904 18
175.883 218.26 18
177.626 221 18
176.554 221.676 18
180.851 228.453 18
181.855 227.81 18
183.688 230.695 18
182.625 231.36 18
185.952 236.594 18
199.3 228.121 18
3 37 39 38
3 37 42 39
3 39 42 40
3 36 35 37
3 30 29 28
3 33 30 1
3 31 30 32
3 33 32 30
3 34 33 1
3 1 30 5
3 42 41 40
3 42 37 43
3 44 46 45
3 46 44 43
3 43 35 46
3 34 0 35
3 0 34 1
3 0 47 46
3 48 47 49
3 50 49 47
3 47 0 50
3 46 35 0
3 37 35 43
3 30 28 26
3 22 21 23
3 24 26 25
3 5 30 26
3 21 20 18
3 19 18 20
3 18 17 23
3 17 16 14
3 16 15 14
3 23 17 14
3 21 18 23
3 24 23 6
3 6 23 8
3 24 6 5
3 1 3 2
3 5 3 1
3 4 3 5
3 5 26 24
3 10 8 13
3 8 23 14
3 11 13 12
3 10 13 11
3 8 10 9
3 8 7 6
3 14 13 8
3 26 28 27
3 39 38 90
3 90 38 89
3 38 37 89
3 89 37 88
3 40 39 91
3 91 39 90
3 36 35 87
3 87 35 86
3 37 36 88
3 88 36 87
3 30 29 81
3 81 29 80
3 29 28 80
3 80 28 79
3 31 30 82
3 82 30 81
3 32 31 83
3 83 31 82
3 33 32 84
3 84 32 83
3 34 33 85
3 85 33 84
3 42 41 93
3 93 41 92
3 41 40 92
3 92 40 91
3 43 42 94
3 94 42 93
3 46 45 97
3 97 45 96
3 45 44 96
3 96 44 95
3 44 43 95
3 95 43 94
3 35 34 86
3 86 34 85
3 1 0 52
3 52 0 51
3 47 46 98
3 98 46 97
3 48 47 99
3 99 47 98
3 49 48 100
3 100 48 99
3 50 49 101
3 101 49 100
3 0 50 51
3 51 50 101
3 22 21 73
3 73 21 72
3 23 22 74
3 74 22 73
3 26 25 77
3 77 25 76
3 25 24 76
3 76 24 75
3 21 20 72
3 72 20 71
3 19 18 70
3 70 18 69
3 20 19 71
3 71 19 70
3 18 17 69
3 69 17 68
3 17 16 68
3 68 16 67
3 16 15 67
3 67 15 66
3 15 14 66
3 66 14 65
3 24 23 75
3 75 23 74
3 6 5 57
3 57 5 56
3 3 2 54
3 54 2 53
3 2 1 53
3 53 1 52
3 4 3 55
3 55 3 54
3 5 4 56
3 56 4 55
3 13 12 64
3 64 12 63
3 12 11 63
3 63 11 62
3 11 10 62
3 62 10 61
3 10 9 61
3 61 9 60
3 9 8 60
3 60 8 59
3 8 7 59
3 59 7 58
3 7 6 58
3 58 6 57
3 14 13 65
3 65 13 64
3 28 27 79
3 79 27 78
3 27 26 78
3 78 26 77
