ply
format ascii 1.0
comment Created by Open3D
element vertex 10
property double x
property double y
property double z
element face 16
property list uchar uint vertex_indices
end_header
106.662 19.9605 0
95.5852 26.9502 0
101.607 36.5004 0
108.841 47.9628 0
119.917 40.9621 0
106.662 19.9605 24.8
95.5852 26.9502 24.8
101.607 36.5004 24.8
108.841 47.9628 24.8
119.917 40.9621 24.8
3 2 1 0
3 7 6 5
3 4 3 2
3 9 8 7
3 4 2 0
3 9 7 5
3 2 1 7
3 7 1 6
3 1 0 6
3 6 0 5
3 4 3 9
3 9 3 8
3 3 2 8
3 8 2 7
3 0 4 5
3 5 4 9
