ply
format ascii 1.0
comment Created by Open3D
element vertex 12
property double x
property double y
property double z
element face 16
property list uchar uint vertex_indices
end_header
108.831 -264.018 0
104.094 -271.489 0
103.694 -271.238 0
70.5811 -250.223 0
75.3184 -242.753 0
104.815 -261.478 0
108.831 -264.018 46.8
104.094 -271.489 46.8
103.694 -271.238 46.8
70.5811 -250.223 46.8
75.3184 -242.753 46.8
104.815 -261.478 46.8
3 4 3 5
3 5 3 2
3 0 5 2
3 0 2 1
3 4 3 10
3 10 3 9
3 5 4 11
3 11 4 10
3 3 2 9
3 9 2 8
3 0 5 6
3 6 5 11
3 2 1 8
3 8 1 7
3 1 0 7
3 7 0 6
