ply
format ascii 1.0
comment Created by Open3D
element vertex 35
property double x
property double y
property double z
element face 33
property list uchar uint vertex_indices
end_header
343.385 237.312 7
338.457 228.151 7
335.447 222.555 7
335.828 221.005 7
334.819 219.139 7
333.611 219.147 7
329.013 210.602 7
326.408 205.753 7
326.988 204.539 7
326.029 202.762 7
324.771 202.704 7
320.595 194.951 7
316.601 187.533 7
301.186 195.827 7
296.095 198.567 7
280.204 207.099 7
275.114 209.839 7
260.064 217.937 7
253.818 221.296 7
263.691 239.661 7
270.226 236.15 7
280.738 230.498 7
293.851 223.443 7
296.918 229.151 7
300.995 236.725 7
288.342 243.53 7
277.592 249.313 7
282.355 258.172 7
287.349 267.455 7
302.034 259.552 7
307.124 256.813 7
315.393 252.367 7
323.007 248.269 7
328.106 245.53 7
334.658 242.008 7
3 16 15 22
3 19 18 17
3 17 16 21
3 14 13 22
3 21 16 22
3 6 23 22
3 23 5 24
3 14 22 15
3 20 19 17
3 20 17 21
3 25 24 29
3 27 29 28
3 29 27 25
3 29 24 30
3 25 27 26
3 13 10 22
3 11 10 13
3 10 9 8
3 10 7 22
3 8 7 10
3 5 4 3
3 6 5 23
3 6 22 7
3 2 24 5
3 24 33 32
3 24 32 31
3 30 24 31
3 33 24 2
3 34 1 0
3 34 33 1
3 1 33 2
3 5 3 2
3 11 13 12
