ply
format ascii 1.0
comment Created by Open3D
element vertex 18
property double x
property double y
property double z
element face 25
property list uchar uint vertex_indices
end_header
-254.636 -83.4303 0
-261.773 -78.9486 0
-258.927 -74.4199 0
-251.852 -63.1483 0
-248.003 -57.0204 0
-246.153 -54.0795 0
-239.832 -58.0486 0
-244.162 -64.948 0
-243.354 -65.4606 0
-254.636 -83.4303 20.5
-261.773 -78.9486 20.5
-258.927 -74.4199 20.5
-251.852 -63.1483 20.5
-248.003 -57.0204 20.5
-246.153 -54.0795 20.5
-239.832 -58.0486 20.5
-244.162 -64.948 20.5
-243.354 -65.4606 20.5
3 1 0 2
3 7 3 2
3 2 0 8
3 8 7 2
3 4 6 5
3 6 4 7
3 7 4 3
3 1 0 10
3 10 0 9
3 2 1 11
3 11 1 10
3 3 2 12
3 12 2 11
3 0 8 9
3 9 8 17
3 8 7 17
3 17 7 16
3 6 5 15
3 15 5 14
3 5 4 14
3 14 4 13
3 7 6 16
3 16 6 15
3 4 3 13
3 13 3 12
