ply
format ascii 1.0
comment Created by Open3D
element vertex 36
property double x
property double y
property double z
element face 52
property list uchar uint vertex_indices
end_header
193.77 155.716 0
195.818 158.981 0
182.531 167.322 0
181.032 164.685 0
172.946 170.221 0
164.859 175.757 0
164.071 174.505 0
151.881 182.159 0
159.901 194.94 0
170.913 188.438 0
184.943 180.139 0
190.765 189.421 0
207.184 179.118 0
209.025 182.058 0
219.114 175.724 0
214.577 168.5 0
207.552 157.295 0
202.94 149.959 0
193.77 155.716 23.9
195.818 158.981 23.9
182.531 167.322 23.9
181.032 164.685 23.9
172.946 170.221 23.9
164.859 175.757 23.9
164.071 174.505 23.9
151.881 182.159 23.9
159.901 194.94 23.9
170.913 188.438 23.9
184.943 180.139 23.9
190.765 189.421 23.9
207.184 179.118 23.9
209.025 182.058 23.9
219.114 175.724 23.9
214.577 168.5 23.9
207.552 157.295 23.9
202.94 149.959 23.9
3 3 2 4
3 10 4 2
3 8 7 5
3 4 9 5
3 9 4 10
3 5 9 8
3 7 6 5
3 2 1 10
3 12 10 1
3 1 0 17
3 17 16 1
3 1 16 15
3 10 12 11
3 12 14 13
3 14 12 15
3 1 15 12
3 3 2 21
3 21 2 20
3 4 3 22
3 22 3 21
3 8 7 26
3 26 7 25
3 5 4 23
3 23 4 22
3 10 9 28
3 28 9 27
3 9 8 27
3 27 8 26
3 7 6 25
3 25 6 24
3 6 5 24
3 24 5 23
3 2 1 20
3 20 1 19
3 1 0 19
3 19 0 18
3 0 17 18
3 18 17 35
3 17 16 35
3 35 16 34
3 16 15 34
3 34 15 33
3 12 11 30
3 30 11 29
3 11 10 29
3 29 10 28
3 14 13 32
3 32 13 31
3 13 12 31
3 31 12 30
3 15 14 33
3 33 14 32
