ply
format ascii 1.0
comment Created by Open3D
element vertex 30
property double x
property double y
property double z
element face 56
property list uchar uint vertex_indices
end_header
134.525 221.25 0
119.422 197.13 0
118.375 197.784 0
117.264 196.006 0
117.834 195.647 0
116.217 193.063 0
107.651 198.428 0
103.918 192.467 0
106.734 190.701 0
101.799 182.829 0
92.5609 188.618 0
97.4628 196.435 0
98.0924 196.031 0
119.707 230.529 0
127.694 225.524 0
134.525 221.25 5.7
119.422 197.13 5.7
118.375 197.784 5.7
117.264 196.006 5.7
117.834 195.647 5.7
116.217 193.063 5.7
107.651 198.428 5.7
103.918 192.467 5.7
106.734 190.701 5.7
101.799 182.829 5.7
92.5609 188.618 5.7
97.4628 196.435 5.7
98.0924 196.031 5.7
119.707 230.529 5.7
127.694 225.524 5.7
3 7 10 9
3 22 25 24
3 7 9 8
3 22 24 23
3 12 6 13
3 27 21 28
3 12 11 10
3 27 26 25
3 7 6 12
3 22 21 27
3 12 10 7
3 27 25 22
3 2 6 3
3 17 21 18
3 3 5 4
3 18 20 19
3 13 6 2
3 28 21 17
3 13 2 14
3 28 17 29
3 0 14 2
3 15 29 17
3 2 1 0
3 17 16 15
3 3 6 5
3 18 21 20
3 10 9 25
3 25 9 24
3 9 8 24
3 24 8 23
3 8 7 23
3 23 7 22
3 13 12 28
3 28 12 27
3 12 11 27
3 27 11 26
3 11 10 26
3 26 10 25
3 7 6 22
3 22 6 21
3 3 2 18
3 18 2 17
3 5 4 20
3 20 4 19
3 4 3 19
3 19 3 18
3 14 13 29
3 29 13 28
3 0 14 15
3 15 14 29
3 2 1 17
3 17 1 16
3 1 0 16
3 16 0 15
3 6 5 21
3 21 5 20
