ply
format ascii 1.0
comment Created by Open3D
element vertex 12
property double x
property double y
property double z
element face 16
property list uchar uint vertex_indices
end_header
104.306 16.2254 0
106.662 19.9605 0
119.917 40.9621 0
120.1 41.2528 0
130.921 34.4268 0
115.127 9.38826 0
104.306 16.2254 32.6
106.662 19.9605 32.6
119.917 40.9621 32.6
120.1 41.2528 32.6
130.921 34.4268 32.6
115.127 9.38826 32.6
3 0 5 1
3 1 5 4
3 2 4 3
3 4 2 1
3 0 5 6
3 6 5 11
3 1 0 7
3 7 0 6
3 5 4 11
3 11 4 10
3 4 3 10
3 10 3 9
3 3 2 9
3 9 2 8
3 2 1 8
3 8 1 7
