ply
format ascii 1.0
comment Created by Open3D
element vertex 56
property double x
property double y
property double z
element face 108
property list uchar uint vertex_indices
end_header
74.101 -21.1903 0
72.7321 -23.3486 0
73.354 -24.5516 0
70.5758 -29.0243 0
69.2075 -29.0177 0
46.3677 -65.7384 0
44.3857 -64.5066 0
44.1866 -64.8197 0
46.1828 -68.0387 0
43.3632 -72.5784 0
42.7709 -72.4853 0
41.4278 -74.6877 0
26.4058 -65.3672 0
27.0196 -64.3832 0
26.3987 -64.0017 0
25.045 -60.842 0
27.8398 -56.347 0
31.6932 -56.525 0
31.9089 -56.1894 0
29.6122 -54.7613 0
50.7354 -20.8025 0
53.7721 -22.6885 0
53.9629 -22.3865 0
52.0766 -17.7008 0
55.1534 -12.7585 0
58.4576 -12.9205 0
58.9341 -13.2259 0
59.6058 -12.1413 0
74.101 -21.1903 49.6
72.7321 -23.3486 49.6
73.354 -24.5516 49.6
70.5758 -29.0243 49.6
69.2075 -29.0177 49.6
46.3677 -65.7384 49.6
44.3857 -64.5066 49.6
44.1866 -64.8197 49.6
46.1828 -68.0387 49.6
43.3632 -72.5784 49.6
42.7709 -72.4853 49.6
41.4278 -74.6877 49.6
26.4058 -65.3672 49.6
27.0196 -64.3832 49.6
26.3987 -64.0017 49.6
25.045 -60.842 49.6
27.8398 -56.347 49.6
31.6932 -56.525 49.6
31.9089 -56.1894 49.6
29.6122 -54.7613 49.6
50.7354 -20.8025 49.6
53.7721 -22.6885 49.6
53.9629 -22.3865 49.6
52.0766 -17.7008 49.6
55.1534 -12.7585 49.6
58.4576 -12.9205 49.6
58.9341 -13.2259 49.6
59.6058 -12.1413 49.6
3 13 12 11
3 41 40 39
3 10 13 11
3 38 41 39
3 8 7 10
3 36 35 38
3 13 10 7
3 41 38 35
3 8 10 9
3 36 38 37
3 17 7 6
3 45 35 34
3 15 14 13
3 43 42 41
3 15 13 17
3 43 41 45
3 17 16 15
3 45 44 43
3 19 18 20
3 47 46 48
3 13 7 17
3 41 35 45
3 6 18 17
3 34 46 45
3 6 21 18
3 34 49 46
3 21 4 22
3 49 32 50
3 21 6 4
3 49 34 32
3 21 20 18
3 49 48 46
3 4 3 1
3 32 31 29
3 2 1 3
3 30 29 31
3 22 4 26
3 50 32 54
3 26 4 1
3 54 32 29
3 23 26 24
3 51 54 52
3 26 0 27
3 54 28 55
3 23 22 26
3 51 50 54
3 26 25 24
3 54 53 52
3 1 0 26
3 29 28 54
3 6 5 4
3 34 33 32
3 13 12 41
3 41 12 40
3 12 11 40
3 40 11 39
3 11 10 39
3 39 10 38
3 8 7 36
3 36 7 35
3 10 9 38
3 38 9 37
3 9 8 37
3 37 8 36
3 7 6 35
3 35 6 34
3 15 14 43
3 43 14 42
3 14 13 42
3 42 13 41
3 17 16 45
3 45 16 44
3 16 15 44
3 44 15 43
3 19 18 47
3 47 18 46
3 20 19 48
3 48 19 47
3 18 17 46
3 46 17 45
3 22 21 50
3 50 21 49
3 21 20 49
3 49 20 48
3 4 3 32
3 32 3 31
3 2 1 30
3 30 1 29
3 3 2 31
3 31 2 30
3 24 23 52
3 52 23 51
3 0 27 28
3 28 27 55
3 27 26 55
3 55 26 54
3 23 22 51
3 51 22 50
3 26 25 54
3 54 25 53
3 25 24 53
3 53 24 52
3 1 0 29
3 29 0 28
3 6 5 34
3 34 5 33
3 5 4 33
3 33 4 32
