ply
format ascii 1.0
comment Created by Open3D
element vertex 30
property double x
property double y
property double z
element face 28
property list uchar uint vertex_indices
end_header
135.88 57.1652 19.2
119 68.0075 19.2
121.307 71.5977 19.2
121.97 71.1723 19.2
124.318 74.8296 19.2
122.702 75.8658 19.2
123.391 76.9284 19.2
120.489 78.7936 19.2
119.801 77.731 19.2
118.158 78.7891 19.2
115.81 75.1318 19.2
116.55 74.6518 19.2
114.244 71.0727 19.2
97.2609 81.9916 19.2
102.605 90.2905 19.2
105.489 88.4362 19.2
113.538 100.952 19.2
124.471 93.927 19.2
119.435 86.0867 19.2
120.081 85.6723 19.2
120.936 86.9921 19.2
123.063 85.6287 19.2
122.208 84.2977 19.2
123.408 83.5343 19.2
123.931 84.3508 19.2
124.237 84.1433 19.2
128.751 91.1783 19.2
146.5 79.7576 19.2
138.451 67.2421 19.2
141.216 65.4641 19.2
3 12 11 10
3 12 10 13
3 2 1 3
3 9 8 7
3 10 9 15
3 13 15 14
3 13 10 15
3 15 18 16
3 20 19 22
3 19 18 9
3 22 19 7
3 18 15 9
3 19 9 7
3 18 17 16
3 5 4 6
3 23 7 6
3 0 29 28
3 6 4 25
3 4 3 28
3 4 28 27
3 28 3 0
3 3 1 0
3 22 7 23
3 23 25 24
3 25 27 26
3 25 23 6
3 4 27 25
3 21 20 22
