ply
format ascii 1.0
comment Created by Open3D
element vertex 12
property double x
property double y
property double z
element face 16
property list uchar uint vertex_indices
end_header
162.038 -2.70881 0
135.805 13.6107 0
134.52 14.4064 0
143.22 28.3948 0
170.738 11.2796 0
171.823 7.19536 0
162.038 -2.70881 46.7
135.805 13.6107 46.7
134.52 14.4064 46.7
143.22 28.3948 46.7
170.738 11.2796 46.7
171.823 7.19536 46.7
3 2 1 3
3 3 1 4
3 0 5 4
3 0 4 1
3 2 1 8
3 8 1 7
3 3 2 9
3 9 2 8
3 4 3 10
3 10 3 9
3 0 5 6
3 6 5 11
3 5 4 11
3 11 4 10
3 1 0 7
3 7 0 6
