ply
format ascii 1.0
comment Created by Open3D
element vertex 44
property double x
property double y
property double z
element face 64
property list uchar uint vertex_indices
end_header
81.4131 156.85 0
75.159 146.897 0
70.0828 138.812 0
68.5176 139.793 0
65.6338 141.603 0
59.6038 131.987 0
63.5339 129.522 0
58.4407 121.448 0
59.1127 121.023 0
52.9579 111.249 0
53.6384 110.824 0
52.502 109.013 0
51.719 109.537 0
51.6361 109.403 0
40.2031 116.577 0
24.3976 126.499 0
32.7501 139.806 0
47.7382 163.692 0
55.3773 175.869 0
68.5711 167.594 0
83.6705 158.119 0
82.4594 156.195 0
81.4131 156.85 49.4
75.159 146.897 49.4
70.0828 138.812 49.4
68.5176 139.793 49.4
65.6338 141.603 49.4
59.6038 131.987 49.4
63.5339 129.522 49.4
58.4407 121.448 49.4
59.1127 121.023 49.4
52.9579 111.249 49.4
53.6384 110.824 49.4
52.502 109.013 49.4
51.719 109.537 49.4
51.6361 109.403 49.4
40.2031 116.577 49.4
24.3976 126.499 49.4
32.7501 139.806 49.4
47.7382 163.692 49.4
55.3773 175.869 49.4
68.5711 167.594 49.4
83.6705 158.119 49.4
82.4594 156.195 49.4
3 13 12 14
3 11 10 9
3 7 9 8
3 11 9 12
3 12 9 14
3 15 14 16
3 5 16 14
3 18 17 19
3 16 4 17
3 14 7 5
3 14 9 7
3 7 6 5
3 3 2 1
3 4 1 19
3 1 4 3
3 19 1 0
3 19 17 4
3 0 21 20
3 0 20 19
3 4 16 5
3 13 12 35
3 35 12 34
3 14 13 36
3 36 13 35
3 11 10 33
3 33 10 32
3 10 9 32
3 32 9 31
3 9 8 31
3 31 8 30
3 8 7 30
3 30 7 29
3 12 11 34
3 34 11 33
3 15 14 37
3 37 14 36
3 16 15 38
3 38 15 37
3 18 17 40
3 40 17 39
3 19 18 41
3 41 18 40
3 17 16 39
3 39 16 38
3 7 6 29
3 29 6 28
3 6 5 28
3 28 5 27
3 3 2 25
3 25 2 24
3 2 1 24
3 24 1 23
3 4 3 26
3 26 3 25
3 1 0 23
3 23 0 22
3 0 21 22
3 22 21 43
3 21 20 43
3 43 20 42
3 20 19 42
3 42 19 41
3 5 4 27
3 27 4 26
