ply
format ascii 1.0
comment Created by Open3D
element vertex 14
property double x
property double y
property double z
element face 19
property list uchar uint vertex_indices
end_header
79.4664 -190.425 0
71.4865 -203.118 0
20.3161 -170.974 0
28.2876 -158.282 0
54.9403 -175.019 0
61.4058 -179.086 0
73.8601 -186.903 0
79.4664 -190.425 46
71.4865 -203.118 46
20.3161 -170.974 46
28.2876 -158.282 46
54.9403 -175.019 46
61.4058 -179.086 46
73.8601 -186.903 46
3 2 4 3
3 4 2 1
3 1 0 6
3 6 5 1
3 1 5 4
3 4 3 11
3 11 3 10
3 3 2 10
3 10 2 9
3 2 1 9
3 9 1 8
3 1 0 8
3 8 0 7
3 0 6 7
3 7 6 13
3 6 5 13
3 13 5 12
3 5 4 12
3 12 4 11
