ply
format ascii 1.0
comment Created by Open3D
element vertex 26
property double x
property double y
property double z
element face 39
property list uchar uint vertex_indices
end_header
-245.306 179.907 0
-233.737 172.623 0
-267.11 119.585 0
-316.822 150.86 0
-283.35 204.065 0
-271.85 196.835 0
-272.488 195.818 0
-245.846 179.058 0
-251.091 178.387 0
-270.784 190.786 0
-282.057 172.861 0
-264.738 161.967 0
-262.365 160.473 0
-245.306 179.907 24.1
-233.737 172.623 24.1
-267.11 119.585 24.1
-316.822 150.86 24.1
-283.35 204.065 24.1
-271.85 196.835 24.1
-272.488 195.818 24.1
-245.846 179.058 24.1
-251.091 178.387 24.1
-270.784 190.786 24.1
-282.057 172.861 24.1
-264.738 161.967 24.1
-262.365 160.473 24.1
3 4 3 10
3 10 3 11
3 6 10 9
3 4 6 5
3 6 4 10
3 9 8 7
3 9 7 6
3 2 12 11
3 12 2 1
3 2 11 3
3 7 8 1
3 1 0 7
3 8 12 1
3 4 3 17
3 17 3 16
3 11 10 24
3 24 10 23
3 10 9 23
3 23 9 22
3 6 5 19
3 19 5 18
3 5 4 18
3 18 4 17
3 9 8 22
3 22 8 21
3 7 6 20
3 20 6 19
3 12 11 25
3 25 11 24
3 2 1 15
3 15 1 14
3 3 2 16
3 16 2 15
3 1 0 14
3 14 0 13
3 0 7 13
3 13 7 20
3 8 12 21
3 21 12 25
