ply
format ascii 1.0
comment Created by Open3D
element vertex 14
property double x
property double y
property double z
element face 19
property list uchar uint vertex_indices
end_header
221.167 -65.2802 0
219.184 -68.4338 0
229.81 -75.1065 0
220.188 -90.4156 0
184.832 -68.2057 0
196.428 -49.7432 0
217.67 -63.0888 0
221.167 -65.2802 40.6
219.184 -68.4338 40.6
229.81 -75.1065 40.6
220.188 -90.4156 40.6
184.832 -68.2057 40.6
196.428 -49.7432 40.6
217.67 -63.0888 40.6
3 4 6 5
3 6 4 1
3 3 2 1
3 1 0 6
3 3 1 4
3 6 5 13
3 13 5 12
3 5 4 12
3 12 4 11
3 3 2 10
3 10 2 9
3 2 1 9
3 9 1 8
3 1 0 8
3 8 0 7
3 0 6 7
3 7 6 13
3 4 3 11
3 11 3 10
