ply
format ascii 1.0
comment Created by Open3D
element vertex 70
property double x
property double y
property double z
element face 103
property list uchar uint vertex_indices
end_header
343.385 237.312 0
338.457 228.151 0
335.447 222.555 0
335.828 221.005 0
334.819 219.139 0
333.611 219.147 0
329.013 210.602 0
326.408 205.753 0
326.988 204.539 0
326.029 202.762 0
324.771 202.704 0
320.595 194.951 0
316.601 187.533 0
301.186 195.827 0
296.095 198.567 0
280.204 207.099 0
275.114 209.839 0
260.064 217.937 0
253.818 221.296 0
263.691 239.661 0
270.226 236.15 0
280.738 230.498 0
293.851 223.443 0
296.918 229.151 0
300.995 236.725 0
288.342 243.53 0
277.592 249.313 0
282.355 258.172 0
287.349 267.455 0
302.034 259.552 0
307.124 256.813 0
315.393 252.367 0
323.007 248.269 0
328.106 245.53 0
334.658 242.008 0
343.385 237.312 7
338.457 228.151 7
335.447 222.555 7
335.828 221.005 7
334.819 219.139 7
333.611 219.147 7
329.013 210.602 7
326.408 205.753 7
326.988 204.539 7
326.029 202.762 7
324.771 202.704 7
320.595 194.951 7
316.601 187.533 7
301.186 195.827 7
296.095 198.567 7
280.204 207.099 7
275.114 209.839 7
260.064 217.937 7
253.818 221.296 7
263.691 239.661 7
270.226 236.15 7
280.738 230.498 7
293.851 223.443 7
296.918 229.151 7
300.995 236.725 7
288.342 243.53 7
277.592 249.313 7
282.355 258.172 7
287.349 267.455 7
302.034 259.552 7
307.124 256.813 7
315.393 252.367 7
323.007 248.269 7
328.106 245.53 7
334.658 242.008 7
3 16 15 22
3 19 18 17
3 17 16 21
3 14 13 22
3 21 16 22
3 6 23 22
3 23 5 24
3 14 22 15
3 20 19 17
3 20 17 21
3 25 24 29
3 27 29 28
3 29 27 25
3 29 24 30
3 25 27 26
3 13 10 22
3 11 10 13
3 10 9 8
3 10 7 22
3 8 7 10
3 5 4 3
3 6 5 23
3 6 22 7
3 2 24 5
3 24 33 32
3 24 32 31
3 30 24 31
3 33 24 2
3 34 1 0
3 34 33 1
3 1 33 2
3 5 3 2
3 11 13 12
3 16 15 51
3 51 15 50
3 19 18 54
3 54 18 53
3 18 17 53
3 53 17 52
3 17 16 52
3 52 16 51
3 14 13 49
3 49 13 48
3 22 21 57
3 57 21 56
3 23 22 58
3 58 22 57
3 24 23 59
3 59 23 58
3 15 14 50
3 50 14 49
3 20 19 55
3 55 19 54
3 21 20 56
3 56 20 55
3 25 24 60
3 60 24 59
3 29 28 64
3 64 28 63
3 28 27 63
3 63 27 62
3 30 29 65
3 65 29 64
3 27 26 62
3 62 26 61
3 26 25 61
3 61 25 60
3 11 10 46
3 46 10 45
3 10 9 45
3 45 9 44
3 9 8 44
3 44 8 43
3 8 7 43
3 43 7 42
3 5 4 40
3 40 4 39
3 4 3 39
3 39 3 38
3 6 5 41
3 41 5 40
3 7 6 42
3 42 6 41
3 33 32 68
3 68 32 67
3 32 31 67
3 67 31 66
3 31 30 66
3 66 30 65
3 1 0 36
3 36 0 35
3 0 34 35
3 35 34 69
3 34 33 69
3 69 33 68
3 2 1 37
3 37 1 36
3 3 2 38
3 38 2 37
3 13 12 48
3 48 12 47
3 12 11 47
3 47 11 46
