ply
format ascii 1.0
comment Created by Open3D
element vertex 12
property double x
property double y
property double z
element face 16
property list uchar uint vertex_indices
end_header
138.404 94.9081 0
132.355 98.7912 0
131.019 96.7109 0
128.594 98.2707 0
141.895 118.962 0
150.404 113.486 0
138.404 94.9081 43.9
132.355 98.7912 43.9
131.019 96.7109 43.9
128.594 98.2707 43.9
141.895 118.962 43.9
150.404 113.486 43.9
3 3 2 1
3 3 1 4
3 5 4 1
3 5 1 0
3 3 2 9
3 9 2 8
3 2 1 8
3 8 1 7
3 4 3 10
3 10 3 9
3 5 4 11
3 11 4 10
3 1 0 7
3 7 0 6
3 0 5 6
3 6 5 11
