ply
format ascii 1.0
comment Created by Open3D
element vertex 15
property double x
property double y
property double z
element face 13
property list uchar uint vertex_indices
end_header
-178.855 183.507 4.6
-183.995 187.623 4.6
-189.243 190.838 4.6
-187.936 194.783 4.6
-187.659 195.619 4.6
-183.004 194.74 4.6
-178.849 193.266 4.6
-175.204 191.387 4.6
-172.18 189.112 4.6
-169.657 186.321 4.6
-168.264 183.406 4.6
-167.036 180.201 4.6
-166.265 177.001 4.6
-171.288 175.356 4.6
-174.559 179.271 4.6
3 1 0 6
3 2 1 5
3 4 3 5
3 5 3 2
3 1 6 5
3 0 7 6
3 14 13 11
3 12 11 13
3 14 11 10
3 0 8 7
3 8 0 9
3 10 9 14
3 0 14 9
