ply
format ascii 1.0
comment Created by Open3D
element vertex 11
property double x
property double y
property double z
element face 9
property list uchar uint vertex_indices
end_header
12.4738 -225.253 44.7
7.02059 -221.818 44.7
-1.37586 -216.552 44.7
14.0364 -192.017 44.7
19.1151 -195.201 44.7
20.4339 -193.099 44.7
24.7641 -195.825 44.7
23.4451 -197.916 44.7
27.886 -200.719 44.7
14.672 -221.753 44.7
12.6148 -225.029 44.7
3 0 10 1
3 3 2 4
3 1 4 2
3 1 10 9
3 9 8 7
3 9 7 4
3 7 5 4
3 5 7 6
3 9 4 1
