ply
format ascii 1.0
comment Created by Open3D
element vertex 54
property double x
property double y
property double z
element face 79
property list uchar uint vertex_indices
end_header
-46.4316 -78.6563 0
-47.4189 -80.2108 0
-61.5839 -71.2245 0
-49.6702 -52.4479 0
-40.0737 -58.5333 0
-40.9115 -59.864 0
-24.8414 -70.0053 0
-25.7124 -71.3919 0
-19.0201 -75.3566 0
-12.6623 -79.6249 0
-11.7331 -78.1599 0
-1.01386 -84.9318 0
-0.192804 -83.6124 0
14.0485 -92.6088 0
13.2188 -93.9172 0
24.0741 -100.765 0
21.5357 -104.791 0
22.9394 -105.674 0
18.045 -113.435 0
16.6329 -112.552 0
13.9701 -116.779 0
3.0722 -109.898 0
2.13481 -111.385 0
-11.8683 -102.542 0
-10.9309 -101.054 0
-28.318 -90.2287 0
-34.7427 -86.0278 0
-46.4316 -78.6563 47.7
-47.4189 -80.2108 47.7
-61.5839 -71.2245 47.7
-49.6702 -52.4479 47.7
-40.0737 -58.5333 47.7
-40.9115 -59.864 47.7
-24.8414 -70.0053 47.7
-25.7124 -71.3919 47.7
-19.0201 -75.3566 47.7
-12.6623 -79.6249 47.7
-11.7331 -78.1599 47.7
-1.01386 -84.9318 47.7
-0.192804 -83.6124 47.7
14.0485 -92.6088 47.7
13.2188 -93.9172 47.7
24.0741 -100.765 47.7
21.5357 -104.791 47.7
22.9394 -105.674 47.7
18.045 -113.435 47.7
16.6329 -112.552 47.7
13.9701 -116.779 47.7
3.0722 -109.898 47.7
2.13481 -111.385 47.7
-11.8683 -102.542 47.7
-10.9309 -101.054 47.7
-28.318 -90.2287 47.7
-34.7427 -86.0278 47.7
3 7 0 26
3 1 0 2
3 9 25 24
3 26 25 8
3 9 8 25
3 2 5 3
3 2 0 5
3 3 5 4
3 5 0 7
3 6 5 7
3 26 8 7
3 21 20 19
3 21 24 23
3 19 18 16
3 17 16 18
3 21 19 14
3 14 19 16
3 9 11 10
3 11 9 24
3 11 24 14
3 14 24 21
3 12 11 13
3 13 11 14
3 16 15 14
3 21 23 22
3 0 26 27
3 27 26 53
3 1 0 28
3 28 0 27
3 2 1 29
3 29 1 28
3 25 24 52
3 52 24 51
3 26 25 53
3 53 25 52
3 9 8 36
3 36 8 35
3 3 2 30
3 30 2 29
3 5 4 32
3 32 4 31
3 4 3 31
3 31 3 30
3 6 5 33
3 33 5 32
3 7 6 34
3 34 6 33
3 8 7 35
3 35 7 34
3 21 20 48
3 48 20 47
3 20 19 47
3 47 19 46
3 24 23 51
3 51 23 50
3 19 18 46
3 46 18 45
3 17 16 44
3 44 16 43
3 18 17 45
3 45 17 44
3 11 10 38
3 38 10 37
3 10 9 37
3 37 9 36
3 12 11 39
3 39 11 38
3 13 12 40
3 40 12 39
3 14 13 41
3 41 13 40
3 16 15 43
3 43 15 42
3 15 14 42
3 42 14 41
3 23 22 50
3 50 22 49
3 22 21 49
3 49 21 48
