ply
format ascii 1.0
comment Created by Open3D
element vertex 22
property double x
property double y
property double z
element face 31
property list uchar uint vertex_indices
end_header
-249.739 -52.1553 0
-251.439 -54.8614 0
-248.003 -57.0204 0
-251.852 -63.1483 0
-255.348 -60.9566 0
-257.231 -63.9645 0
-263.288 -60.1589 0
-262.126 -58.3027 0
-267.409 -54.9879 0
-261.138 -44.9911 0
-250.896 -51.4135 0
-249.739 -52.1553 21.3
-251.439 -54.8614 21.3
-248.003 -57.0204 21.3
-251.852 -63.1483 21.3
-255.348 -60.9566 21.3
-257.231 -63.9645 21.3
-263.288 -60.1589 21.3
-262.126 -58.3027 21.3
-267.409 -54.9879 21.3
-261.138 -44.9911 21.3
-250.896 -51.4135 21.3
3 6 5 7
3 8 7 9
3 10 9 7
3 7 5 4
3 1 4 3
3 1 3 2
3 1 0 10
3 10 7 1
3 1 7 4
3 6 5 17
3 17 5 16
3 7 6 18
3 18 6 17
3 8 7 19
3 19 7 18
3 9 8 20
3 20 8 19
3 10 9 21
3 21 9 20
3 5 4 16
3 16 4 15
3 4 3 15
3 15 3 14
3 3 2 14
3 14 2 13
3 2 1 13
3 13 1 12
3 1 0 12
3 12 0 11
3 0 10 11
3 11 10 21
