ply
format ascii 1.0
comment Created by Open3D
element vertex 12
property double x
property double y
property double z
element face 16
property list uchar uint vertex_indices
end_header
-230.017 47.7666 0
-228.997 49.3991 0
-216.994 68.5317 0
-210.452 64.4319 0
-223.475 43.6668 0
-228.775 46.9814 0
-230.017 47.7666 10.3
-228.997 49.3991 10.3
-216.994 68.5317 10.3
-210.452 64.4319 10.3
-223.475 43.6668 10.3
-228.775 46.9814 10.3
3 0 5 1
3 1 5 4
3 3 2 1
3 3 1 4
3 0 5 6
3 6 5 11
3 1 0 7
3 7 0 6
3 5 4 11
3 11 4 10
3 3 2 9
3 9 2 8
3 2 1 8
3 8 1 7
3 4 3 10
3 10 3 9
