ply
format ascii 1.0
comment Created by Open3D
element vertex 15
property double x
property double y
property double z
element face 13
property list uchar uint vertex_indices
end_header
60.2386 -221.032 29
51.5358 -215.569 29
52.8215 -213.523 29
48.0064 -210.491 29
46.7207 -212.538 29
41.4974 -209.267 29
27.886 -200.719 29
23.4451 -197.916 29
24.7641 -195.825 29
20.4339 -193.099 29
19.1151 -195.201 29
14.0364 -192.017 29
9.0597 -188.888 29
16.2847 -177.392 29
67.4553 -209.547 29
3 8 7 6
3 12 11 13
3 13 9 8
3 9 13 11
3 11 10 9
3 8 14 13
3 2 0 14
3 0 2 1
3 5 3 8
3 14 8 3
3 14 3 2
3 5 4 3
3 8 6 5
