ply
format ascii 1.0
comment Created by Open3D
element vertex 28
property double x
property double y
property double z
element face 40
property list uchar uint vertex_indices
end_header
-270.642 6.41441 0
-270.144 4.95461 0
-260.991 -0.791902 0
-259.626 -0.498794 0
-253.553 -4.30421 0
-257.609 -10.7675 0
-263.674 -6.96195 0
-264.102 -5.75669 0
-273.255 -0.0101815 0
-274.699 -0.0488375 0
-275.779 0.627184 0
-280.611 3.65852 0
-276.555 10.1218 0
-275.942 9.72907 0
-270.642 6.41441 21.6
-270.144 4.95461 21.6
-260.991 -0.791902 21.6
-259.626 -0.498794 21.6
-253.553 -4.30421 21.6
-257.609 -10.7675 21.6
-263.674 -6.96195 21.6
-264.102 -5.75669 21.6
-273.255 -0.0101815 21.6
-274.699 -0.0488375 21.6
-275.779 0.627184 21.6
-280.611 3.65852 21.6
-276.555 10.1218 21.6
-275.942 9.72907 21.6
3 10 9 8
3 0 10 1
3 12 11 13
3 13 11 10
3 10 0 13
3 10 8 1
3 2 7 6
3 2 8 7
3 4 6 5
3 1 8 2
3 3 2 6
3 6 4 3
3 10 9 24
3 24 9 23
3 9 8 23
3 23 8 22
3 1 0 15
3 15 0 14
3 12 11 26
3 26 11 25
3 13 12 27
3 27 12 26
3 11 10 25
3 25 10 24
3 0 13 14
3 14 13 27
3 7 6 21
3 21 6 20
3 8 7 22
3 22 7 21
3 6 5 20
3 20 5 19
3 5 4 19
3 19 4 18
3 2 1 16
3 16 1 15
3 3 2 17
3 17 2 16
3 4 3 18
3 18 3 17
