ply
format ascii 1.0
comment Created by Open3D
element vertex 12
property double x
property double y
property double z
element face 16
property list uchar uint vertex_indices
end_header
183.644 59.8217 0
181.637 56.6457 0
168.962 36.5388 0
155.81 44.8369 0
170.484 68.1197 0
183.21 60.0943 0
183.644 59.8217 24.1
181.637 56.6457 24.1
168.962 36.5388 24.1
155.81 44.8369 24.1
170.484 68.1197 24.1
183.21 60.0943 24.1
3 4 3 1
3 1 3 2
3 1 0 5
3 1 5 4
3 4 3 10
3 10 3 9
3 3 2 9
3 9 2 8
3 2 1 8
3 8 1 7
3 1 0 7
3 7 0 6
3 0 5 6
3 6 5 11
3 5 4 11
3 11 4 10
