ply
format ascii 1.0
comment Created by Open3D
element vertex 22
property double x
property double y
property double z
element face 31
property list uchar uint vertex_indices
end_header
-234.619 -52.3382 0
-237.597 -57.0795 0
-245.049 -52.4016 0
-244.592 -51.6748 0
-246.328 -50.5843 0
-246.85 -51.4118 0
-249.751 -49.5908 0
-250.896 -51.4135 0
-261.138 -44.9911 0
-256.949 -38.3154 0
-251.411 -41.7939 0
-234.619 -52.3382 19.8
-237.597 -57.0795 19.8
-245.049 -52.4016 19.8
-244.592 -51.6748 19.8
-246.328 -50.5843 19.8
-246.85 -51.4118 19.8
-249.751 -49.5908 19.8
-250.896 -51.4135 19.8
-261.138 -44.9911 19.8
-256.949 -38.3154 19.8
-251.411 -41.7939 19.8
3 7 6 8
3 8 10 9
3 10 8 6
3 6 4 10
3 3 2 1
3 3 1 0
3 4 3 0
3 5 4 6
3 0 10 4
3 7 6 18
3 18 6 17
3 8 7 19
3 19 7 18
3 10 9 21
3 21 9 20
3 9 8 20
3 20 8 19
3 3 2 14
3 14 2 13
3 2 1 13
3 13 1 12
3 1 0 12
3 12 0 11
3 4 3 15
3 15 3 14
3 5 4 16
3 16 4 15
3 6 5 17
3 17 5 16
3 0 10 11
3 11 10 21
