ply
format ascii 1.0
comment Created by Open3D
element vertex 12
property double x
property double y
property double z
element face 10
property list uchar uint vertex_indices
end_header
-130.579 -225.81 85
-123.977 -229.987 85
-136.855 -250.151 85
-138.361 -249.191 85
-142.377 -255.476 85
-152.417 -249.107 85
-151.562 -247.776 85
-157.789 -243.828 85
-144.853 -223.586 85
-143.534 -224.426 85
-139.418 -217.984 85
-129.567 -224.233 85
3 5 4 6
3 9 6 3
3 7 9 8
3 9 7 6
3 6 4 3
3 3 2 1
3 3 1 0
3 10 0 11
3 10 9 0
3 0 9 3
