ply
format ascii 1.0
comment Created by Open3D
element vertex 14
property double x
property double y
property double z
element face 19
property list uchar uint vertex_indices
end_header
-268.188 -143.037 0
-264.604 -137.334 0
-248.022 -110.877 0
-243.641 -113.625 0
-243.334 -116.142 0
-245.474 -119.563 0
-262.446 -146.635 0
-268.188 -143.037 22.7
-264.604 -137.334 22.7
-248.022 -110.877 22.7
-243.641 -113.625 22.7
-243.334 -116.142 22.7
-245.474 -119.563 22.7
-262.446 -146.635 22.7
3 0 6 1
3 1 6 5
3 5 4 2
3 3 2 4
3 5 2 1
3 0 6 7
3 7 6 13
3 1 0 8
3 8 0 7
3 6 5 13
3 13 5 12
3 5 4 12
3 12 4 11
3 3 2 10
3 10 2 9
3 4 3 11
3 11 3 10
3 2 1 9
3 9 1 8
