ply
format ascii 1.0
comment Created by Open3D
element vertex 38
property double x
property double y
property double z
element face 55
property list uchar uint vertex_indices
end_header
95.4857 119.03 0
85.3327 102.905 0
78.8212 92.5607 0
67.7287 99.4948 0
52.502 109.013 0
53.6384 110.824 0
52.9579 111.249 0
59.1127 121.023 0
58.4407 121.448 0
63.5339 129.522 0
65.5244 128.28 0
68.1705 132.484 0
71.0627 130.674 0
74.8651 128.298 0
75.5536 129.394 0
80.3173 126.406 0
81.2628 127.916 0
91.5727 121.472 0
94.3883 119.717 0
95.4857 119.03 43.7
85.3327 102.905 43.7
78.8212 92.5607 43.7
67.7287 99.4948 43.7
52.502 109.013 43.7
53.6384 110.824 43.7
52.9579 111.249 43.7
59.1127 121.023 43.7
58.4407 121.448 43.7
63.5339 129.522 43.7
65.5244 128.28 43.7
68.1705 132.484 43.7
71.0627 130.674 43.7
74.8651 128.298 43.7
75.5536 129.394 43.7
80.3173 126.406 43.7
81.2628 127.916 43.7
91.5727 121.472 43.7
94.3883 119.717 43.7
3 5 3 7
3 3 5 4
3 6 5 7
3 8 7 9
3 10 9 7
3 12 11 10
3 10 7 13
3 13 7 3
3 1 15 3
3 1 18 17
3 18 1 0
3 15 1 17
3 12 10 13
3 15 14 13
3 16 15 17
3 3 15 13
3 3 2 1
3 5 4 24
3 24 4 23
3 4 3 23
3 23 3 22
3 6 5 25
3 25 5 24
3 7 6 26
3 26 6 25
3 8 7 27
3 27 7 26
3 9 8 28
3 28 8 27
3 10 9 29
3 29 9 28
3 12 11 31
3 31 11 30
3 11 10 30
3 30 10 29
3 18 17 37
3 37 17 36
3 1 0 20
3 20 0 19
3 0 18 19
3 19 18 37
3 13 12 32
3 32 12 31
3 15 14 34
3 34 14 33
3 14 13 33
3 33 13 32
3 16 15 35
3 35 15 34
3 17 16 36
3 36 16 35
3 3 2 22
3 22 2 21
3 2 1 21
3 21 1 20
