ply
format ascii 1.0
comment Created by Open3D
element vertex 16
property double x
property double y
property double z
element face 22
property list uchar uint vertex_indices
end_header
146.219 88.0254 0
146.117 88.0909 0
145.652 87.375 0
143.763 88.5968 0
145.066 90.6212 0
138.404 94.9081 0
150.404 113.486 0
159.031 107.945 0
146.219 88.0254 43.9
146.117 88.0909 43.9
145.652 87.375 43.9
143.763 88.5968 43.9
145.066 90.6212 43.9
138.404 94.9081 43.9
150.404 113.486 43.9
159.031 107.945 43.9
3 4 3 1
3 5 4 6
3 3 2 1
3 0 7 4
3 6 4 7
3 4 1 0
3 4 3 12
3 12 3 11
3 5 4 13
3 13 4 12
3 6 5 14
3 14 5 13
3 3 2 11
3 11 2 10
3 2 1 10
3 10 1 9
3 0 7 8
3 8 7 15
3 7 6 15
3 15 6 14
3 1 0 9
3 9 0 8
