ply
format ascii 1.0
comment Created by Open3D
element vertex 24
property double x
property double y
property double z
element face 34
property list uchar uint vertex_indices
end_header
238.016 -217.775 0
225.629 -209.923 0
211.975 -236.78 0
197.776 -264.698 0
199.027 -265.483 0
213.622 -242.635 0
212.881 -242.166 0
215.063 -238.743 0
216.518 -239.659 0
221.87 -243.051 0
222.982 -241.306 0
235.635 -221.499 0
238.016 -217.775 39.9
225.629 -209.923 39.9
211.975 -236.78 39.9
197.776 -264.698 39.9
199.027 -265.483 39.9
213.622 -242.635 39.9
212.881 -242.166 39.9
215.063 -238.743 39.9
216.518 -239.659 39.9
221.87 -243.051 39.9
222.982 -241.306 39.9
235.635 -221.499 39.9
3 6 3 4
3 6 4 5
3 2 6 7
3 6 2 3
3 2 7 11
3 8 9 10
3 10 11 7
3 1 11 0
3 1 2 11
3 7 8 10
3 3 4 15
3 15 4 16
3 4 5 16
3 16 5 17
3 5 6 17
3 17 6 18
3 6 7 18
3 18 7 19
3 2 3 14
3 14 3 15
3 8 9 20
3 20 9 21
3 9 10 21
3 21 10 22
3 10 11 22
3 22 11 23
3 11 0 23
3 23 0 12
3 0 1 12
3 12 1 13
3 1 2 13
3 13 2 14
3 7 8 19
3 19 8 20
