ply
format ascii 1.0
comment Created by Open3D
element vertex 12
property double x
property double y
property double z
element face 10
property list uchar uint vertex_indices
end_header
238.016 -217.775 39.9
225.629 -209.923 39.9
211.975 -236.78 39.9
197.776 -264.698 39.9
199.027 -265.483 39.9
213.622 -242.635 39.9
212.881 -242.166 39.9
215.063 -238.743 39.9
216.518 -239.659 39.9
221.87 -243.051 39.9
222.982 -241.306 39.9
235.635 -221.499 39.9
3 6 3 4
3 6 4 5
3 2 6 7
3 6 2 3
3 2 7 11
3 8 9 10
3 10 11 7
3 1 11 0
3 1 2 11
3 7 8 10
