ply
format ascii 1.0
comment Created by Open3D
element vertex 28
property double x
property double y
property double z
element face 26
property list uchar uint vertex_indices
end_header
-59.3616 -177.78 48.2
-58.308 -176.113 48.2
-44.1517 -185.055 48.2
-45.1554 -186.654 48.2
-34.3766 -193.459 48.2
-37.1971 -197.932 48.2
-35.6148 -198.924 48.2
-40.2687 -206.305 48.2
-41.8171 -205.323 48.2
-44.7041 -209.897 48.2
-55.9168 -202.82 48.2
-56.7796 -204.184 48.2
-70.2978 -195.646 48.2
-69.4435 -194.281 48.2
-80.4095 -187.357 48.2
-79.5051 -185.937 48.2
-85.6985 -182.022 48.2
-92.7 -177.605 48.2
-93.6291 -179.081 48.2
-109.98 -168.765 48.2
-110.876 -170.186 48.2
-121.587 -163.424 48.2
-109.45 -144.201 48.2
-106.455 -146.099 48.2
-94.0344 -153.94 48.2
-94.9137 -155.337 48.2
-83.1651 -162.753 48.2
-76.4252 -167.194 48.2
3 19 18 17
3 20 19 21
3 15 14 13
3 17 16 27
3 15 27 16
3 19 17 25
3 21 23 22
3 21 19 23
3 23 19 25
3 25 24 23
3 17 26 25
3 17 27 26
3 15 0 27
3 10 9 8
3 11 10 12
3 8 7 6
3 6 5 8
3 10 8 3
3 3 8 5
3 13 0 15
3 12 10 13
3 13 10 0
3 10 3 0
3 2 1 3
3 3 1 0
3 5 4 3
