ply
format ascii 1.0
comment Created by Open3D
element vertex 22
property double x
property double y
property double z
element face 31
property list uchar uint vertex_indices
end_header
-192.301 11.0046 0
-194.027 8.26486 0
-196.927 10.0858 0
-197.782 8.71053 0
-194.881 6.88956 0
-196.366 4.53007 0
-198.212 5.69695 0
-220.516 19.6977 0
-216.452 26.1722 0
-210.718 22.5739 0
-194.377 12.302 0
-192.301 11.0046 17.5
-194.027 8.26486 17.5
-196.927 10.0858 17.5
-197.782 8.71053 17.5
-194.881 6.88956 17.5
-196.366 4.53007 17.5
-198.212 5.69695 17.5
-220.516 19.6977 17.5
-216.452 26.1722 17.5
-210.718 22.5739 17.5
-194.377 12.302 17.5
3 6 3 9
3 3 6 4
3 7 9 8
3 9 7 6
3 3 2 9
3 1 10 2
3 10 1 0
3 2 10 9
3 4 6 5
3 4 3 15
3 15 3 14
3 9 8 20
3 20 8 19
3 8 7 19
3 19 7 18
3 7 6 18
3 18 6 17
3 3 2 14
3 14 2 13
3 2 1 13
3 13 1 12
3 1 0 12
3 12 0 11
3 0 10 11
3 11 10 21
3 10 9 21
3 21 9 20
3 6 5 17
3 17 5 16
3 5 4 16
3 16 4 15
