ply
format ascii 1.0
comment Created by Open3D
element vertex 20
property double x
property double y
property double z
element face 28
property list uchar uint vertex_indices
end_header
130.299 229.684 0
130.133 229.416 0
127.93 230.789 0
145.355 258.611 0
145.604 259.002 0
148.868 257.197 0
172.411 244.188 0
154.006 214.823 0
149.073 217.92 0
137.129 225.399 0
130.299 229.684 8.1
130.133 229.416 8.1
127.93 230.789 8.1
145.355 258.611 8.1
145.604 259.002 8.1
148.868 257.197 8.1
172.411 244.188 8.1
154.006 214.823 8.1
149.073 217.92 8.1
137.129 225.399 8.1
3 2 0 3
3 0 2 1
3 5 3 0
3 0 9 5
3 8 7 6
3 4 3 5
3 6 5 8
3 5 9 8
3 3 2 13
3 13 2 12
3 2 1 12
3 12 1 11
3 1 0 11
3 11 0 10
3 0 9 10
3 10 9 19
3 8 7 18
3 18 7 17
3 7 6 17
3 17 6 16
3 4 3 14
3 14 3 13
3 5 4 15
3 15 4 14
3 6 5 16
3 16 5 15
3 9 8 19
3 19 8 18
