ply
format ascii 1.0
comment Created by Open3D
element vertex 12
property double x
property double y
property double z
element face 16
property list uchar uint vertex_indices
end_header
110.33 -257.773 0
108.076 -256.344 0
104.815 -261.478 0
75.3184 -242.753 0
80.1801 -235.092 0
111.932 -255.245 0
110.33 -257.773 29.2
108.076 -256.344 29.2
104.815 -261.478 29.2
75.3184 -242.753 29.2
80.1801 -235.092 29.2
111.932 -255.245 29.2
3 4 3 1
3 1 3 2
3 1 0 5
3 1 5 4
3 4 3 10
3 10 3 9
3 3 2 9
3 9 2 8
3 2 1 8
3 8 1 7
3 1 0 7
3 7 0 6
3 0 5 6
3 6 5 11
3 5 4 11
3 11 4 10
