ply
format ascii 1.0
comment Created by Open3D
element vertex 20
property double x
property double y
property double z
element face 28
property list uchar uint vertex_indices
end_header
-179.849 12.9562 0
-181.176 13.796 0
-182.736 11.3246 0
-187.738 14.4872 0
-184.237 20.0227 0
-182.914 20.3375 0
-175.107 32.65 0
-175.21 34.2697 0
-171.651 39.8836 0
-165.33 35.8812 0
-179.849 12.9562 17.5
-181.176 13.796 17.5
-182.736 11.3246 17.5
-187.738 14.4872 17.5
-184.237 20.0227 17.5
-182.914 20.3375 17.5
-175.107 32.65 17.5
-175.21 34.2697 17.5
-171.651 39.8836 17.5
-165.33 35.8812 17.5
3 2 1 3
3 1 4 3
3 4 1 5
3 1 0 5
3 6 0 9
3 7 9 8
3 9 7 6
3 6 5 0
3 2 1 12
3 12 1 11
3 3 2 13
3 13 2 12
3 4 3 14
3 14 3 13
3 5 4 15
3 15 4 14
3 1 0 11
3 11 0 10
3 0 9 10
3 10 9 19
3 9 8 19
3 19 8 18
3 8 7 18
3 18 7 17
3 7 6 17
3 17 6 16
3 6 5 16
3 16 5 15
