ply
format ascii 1.0
comment Created by Open3D
element vertex 12
property double x
property double y
property double z
element face 16
property list uchar uint vertex_indices
end_header
-188.503 134.093 0
-192.756 136.775 0
-190.649 140.119 0
-189.968 139.694 0
-187.264 143.999 0
-183.691 141.753 0
-188.503 134.093 10.2
-192.756 136.775 10.2
-190.649 140.119 10.2
-189.968 139.694 10.2
-187.264 143.999 10.2
-183.691 141.753 10.2
3 1 3 2
3 3 1 0
3 5 4 3
3 5 3 0
3 3 2 9
3 9 2 8
3 2 1 8
3 8 1 7
3 1 0 7
3 7 0 6
3 5 4 11
3 11 4 10
3 4 3 10
3 10 3 9
3 0 5 6
3 6 5 11
