ply
format ascii 1.0
comment Created by Open3D
element vertex 18
property double x
property double y
property double z
element face 25
property list uchar uint vertex_indices
end_header
277.3 171.661 0
284.838 183.749 0
306.854 171.379 0
277.041 123.575 0
241.12 145.8 0
245.905 153.471 0
238.76 157.897 0
255.686 185.036 0
265.766 178.801 0
277.3 171.661 99.4
284.838 183.749 99.4
306.854 171.379 99.4
277.041 123.575 99.4
241.12 145.8 99.4
245.905 153.471 99.4
238.76 157.897 99.4
255.686 185.036 99.4
265.766 178.801 99.4
3 5 4 3
3 7 6 5
3 5 8 7
3 3 2 0
3 8 5 0
3 1 0 2
3 0 5 3
3 5 4 14
3 14 4 13
3 4 3 13
3 13 3 12
3 7 6 16
3 16 6 15
3 6 5 15
3 15 5 14
3 8 7 17
3 17 7 16
3 3 2 12
3 12 2 11
3 0 8 9
3 9 8 17
3 1 0 10
3 10 0 9
3 2 1 11
3 11 1 10
