ply
format ascii 1.0
comment Created by Open3D
element vertex 12
property double x
property double y
property double z
element face 16
property list uchar uint vertex_indices
end_header
-175.18 -8.37318 0
-186.265 -1.34987 0
-185.278 0.204592 0
-188.485 2.233 0
-186.013 6.13585 0
-171.72 -2.91588 0
-175.18 -8.37318 14.8
-186.265 -1.34987 14.8
-185.278 0.204592 14.8
-188.485 2.233 14.8
-186.013 6.13585 14.8
-171.72 -2.91588 14.8
3 4 3 2
3 2 0 5
3 0 2 1
3 2 5 4
3 4 3 10
3 10 3 9
3 3 2 9
3 9 2 8
3 0 5 6
3 6 5 11
3 2 1 8
3 8 1 7
3 1 0 7
3 7 0 6
3 5 4 11
3 11 4 10
