ply
format ascii 1.0
comment Created by Open3D
element vertex 32
property double x
property double y
property double z
element face 46
property list uchar uint vertex_indices
end_header
-168.918 57.9557 0
-154.393 81.7468 0
-160.475 85.5188 0
-155.964 92.1538 0
-153.783 91.1684 0
-146.754 102.85 0
-148.236 103.955 0
-142.502 112.913 0
-139.146 111.175 0
-137.655 113.668 0
-112.521 96.7352 0
-113.716 94.8453 0
-111.427 93.3838 0
-121.452 77.8485 0
-144.156 41.7516 0
-169.2 57.5084 0
-168.918 57.9557 50
-154.393 81.7468 50
-160.475 85.5188 50
-155.964 92.1538 50
-153.783 91.1684 50
-146.754 102.85 50
-148.236 103.955 50
-142.502 112.913 50
-139.146 111.175 50
-137.655 113.668 50
-112.521 96.7352 50
-113.716 94.8453 50
-111.427 93.3838 50
-121.452 77.8485 50
-144.156 41.7516 50
-169.2 57.5084 50
3 0 15 14
3 2 1 4
3 0 14 1
3 4 3 2
3 6 5 7
3 5 4 13
3 4 1 13
3 11 5 13
3 12 11 13
3 5 11 8
3 5 8 7
3 10 9 8
3 11 10 8
3 13 1 14
3 0 15 16
3 16 15 31
3 15 14 31
3 31 14 30
3 2 1 18
3 18 1 17
3 1 0 17
3 17 0 16
3 4 3 20
3 20 3 19
3 3 2 19
3 19 2 18
3 6 5 22
3 22 5 21
3 7 6 23
3 23 6 22
3 5 4 21
3 21 4 20
3 12 11 28
3 28 11 27
3 13 12 29
3 29 12 28
3 8 7 24
3 24 7 23
3 10 9 26
3 26 9 25
3 9 8 25
3 25 8 24
3 11 10 27
3 27 10 26
3 14 13 30
3 30 13 29
