ply
format ascii 1.0
comment Created by Open3D
element vertex 16
property double x
property double y
property double z
element face 22
property list uchar uint vertex_indices
end_header
-246.745 -33.9914 0
-229.867 -44.5903 0
-233.526 -50.4162 0
-250.233 -39.9264 0
-251.411 -41.7939 0
-256.949 -38.3154 0
-250.86 -28.6316 0
-245.492 -32.0009 0
-246.745 -33.9914 23.1
-229.867 -44.5903 23.1
-233.526 -50.4162 23.1
-250.233 -39.9264 23.1
-251.411 -41.7939 23.1
-256.949 -38.3154 23.1
-250.86 -28.6316 23.1
-245.492 -32.0009 23.1
3 4 3 5
3 0 6 5
3 5 3 0
3 1 0 3
3 0 7 6
3 1 3 2
3 4 3 12
3 12 3 11
3 5 4 13
3 13 4 12
3 6 5 14
3 14 5 13
3 1 0 9
3 9 0 8
3 0 7 8
3 8 7 15
3 7 6 15
3 15 6 14
3 3 2 11
3 11 2 10
3 2 1 10
3 10 1 9
