ply
format ascii 1.0
comment Created by Open3D
element vertex 12
property double x
property double y
property double z
element face 16
property list uchar uint vertex_indices
end_header
40.3713 88.5793 0
41.7662 87.7182 0
32.1985 72.0991 0
22.8598 77.8098 0
34.1767 96.3021 0
42.1207 91.4303 0
40.3713 88.5793 26.2
41.7662 87.7182 26.2
32.1985 72.0991 26.2
22.8598 77.8098 26.2
34.1767 96.3021 26.2
42.1207 91.4303 26.2
3 4 3 0
3 0 3 2
3 1 0 2
3 0 5 4
3 4 3 10
3 10 3 9
3 3 2 9
3 9 2 8
3 1 0 7
3 7 0 6
3 2 1 8
3 8 1 7
3 0 5 6
3 6 5 11
3 5 4 11
3 11 4 10
