ply
format ascii 1.0
comment Created by Open3D
element vertex 12
property double x
property double y
property double z
element face 16
property list uchar uint vertex_indices
end_header
162.213 -205.276 0
160.96 -207.245 0
145.685 -231.167 0
139.168 -227.045 0
155.696 -201.154 0
160.01 -203.881 0
162.213 -205.276 17.8
160.96 -207.245 17.8
145.685 -231.167 17.8
139.168 -227.045 17.8
155.696 -201.154 17.8
160.01 -203.881 17.8
3 4 3 1
3 1 3 2
3 5 1 0
3 1 5 4
3 4 3 10
3 10 3 9
3 3 2 9
3 9 2 8
3 2 1 8
3 8 1 7
3 1 0 7
3 7 0 6
3 0 5 6
3 6 5 11
3 5 4 11
3 11 4 10
