ply
format ascii 1.0
comment Created by Open3D
element vertex 14
property double x
property double y
property double z
element face 19
property list uchar uint vertex_indices
end_header
190.895 -223.644 0
177.053 -251.047 0
159.042 -239.629 0
167.705 -226.063 0
174.749 -215.036 0
175.487 -213.873 0
181.766 -217.853 0
190.895 -223.644 27.1
177.053 -251.047 27.1
159.042 -239.629 27.1
167.705 -226.063 27.1
174.749 -215.036 27.1
175.487 -213.873 27.1
181.766 -217.853 27.1
3 3 6 4
3 1 3 2
3 0 6 3
3 5 4 6
3 3 1 0
3 4 3 11
3 11 3 10
3 3 2 10
3 10 2 9
3 2 1 9
3 9 1 8
3 0 6 7
3 7 6 13
3 5 4 12
3 12 4 11
3 6 5 13
3 13 5 12
3 1 0 8
3 8 0 7
