ply
format ascii 1.0
comment Created by Open3D
element vertex 14
property double x
property double y
property double z
element face 12
property list uchar uint vertex_indices
end_header
-270.642 6.41441 21.6
-270.144 4.95461 21.6
-260.991 -0.791902 21.6
-259.626 -0.498794 21.6
-253.553 -4.30421 21.6
-257.609 -10.7675 21.6
-263.674 -6.96195 21.6
-264.102 -5.75669 21.6
-273.255 -0.0101815 21.6
-274.699 -0.0488375 21.6
-275.779 0.627184 21.6
-280.611 3.65852 21.6
-276.555 10.1218 21.6
-275.942 9.72907 21.6
3 10 9 8
3 0 10 1
3 12 11 13
3 13 11 10
3 10 0 13
3 10 8 1
3 2 7 6
3 2 8 7
3 4 6 5
3 1 8 2
3 3 2 6
3 6 4 3
