ply
format ascii 1.0
comment Created by Open3D
element vertex 24
property double x
property double y
property double z
element face 34
property list uchar uint vertex_indices
end_header
-181.898 -259.08 0
-182.96 -260.747 0
-176.554 -264.815 0
-182.893 -274.723 0
-184.629 -273.622 0
-188.728 -280.03 0
-208.483 -267.488 0
-207.587 -266.09 0
-214.027 -262.011 0
-207.588 -251.924 0
-206.286 -252.753 0
-202.121 -246.244 0
-181.898 -259.08 85
-182.96 -260.747 85
-176.554 -264.815 85
-182.893 -274.723 85
-184.629 -273.622 85
-188.728 -280.03 85
-208.483 -267.488 85
-207.587 -266.09 85
-214.027 -262.011 85
-207.588 -251.924 85
-206.286 -252.753 85
-202.121 -246.244 85
3 7 6 5
3 8 7 10
3 10 9 8
3 1 11 10
3 10 7 1
3 4 3 2
3 4 1 7
3 2 1 4
3 1 0 11
3 4 7 5
3 7 6 19
3 19 6 18
3 6 5 18
3 18 5 17
3 8 7 20
3 20 7 19
3 10 9 22
3 22 9 21
3 9 8 21
3 21 8 20
3 11 10 23
3 23 10 22
3 4 3 16
3 16 3 15
3 3 2 15
3 15 2 14
3 2 1 14
3 14 1 13
3 1 0 13
3 13 0 12
3 0 11 12
3 12 11 23
3 5 4 17
3 17 4 16
