ply
format ascii 1.0
comment Created by Open3D
element vertex 10
property double x
property double y
property double z
element face 16
property list uchar uint vertex_indices
end_header
190.845 -161.062 0
183.129 -156.199 0
205.952 -120.199 0
213.676 -125.062 0
202.269 -143.034 0
190.845 -161.062 22.3
183.129 -156.199 22.3
205.952 -120.199 22.3
213.676 -125.062 22.3
202.269 -143.034 22.3
3 1 0 4
3 6 5 9
3 4 3 2
3 9 8 7
3 4 2 1
3 9 7 6
3 1 0 6
3 6 0 5
3 0 4 5
3 5 4 9
3 4 3 9
3 9 3 8
3 3 2 8
3 8 2 7
3 2 1 7
3 7 1 6
