ply
format ascii 1.0
comment Created by Open3D
element vertex 12
property double x
property double y
property double z
element face 16
property list uchar uint vertex_indices
end_header
147.941 -201.698 0
135.255 -193.639 0
130.031 -190.313 0
114.105 -180.192 0
118.933 -172.588 0
152.769 -194.105 0
147.941 -201.698 24.2
135.255 -193.639 24.2
130.031 -190.313 24.2
114.105 -180.192 24.2
118.933 -172.588 24.2
152.769 -194.105 24.2
3 3 2 4
3 4 2 5
3 1 0 5
3 1 5 2
3 3 2 9
3 9 2 8
3 4 3 10
3 10 3 9
3 5 4 11
3 11 4 10
3 1 0 7
3 7 0 6
3 0 5 6
3 6 5 11
3 2 1 8
3 8 1 7
