ply
format ascii 1.0
comment Created by Open3D
element vertex 24
property double x
property double y
property double z
element face 34
property list uchar uint vertex_indices
end_header
-271.016 68.8374 0
-260.893 62.4913 0
-259.867 62.8583 0
-254.746 59.6415 0
-258.769 53.2453 0
-263.89 56.4509 0
-264.054 57.4482 0
-274.176 63.7943 0
-275.238 63.5713 0
-280.614 66.9406 0
-276.599 73.3478 0
-271.223 69.9674 0
-271.016 68.8374 17
-260.893 62.4913 17
-259.867 62.8583 17
-254.746 59.6415 17
-258.769 53.2453 17
-263.89 56.4509 17
-264.054 57.4482 17
-274.176 63.7943 17
-275.238 63.5713 17
-280.614 66.9406 17
-276.599 73.3478 17
-271.223 69.9674 17
3 0 9 8
3 0 8 7
3 10 0 11
3 0 10 9
3 7 1 0
3 6 5 4
3 6 4 1
3 1 3 2
3 3 1 4
3 6 1 7
3 9 8 21
3 21 8 20
3 8 7 20
3 20 7 19
3 0 11 12
3 12 11 23
3 11 10 23
3 23 10 22
3 10 9 22
3 22 9 21
3 1 0 13
3 13 0 12
3 6 5 18
3 18 5 17
3 5 4 17
3 17 4 16
3 3 2 15
3 15 2 14
3 2 1 14
3 14 1 13
3 4 3 16
3 16 3 15
3 7 6 19
3 19 6 18
