ply
format ascii 1.0
comment Created by Open3D
element vertex 20
property double x
property double y
property double z
element face 28
property list uchar uint vertex_indices
end_header
-190.617 9.94687 0
-192.301 11.0046 0
-194.377 12.302 0
-193.754 13.2861 0
-196.715 15.1619 0
-178.372 44.1368 0
-171.651 39.8836 0
-175.21 34.2697 0
-184.237 20.0227 0
-187.738 14.4872 0
-190.617 9.94687 17.2
-192.301 11.0046 17.2
-194.377 12.302 17.2
-193.754 13.2861 17.2
-196.715 15.1619 17.2
-178.372 44.1368 17.2
-171.651 39.8836 17.2
-175.21 34.2697 17.2
-184.237 20.0227 17.2
-187.738 14.4872 17.2
3 3 1 9
3 3 2 1
3 4 3 9
3 1 0 9
3 8 5 4
3 5 7 6
3 7 5 8
3 8 4 9
3 3 2 13
3 13 2 12
3 2 1 12
3 12 1 11
3 4 3 14
3 14 3 13
3 1 0 11
3 11 0 10
3 0 9 10
3 10 9 19
3 5 4 15
3 15 4 14
3 7 6 17
3 17 6 16
3 6 5 16
3 16 5 15
3 8 7 18
3 18 7 17
3 9 8 19
3 19 8 18
