ply
format ascii 1.0
comment Created by Open3D
element vertex 18
property double x
property double y
property double z
element face 32
property list uchar uint vertex_indices
end_header
-189.366 -30.8281 0
-199.743 -47.3554 0
-215.872 -37.2254 0
-217.574 -36.1568 0
-213.268 -29.3132 0
-217.173 -26.8598 0
-211.093 -17.176 0
-202.977 -22.2792 0
-194.402 -27.6659 0
-189.366 -30.8281 31.8
-199.743 -47.3554 31.8
-215.872 -37.2254 31.8
-217.574 -36.1568 31.8
-213.268 -29.3132 31.8
-217.173 -26.8598 31.8
-211.093 -17.176 31.8
-202.977 -22.2792 31.8
-194.402 -27.6659 31.8
3 3 2 4
3 12 11 13
3 5 4 6
3 14 13 15
3 2 1 4
3 11 10 13
3 1 0 8
3 10 9 17
3 6 4 7
3 15 13 16
3 7 4 8
3 16 13 17
3 4 1 8
3 13 10 17
3 3 2 12
3 12 2 11
3 4 3 13
3 13 3 12
3 5 4 14
3 14 4 13
3 6 5 15
3 15 5 14
3 2 1 11
3 11 1 10
3 1 0 10
3 10 0 9
3 0 8 9
3 9 8 17
3 7 6 16
3 16 6 15
3 8 7 17
3 17 7 16
