ply
format ascii 1.0
comment Created by Open3D
element vertex 14
property double x
property double y
property double z
element face 19
property list uchar uint vertex_indices
end_header
-215.994 -73.231 0
-224.211 -68.0734 0
-228.601 -65.3146 0
-231.799 -63.3083 0
-232.973 -62.5667 0
-228.734 -55.8349 0
-211.763 -66.4882 0
-215.994 -73.231 17.2
-224.211 -68.0734 17.2
-228.601 -65.3146 17.2
-231.799 -63.3083 17.2
-232.973 -62.5667 17.2
-228.734 -55.8349 17.2
-211.763 -66.4882 17.2
3 4 3 5
3 5 3 2
3 1 0 6
3 1 5 2
3 5 1 6
3 4 3 11
3 11 3 10
3 5 4 12
3 12 4 11
3 3 2 10
3 10 2 9
3 1 0 8
3 8 0 7
3 0 6 7
3 7 6 13
3 2 1 9
3 9 1 8
3 6 5 13
3 13 5 12
