ply
format ascii 1.0
comment Created by Open3D
element vertex 36
property double x
property double y
property double z
element face 52
property list uchar uint vertex_indices
end_header
-255.751 -64.8913 0
-259.343 -70.6055 0
-261.189 -69.4497 0
-262.039 -69.6925 0
-263.283 -71.6829 0
-258.927 -74.4199 0
-261.773 -78.9486 0
-262.362 -79.8879 0
-277.198 -70.5647 0
-273.83 -65.2084 0
-270.333 -67.4112 0
-269.601 -67.203 0
-268.415 -65.3132 0
-268.703 -64.4838 0
-272.054 -62.3793 0
-268.579 -56.8331 0
-263.288 -60.1589 0
-257.231 -63.9645 0
-255.751 -64.8913 20.5
-259.343 -70.6055 20.5
-261.189 -69.4497 20.5
-262.039 -69.6925 20.5
-263.283 -71.6829 20.5
-258.927 -74.4199 20.5
-261.773 -78.9486 20.5
-262.362 -79.8879 20.5
-277.198 -70.5647 20.5
-273.83 -65.2084 20.5
-270.333 -67.4112 20.5
-269.601 -67.203 20.5
-268.415 -65.3132 20.5
-268.703 -64.4838 20.5
-272.054 -62.3793 20.5
-268.579 -56.8331 20.5
-263.288 -60.1589 20.5
-257.231 -63.9645 20.5
3 9 8 10
3 11 10 4
3 16 12 3
3 10 8 4
3 13 16 15
3 16 13 12
3 13 15 14
3 12 11 3
3 4 7 6
3 7 4 8
3 6 5 4
3 2 17 16
3 1 0 17
3 1 17 2
3 2 16 3
3 4 3 11
3 9 8 27
3 27 8 26
3 10 9 28
3 28 9 27
3 11 10 29
3 29 10 28
3 16 15 34
3 34 15 33
3 13 12 31
3 31 12 30
3 15 14 33
3 33 14 32
3 14 13 32
3 32 13 31
3 12 11 30
3 30 11 29
3 7 6 25
3 25 6 24
3 8 7 26
3 26 7 25
3 6 5 24
3 24 5 23
3 5 4 23
3 23 4 22
3 17 16 35
3 35 16 34
3 1 0 19
3 19 0 18
3 0 17 18
3 18 17 35
3 2 1 20
3 20 1 19
3 3 2 21
3 21 2 20
3 4 3 22
3 22 3 21
