ply
format ascii 1.0
comment Created by Open3D
element vertex 12
property double x
property double y
property double z
element face 16
property list uchar uint vertex_indices
end_header
229.703 -245.57 0
222.982 -241.306 0
235.635 -221.499 0
238.016 -217.775 0
244.737 -222.028 0
242.356 -225.763 0
229.703 -245.57 33.5
222.982 -241.306 33.5
235.635 -221.499 33.5
238.016 -217.775 33.5
244.737 -222.028 33.5
242.356 -225.763 33.5
3 1 0 2
3 2 0 5
3 3 5 4
3 5 3 2
3 1 0 7
3 7 0 6
3 2 1 8
3 8 1 7
3 0 5 6
3 6 5 11
3 5 4 11
3 11 4 10
3 4 3 10
3 10 3 9
3 3 2 9
3 9 2 8
