ply
format ascii 1.0
comment Created by Open3D
element vertex 22
property double x
property double y
property double z
element face 31
property list uchar uint vertex_indices
end_header
-188.959 71.2162 0
-154.373 123.635 0
-141.74 115.653 0
-142.502 112.913 0
-148.236 103.955 0
-146.754 102.85 0
-153.783 91.1684 0
-155.964 92.1538 0
-160.475 85.5188 0
-154.393 81.7468 0
-168.918 57.9557 0
-188.959 71.2162 10.5
-154.373 123.635 10.5
-141.74 115.653 10.5
-142.502 112.913 10.5
-148.236 103.955 10.5
-146.754 102.85 10.5
-153.783 91.1684 10.5
-155.964 92.1538 10.5
-160.475 85.5188 10.5
-154.393 81.7468 10.5
-168.918 57.9557 10.5
3 0 10 8
3 9 8 10
3 0 8 1
3 1 8 7
3 6 5 4
3 4 1 7
3 1 3 2
3 3 1 4
3 4 7 6
3 0 10 11
3 11 10 21
3 9 8 20
3 20 8 19
3 10 9 21
3 21 9 20
3 1 0 12
3 12 0 11
3 8 7 19
3 19 7 18
3 6 5 17
3 17 5 16
3 5 4 16
3 16 4 15
3 3 2 14
3 14 2 13
3 2 1 13
3 13 1 12
3 4 3 15
3 15 3 14
3 7 6 18
3 18 6 17
