ply
format ascii 1.0
comment Created by Open3D
element vertex 30
property double x
property double y
property double z
element face 43
property list uchar uint vertex_indices
end_header
157.079 163.378 0
162.293 160.096 0
168.971 155.909 0
174.164 164.173 0
186.66 156.334 0
182.289 149.356 0
173.879 135.97 0
167.094 125.168 0
155.967 132.157 0
142.407 140.661 0
130.514 148.13 0
139.091 161.784 0
144.88 171.01 0
151.881 182.159 0
164.071 174.505 0
157.079 163.378 26.6
162.293 160.096 26.6
168.971 155.909 26.6
174.164 164.173 26.6
186.66 156.334 26.6
182.289 149.356 26.6
173.879 135.97 26.6
167.094 125.168 26.6
155.967 132.157 26.6
142.407 140.661 26.6
130.514 148.13 26.6
139.091 161.784 26.6
144.88 171.01 26.6
151.881 182.159 26.6
164.071 174.505 26.6
3 11 10 9
3 1 0 9
3 12 11 0
3 13 0 14
3 0 13 12
3 11 9 0
3 9 8 1
3 8 2 1
3 8 6 2
3 6 5 2
3 2 5 3
3 5 4 3
3 6 8 7
3 11 10 26
3 26 10 25
3 10 9 25
3 25 9 24
3 1 0 16
3 16 0 15
3 12 11 27
3 27 11 26
3 0 14 15
3 15 14 29
3 14 13 29
3 29 13 28
3 13 12 28
3 28 12 27
3 9 8 24
3 24 8 23
3 2 1 17
3 17 1 16
3 6 5 21
3 21 5 20
3 3 2 18
3 18 2 17
3 5 4 20
3 20 4 19
3 4 3 19
3 19 3 18
3 8 7 23
3 23 7 22
3 7 6 22
3 22 6 21
