ply
format ascii 1.0
comment Created by Open3D
element vertex 16
property double x
property double y
property double z
element face 22
property list uchar uint vertex_indices
end_header
125.584 -197.314 0
130.808 -200.629 0
135.255 -193.639 0
147.941 -201.698 0
133.737 -224.043 0
99.9008 -202.537 0
114.105 -180.192 0
130.031 -190.313 0
125.584 -197.314 25.5
130.808 -200.629 25.5
135.255 -193.639 25.5
147.941 -201.698 25.5
133.737 -224.043 25.5
99.9008 -202.537 25.5
114.105 -180.192 25.5
130.031 -190.313 25.5
3 5 0 6
3 0 5 4
3 7 6 0
3 4 3 1
3 2 1 3
3 4 1 0
3 6 5 14
3 14 5 13
3 5 4 13
3 13 4 12
3 7 6 15
3 15 6 14
3 0 7 8
3 8 7 15
3 4 3 12
3 12 3 11
3 2 1 10
3 10 1 9
3 3 2 11
3 11 2 10
3 1 0 9
3 9 0 8
