ply
format ascii 1.0
comment Created by Open3D
element vertex 30
property double x
property double y
property double z
element face 43
property list uchar uint vertex_indices
end_header
-178.855 183.507 0
-183.995 187.623 0
-189.243 190.838 0
-187.936 194.783 0
-187.659 195.619 0
-183.004 194.74 0
-178.849 193.266 0
-175.204 191.387 0
-172.18 189.112 0
-169.657 186.321 0
-168.264 183.406 0
-167.036 180.201 0
-166.265 177.001 0
-171.288 175.356 0
-174.559 179.271 0
-178.855 183.507 4.6
-183.995 187.623 4.6
-189.243 190.838 4.6
-187.936 194.783 4.6
-187.659 195.619 4.6
-183.004 194.74 4.6
-178.849 193.266 4.6
-175.204 191.387 4.6
-172.18 189.112 4.6
-169.657 186.321 4.6
-168.264 183.406 4.6
-167.036 180.201 4.6
-166.265 177.001 4.6
-171.288 175.356 4.6
-174.559 179.271 4.6
3 1 0 6
3 2 1 5
3 4 3 5
3 5 3 2
3 1 6 5
3 0 7 6
3 14 13 11
3 12 11 13
3 14 11 10
3 0 8 7
3 8 0 9
3 10 9 14
3 0 14 9
3 1 0 16
3 16 0 15
3 2 1 17
3 17 1 16
3 4 3 19
3 19 3 18
3 5 4 20
3 20 4 19
3 3 2 18
3 18 2 17
3 6 5 21
3 21 5 20
3 7 6 22
3 22 6 21
3 14 13 29
3 29 13 28
3 12 11 27
3 27 11 26
3 13 12 28
3 28 12 27
3 11 10 26
3 26 10 25
3 8 7 23
3 23 7 22
3 9 8 24
3 24 8 23
3 10 9 25
3 25 9 24
3 0 14 15
3 15 14 29
