ply
format ascii 1.0
comment Created by Open3D
element vertex 16
property double x
property double y
property double z
element face 22
property list uchar uint vertex_indices
end_header
246.704 74.9217 0
230.305 85.0698 0
239.402 99.6624 0
210.984 117.244 0
228.789 145.781 0
232.231 151.305 0
241.12 145.8 0
277.041 123.575 0
246.704 74.9217 91.8
230.305 85.0698 91.8
239.402 99.6624 91.8
210.984 117.244 91.8
228.789 145.781 91.8
232.231 151.305 91.8
241.12 145.8 91.8
277.041 123.575 91.8
3 4 3 2
3 6 5 4
3 2 0 7
3 0 2 1
3 7 6 2
3 2 6 4
3 4 3 12
3 12 3 11
3 3 2 11
3 11 2 10
3 6 5 14
3 14 5 13
3 5 4 13
3 13 4 12
3 0 7 8
3 8 7 15
3 2 1 10
3 10 1 9
3 1 0 9
3 9 0 8
3 7 6 15
3 15 6 14
