ply
format ascii 1.0
comment Created by Open3D
element vertex 11
property double x
property double y
property double z
element face 9
property list uchar uint vertex_indices
end_header
-234.619 -52.3382 19.8
-237.597 -57.0795 19.8
-245.049 -52.4016 19.8
-244.592 -51.6748 19.8
-246.328 -50.5843 19.8
-246.85 -51.4118 19.8
-249.751 -49.5908 19.8
-250.896 -51.4135 19.8
-261.138 -44.9911 19.8
-256.949 -38.3154 19.8
-251.411 -41.7939 19.8
3 7 6 8
3 8 10 9
3 10 8 6
3 6 4 10
3 3 2 1
3 3 1 0
3 4 3 0
3 5 4 6
3 0 10 4
