ply
format ascii 1.0
comment Created by Open3D
element vertex 16
property double x
property double y
property double z
element face 22
property list uchar uint vertex_indices
end_header
-216.871 -27.4225 0
-220.877 -33.8186 0
-239.133 -22.3584 0
-244.713 -18.8472 0
-240.707 -12.4622 0
-235.084 -15.9841 0
-227.93 -20.4766 0
-222.145 -24.1076 0
-216.871 -27.4225 17.1
-220.877 -33.8186 17.1
-239.133 -22.3584 17.1
-244.713 -18.8472 17.1
-240.707 -12.4622 17.1
-235.084 -15.9841 17.1
-227.93 -20.4766 17.1
-222.145 -24.1076 17.1
3 3 2 4
3 5 4 2
3 2 6 5
3 1 0 7
3 7 6 1
3 1 6 2
3 3 2 11
3 11 2 10
3 4 3 12
3 12 3 11
3 5 4 13
3 13 4 12
3 6 5 14
3 14 5 13
3 1 0 9
3 9 0 8
3 0 7 8
3 8 7 15
3 7 6 15
3 15 6 14
3 2 1 10
3 10 1 9
