ply
format ascii 1.0
comment Created by Open3D
element vertex 48
property double x
property double y
property double z
element face 70
property list uchar uint vertex_indices
end_header
-195.413 33.5286 0
-193.886 35.9552 0
-194.494 37.3804 0
-191.682 41.8755 0
-193.8 43.2058 0
-194.738 41.7186 0
-197.145 43.2232 0
-198.173 43.056 0
-199.841 40.4058 0
-200.706 39.9963 0
-202.116 37.7376 0
-207.186 40.9216 0
-197.754 55.9393 0
-197.015 56.2919 0
-194.786 54.8851 0
-195.044 54.4825 0
-183.517 47.2533 0
-183.285 47.6223 0
-181.022 46.2048 0
-180.37 45.2686 0
-188.399 32.4873 0
-189.675 33.2943 0
-191.202 30.8788 0
-194.758 33.1142 0
-195.413 33.5286 21.3
-193.886 35.9552 21.3
-194.494 37.3804 21.3
-191.682 41.8755 21.3
-193.8 43.2058 21.3
-194.738 41.7186 21.3
-197.145 43.2232 21.3
-198.173 43.056 21.3
-199.841 40.4058 21.3
-200.706 39.9963 21.3
-202.116 37.7376 21.3
-207.186 40.9216 21.3
-197.754 55.9393 21.3
-197.015 56.2919 21.3
-194.786 54.8851 21.3
-195.044 54.4825 21.3
-183.517 47.2533 21.3
-183.285 47.6223 21.3
-181.022 46.2048 21.3
-180.37 45.2686 21.3
-188.399 32.4873 21.3
-189.675 33.2943 21.3
-191.202 30.8788 21.3
-194.758 33.1142 21.3
3 11 10 9
3 7 11 9
3 7 9 8
3 12 7 15
3 15 7 6
3 7 12 11
3 13 15 14
3 15 13 12
3 4 15 6
3 1 0 23
3 1 3 2
3 21 3 1
3 21 1 23
3 23 22 21
3 3 21 20
3 4 3 16
3 16 3 19
3 16 18 17
3 18 16 19
3 3 20 19
3 16 15 4
3 5 4 6
3 11 10 35
3 35 10 34
3 10 9 34
3 34 9 33
3 9 8 33
3 33 8 32
3 8 7 32
3 32 7 31
3 7 6 31
3 31 6 30
3 12 11 36
3 36 11 35
3 15 14 39
3 39 14 38
3 14 13 38
3 38 13 37
3 13 12 37
3 37 12 36
3 1 0 25
3 25 0 24
3 0 23 24
3 24 23 47
3 3 2 27
3 27 2 26
3 2 1 26
3 26 1 25
3 23 22 47
3 47 22 46
3 22 21 46
3 46 21 45
3 21 20 45
3 45 20 44
3 4 3 28
3 28 3 27
3 18 17 42
3 42 17 41
3 17 16 41
3 41 16 40
3 19 18 43
3 43 18 42
3 20 19 44
3 44 19 43
3 16 15 40
3 40 15 39
3 5 4 29
3 29 4 28
3 6 5 30
3 30 5 29
