ply
format ascii 1.0
comment Created by Open3D
element vertex 28
property double x
property double y
property double z
element face 40
property list uchar uint vertex_indices
end_header
-223.475 43.6668 0
-227.407 37.3937 0
-232.707 40.7194 0
-232.968 42.1819 0
-235.554 43.8066 0
-235.14 44.4775 0
-236.756 45.4915 0
-237.17 44.8207 0
-243.44 48.746 0
-240.097 54.0798 0
-234.67 50.6889 0
-234.398 49.7927 0
-229.949 47.0013 0
-228.775 46.9814 0
-223.475 43.6668 20.7
-227.407 37.3937 20.7
-232.707 40.7194 20.7
-232.968 42.1819 20.7
-235.554 43.8066 20.7
-235.14 44.4775 20.7
-236.756 45.4915 20.7
-237.17 44.8207 20.7
-243.44 48.746 20.7
-240.097 54.0798 20.7
-234.67 50.6889 20.7
-234.398 49.7927 20.7
-229.949 47.0013 20.7
-228.775 46.9814 20.7
3 5 4 3
3 9 8 10
3 6 10 8
3 11 10 6
3 8 7 6
3 6 5 11
3 13 3 2
3 12 5 3
3 13 2 1
3 11 5 12
3 13 12 3
3 1 0 13
3 5 4 19
3 19 4 18
3 4 3 18
3 18 3 17
3 9 8 23
3 23 8 22
3 10 9 24
3 24 9 23
3 11 10 25
3 25 10 24
3 8 7 22
3 22 7 21
3 7 6 21
3 21 6 20
3 6 5 20
3 20 5 19
3 3 2 17
3 17 2 16
3 2 1 16
3 16 1 15
3 12 11 26
3 26 11 25
3 13 12 27
3 27 12 26
3 1 0 15
3 15 0 14
3 0 13 14
3 14 13 27
