ply
format ascii 1.0
comment Created by Open3D
element vertex 22
property double x
property double y
property double z
element face 31
property list uchar uint vertex_indices
end_header
-217.933 138.342 0
-219.635 139.422 0
-219.933 138.142 0
-222.537 133.993 0
-226.314 136.37 0
-223.701 140.519 0
-222.621 141.298 0
-223.999 142.159 0
-212.825 159.916 0
-206.76 156.1 0
-217.734 138.667 0
-217.933 138.342 17.3
-219.635 139.422 17.3
-219.933 138.142 17.3
-222.537 133.993 17.3
-226.314 136.37 17.3
-223.701 140.519 17.3
-222.621 141.298 17.3
-223.999 142.159 17.3
-212.825 159.916 17.3
-206.76 156.1 17.3
-217.734 138.667 17.3
3 5 4 2
3 2 6 5
3 7 6 8
3 2 4 3
3 1 0 10
3 1 9 8
3 9 1 10
3 1 8 6
3 2 1 6
3 5 4 16
3 16 4 15
3 6 5 17
3 17 5 16
3 7 6 18
3 18 6 17
3 8 7 19
3 19 7 18
3 4 3 15
3 15 3 14
3 3 2 14
3 14 2 13
3 1 0 12
3 12 0 11
3 0 10 11
3 11 10 21
3 9 8 20
3 20 8 19
3 10 9 21
3 21 9 20
3 2 1 13
3 13 1 12
