ply
format ascii 1.0
comment Created by Open3D
element vertex 24
property double x
property double y
property double z
element face 44
property list uchar uint vertex_indices
end_header
148.235 216.578 0
148.507 216.404 0
128.9 185.115 0
124.63 187.786 0
116.217 193.063 0
117.834 195.647 0
117.264 196.006 0
118.375 197.784 0
119.422 197.13 0
134.525 221.25 0
137.129 225.399 0
149.073 217.92 0
148.235 216.578 26.8
148.507 216.404 26.8
128.9 185.115 26.8
124.63 187.786 26.8
116.217 193.063 26.8
117.834 195.647 26.8
117.264 196.006 26.8
118.375 197.784 26.8
119.422 197.13 26.8
134.525 221.25 26.8
137.129 225.399 26.8
149.073 217.92 26.8
3 4 3 5
3 16 15 17
3 5 3 8
3 17 15 20
3 5 7 6
3 17 19 18
3 7 5 8
3 19 17 20
3 3 2 8
3 15 14 20
3 2 1 0
3 14 13 12
3 0 9 8
3 12 21 20
3 0 10 9
3 12 22 21
3 10 0 11
3 22 12 23
3 0 8 2
3 12 20 14
3 4 3 16
3 16 3 15
3 5 4 17
3 17 4 16
3 7 6 19
3 19 6 18
3 6 5 18
3 18 5 17
3 8 7 20
3 20 7 19
3 3 2 15
3 15 2 14
3 2 1 14
3 14 1 13
3 1 0 13
3 13 0 12
3 9 8 21
3 21 8 20
3 10 9 22
3 22 9 21
3 0 11 12
3 12 11 23
3 11 10 23
3 23 10 22
