ply
format ascii 1.0
comment Created by Open3D
element vertex 18
property double x
property double y
property double z
element face 16
property list uchar uint vertex_indices
end_header
11.8803 227.019 18.7
-44.5591 263.055 18.7
-34.1715 279.339 18.7
-26.0721 274.158 18.7
-24.3465 276.875 18.7
-33.6963 282.841 18.7
-31.7715 285.861 18.7
-18.2274 277.212 18.7
-21.8201 271.597 18.7
-8.89719 263.352 18.7
-14.174 255.087 18.7
-8.28674 251.324 18.7
-3.00988 259.589 18.7
9.98975 251.289 18.7
6.23951 245.417 18.7
9.9318 243.062 18.7
14.4703 250.163 18.7
23.1226 244.633 18.7
3 1 3 2
3 3 1 8
3 10 8 1
3 1 11 10
3 3 8 4
3 6 4 7
3 4 6 5
3 7 4 8
3 8 10 9
3 15 14 0
3 0 17 15
3 14 11 0
3 16 15 17
3 12 11 14
3 12 14 13
3 0 11 1
