ply
format ascii 1.0
comment Created by Open3D
element vertex 18
property double x
property double y
property double z
element face 25
property list uchar uint vertex_indices
end_header
63.7301 230.488 0
71.1358 226.143 0
69.8434 223.952 0
70.294 223.69 0
64.611 214.022 0
63.5821 214.632 0
54.7592 199.632 0
48.1061 203.886 0
57.1608 219.299 0
63.7301 230.488 17
71.1358 226.143 17
69.8434 223.952 17
70.294 223.69 17
64.611 214.022 17
63.5821 214.632 17
54.7592 199.632 17
48.1061 203.886 17
57.1608 219.299 17
3 7 6 5
3 8 5 2
3 5 8 7
3 4 3 2
3 0 2 1
3 0 8 2
3 2 5 4
3 7 6 16
3 16 6 15
3 6 5 15
3 15 5 14
3 8 7 17
3 17 7 16
3 4 3 13
3 13 3 12
3 3 2 12
3 12 2 11
3 2 1 11
3 11 1 10
3 1 0 10
3 10 0 9
3 0 8 9
3 9 8 17
3 5 4 14
3 14 4 13
