ply
format ascii 1.0
comment Created by Open3D
element vertex 38
property double x
property double y
property double z
element face 55
property list uchar uint vertex_indices
end_header
-201.571 37.3885 0
-203.289 34.66 0
-202.953 33.4204 0
-198.241 30.4544 0
-196.367 30.5534 0
-194.758 33.1142 0
-191.202 30.8788 0
-200.326 16.3309 0
-203.644 18.4135 0
-202.383 20.4263 0
-202.615 22.2777 0
-206.46 24.6874 0
-206.203 25.1011 0
-207.632 26.0063 0
-209.325 24.7991 0
-210.718 22.5739 0
-216.452 26.1722 0
-207.186 40.9216 0
-202.116 37.7376 0
-201.571 37.3885 21.3
-203.289 34.66 21.3
-202.953 33.4204 21.3
-198.241 30.4544 21.3
-196.367 30.5534 21.3
-194.758 33.1142 21.3
-191.202 30.8788 21.3
-200.326 16.3309 21.3
-203.644 18.4135 21.3
-202.383 20.4263 21.3
-202.615 22.2777 21.3
-206.46 24.6874 21.3
-206.203 25.1011 21.3
-207.632 26.0063 21.3
-209.325 24.7991 21.3
-210.718 22.5739 21.3
-216.452 26.1722 21.3
-207.186 40.9216 21.3
-202.116 37.7376 21.3
3 15 14 16
3 12 11 10
3 16 13 1
3 16 14 13
3 16 1 17
3 2 1 13
3 12 2 13
3 17 1 18
3 10 9 4
3 4 3 10
3 4 7 6
3 4 9 7
3 9 8 7
3 3 2 12
3 1 0 18
3 4 6 5
3 3 12 10
3 15 14 34
3 34 14 33
3 16 15 35
3 35 15 34
3 12 11 31
3 31 11 30
3 11 10 30
3 30 10 29
3 14 13 33
3 33 13 32
3 17 16 36
3 36 16 35
3 2 1 21
3 21 1 20
3 13 12 32
3 32 12 31
3 18 17 37
3 37 17 36
3 10 9 29
3 29 9 28
3 4 3 23
3 23 3 22
3 7 6 26
3 26 6 25
3 9 8 28
3 28 8 27
3 8 7 27
3 27 7 26
3 3 2 22
3 22 2 21
3 1 0 20
3 20 0 19
3 0 18 19
3 19 18 37
3 6 5 25
3 25 5 24
3 5 4 24
3 24 4 23
