ply
format ascii 1.0
comment Created by Open3D
element vertex 16
property double x
property double y
property double z
element face 14
property list uchar uint vertex_indices
end_header
-168.918 57.9557 50
-154.393 81.7468 50
-160.475 85.5188 50
-155.964 92.1538 50
-153.783 91.1684 50
-146.754 102.85 50
-148.236 103.955 50
-142.502 112.913 50
-139.146 111.175 50
-137.655 113.668 50
-112.521 96.7352 50
-113.716 94.8453 50
-111.427 93.3838 50
-121.452 77.8485 50
-144.156 41.7516 50
-169.2 57.5084 50
3 0 15 14
3 2 1 4
3 0 14 1
3 4 3 2
3 6 5 7
3 5 4 13
3 4 1 13
3 11 5 13
3 12 11 13
3 5 11 8
3 5 8 7
3 10 9 8
3 11 10 8
3 13 1 14
