ply
format ascii 1.0
comment Created by Open3D
element vertex 14
property double x
property double y
property double z
element face 19
property list uchar uint vertex_indices
end_header
-198.049 -1.86175 0
-191.28 8.81799 0
-189.886 7.324 0
-190.492 6.37341 0
-187.65 4.57397 0
-193.532 -4.71899 0
-197.335 -2.31989 0
-198.049 -1.86175 12.5
-191.28 8.81799 12.5
-189.886 7.324 12.5
-190.492 6.37341 12.5
-187.65 4.57397 12.5
-193.532 -4.71899 12.5
-197.335 -2.31989 12.5
3 3 0 6
3 3 6 5
3 4 3 5
3 2 1 3
3 3 1 0
3 0 6 7
3 7 6 13
3 6 5 13
3 13 5 12
3 4 3 11
3 11 3 10
3 5 4 12
3 12 4 11
3 2 1 9
3 9 1 8
3 3 2 10
3 10 2 9
3 1 0 8
3 8 0 7
