ply
format ascii 1.0
comment Created by Open3D
element vertex 36
property double x
property double y
property double z
element face 52
property list uchar uint vertex_indices
end_header
-262.861 15.0184 0
-254.575 9.81714 0
-252.485 13.1605 0
-245.39 8.71169 0
-253.553 -4.30421 0
-259.626 -0.498794 0
-260.647 0.144597 0
-257.57 5.0424 0
-259.509 6.26373 0
-260.521 4.65349 0
-264.979 7.44484 0
-263.967 9.05508 0
-265.855 10.2437 0
-268.933 5.33479 0
-270.642 6.41441 0
-275.942 9.72907 0
-267.771 22.7561 0
-260.762 18.3619 0
-262.861 15.0184 25.9
-254.575 9.81714 25.9
-252.485 13.1605 25.9
-245.39 8.71169 25.9
-253.553 -4.30421 25.9
-259.626 -0.498794 25.9
-260.647 0.144597 25.9
-257.57 5.0424 25.9
-259.509 6.26373 25.9
-260.521 4.65349 25.9
-264.979 7.44484 25.9
-263.967 9.05508 25.9
-265.855 10.2437 25.9
-268.933 5.33479 25.9
-270.642 6.41441 25.9
-275.942 9.72907 25.9
-267.771 22.7561 25.9
-260.762 18.3619 25.9
3 12 14 13
3 11 10 9
3 16 15 12
3 11 0 12
3 0 17 16
3 12 0 16
3 15 14 12
3 0 11 8
3 7 6 5
3 7 5 4
3 8 7 1
3 1 3 2
3 3 1 7
3 7 4 3
3 1 0 8
3 9 8 11
3 14 13 32
3 32 13 31
3 13 12 31
3 31 12 30
3 11 10 29
3 29 10 28
3 10 9 28
3 28 9 27
3 16 15 34
3 34 15 33
3 12 11 30
3 30 11 29
3 0 17 18
3 18 17 35
3 17 16 35
3 35 16 34
3 15 14 33
3 33 14 32
3 7 6 25
3 25 6 24
3 6 5 24
3 24 5 23
3 5 4 23
3 23 4 22
3 8 7 26
3 26 7 25
3 3 2 21
3 21 2 20
3 2 1 20
3 20 1 19
3 4 3 22
3 22 3 21
3 1 0 19
3 19 0 18
3 9 8 27
3 27 8 26
