ply
format ascii 1.0
comment Created by Open3D
element vertex 18
property double x
property double y
property double z
element face 32
property list uchar uint vertex_indices
end_header
127.93 230.789 0
130.133 229.416 0
127.694 225.524 0
119.707 230.529 0
107.312 238.303 0
105.492 239.436 0
125.356 271.138 0
126.394 270.495 0
145.355 258.611 0
127.93 230.789 29.8
130.133 229.416 29.8
127.694 225.524 29.8
119.707 230.529 29.8
107.312 238.303 29.8
105.492 239.436 29.8
125.356 271.138 29.8
126.394 270.495 29.8
145.355 258.611 29.8
3 7 5 4
3 16 14 13
3 7 6 5
3 16 15 14
3 4 3 0
3 13 12 9
3 2 1 0
3 11 10 9
3 7 0 8
3 16 9 17
3 7 4 0
3 16 13 9
3 0 3 2
3 9 12 11
3 5 4 14
3 14 4 13
3 7 6 16
3 16 6 15
3 6 5 15
3 15 5 14
3 4 3 13
3 13 3 12
3 2 1 11
3 11 1 10
3 1 0 10
3 10 0 9
3 0 8 9
3 9 8 17
3 8 7 17
3 17 7 16
3 3 2 12
3 12 2 11
