ply
format ascii 1.0
comment Created by Open3D
element vertex 46
property double x
property double y
property double z
element face 67
property list uchar uint vertex_indices
end_header
-10.6385 32.23 0
6.64758 21.3588 0
-0.618608 9.78501 0
1.65027 7.83477 0
3.15778 5.2541 0
3.6339 2.76157 0
3.50404 0.084467 0
2.35326 -2.68202 0
1.19067 -4.41614 0
-0.888643 -5.74996 0
-3.70658 -6.74806 0
-6.69626 -6.76003 0
-8.84882 -6.11851 0
-10.1746 -5.40092 0
-13.1108 -10.0863 0
-22.9985 -25.8089 0
-27.0796 -32.3059 0
-44.6464 -21.2712 0
-44.9118 -21.6962 0
-60.556 -11.8608 0
-26.291 42.798 0
-18.5246 37.9463 0
-10.2404 32.8674 0
-10.6385 32.23 50.5
6.64758 21.3588 50.5
-0.618608 9.78501 50.5
1.65027 7.83477 50.5
3.15778 5.2541 50.5
3.6339 2.76157 50.5
3.50404 0.084467 50.5
2.35326 -2.68202 50.5
1.19067 -4.41614 50.5
-0.888643 -5.74996 50.5
-3.70658 -6.74806 50.5
-6.69626 -6.76003 50.5
-8.84882 -6.11851 50.5
-10.1746 -5.40092 50.5
-13.1108 -10.0863 50.5
-22.9985 -25.8089 50.5
-27.0796 -32.3059 50.5
-44.6464 -21.2712 50.5
-44.9118 -21.6962 50.5
-60.556 -11.8608 50.5
-26.291 42.798 50.5
-18.5246 37.9463 50.5
-10.2404 32.8674 50.5
3 19 18 17
3 17 16 15
3 19 17 13
3 14 17 15
3 20 19 21
3 13 17 14
3 19 13 21
3 13 0 21
3 2 0 13
3 0 22 21
3 11 5 12
3 10 5 11
3 9 8 7
3 9 5 10
3 5 9 7
3 3 5 4
3 5 3 2
3 2 13 5
3 7 6 5
3 2 1 0
3 5 13 12
3 19 18 42
3 42 18 41
3 18 17 41
3 41 17 40
3 17 16 40
3 40 16 39
3 16 15 39
3 39 15 38
3 15 14 38
3 38 14 37
3 20 19 43
3 43 19 42
3 21 20 44
3 44 20 43
3 14 13 37
3 37 13 36
3 0 22 23
3 23 22 45
3 22 21 45
3 45 21 44
3 12 11 35
3 35 11 34
3 11 10 34
3 34 10 33
3 9 8 32
3 32 8 31
3 8 7 31
3 31 7 30
3 10 9 33
3 33 9 32
3 5 4 28
3 28 4 27
3 4 3 27
3 27 3 26
3 3 2 26
3 26 2 25
3 7 6 30
3 30 6 29
3 6 5 29
3 29 5 28
3 2 1 25
3 25 1 24
3 1 0 24
3 24 0 23
3 13 12 36
3 36 12 35
