ply
format ascii 1.0
comment Created by Open3D
element vertex 24
property double x
property double y
property double z
element face 34
property list uchar uint vertex_indices
end_header
-130.579 -225.81 0
-123.977 -229.987 0
-136.855 -250.151 0
-138.361 -249.191 0
-142.377 -255.476 0
-152.417 -249.107 0
-151.562 -247.776 0
-157.789 -243.828 0
-144.853 -223.586 0
-143.534 -224.426 0
-139.418 -217.984 0
-129.567 -224.233 0
-130.579 -225.81 85
-123.977 -229.987 85
-136.855 -250.151 85
-138.361 -249.191 85
-142.377 -255.476 85
-152.417 -249.107 85
-151.562 -247.776 85
-157.789 -243.828 85
-144.853 -223.586 85
-143.534 -224.426 85
-139.418 -217.984 85
-129.567 -224.233 85
3 5 4 6
3 9 6 3
3 7 9 8
3 9 7 6
3 6 4 3
3 3 2 1
3 3 1 0
3 10 0 11
3 10 9 0
3 0 9 3
3 5 4 17
3 17 4 16
3 6 5 18
3 18 5 17
3 9 8 21
3 21 8 20
3 8 7 20
3 20 7 19
3 7 6 19
3 19 6 18
3 4 3 16
3 16 3 15
3 3 2 15
3 15 2 14
3 2 1 14
3 14 1 13
3 1 0 13
3 13 0 12
3 0 11 12
3 12 11 23
3 11 10 23
3 23 10 22
3 10 9 22
3 22 9 21
