ply
format ascii 1.0
comment Created by Open3D
element vertex 27
property double x
property double y
property double z
element face 25
property list uchar uint vertex_indices
end_header
-46.4316 -78.6563 47.7
-47.4189 -80.2108 47.7
-61.5839 -71.2245 47.7
-49.6702 -52.4479 47.7
-40.0737 -58.5333 47.7
-40.9115 -59.864 47.7
-24.8414 -70.0053 47.7
-25.7124 -71.3919 47.7
-19.0201 -75.3566 47.7
-12.6623 -79.6249 47.7
-11.7331 -78.1599 47.7
-1.01386 -84.9318 47.7
-0.192804 -83.6124 47.7
14.0485 -92.6088 47.7
13.2188 -93.9172 47.7
24.0741 -100.765 47.7
21.5357 -104.791 47.7
22.9394 -105.674 47.7
18.045 -113.435 47.7
16.6329 -112.552 47.7
13.9701 -116.779 47.7
3.0722 -109.898 47.7
2.13481 -111.385 47.7
-11.8683 -102.542 47.7
-10.9309 -101.054 47.7
-28.318 -90.2287 47.7
-34.7427 -86.0278 47.7
3 7 0 26
3 1 0 2
3 9 25 24
3 26 25 8
3 9 8 25
3 2 5 3
3 2 0 5
3 3 5 4
3 5 0 7
3 6 5 7
3 26 8 7
3 21 20 19
3 21 24 23
3 19 18 16
3 17 16 18
3 21 19 14
3 14 19 16
3 9 11 10
3 11 9 24
3 11 24 14
3 14 24 21
3 12 11 13
3 13 11 14
3 16 15 14
3 21 23 22
