ply
format ascii 1.0
comment Created by Open3D
element vertex 18
property double x
property double y
property double z
element face 25
property list uchar uint vertex_indices
end_header
214.424 -135.801 0
219.078 -128.464 0
213.676 -125.062 0
205.952 -120.199 0
201.349 -117.299 0
167.056 -95.7206 0
174.357 -84.2128 0
245.767 -129.146 0
233.812 -147.991 0
214.424 -135.801 50.5
219.078 -128.464 50.5
213.676 -125.062 50.5
205.952 -120.199 50.5
201.349 -117.299 50.5
167.056 -95.7206 50.5
174.357 -84.2128 50.5
245.767 -129.146 50.5
233.812 -147.991 50.5
3 6 4 7
3 6 5 4
3 4 3 7
3 0 8 1
3 2 1 7
3 7 1 8
3 2 7 3
3 7 6 16
3 16 6 15
3 6 5 15
3 15 5 14
3 5 4 14
3 14 4 13
3 4 3 13
3 13 3 12
3 0 8 9
3 9 8 17
3 1 0 10
3 10 0 9
3 2 1 11
3 11 1 10
3 8 7 17
3 17 7 16
3 3 2 12
3 12 2 11
