ply
format ascii 1.0
comment Created by Open3D
element vertex 16
property double x
property double y
property double z
element face 22
property list uchar uint vertex_indices
end_header
174.991 190.761 0
168.364 194.893 0
161.644 199.079 0
164.049 202.937 0
167.358 208.237 0
173.143 204.629 0
180.696 199.919 0
177.255 194.395 0
174.991 190.761 16.5
168.364 194.893 16.5
161.644 199.079 16.5
164.049 202.937 16.5
167.358 208.237 16.5
173.143 204.629 16.5
180.696 199.919 16.5
177.255 194.395 16.5
3 2 1 3
3 5 4 3
3 3 1 5
3 7 5 1
3 6 5 7
3 7 1 0
3 2 1 10
3 10 1 9
3 3 2 11
3 11 2 10
3 5 4 13
3 13 4 12
3 4 3 12
3 12 3 11
3 6 5 14
3 14 5 13
3 7 6 15
3 15 6 14
3 1 0 9
3 9 0 8
3 0 7 8
3 8 7 15
