ply
format ascii 1.0
comment Created by Open3D
element vertex 24
property double x
property double y
property double z
element face 22
property list uchar uint vertex_indices
end_header
-195.413 33.5286 21.3
-193.886 35.9552 21.3
-194.494 37.3804 21.3
-191.682 41.8755 21.3
-193.8 43.2058 21.3
-194.738 41.7186 21.3
-197.145 43.2232 21.3
-198.173 43.056 21.3
-199.841 40.4058 21.3
-200.706 39.9963 21.3
-202.116 37.7376 21.3
-207.186 40.9216 21.3
-197.754 55.9393 21.3
-197.015 56.2919 21.3
-194.786 54.8851 21.3
-195.044 54.4825 21.3
-183.517 47.2533 21.3
-183.285 47.6223 21.3
-181.022 46.2048 21.3
-180.37 45.2686 21.3
-188.399 32.4873 21.3
-189.675 33.2943 21.3
-191.202 30.8788 21.3
-194.758 33.1142 21.3
3 11 10 9
3 7 11 9
3 7 9 8
3 12 7 15
3 15 7 6
3 7 12 11
3 13 15 14
3 15 13 12
3 4 15 6
3 1 0 23
3 1 3 2
3 21 3 1
3 21 1 23
3 23 22 21
3 3 21 20
3 4 3 16
3 16 3 19
3 16 18 17
3 18 16 19
3 3 20 19
3 16 15 4
3 5 4 6
