ply
format ascii 1.0
comment Created by Open3D
element vertex 12
property double x
property double y
property double z
element face 16
property list uchar uint vertex_indices
end_header
48.1061 203.886 0
40.9937 208.423 0
51.9536 227.089 0
56.4856 224.421 0
54.4228 220.911 0
57.1608 219.299 0
48.1061 203.886 17.2
40.9937 208.423 17.2
51.9536 227.089 17.2
56.4856 224.421 17.2
54.4228 220.911 17.2
57.1608 219.299 17.2
3 2 1 4
3 4 1 0
3 5 4 0
3 4 3 2
3 2 1 8
3 8 1 7
3 1 0 7
3 7 0 6
3 5 4 11
3 11 4 10
3 0 5 6
3 6 5 11
3 4 3 10
3 10 3 9
3 3 2 9
3 9 2 8
