ply
format ascii 1.0
comment Created by Open3D
element vertex 20
property double x
property double y
property double z
element face 36
property list uchar uint vertex_indices
end_header
-178.781 -14.0652 0
-185.667 -24.9351 0
-190.686 -21.7505 0
-199.244 -16.3303 0
-207.343 -11.2047 0
-201.361 -1.7663 0
-198.239 -3.74017 0
-197.335 -2.31989 0
-193.532 -4.71899 0
-189.866 -7.04192 0
-178.781 -14.0652 27.3
-185.667 -24.9351 27.3
-190.686 -21.7505 27.3
-199.244 -16.3303 27.3
-207.343 -11.2047 27.3
-201.361 -1.7663 27.3
-198.239 -3.74017 27.3
-197.335 -2.31989 27.3
-193.532 -4.71899 27.3
-189.866 -7.04192 27.3
3 4 3 6
3 14 13 16
3 6 5 4
3 16 15 14
3 8 7 6
3 18 17 16
3 6 3 8
3 16 13 18
3 2 1 0
3 12 11 10
3 9 8 3
3 19 18 13
3 9 2 0
3 19 12 10
3 9 3 2
3 19 13 12
3 4 3 14
3 14 3 13
3 6 5 16
3 16 5 15
3 5 4 15
3 15 4 14
3 8 7 18
3 18 7 17
3 7 6 17
3 17 6 16
3 2 1 12
3 12 1 11
3 1 0 11
3 11 0 10
3 9 8 19
3 19 8 18
3 0 9 10
3 10 9 19
3 3 2 13
3 13 2 12
