ply
format ascii 1.0
comment Created by Open3D
element vertex 14
property double x
property double y
property double z
element face 19
property list uchar uint vertex_indices
end_header
19.4437 222.187 0
11.8803 227.019 0
23.1226 244.633 0
29.0549 253.927 0
33.7228 251.183 0
26.2754 238.497 0
28.316 237.299 0
19.4437 222.187 18.9
11.8803 227.019 18.9
23.1226 244.633 18.9
29.0549 253.927 18.9
33.7228 251.183 18.9
26.2754 238.497 18.9
28.316 237.299 18.9
3 2 1 5
3 5 1 0
3 6 5 0
3 3 2 4
3 4 2 5
3 2 1 9
3 9 1 8
3 1 0 8
3 8 0 7
3 6 5 13
3 13 5 12
3 0 6 7
3 7 6 13
3 3 2 10
3 10 2 9
3 4 3 11
3 11 3 10
3 5 4 12
3 12 4 11
