ply
format ascii 1.0
comment Created by Open3D
element vertex 12
property double x
property double y
property double z
element face 16
property list uchar uint vertex_indices
end_header
252.621 -31.591 0
248.864 -37.5737 0
246.584 -36.1455 0
216.741 -17.403 0
220.499 -11.4203 0
250.205 -30.0755 0
252.621 -31.591 45.7
248.864 -37.5737 45.7
246.584 -36.1455 45.7
216.741 -17.403 45.7
220.499 -11.4203 45.7
250.205 -30.0755 45.7
3 4 3 5
3 5 3 2
3 0 5 2
3 0 2 1
3 4 3 10
3 10 3 9
3 5 4 11
3 11 4 10
3 3 2 9
3 9 2 8
3 0 5 6
3 6 5 11
3 2 1 8
3 8 1 7
3 1 0 7
3 7 0 6
