ply
format ascii 1.0
comment Created by Open3D
element vertex 20
property double x
property double y
property double z
element face 28
property list uchar uint vertex_indices
end_header
-251.966 244.976 0
-242.126 247.653 0
-240.954 243.398 0
-239.237 243.859 0
-237.744 238.427 0
-239.58 237.933 0
-238.197 232.879 0
-247.002 230.487 0
-248.664 236.552 0
-249.587 236.3 0
-251.966 244.976 14
-242.126 247.653 14
-240.954 243.398 14
-239.237 243.859 14
-237.744 238.427 14
-239.58 237.933 14
-238.197 232.879 14
-247.002 230.487 14
-248.664 236.552 14
-249.587 236.3 14
3 1 0 2
3 8 0 9
3 8 2 0
3 8 7 5
3 6 5 7
3 2 4 3
3 4 2 5
3 5 2 8
3 1 0 11
3 11 0 10
3 2 1 12
3 12 1 11
3 0 9 10
3 10 9 19
3 9 8 19
3 19 8 18
3 8 7 18
3 18 7 17
3 6 5 16
3 16 5 15
3 7 6 17
3 17 6 16
3 4 3 14
3 14 3 13
3 3 2 13
3 13 2 12
3 5 4 15
3 15 4 14
