ply
format ascii 1.0
comment Created by Open3D
element vertex 32
property double x
property double y
property double z
element face 46
property list uchar uint vertex_indices
end_header
233.803 153.583 0
255.035 159.1 0
257.059 159.549 0
259.106 159.398 0
260.607 158.894 0
261.986 158.035 0
263.254 156.71 0
264.23 154.898 0
272.252 124.717 0
263.481 122.48 0
262.915 124.535 0
254.195 122.275 0
251.731 131.329 0
244.745 129.619 0
248.384 116.766 0
243.618 115.416 0
233.803 153.583 17.5
255.035 159.1 17.5
257.059 159.549 17.5
259.106 159.398 17.5
260.607 158.894 17.5
261.986 158.035 17.5
263.254 156.71 17.5
264.23 154.898 17.5
272.252 124.717 17.5
263.481 122.48 17.5
262.915 124.535 17.5
254.195 122.275 17.5
251.731 131.329 17.5
244.745 129.619 17.5
248.384 116.766 17.5
243.618 115.416 17.5
3 15 13 0
3 13 15 14
3 0 12 1
3 12 0 13
3 7 2 1
3 7 1 12
3 12 11 10
3 10 9 8
3 8 7 10
3 6 2 7
3 4 3 5
3 6 5 3
3 2 6 3
3 7 12 10
3 0 15 16
3 16 15 31
3 15 14 31
3 31 14 30
3 14 13 30
3 30 13 29
3 1 0 17
3 17 0 16
3 13 12 29
3 29 12 28
3 2 1 18
3 18 1 17
3 12 11 28
3 28 11 27
3 11 10 27
3 27 10 26
3 10 9 26
3 26 9 25
3 9 8 25
3 25 8 24
3 8 7 24
3 24 7 23
3 7 6 23
3 23 6 22
3 4 3 20
3 20 3 19
3 5 4 21
3 21 4 20
3 6 5 22
3 22 5 21
3 3 2 19
3 19 2 18
