ply
format ascii 1.0
comment Created by Open3D
element vertex 14
property double x
property double y
property double z
element face 19
property list uchar uint vertex_indices
end_header
-262.832 87.7349 0
-260.681 80.0031 0
-252.479 50.4977 0
-278.864 43.2225 0
-290.296 84.3813 0
-274.879 88.6389 0
-273.791 84.7174 0
-262.832 87.7349 17.5
-260.681 80.0031 17.5
-252.479 50.4977 17.5
-278.864 43.2225 17.5
-290.296 84.3813 17.5
-274.879 88.6389 17.5
-273.791 84.7174 17.5
3 5 4 6
3 6 4 3
3 1 6 3
3 0 6 1
3 1 3 2
3 5 4 12
3 12 4 11
3 6 5 13
3 13 5 12
3 4 3 11
3 11 3 10
3 0 6 7
3 7 6 13
3 1 0 8
3 8 0 7
3 3 2 10
3 10 2 9
3 2 1 9
3 9 1 8
