ply
format ascii 1.0
comment Created by Open3D
element vertex 48
property double x
property double y
property double z
element face 70
property list uchar uint vertex_indices
end_header
-69.1659 152.698 0
-70.6473 159.262 0
-71.0601 160.939 0
-65.5426 162.443 0
-66.1413 164.72 0
-66.8424 167.031 0
-72.1973 165.682 0
-72.7376 167.538 0
-76.0768 180.312 0
-78.9179 191.387 0
-53.3557 197.966 0
-51.5526 190.613 0
-48.8025 191.337 0
-50.3283 197.335 0
-49.3074 199.041 0
-42.9958 200.675 0
-40.1261 201.454 0
-38.0132 200.349 0
-28.7087 165.868 0
-32.8601 164.604 0
-32.1418 162.349 0
-33.9096 159.191 0
-65.579 150.866 0
-67.5133 151.771 0
-69.1659 152.698 17.5
-70.6473 159.262 17.5
-71.0601 160.939 17.5
-65.5426 162.443 17.5
-66.1413 164.72 17.5
-66.8424 167.031 17.5
-72.1973 165.682 17.5
-72.7376 167.538 17.5
-76.0768 180.312 17.5
-78.9179 191.387 17.5
-53.3557 197.966 17.5
-51.5526 190.613 17.5
-48.8025 191.337 17.5
-50.3283 197.335 17.5
-49.3074 199.041 17.5
-42.9958 200.675 17.5
-40.1261 201.454 17.5
-38.0132 200.349 17.5
-28.7087 165.868 17.5
-32.8601 164.604 17.5
-32.1418 162.349 17.5
-33.9096 159.191 17.5
-65.579 150.866 17.5
-67.5133 151.771 17.5
3 1 0 23
3 2 1 3
3 23 22 3
3 3 22 21
3 23 3 1
3 8 11 9
3 5 8 7
3 5 4 19
3 6 5 7
3 11 8 5
3 3 19 4
3 12 11 19
3 19 3 21
3 11 5 19
3 20 19 21
3 19 18 12
3 12 18 17
3 13 12 14
3 15 17 16
3 14 12 15
3 12 17 15
3 11 10 9
3 1 0 25
3 25 0 24
3 0 23 24
3 24 23 47
3 2 1 26
3 26 1 25
3 3 2 27
3 27 2 26
3 23 22 47
3 47 22 46
3 22 21 46
3 46 21 45
3 9 8 33
3 33 8 32
3 8 7 32
3 32 7 31
3 5 4 29
3 29 4 28
3 6 5 30
3 30 5 29
3 7 6 31
3 31 6 30
3 4 3 28
3 28 3 27
3 12 11 36
3 36 11 35
3 20 19 44
3 44 19 43
3 21 20 45
3 45 20 44
3 19 18 43
3 43 18 42
3 18 17 42
3 42 17 41
3 13 12 37
3 37 12 36
3 14 13 38
3 38 13 37
3 17 16 41
3 41 16 40
3 16 15 40
3 40 15 39
3 15 14 39
3 39 14 38
3 11 10 35
3 35 10 34
3 10 9 34
3 34 9 33
