ply
format ascii 1.0
comment Created by Open3D
element vertex 16
property double x
property double y
property double z
element face 22
property list uchar uint vertex_indices
end_header
-76.7333 -1.33517 0
-81.0604 14.7945 0
-78.7031 15.4197 0
-79.3189 17.7192 0
-79.9937 20.2297 0
-61.9122 25.0454 0
-61.1953 22.3461 0
-56.2944 4.11689 0
-76.7333 -1.33517 17.5
-81.0604 14.7945 17.5
-78.7031 15.4197 17.5
-79.3189 17.7192 17.5
-79.9937 20.2297 17.5
-61.9122 25.0454 17.5
-61.1953 22.3461 17.5
-56.2944 4.11689 17.5
3 2 1 0
3 4 3 5
3 2 6 3
3 7 6 2
3 5 3 6
3 2 0 7
3 2 1 10
3 10 1 9
3 1 0 9
3 9 0 8
3 4 3 12
3 12 3 11
3 5 4 13
3 13 4 12
3 3 2 11
3 11 2 10
3 7 6 15
3 15 6 14
3 6 5 14
3 14 5 13
3 0 7 8
3 8 7 15
