ply
format ascii 1.0
comment Created by Open3D
element vertex 14
property double x
property double y
property double z
element face 19
property list uchar uint vertex_indices
end_header
212.42 201.154 0
220.193 203.694 0
216.254 218.401 0
230.089 221.81 0
241.251 180.686 0
227.159 176.967 0
219.028 174.717 0
212.42 201.154 14
220.193 203.694 14
216.254 218.401 14
230.089 221.81 14
241.251 180.686 14
227.159 176.967 14
219.028 174.717 14
3 5 0 6
3 5 4 1
3 1 3 2
3 3 1 4
3 5 1 0
3 0 6 7
3 7 6 13
3 6 5 13
3 13 5 12
3 5 4 12
3 12 4 11
3 3 2 10
3 10 2 9
3 2 1 9
3 9 1 8
3 4 3 11
3 11 3 10
3 1 0 8
3 8 0 7
