ply
format ascii 1.0
comment Created by Open3D
element vertex 32
property double x
property double y
property double z
element face 46
property list uchar uint vertex_indices
end_header
-255.852 195.541 0
-254.461 189.932 0
-252.873 190.327 0
-252.03 186.928 0
-254.182 186.39 0
-253.365 183.08 0
-250.965 183.661 0
-249.895 179.318 0
-252.953 178.573 0
-252.38 176.24 0
-259.075 174.608 0
-259.572 176.64 0
-260.674 176.366 0
-263.303 186.985 0
-264.482 186.701 0
-266.049 193.043 0
-255.852 195.541 10.5
-254.461 189.932 10.5
-252.873 190.327 10.5
-252.03 186.928 10.5
-254.182 186.39 10.5
-253.365 183.08 10.5
-250.965 183.661 10.5
-249.895 179.318 10.5
-252.953 178.573 10.5
-252.38 176.24 10.5
-259.075 174.608 10.5
-259.572 176.64 10.5
-260.674 176.366 10.5
-263.303 186.985 10.5
-264.482 186.701 10.5
-266.049 193.043 10.5
3 5 13 11
3 13 12 11
3 15 13 0
3 13 15 14
3 1 0 13
3 1 13 4
3 11 10 9
3 5 8 7
3 5 4 13
3 8 11 9
3 5 7 6
3 3 1 4
3 1 3 2
3 5 11 8
3 13 12 29
3 29 12 28
3 12 11 28
3 28 11 27
3 0 15 16
3 16 15 31
3 15 14 31
3 31 14 30
3 14 13 30
3 30 13 29
3 1 0 17
3 17 0 16
3 11 10 27
3 27 10 26
3 10 9 26
3 26 9 25
3 8 7 24
3 24 7 23
3 5 4 21
3 21 4 20
3 9 8 25
3 25 8 24
3 7 6 23
3 23 6 22
3 6 5 22
3 22 5 21
3 4 3 20
3 20 3 19
3 3 2 19
3 19 2 18
3 2 1 18
3 18 1 17
