ply
format ascii 1.0
comment Created by Open3D
element vertex 12
property double x
property double y
property double z
element face 16
property list uchar uint vertex_indices
end_header
-165.908 284.206 0
-162.71 272.808 0
-162.305 271.364 0
-157.866 255.556 0
-176.844 250.277 0
-184.878 278.916 0
-165.908 284.206 17.5
-162.71 272.808 17.5
-162.305 271.364 17.5
-157.866 255.556 17.5
-176.844 250.277 17.5
-184.878 278.916 17.5
3 0 5 1
3 2 5 4
3 2 1 5
3 3 2 4
3 0 5 6
3 6 5 11
3 1 0 7
3 7 0 6
3 5 4 11
3 11 4 10
3 2 1 8
3 8 1 7
3 3 2 9
3 9 2 8
3 4 3 10
3 10 3 9
