ply
format ascii 1.0
comment Created by Open3D
element vertex 20
property double x
property double y
property double z
element face 28
property list uchar uint vertex_indices
end_header
-206.973 273.037 0
-204.527 263.817 0
-201.974 264.486 0
-200.278 258.12 0
-211.723 255.104 0
-214.194 264.402 0
-213.169 264.676 0
-214.645 270.231 0
-210.229 271.404 0
-210.423 272.126 0
-206.973 273.037 14
-204.527 263.817 14
-201.974 264.486 14
-200.278 258.12 14
-211.723 255.104 14
-214.194 264.402 14
-213.169 264.676 14
-214.645 270.231 14
-210.229 271.404 14
-210.423 272.126 14
3 5 4 6
3 6 8 7
3 6 4 1
3 1 3 2
3 1 8 6
3 1 0 8
3 8 0 9
3 1 4 3
3 5 4 15
3 15 4 14
3 6 5 16
3 16 5 15
3 8 7 18
3 18 7 17
3 7 6 17
3 17 6 16
3 3 2 13
3 13 2 12
3 2 1 12
3 12 1 11
3 1 0 11
3 11 0 10
3 0 9 10
3 10 9 19
3 9 8 19
3 19 8 18
3 4 3 14
3 14 3 13
