ply
format ascii 1.0
comment Created by Open3D
element vertex 12
property double x
property double y
property double z
element face 10
property list uchar uint vertex_indices
end_header
59.7253 127.243 14
59.2074 125.347 14
57.8035 123.964 14
55.8989 123.459 14
53.9889 123.975 14
52.6023 125.367 14
52.0962 127.267 14
52.6142 129.163 14
54.0095 130.546 14
55.9226 131.051 14
57.8241 130.534 14
59.2193 129.142 14
3 7 5 4
3 8 4 3
3 5 7 6
3 7 4 8
3 3 9 8
3 11 2 1
3 11 1 0
3 10 9 3
3 10 2 11
3 10 3 2
