ply
format ascii 1.0
comment Created by Open3D
element vertex 54
property double x
property double y
property double z
element face 79
property list uchar uint vertex_indices
end_header
105.416 -55.7034 0
128.358 -49.4262 0
130.329 -55.1817 0
132.919 -56.3885 0
133.901 -58.9666 0
137.292 -57.9893 0
136.703 -55.4014 0
137.709 -53.0293 0
136.334 -47.6641 0
162.659 -40.1986 0
164.034 -45.364 0
166.223 -46.7583 0
167.409 -49.7476 0
171.2 -48.9603 0
170.407 -46.183 0
171.815 -43.4015 0
170.235 -38.4352 0
193.97 -32.1603 0
200.664 -58.575 0
169.356 -65.8253 0
171.328 -70.9926 0
119.878 -84.1291 0
117.277 -86.3076 0
113.095 -86.2945 0
110.507 -84.2997 0
109.92 -80.9237 0
111.524 -78.5424 0
105.416 -55.7034 24.5
128.358 -49.4262 24.5
130.329 -55.1817 24.5
132.919 -56.3885 24.5
133.901 -58.9666 24.5
137.292 -57.9893 24.5
136.703 -55.4014 24.5
137.709 -53.0293 24.5
136.334 -47.6641 24.5
162.659 -40.1986 24.5
164.034 -45.364 24.5
166.223 -46.7583 24.5
167.409 -49.7476 24.5
171.2 -48.9603 24.5
170.407 -46.183 24.5
171.815 -43.4015 24.5
170.235 -38.4352 24.5
193.97 -32.1603 24.5
200.664 -58.575 24.5
169.356 -65.8253 24.5
171.328 -70.9926 24.5
119.878 -84.1291 24.5
117.277 -86.3076 24.5
113.095 -86.2945 24.5
110.507 -84.2997 24.5
109.92 -80.9237 24.5
111.524 -78.5424 24.5
3 25 24 26
3 26 24 23
3 22 21 26
3 22 26 23
3 26 21 4
3 0 2 1
3 0 26 2
3 4 3 2
3 26 4 2
3 4 21 5
3 7 5 10
3 12 5 19
3 12 10 5
3 5 7 6
3 20 19 5
3 13 18 15
3 18 13 19
3 19 13 12
3 5 21 20
3 9 8 10
3 11 10 12
3 14 13 15
3 17 16 15
3 18 17 15
3 10 8 7
3 25 24 52
3 52 24 51
3 26 25 53
3 53 25 52
3 24 23 51
3 51 23 50
3 22 21 49
3 49 21 48
3 23 22 50
3 50 22 49
3 2 1 29
3 29 1 28
3 1 0 28
3 28 0 27
3 0 26 27
3 27 26 53
3 4 3 31
3 31 3 30
3 3 2 30
3 30 2 29
3 5 4 32
3 32 4 31
3 7 6 34
3 34 6 33
3 6 5 33
3 33 5 32
3 20 19 47
3 47 19 46
3 19 18 46
3 46 18 45
3 13 12 40
3 40 12 39
3 21 20 48
3 48 20 47
3 9 8 36
3 36 8 35
3 10 9 37
3 37 9 36
3 11 10 38
3 38 10 37
3 12 11 39
3 39 11 38
3 14 13 41
3 41 13 40
3 15 14 42
3 42 14 41
3 17 16 44
3 44 16 43
3 16 15 43
3 43 15 42
3 18 17 45
3 45 17 44
3 8 7 35
3 35 7 34
