ply
format ascii 1.0
comment Created by Open3D
element vertex 16
property double x
property double y
property double z
element face 22
property list uchar uint vertex_indices
end_header
240.392 -96.2469 0
257.031 -91.6146 0
258.306 -96.147 0
261.082 -95.3676 0
264.871 -108.865 0
241.331 -115.429 0
237.491 -101.765 0
241.625 -100.613 0
240.392 -96.2469 17.5
257.031 -91.6146 17.5
258.306 -96.147 17.5
261.082 -95.3676 17.5
264.871 -108.865 17.5
241.331 -115.429 17.5
237.491 -101.765 17.5
241.625 -100.613 17.5
3 6 5 7
3 0 7 1
3 5 4 7
3 2 4 3
3 4 2 7
3 2 1 7
3 6 5 14
3 14 5 13
3 7 6 15
3 15 6 14
3 0 7 8
3 8 7 15
3 1 0 9
3 9 0 8
3 5 4 13
3 13 4 12
3 4 3 12
3 12 3 11
3 3 2 11
3 11 2 10
3 2 1 10
3 10 1 9
