ply
format ascii 1.0
comment Created by Open3D
element vertex 16
property double x
property double y
property double z
element face 14
property list uchar uint vertex_indices
end_header
-9.34879 279.163 14
-9.1042 278.241 14
-5.97828 279.075 14
-2.20808 264.934 14
-4.06996 264.44 14
-3.78316 263.373 14
0.137019 264.405 14
1.89991 257.817 14
-3.83092 256.303 14
0.698387 239.307 14
-25.1716 232.463 14
-35.8073 272.364 14
-27.463 274.569 14
-26.7882 272.07 14
-20.7584 273.66 14
-21.3741 275.982 14
3 12 11 13
3 13 11 10
3 13 8 14
3 1 14 4
3 1 0 15
3 14 1 15
3 8 13 10
3 5 4 14
3 5 8 7
3 8 10 9
3 5 7 6
3 2 4 3
3 2 1 4
3 14 8 5
