ply
format ascii 1.0
comment Created by Open3D
element vertex 18
property double x
property double y
property double z
element face 25
property list uchar uint vertex_indices
end_header
-56.4164 133.723 0
-48.7847 104.619 0
-51.9789 103.796 0
-54.9597 103.018 0
-57.1119 102.458 0
-63.0233 125.019 0
-63.9256 128.452 0
-64.7351 131.562 0
-63.4881 131.891 0
-56.4164 133.723 14
-48.7847 104.619 14
-51.9789 103.796 14
-54.9597 103.018 14
-57.1119 102.458 14
-63.0233 125.019 14
-63.9256 128.452 14
-64.7351 131.562 14
-63.4881 131.891 14
3 8 6 0
3 8 7 6
3 6 5 0
3 2 5 3
3 5 1 0
3 5 2 1
3 3 5 4
3 0 8 9
3 9 8 17
3 8 7 17
3 17 7 16
3 7 6 16
3 16 6 15
3 6 5 15
3 15 5 14
3 3 2 12
3 12 2 11
3 1 0 10
3 10 0 9
3 2 1 11
3 11 1 10
3 5 4 14
3 14 4 13
3 4 3 13
3 13 3 12
