ply
format ascii 1.0
comment Created by Open3D
element vertex 12
property double x
property double y
property double z
element face 16
property list uchar uint vertex_indices
end_header
254.043 -190.91 0
257.707 -190.033 0
293.118 -180.931 0
298.328 -179.515 0
303.734 -200.354 0
259.449 -211.749 0
254.043 -190.91 14
257.707 -190.033 14
293.118 -180.931 14
298.328 -179.515 14
303.734 -200.354 14
259.449 -211.749 14
3 0 5 1
3 1 5 2
3 2 4 3
3 4 2 5
3 0 5 6
3 6 5 11
3 1 0 7
3 7 0 6
3 2 1 8
3 8 1 7
3 4 3 10
3 10 3 9
3 3 2 9
3 9 2 8
3 5 4 11
3 11 4 10
