ply
format ascii 1.0
comment Created by Open3D
element vertex 86
property double x
property double y
property double z
element face 127
property list uchar uint vertex_indices
end_header
-171.7 -355.71 0
-169.841 -361.688 0
-168.083 -367.332 0
-173.773 -369.001 0
-179.65 -370.714 0
-179.254 -372.313 0
-227.136 -384.648 0
-238.049 -343.303 0
-235.871 -342.744 0
-238.418 -333.079 0
-241.057 -333.77 0
-242.001 -330.204 0
-244.359 -330.818 0
-249.351 -311.89 0
-245.96 -311.001 0
-251.45 -290.173 0
-252.774 -285.163 0
-253.778 -281.375 0
-250.079 -280.399 0
-251.631 -274.511 0
-270.243 -279.381 0
-273.902 -265.495 0
-287.833 -269.136 0
-292.75 -250.518 0
-278.887 -246.888 0
-282.657 -232.591 0
-242.111 -221.976 0
-236.056 -244.926 0
-229.386 -270.22 0
-248.681 -275.276 0
-245.451 -287.528 0
-239.936 -308.423 0
-224.758 -304.453 0
-218.601 -327.803 0
-223.06 -328.966 0
-220.108 -340.174 0
-213.628 -339.429 0
-207.127 -339.971 0
-200.869 -341.778 0
-195.083 -344.782 0
-190.01 -348.871 0
-185.852 -353.868 0
-182.976 -359.182 0
-171.7 -355.71 14
-169.841 -361.688 14
-168.083 -367.332 14
-173.773 -369.001 14
-179.65 -370.714 14
-179.254 -372.313 14
-227.136 -384.648 14
-238.049 -343.303 14
-235.871 -342.744 14
-238.418 -333.079 14
-241.057 -333.77 14
-242.001 -330.204 14
-244.359 -330.818 14
-249.351 -311.89 14
-245.96 -311.001 14
-251.45 -290.173 14
-252.774 -285.163 14
-253.778 -281.375 14
-250.079 -280.399 14
-251.631 -274.511 14
-270.243 -279.381 14
-273.902 -265.495 14
-287.833 -269.136 14
-292.75 -250.518 14
-278.887 -246.888 14
-282.657 -232.591 14
-242.111 -221.976 14
-236.056 -244.926 14
-229.386 -270.22 14
-248.681 -275.276 14
-245.451 -287.528 14
-239.936 -308.423 14
-224.758 -304.453 14
-218.601 -327.803 14
-223.06 -328.966 14
-220.108 -340.174 14
-213.628 -339.429 14
-207.127 -339.971 14
-200.869 -341.778 14
-195.083 -344.782 14
-190.01 -348.871 14
-185.852 -353.868 14
-182.976 -359.182 14
3 14 13 11
3 16 15 30
3 31 30 15
3 16 30 18
3 15 14 31
3 10 9 11
3 11 31 14
3 34 31 11
3 11 13 12
3 22 21 24
3 24 23 22
3 26 25 24
3 27 24 21
3 18 17 16
3 19 27 21
3 29 19 18
3 29 27 19
3 27 26 24
3 18 30 29
3 19 21 20
3 34 11 9
3 6 42 41
3 42 6 4
3 6 40 39
3 40 6 41
3 6 39 38
3 5 4 6
3 3 1 42
3 0 42 1
3 2 1 3
3 42 4 3
3 31 34 32
3 7 6 8
3 28 27 29
3 8 34 9
3 35 6 36
3 35 8 6
3 6 37 36
3 34 33 32
3 35 34 8
3 6 38 37
3 14 13 57
3 57 13 56
3 16 15 59
3 59 15 58
3 31 30 74
3 74 30 73
3 15 14 58
3 58 14 57
3 10 9 53
3 53 9 52
3 11 10 54
3 54 10 53
3 13 12 56
3 56 12 55
3 12 11 55
3 55 11 54
3 22 21 65
3 65 21 64
3 24 23 67
3 67 23 66
3 23 22 66
3 66 22 65
3 26 25 69
3 69 25 68
3 25 24 68
3 68 24 67
3 18 17 61
3 61 17 60
3 17 16 60
3 60 16 59
3 19 18 62
3 62 18 61
3 27 26 70
3 70 26 69
3 30 29 73
3 73 29 72
3 21 20 64
3 64 20 63
3 20 19 63
3 63 19 62
3 42 41 85
3 85 41 84
3 40 39 83
3 83 39 82
3 41 40 84
3 84 40 83
3 39 38 82
3 82 38 81
3 5 4 48
3 48 4 47
3 6 5 49
3 49 5 48
3 0 42 43
3 43 42 85
3 1 0 44
3 44 0 43
3 2 1 45
3 45 1 44
3 3 2 46
3 46 2 45
3 4 3 47
3 47 3 46
3 32 31 75
3 75 31 74
3 7 6 50
3 50 6 49
3 8 7 51
3 51 7 50
3 28 27 71
3 71 27 70
3 29 28 72
3 72 28 71
3 9 8 52
3 52 8 51
3 36 35 79
3 79 35 78
3 37 36 80
3 80 36 79
3 34 33 77
3 77 33 76
3 33 32 76
3 76 32 75
3 35 34 78
3 78 34 77
3 38 37 81
3 81 37 80
