ply
format ascii 1.0
comment Created by Open3D
element vertex 50
property double x
property double y
property double z
element face 73
property list uchar uint vertex_indices
end_header
-144.789 -124.999 0
-139.932 -143.694 0
-138.005 -144.255 0
-136.327 -145.326 0
-135.682 -146.249 0
-135.49 -147.748 0
-136.367 -149.699 0
-137.694 -151.171 0
-139.472 -151.965 0
-141.657 -152.202 0
-143.899 -151.451 0
-145.456 -149.837 0
-167.406 -155.484 0
-169.905 -154.721 0
-170.791 -151.633 0
-175.386 -152.972 0
-174.584 -155.705 0
-176.049 -157.499 0
-178.256 -158.923 0
-198.439 -164.232 0
-204.957 -139.582 0
-174.961 -131.719 0
-174.362 -133.996 0
-156.93 -129.434 0
-157.242 -128.234 0
-144.789 -124.999 17.5
-139.932 -143.694 17.5
-138.005 -144.255 17.5
-136.327 -145.326 17.5
-135.682 -146.249 17.5
-135.49 -147.748 17.5
-136.367 -149.699 17.5
-137.694 -151.171 17.5
-139.472 -151.965 17.5
-141.657 -152.202 17.5
-143.899 -151.451 17.5
-145.456 -149.837 17.5
-167.406 -155.484 17.5
-169.905 -154.721 17.5
-170.791 -151.633 17.5
-175.386 -152.972 17.5
-174.584 -155.705 17.5
-176.049 -157.499 17.5
-178.256 -158.923 17.5
-198.439 -164.232 17.5
-204.957 -139.582 17.5
-174.961 -131.719 17.5
-174.362 -133.996 17.5
-156.93 -129.434 17.5
-157.242 -128.234 17.5
3 18 20 19
3 17 15 18
3 13 12 14
3 16 15 17
3 21 20 22
3 15 20 18
3 22 20 15
3 14 22 15
3 14 23 22
3 14 12 11
3 1 11 10
3 9 1 10
3 1 8 7
3 1 9 8
3 6 2 7
3 23 1 0
3 23 11 1
3 23 0 24
3 5 4 3
3 2 6 3
3 2 1 7
3 3 6 5
3 11 23 14
3 20 19 45
3 45 19 44
3 19 18 44
3 44 18 43
3 18 17 43
3 43 17 42
3 13 12 38
3 38 12 37
3 14 13 39
3 39 13 38
3 16 15 41
3 41 15 40
3 17 16 42
3 42 16 41
3 21 20 46
3 46 20 45
3 22 21 47
3 47 21 46
3 15 14 40
3 40 14 39
3 23 22 48
3 48 22 47
3 12 11 37
3 37 11 36
3 11 10 36
3 36 10 35
3 10 9 35
3 35 9 34
3 8 7 33
3 33 7 32
3 9 8 34
3 34 8 33
3 7 6 32
3 32 6 31
3 1 0 26
3 26 0 25
3 0 24 25
3 25 24 49
3 24 23 49
3 49 23 48
3 5 4 30
3 30 4 29
3 4 3 29
3 29 3 28
3 3 2 28
3 28 2 27
3 2 1 27
3 27 1 26
3 6 5 31
3 31 5 30
