ply
format ascii 1.0
comment Created by Open3D
element vertex 22
property double x
property double y
property double z
element face 20
property list uchar uint vertex_indices
end_header
-190.642 161.405 14
-147.639 172.801 14
-146.205 167.303 14
-140.355 168.927 14
-136.109 170.301 14
-134.871 165.069 14
-130.353 166.42 14
-125.406 149.168 14
-123.4 141.092 14
-132.412 138.446 14
-131.214 134.091 14
-153.669 127.98 14
-154.959 132.668 14
-160.802 131.077 14
-159.46 126.189 14
-181.761 120.11 14
-183.928 128.486 14
-186.028 136.262 14
-188.289 144.582 14
-190.948 153.77 14
-192.246 158.957 14
-191.439 160.275 14
3 16 15 13
3 14 13 15
3 16 13 17
3 18 13 2
3 20 19 21
3 21 19 0
3 18 17 13
3 18 2 19
3 19 2 0
3 13 12 2
3 12 9 2
3 9 11 10
3 8 7 9
3 5 9 7
3 1 0 2
3 3 2 5
3 5 4 3
3 6 5 7
3 2 9 5
3 12 11 9
