ply
format ascii 1.0
comment Created by Open3D
element vertex 12
property double x
property double y
property double z
element face 16
property list uchar uint vertex_indices
end_header
149.737 71.4661 0
132.468 67.1135 0
133.246 62.3162 0
140.635 34.3677 0
141.212 33.2116 0
158.253 38.2419 0
149.737 71.4661 17.5
132.468 67.1135 17.5
133.246 62.3162 17.5
140.635 34.3677 17.5
141.212 33.2116 17.5
158.253 38.2419 17.5
3 0 1 2
3 5 2 3
3 5 0 2
3 5 3 4
3 0 1 6
3 6 1 7
3 1 2 7
3 7 2 8
3 2 3 8
3 8 3 9
3 5 0 11
3 11 0 6
3 3 4 9
3 9 4 10
3 4 5 10
3 10 5 11
