ply
format ascii 1.0
comment Created by Open3D
element vertex 20
property double x
property double y
property double z
element face 28
property list uchar uint vertex_indices
end_header
-151.129 283.838 0
-144.034 257.91 0
-140.558 258.853 0
-138.389 250.944 0
-122.384 255.289 0
-124.771 264.031 0
-128.555 263 0
-133.718 281.851 0
-130.028 282.85 0
-131.741 289.104 0
-151.129 283.838 10.5
-144.034 257.91 10.5
-140.558 258.853 10.5
-138.389 250.944 10.5
-122.384 255.289 10.5
-124.771 264.031 10.5
-128.555 263 10.5
-133.718 281.851 10.5
-130.028 282.85 10.5
-131.741 289.104 10.5
3 0 2 7
3 2 0 1
3 6 7 2
3 0 7 9
3 2 3 6
3 6 4 5
3 4 6 3
3 9 7 8
3 0 1 10
3 10 1 11
3 1 2 11
3 11 2 12
3 6 7 16
3 16 7 17
3 9 0 19
3 19 0 10
3 2 3 12
3 12 3 13
3 4 5 14
3 14 5 15
3 5 6 15
3 15 6 16
3 3 4 13
3 13 4 14
3 7 8 17
3 17 8 18
3 8 9 18
3 18 9 19
