ply
format ascii 1.0
comment Created by Open3D
element vertex 20
property double x
property double y
property double z
element face 28
property list uchar uint vertex_indices
end_header
197.716 256.096 0
195.599 263.894 0
232.529 273.813 0
241.7 239.954 0
242.712 236.222 0
235.478 234.28 0
236.643 229.981 0
201.489 220.534 0
192.25 254.626 0
194.881 255.339 0
197.716 256.096 21
195.599 263.894 21
232.529 273.813 21
241.7 239.954 21
242.712 236.222 21
235.478 234.28 21
236.643 229.981 21
201.489 220.534 21
192.25 254.626 21
194.881 255.339 21
3 8 7 9
3 0 9 7
3 1 0 2
3 7 5 0
3 6 5 7
3 3 2 5
3 4 3 5
3 5 2 0
3 8 7 18
3 18 7 17
3 9 8 19
3 19 8 18
3 0 9 10
3 10 9 19
3 1 0 11
3 11 0 10
3 2 1 12
3 12 1 11
3 6 5 16
3 16 5 15
3 7 6 17
3 17 6 16
3 3 2 13
3 13 2 12
3 4 3 14
3 14 3 13
3 5 4 15
3 15 4 14
