ply
format ascii 1.0
comment Created by Open3D
element vertex 26
property double x
property double y
property double z
element face 39
property list uchar uint vertex_indices
end_header
-121.055 -62.6297 0
-121.865 -59.6082 0
-115.049 -57.7983 0
-113.978 -61.8084 0
-88.8928 -55.1724 0
-45.4955 -43.6879 0
-35.8292 -79.9127 0
-119.686 -102.114 0
-129.614 -64.9003 0
-88.3707 -57.4161 0
-80.0288 -88.6421 0
-42.3453 -78.6602 0
-50.6874 -47.4342 0
-121.055 -62.6297 10.5
-121.865 -59.6082 10.5
-115.049 -57.7983 10.5
-113.978 -61.8084 10.5
-88.8928 -55.1724 10.5
-45.4955 -43.6879 10.5
-35.8292 -79.9127 10.5
-119.686 -102.114 10.5
-129.614 -64.9003 10.5
-88.3707 -57.4161 10.5
-80.0288 -88.6421 10.5
-42.3453 -78.6602 10.5
-50.6874 -47.4342 10.5
3 8 7 0
3 0 7 3
3 0 2 1
3 2 0 3
3 7 10 3
3 10 6 11
3 6 10 7
3 11 6 5
3 4 9 12
3 9 4 3
3 12 5 4
3 5 12 11
3 10 9 3
3 8 7 21
3 21 7 20
3 0 8 13
3 13 8 21
3 2 1 15
3 15 1 14
3 1 0 14
3 14 0 13
3 3 2 16
3 16 2 15
3 11 10 24
3 24 10 23
3 7 6 20
3 20 6 19
3 6 5 19
3 19 5 18
3 9 12 22
3 22 12 25
3 4 3 17
3 17 3 16
3 5 4 18
3 18 4 17
3 12 11 25
3 25 11 24
3 10 9 23
3 23 9 22
