ply
format ascii 1.0
comment Created by Open3D
element vertex 12
property double x
property double y
property double z
element face 16
property list uchar uint vertex_indices
end_header
-41.7129 106.461 0
-48.7847 104.619 0
-56.4164 133.723 0
-58.5583 141.898 0
-50.9911 143.883 0
-50.7803 143.073 0
-41.7129 106.461 14
-48.7847 104.619 14
-56.4164 133.723 14
-58.5583 141.898 14
-50.9911 143.883 14
-50.7803 143.073 14
3 4 3 5
3 5 3 2
3 2 0 5
3 0 2 1
3 4 3 10
3 10 3 9
3 5 4 11
3 11 4 10
3 3 2 9
3 9 2 8
3 0 5 6
3 6 5 11
3 2 1 8
3 8 1 7
3 1 0 7
3 7 0 6
