ply
format ascii 1.0
comment Created by Open3D
element vertex 48
property double x
property double y
property double z
element face 70
property list uchar uint vertex_indices
end_header
71.5618 195.533 0
97.466 202.411 0
98.6132 198.134 0
102.721 199.22 0
103.767 195.321 0
103.041 195.123 0
105.057 187.592 0
106.04 187.855 0
107.28 183.201 0
103.325 182.148 0
102.703 182.249 0
103.954 178.649 0
94.0896 176.005 0
91.6298 175.347 0
88.8455 174.612 0
78.0072 171.727 0
76.9949 175.504 0
73.1088 174.473 0
72.0206 178.527 0
72.6612 178.692 0
70.6536 186.179 0
69.697 185.915 0
68.4485 190.57 0
72.5994 191.678 0
71.5618 195.533 14
97.466 202.411 14
98.6132 198.134 14
102.721 199.22 14
103.767 195.321 14
103.041 195.123 14
105.057 187.592 14
106.04 187.855 14
107.28 183.201 14
103.325 182.148 14
102.703 182.249 14
103.954 178.649 14
94.0896 176.005 14
91.6298 175.347 14
88.8455 174.612 14
78.0072 171.727 14
76.9949 175.504 14
73.1088 174.473 14
72.0206 178.527 14
72.6612 178.692 14
70.6536 186.179 14
69.697 185.915 14
68.4485 190.57 14
72.5994 191.678 14
3 19 18 17
3 16 19 17
3 23 16 14
3 15 14 16
3 23 14 13
3 22 21 20
3 22 20 23
3 20 19 16
3 20 16 23
3 1 0 23
3 23 13 2
3 11 10 12
3 10 9 6
3 2 12 10
3 8 6 9
3 6 8 7
3 2 10 6
3 1 23 2
3 3 2 5
3 5 2 6
3 5 4 3
3 2 13 12
3 19 18 43
3 43 18 42
3 18 17 42
3 42 17 41
3 17 16 41
3 41 16 40
3 15 14 39
3 39 14 38
3 16 15 40
3 40 15 39
3 14 13 38
3 38 13 37
3 22 21 46
3 46 21 45
3 21 20 45
3 45 20 44
3 23 22 47
3 47 22 46
3 20 19 44
3 44 19 43
3 1 0 25
3 25 0 24
3 0 23 24
3 24 23 47
3 11 10 35
3 35 10 34
3 12 11 36
3 36 11 35
3 10 9 34
3 34 9 33
3 9 8 33
3 33 8 32
3 8 7 32
3 32 7 31
3 7 6 31
3 31 6 30
3 2 1 26
3 26 1 25
3 3 2 27
3 27 2 26
3 6 5 30
3 30 5 29
3 5 4 29
3 29 4 28
3 4 3 28
3 28 3 27
3 13 12 37
3 37 12 36
