ply
format ascii 1.0
comment Created by Open3D
element vertex 24
property double x
property double y
property double z
element face 34
property list uchar uint vertex_indices
end_header
-253.535 215.757 0
-248.909 199.826 0
-245.688 200.759 0
-243.333 192.627 0
-233.938 195.339 0
-236.318 203.549 0
-234.234 204.141 0
-236.724 212.718 0
-235.486 213.08 0
-237.208 219.013 0
-243.016 217.344 0
-243.396 218.666 0
-253.535 215.757 21
-248.909 199.826 21
-245.688 200.759 21
-243.333 192.627 21
-233.938 195.339 21
-236.318 203.549 21
-234.234 204.141 21
-236.724 212.718 21
-235.486 213.08 21
-237.208 219.013 21
-243.016 217.344 21
-243.396 218.666 21
3 10 2 7
3 1 2 0
3 0 10 11
3 10 0 2
3 2 3 4
3 4 5 2
3 5 6 7
3 9 7 8
3 9 10 7
3 7 2 5
3 1 2 13
3 13 2 14
3 0 1 12
3 12 1 13
3 10 11 22
3 22 11 23
3 11 0 23
3 23 0 12
3 2 3 14
3 14 3 15
3 3 4 15
3 15 4 16
3 4 5 16
3 16 5 17
3 5 6 17
3 17 6 18
3 6 7 18
3 18 7 19
3 7 8 19
3 19 8 20
3 8 9 20
3 20 9 21
3 9 10 21
3 21 10 22
