ply
format ascii 1.0
comment Created by Open3D
element vertex 20
property double x
property double y
property double z
element face 28
property list uchar uint vertex_indices
end_header
-176.791 231.874 0
-169.981 207.779 0
-166.709 208.69 0
-166.093 206.523 0
-161.344 207.862 0
-162.028 210.262 0
-157.945 211.403 0
-161.743 224.846 0
-159.702 225.416 0
-162.647 235.837 0
-176.791 231.874 17.5
-169.981 207.779 17.5
-166.709 208.69 17.5
-166.093 206.523 17.5
-161.344 207.862 17.5
-162.028 210.262 17.5
-157.945 211.403 17.5
-161.743 224.846 17.5
-159.702 225.416 17.5
-162.647 235.837 17.5
3 9 0 7
3 1 7 0
3 1 2 7
3 2 3 4
3 4 5 2
3 6 7 5
3 7 8 9
3 5 7 2
3 9 0 19
3 19 0 10
3 0 1 10
3 10 1 11
3 1 2 11
3 11 2 12
3 2 3 12
3 12 3 13
3 3 4 13
3 13 4 14
3 4 5 14
3 14 5 15
3 6 7 16
3 16 7 17
3 5 6 15
3 15 6 16
3 7 8 17
3 17 8 18
3 8 9 18
3 18 9 19
