ply
format ascii 1.0
comment Created by Open3D
element vertex 16
property double x
property double y
property double z
element face 14
property list uchar uint vertex_indices
end_header
-255.852 195.541 10.5
-254.461 189.932 10.5
-252.873 190.327 10.5
-252.03 186.928 10.5
-254.182 186.39 10.5
-253.365 183.08 10.5
-250.965 183.661 10.5
-249.895 179.318 10.5
-252.953 178.573 10.5
-252.38 176.24 10.5
-259.075 174.608 10.5
-259.572 176.64 10.5
-260.674 176.366 10.5
-263.303 186.985 10.5
-264.482 186.701 10.5
-266.049 193.043 10.5
3 5 13 11
3 13 12 11
3 15 13 0
3 13 15 14
3 1 0 13
3 1 13 4
3 11 10 9
3 5 8 7
3 5 4 13
3 8 11 9
3 5 7 6
3 3 1 4
3 1 3 2
3 5 11 8
