ply
format ascii 1.0
comment Created by Open3D
element vertex 28
property double x
property double y
property double z
element face 40
property list uchar uint vertex_indices
end_header
-186.886 42.9314 0
-176.014 2.29627 0
-192.43 -2.05826 0
-193.274 1.07437 0
-245.955 -12.8883 0
-245.736 -13.7103 0
-261.306 -17.801 0
-266.931 3.46068 0
-256.571 6.19155 0
-255.314 1.43712 0
-251.36 2.46792 0
-252.701 7.5223 0
-251.872 7.74166 0
-256.351 24.4823 0
-186.886 42.9314 10.5
-176.014 2.29627 10.5
-192.43 -2.05826 10.5
-193.274 1.07437 10.5
-245.955 -12.8883 10.5
-245.736 -13.7103 10.5
-261.306 -17.801 10.5
-266.931 3.46068 10.5
-256.571 6.19155 10.5
-255.314 1.43712 10.5
-251.36 2.46792 10.5
-252.701 7.5223 10.5
-251.872 7.74166 10.5
-256.351 24.4823 10.5
3 7 6 9
3 7 9 8
3 11 10 12
3 13 12 3
3 9 6 4
3 4 10 9
3 3 0 13
3 3 10 4
3 1 0 3
3 3 2 1
3 3 12 10
3 4 6 5
3 7 6 21
3 21 6 20
3 9 8 23
3 23 8 22
3 8 7 22
3 22 7 21
3 11 10 25
3 25 10 24
3 12 11 26
3 26 11 25
3 13 12 27
3 27 12 26
3 10 9 24
3 24 9 23
3 0 13 14
3 14 13 27
3 4 3 18
3 18 3 17
3 1 0 15
3 15 0 14
3 3 2 17
3 17 2 16
3 2 1 16
3 16 1 15
3 6 5 20
3 20 5 19
3 5 4 19
3 19 4 18
