ply
format ascii 1.0
comment Created by Open3D
element vertex 25
property double x
property double y
property double z
element face 23
property list uchar uint vertex_indices
end_header
-144.789 -124.999 17.5
-139.932 -143.694 17.5
-138.005 -144.255 17.5
-136.327 -145.326 17.5
-135.682 -146.249 17.5
-135.49 -147.748 17.5
-136.367 -149.699 17.5
-137.694 -151.171 17.5
-139.472 -151.965 17.5
-141.657 -152.202 17.5
-143.899 -151.451 17.5
-145.456 -149.837 17.5
-167.406 -155.484 17.5
-169.905 -154.721 17.5
-170.791 -151.633 17.5
-175.386 -152.972 17.5
-174.584 -155.705 17.5
-176.049 -157.499 17.5
-178.256 -158.923 17.5
-198.439 -164.232 17.5
-204.957 -139.582 17.5
-174.961 -131.719 17.5
-174.362 -133.996 17.5
-156.93 -129.434 17.5
-157.242 -128.234 17.5
3 18 20 19
3 17 15 18
3 13 12 14
3 16 15 17
3 21 20 22
3 15 20 18
3 22 20 15
3 14 22 15
3 14 23 22
3 14 12 11
3 1 11 10
3 9 1 10
3 1 8 7
3 1 9 8
3 6 2 7
3 23 1 0
3 23 11 1
3 23 0 24
3 5 4 3
3 2 6 3
3 2 1 7
3 3 6 5
3 11 23 14
