ply
format ascii 1.0
comment Created by Open3D
element vertex 16
property double x
property double y
property double z
element face 22
property list uchar uint vertex_indices
end_header
-125.406 149.168 0
-104.881 155.041 0
-95.7683 157.31 0
-94.6969 153.355 0
-94.0809 151.133 0
-91.9632 143.446 0
-121.889 135.982 0
-123.4 141.092 0
-125.406 149.168 14
-104.881 155.041 14
-95.7683 157.31 14
-94.6969 153.355 14
-94.0809 151.133 14
-91.9632 143.446 14
-121.889 135.982 14
-123.4 141.092 14
3 7 6 1
3 1 0 7
3 6 5 1
3 4 3 1
3 3 2 1
3 4 1 5
3 7 6 15
3 15 6 14
3 1 0 9
3 9 0 8
3 0 7 8
3 8 7 15
3 6 5 14
3 14 5 13
3 4 3 12
3 12 3 11
3 3 2 11
3 11 2 10
3 2 1 10
3 10 1 9
3 5 4 13
3 13 4 12
