ply
format ascii 1.0
comment Created by Open3D
element vertex 12
property double x
property double y
property double z
element face 16
property list uchar uint vertex_indices
end_header
270.61 112.635 0
280.76 75.0105 0
246.143 65.7501 0
244.405 72.1708 0
237.103 70.2178 0
228.683 101.41 0
270.61 112.635 14
280.76 75.0105 14
246.143 65.7501 14
244.405 72.1708 14
237.103 70.2178 14
228.683 101.41 14
3 5 4 3
3 5 3 0
3 1 0 3
3 1 3 2
3 5 4 11
3 11 4 10
3 4 3 10
3 10 3 9
3 0 5 6
3 6 5 11
3 1 0 7
3 7 0 6
3 3 2 9
3 9 2 8
3 2 1 8
3 8 1 7
