ply
format ascii 1.0
comment Created by Open3D
element vertex 22
property double x
property double y
property double z
element face 31
property list uchar uint vertex_indices
end_header
92.8396 43.4849 0
115.558 49.3853 0
113.534 57.0723 0
133.263 62.2496 0
140.601 34.3012 0
113.099 27.0947 0
112.424 29.683 0
98.0757 25.9096 0
98.8347 23.0104 0
85.069 20.1231 0
79.2933 39.7978 0
92.8396 43.4849 10.5
115.558 49.3853 10.5
113.534 57.0723 10.5
133.263 62.2496 10.5
140.601 34.3012 10.5
113.099 27.0947 10.5
112.424 29.683 10.5
98.0757 25.9096 10.5
98.8347 23.0104 10.5
85.069 20.1231 10.5
79.2933 39.7978 10.5
3 9 8 7
3 10 7 0
3 7 10 9
3 0 7 6
3 6 5 4
3 6 4 1
3 2 1 3
3 3 1 4
3 1 0 6
3 9 8 20
3 20 8 19
3 8 7 19
3 19 7 18
3 0 10 11
3 11 10 21
3 10 9 21
3 21 9 20
3 7 6 18
3 18 6 17
3 6 5 17
3 17 5 16
3 5 4 16
3 16 4 15
3 2 1 13
3 13 1 12
3 3 2 14
3 14 2 13
3 4 3 15
3 15 3 14
3 1 0 12
3 12 0 11
