ply
format ascii 1.0
comment Created by Open3D
element vertex 38
property double x
property double y
property double z
element face 55
property list uchar uint vertex_indices
end_header
-222.007 95.5194 0
-220.667 90.1765 0
-218.982 83.4228 0
-221.886 82.6995 0
-219.551 73.4021 0
-216.639 74.1254 0
-213.327 60.9735 0
-238.274 54.6926 0
-241.553 67.7334 0
-238.153 68.5773 0
-240.479 77.8525 0
-243.759 77.0415 0
-246.346 87.3165 0
-246.995 89.9157 0
-232.989 93.412 0
-232.18 90.2129 0
-225.518 91.8789 0
-226.436 95.5334 0
-222.269 96.5747 0
-222.007 95.5194 14
-220.667 90.1765 14
-218.982 83.4228 14
-221.886 82.6995 14
-219.551 73.4021 14
-216.639 74.1254 14
-213.327 60.9735 14
-238.274 54.6926 14
-241.553 67.7334 14
-238.153 68.5773 14
-240.479 77.8525 14
-243.759 77.0415 14
-246.346 87.3165 14
-246.995 89.9157 14
-232.989 93.412 14
-232.18 90.2129 14
-225.518 91.8789 14
-226.436 95.5334 14
-222.269 96.5747 14
3 7 9 8
3 4 10 9
3 13 12 14
3 15 14 12
3 3 15 10
3 15 12 10
3 12 11 10
3 9 7 6
3 3 16 15
3 5 4 6
3 4 9 6
3 3 2 1
3 17 16 0
3 0 18 17
3 1 0 16
3 16 3 1
3 3 10 4
3 9 8 28
3 28 8 27
3 8 7 27
3 27 7 26
3 10 9 29
3 29 9 28
3 13 12 32
3 32 12 31
3 14 13 33
3 33 13 32
3 15 14 34
3 34 14 33
3 12 11 31
3 31 11 30
3 11 10 30
3 30 10 29
3 7 6 26
3 26 6 25
3 16 15 35
3 35 15 34
3 5 4 24
3 24 4 23
3 6 5 25
3 25 5 24
3 3 2 22
3 22 2 21
3 2 1 21
3 21 1 20
3 17 16 36
3 36 16 35
3 0 18 19
3 19 18 37
3 18 17 37
3 37 17 36
3 1 0 20
3 20 0 19
3 4 3 23
3 23 3 22
