ply
format ascii 1.0
comment Created by Open3D
element vertex 12
property double x
property double y
property double z
element face 10
property list uchar uint vertex_indices
end_header
-200.277 253.281 17.5
-199.754 251.182 17.5
-198.96 251.379 17.5
-197.426 245.314 17.5
-196.555 245.533 17.5
-195.763 242.401 17.5
-196.617 242.193 17.5
-195.664 238.427 17.5
-208.227 235.292 17.5
-211.362 247.756 17.5
-203.787 249.641 17.5
-204.444 252.24 17.5
3 9 8 10
3 1 10 3
3 11 1 0
3 1 11 10
3 10 8 3
3 6 3 8
3 6 5 4
3 3 2 1
3 4 3 6
3 6 8 7
