ply
format ascii 1.0
comment Created by Open3D
element vertex 24
property double x
property double y
property double z
element face 22
property list uchar uint vertex_indices
end_header
-69.1659 152.698 17.5
-70.6473 159.262 17.5
-71.0601 160.939 17.5
-65.5426 162.443 17.5
-66.1413 164.72 17.5
-66.8424 167.031 17.5
-72.1973 165.682 17.5
-72.7376 167.538 17.5
-76.0768 180.312 17.5
-78.9179 191.387 17.5
-53.3557 197.966 17.5
-51.5526 190.613 17.5
-48.8025 191.337 17.5
-50.3283 197.335 17.5
-49.3074 199.041 17.5
-42.9958 200.675 17.5
-40.1261 201.454 17.5
-38.0132 200.349 17.5
-28.7087 165.868 17.5
-32.8601 164.604 17.5
-32.1418 162.349 17.5
-33.9096 159.191 17.5
-65.579 150.866 17.5
-67.5133 151.771 17.5
3 1 0 23
3 2 1 3
3 23 22 3
3 3 22 21
3 23 3 1
3 8 11 9
3 5 8 7
3 5 4 19
3 6 5 7
3 11 8 5
3 3 19 4
3 12 11 19
3 19 3 21
3 11 5 19
3 20 19 21
3 19 18 12
3 12 18 17
3 13 12 14
3 15 17 16
3 14 12 15
3 12 17 15
3 11 10 9
