ply
format ascii 1.0
comment Created by Open3D
element vertex 12
property double x
property double y
property double z
element face 16
property list uchar uint vertex_indices
end_header
-1.53759 116.735 0
-8.83925 115.06 0
-10.7208 121.914 0
-19.8732 155.95 0
-12.7502 157.815 0
-11.5104 153.127 0
-1.53759 116.735 14
-8.83925 115.06 14
-10.7208 121.914 14
-19.8732 155.95 14
-12.7502 157.815 14
-11.5104 153.127 14
3 3 5 4
3 5 3 2
3 2 1 0
3 2 0 5
3 5 4 11
3 11 4 10
3 4 3 10
3 10 3 9
3 3 2 9
3 9 2 8
3 2 1 8
3 8 1 7
3 1 0 7
3 7 0 6
3 0 5 6
3 6 5 11
