ply
format ascii 1.0
comment Created by Open3D
element vertex 17
property double x
property double y
property double z
element face 15
property list uchar uint vertex_indices
end_header
-31.8328 -87.2951 17.5
-25.7433 -110.267 17.5
-24.3085 -115.366 17.5
-24.4116 -118.285 17.5
-24.9803 -120.037 17.5
-29.286 -121.489 17.5
-30.0287 -118.845 17.5
-67.0115 -128.474 17.5
-67.4079 -126.952 17.5
-103.111 -136.573 17.5
-102.648 -138.817 17.5
-110.763 -141.144 17.5
-118.271 -110.587 17.5
-104.715 -106.823 17.5
-104.024 -109.489 17.5
-70.9088 -100.436 17.5
-71.6423 -97.5589 17.5
3 12 11 9
3 8 14 9
3 10 9 11
3 12 9 14
3 14 13 12
3 16 15 0
3 15 14 8
3 6 8 7
3 6 5 4
3 15 1 0
3 15 6 1
3 6 2 1
3 2 6 3
3 6 4 3
3 6 15 8
