ply
format ascii 1.0
comment Created by Open3D
element vertex 14
property double x
property double y
property double z
element face 19
property list uchar uint vertex_indices
end_header
-244.856 264.133 0
-241.571 250.626 0
-256.328 247.054 0
-259.875 261.639 0
-254.512 262.943 0
-254.899 264.531 0
-247.572 266.317 0
-244.856 264.133 17.5
-241.571 250.626 17.5
-256.328 247.054 17.5
-259.875 261.639 17.5
-254.512 262.943 17.5
-254.899 264.531 17.5
-247.572 266.317 17.5
3 4 3 2
3 4 1 0
3 1 4 2
3 0 6 4
3 4 6 5
3 4 3 11
3 11 3 10
3 3 2 10
3 10 2 9
3 1 0 8
3 8 0 7
3 2 1 9
3 9 1 8
3 0 6 7
3 7 6 13
3 6 5 13
3 13 5 12
3 5 4 12
3 12 4 11
