ply
format ascii 1.0
comment Created by Open3D
element vertex 18
property double x
property double y
property double z
element face 25
property list uchar uint vertex_indices
end_header
-86.2679 122.773 0
-85.1377 118.529 0
-84.4894 115.73 0
-80.2262 98.2799 0
-80.9732 96.8283 0
-81.892 94.9998 0
-94.1397 91.7863 0
-101.249 118.735 0
-96.9527 119.887 0
-86.2679 122.773 21
-85.1377 118.529 21
-84.4894 115.73 21
-80.2262 98.2799 21
-80.9732 96.8283 21
-81.892 94.9998 21
-94.1397 91.7863 21
-101.249 118.735 21
-96.9527 119.887 21
3 7 6 8
3 1 0 8
3 8 6 2
3 3 6 4
3 1 8 2
3 2 6 3
3 6 5 4
3 7 6 16
3 16 6 15
3 8 7 17
3 17 7 16
3 1 0 10
3 10 0 9
3 0 8 9
3 9 8 17
3 4 3 13
3 13 3 12
3 2 1 11
3 11 1 10
3 3 2 12
3 12 2 11
3 6 5 15
3 15 5 14
3 5 4 14
3 14 4 13
