ply
format ascii 1.0
comment Created by Open3D
element vertex 17
property double x
property double y
property double z
element face 15
property list uchar uint vertex_indices
end_header
75.9067 296.999 17.5
79.4331 283.991 17.5
78.1947 283.662 17.5
79.823 277.674 17.5
76.6714 276.829 17.5
78.3081 270.797 17.5
81.9977 271.785 17.5
82.4629 270.462 17.5
84.3436 263.298 17.5
85.2627 259.765 17.5
70.9995 255.936 17.5
65.1952 277.309 17.5
64.3853 280.297 17.5
70.5176 281.943 17.5
69.2774 286.52 17.5
63.5893 284.984 17.5
61.3873 293.093 17.5
3 12 11 13
3 2 14 13
3 11 4 13
3 16 15 14
3 14 0 16
3 2 0 14
3 5 11 10
3 5 7 6
3 7 5 8
3 8 5 10
3 10 9 8
3 4 2 13
3 2 4 3
3 2 1 0
3 5 4 11
