ply
format ascii 1.0
comment Created by Open3D
element vertex 12
property double x
property double y
property double z
element face 16
property list uchar uint vertex_indices
end_header
125.996 131.909 0
126.915 130.996 0
128.401 131.335 0
128.575 132.522 0
127.725 133.379 0
126.35 133.051 0
125.996 131.909 14
126.915 130.996 14
128.401 131.335 14
128.575 132.522 14
127.725 133.379 14
126.35 133.051 14
3 0 1 5
3 5 1 4
3 1 3 4
3 3 1 2
3 0 1 6
3 6 1 7
3 5 0 11
3 11 0 6
3 4 5 10
3 10 5 11
3 3 4 9
3 9 4 10
3 1 2 7
3 7 2 8
3 2 3 8
3 8 3 9
