ply
format ascii 1.0
comment Created by Open3D
element vertex 28
property double x
property double y
property double z
element face 26
property list uchar uint vertex_indices
end_header
248.122 37.8073 14
266.476 42.5785 14
269.149 32.359 14
270.729 32.7648 14
269.928 35.8084 14
274.412 36.9711 14
275.306 33.5608 14
277.202 34.0544 14
274.385 44.8072 14
292.193 49.4359 14
300.931 16.1002 14
282.986 11.4386 14
279.452 24.9128 14
277.787 24.474 14
278.681 21.0416 14
274.069 19.8461 14
273.116 23.5007 14
271.254 23.0181 14
275.049 8.52187 14
257.088 3.86038 14
255.039 11.7139 14
256.499 12.0867 14
253.564 23.2949 14
251.899 22.8672 14
250.794 27.0772 14
252.365 27.4941 14
251.572 30.5155 14
250.129 30.1426 14
3 24 23 25
3 25 23 22
3 20 19 21
3 2 22 17
3 17 22 21
3 25 22 2
3 0 27 26
3 0 26 1
3 16 3 2
3 3 5 4
3 2 1 26
3 25 2 26
3 21 19 18
3 21 18 17
3 13 16 15
3 16 6 3
3 13 15 14
3 12 11 10
3 5 3 6
3 12 7 6
3 7 9 8
3 9 7 12
3 12 10 9
3 12 6 13
3 6 16 13
3 17 16 2
