ply
format ascii 1.0
comment Created by Open3D
element vertex 14
property double x
property double y
property double z
element face 19
property list uchar uint vertex_indices
end_header
11.778 120.378 0
-1.53759 116.735 0
-11.5104 153.127 0
-2.91843 155.376 0
-4.05697 159.686 0
1.19562 161.068 0
4.17274 149.804 0
11.778 120.378 7
-1.53759 116.735 7
-11.5104 153.127 7
-2.91843 155.376 7
-4.05697 159.686 7
1.19562 161.068 7
4.17274 149.804 7
3 3 2 6
3 4 3 5
3 1 0 6
3 5 3 6
3 6 2 1
3 3 2 10
3 10 2 9
3 4 3 11
3 11 3 10
3 5 4 12
3 12 4 11
3 1 0 8
3 8 0 7
3 0 6 7
3 7 6 13
3 6 5 13
3 13 5 12
3 2 1 9
3 9 1 8
