ply
format ascii 1.0
comment Created by Open3D
element vertex 24
property double x
property double y
property double z
element face 34
property list uchar uint vertex_indices
end_header
-200.277 253.281 0
-199.754 251.182 0
-198.96 251.379 0
-197.426 245.314 0
-196.555 245.533 0
-195.763 242.401 0
-196.617 242.193 0
-195.664 238.427 0
-208.227 235.292 0
-211.362 247.756 0
-203.787 249.641 0
-204.444 252.24 0
-200.277 253.281 17.5
-199.754 251.182 17.5
-198.96 251.379 17.5
-197.426 245.314 17.5
-196.555 245.533 17.5
-195.763 242.401 17.5
-196.617 242.193 17.5
-195.664 238.427 17.5
-208.227 235.292 17.5
-211.362 247.756 17.5
-203.787 249.641 17.5
-204.444 252.24 17.5
3 9 8 10
3 1 10 3
3 11 1 0
3 1 11 10
3 10 8 3
3 6 3 8
3 6 5 4
3 3 2 1
3 4 3 6
3 6 8 7
3 9 8 21
3 21 8 20
3 10 9 22
3 22 9 21
3 1 0 13
3 13 0 12
3 0 11 12
3 12 11 23
3 11 10 23
3 23 10 22
3 6 5 18
3 18 5 17
3 5 4 17
3 17 4 16
3 3 2 15
3 15 2 14
3 2 1 14
3 14 1 13
3 4 3 16
3 16 3 15
3 8 7 20
3 20 7 19
3 7 6 19
3 19 6 18
