ply
format ascii 1.0
comment Created by Open3D
element vertex 14
property double x
property double y
property double z
element face 19
property list uchar uint vertex_indices
end_header
-244.424 52.8363 0
-238.274 54.6926 0
-241.553 67.7334 0
-243.759 77.0415 0
-246.346 87.3165 0
-253.042 85.806 0
-252.276 82.2296 0
-244.424 52.8363 24.5
-238.274 54.6926 24.5
-241.553 67.7334 24.5
-243.759 77.0415 24.5
-246.346 87.3165 24.5
-253.042 85.806 24.5
-252.276 82.2296 24.5
3 5 6 4
3 4 6 3
3 0 1 2
3 3 6 2
3 2 6 0
3 5 6 12
3 12 6 13
3 4 5 11
3 11 5 12
3 3 4 10
3 10 4 11
3 0 1 7
3 7 1 8
3 1 2 8
3 8 2 9
3 2 3 9
3 9 3 10
3 6 0 13
3 13 0 7
