ply
format ascii 1.0
comment Created by Open3D
element vertex 12
property double x
property double y
property double z
element face 16
property list uchar uint vertex_indices
end_header
-61.2502 246.594 0
-55.0015 222.822 0
-40.3798 226.639 0
-45.5154 246.19 0
-47.7189 245.619 0
-48.8236 249.841 0
-61.2502 246.594 17.5
-55.0015 222.822 17.5
-40.3798 226.639 17.5
-45.5154 246.19 17.5
-47.7189 245.619 17.5
-48.8236 249.841 17.5
3 5 0 4
3 4 0 1
3 4 2 3
3 2 4 1
3 5 0 11
3 11 0 6
3 4 5 10
3 10 5 11
3 0 1 6
3 6 1 7
3 2 3 8
3 8 3 9
3 3 4 9
3 9 4 10
3 1 2 7
3 7 2 8
