ply
format ascii 1.0
comment Created by Open3D
element vertex 13
property double x
property double y
property double z
element face 13
property list uchar uint vertex_indices
end_header
-121.055 -62.6297 10.5
-121.865 -59.6082 10.5
-115.049 -57.7983 10.5
-113.978 -61.8084 10.5
-88.8928 -55.1724 10.5
-45.4955 -43.6879 10.5
-35.8292 -79.9127 10.5
-119.686 -102.114 10.5
-129.614 -64.9003 10.5
-88.3707 -57.4161 10.5
-80.0288 -88.6421 10.5
-42.3453 -78.6602 10.5
-50.6874 -47.4342 10.5
3 8 7 0
3 0 7 3
3 0 2 1
3 2 0 3
3 7 10 3
3 10 6 11
3 6 10 7
3 11 6 5
3 4 9 12
3 9 4 3
3 12 5 4
3 5 12 11
3 10 9 3
