ply
format ascii 1.0
comment Created by Open3D
element vertex 40
property double x
property double y
property double z
element face 58
property list uchar uint vertex_indices
end_header
-201.681 -123.665 0
-211.842 -84.6526 0
-223.03 -87.5363 0
-221.808 -92.224 0
-227.65 -93.7372 0
-227.001 -96.2477 0
-232.612 -97.695 0
-234.484 -90.4968 0
-243.136 -92.7337 0
-238.195 -111.707 0
-239.835 -112.134 0
-234.607 -132.174 0
-226.297 -130.025 0
-229.585 -117.439 0
-227.604 -116.924 0
-231.803 -100.794 0
-222.689 -98.4479 0
-219.047 -112.433 0
-216.698 -111.819 0
-212.862 -126.549 0
-201.681 -123.665 10.5
-211.842 -84.6526 10.5
-223.03 -87.5363 10.5
-221.808 -92.224 10.5
-227.65 -93.7372 10.5
-227.001 -96.2477 10.5
-232.612 -97.695 10.5
-234.484 -90.4968 10.5
-243.136 -92.7337 10.5
-238.195 -111.707 10.5
-239.835 -112.134 10.5
-234.607 -132.174 10.5
-226.297 -130.025 10.5
-229.585 -117.439 10.5
-227.604 -116.924 10.5
-231.803 -100.794 10.5
-222.689 -98.4479 10.5
-219.047 -112.433 10.5
-216.698 -111.819 10.5
-212.862 -126.549 10.5
3 9 15 8
3 9 10 13
3 12 13 11
3 13 14 9
3 11 13 10
3 9 14 15
3 7 8 6
3 15 6 8
3 15 5 6
3 18 19 0
3 18 0 1
3 17 18 16
3 3 4 5
3 16 1 3
3 1 16 18
3 3 1 2
3 16 3 5
3 15 16 5
3 8 9 28
3 28 9 29
3 9 10 29
3 29 10 30
3 12 13 32
3 32 13 33
3 11 12 31
3 31 12 32
3 13 14 33
3 33 14 34
3 10 11 30
3 30 11 31
3 14 15 34
3 34 15 35
3 7 8 27
3 27 8 28
3 6 7 26
3 26 7 27
3 5 6 25
3 25 6 26
3 18 19 38
3 38 19 39
3 19 0 39
3 39 0 20
3 0 1 20
3 20 1 21
3 17 18 37
3 37 18 38
3 16 17 36
3 36 17 37
3 3 4 23
3 23 4 24
3 4 5 24
3 24 5 25
3 1 2 21
3 21 2 22
3 2 3 22
3 22 3 23
3 15 16 35
3 35 16 36
