ply
format ascii 1.0
comment Created by Open3D
element vertex 22
property double x
property double y
property double z
element face 20
property list uchar uint vertex_indices
end_header
-188.978 161.4 10.5
-145.974 172.796 10.5
-144.541 167.297 10.5
-138.69 168.922 10.5
-134.445 170.296 10.5
-133.207 165.064 10.5
-128.688 166.415 10.5
-123.742 149.162 10.5
-121.736 141.087 10.5
-130.747 138.44 10.5
-129.549 134.086 10.5
-152.004 127.974 10.5
-153.295 132.662 10.5
-159.137 131.071 10.5
-157.796 126.183 10.5
-180.097 120.105 10.5
-182.263 128.48 10.5
-184.364 136.257 10.5
-186.624 144.577 10.5
-189.284 153.764 10.5
-190.581 158.952 10.5
-189.775 160.27 10.5
3 16 15 13
3 14 13 15
3 16 13 17
3 18 13 2
3 20 19 21
3 21 19 0
3 18 17 13
3 18 2 19
3 19 2 0
3 13 12 2
3 12 9 2
3 9 11 10
3 8 7 9
3 5 9 7
3 1 0 2
3 3 2 5
3 5 4 3
3 6 5 7
3 2 9 5
3 12 11 9
