ply
format ascii 1.0
comment Created by Open3D
element vertex 32
property double x
property double y
property double z
element face 46
property list uchar uint vertex_indices
end_header
235.467 153.578 0
256.699 159.095 0
258.723 159.543 0
260.771 159.393 0
262.271 158.889 0
263.651 158.03 0
264.918 156.705 0
265.894 154.893 0
273.916 124.712 0
265.145 122.474 0
264.58 124.53 0
255.86 122.27 0
253.396 131.324 0
246.41 129.614 0
250.048 116.761 0
245.282 115.41 0
235.467 153.578 14
256.699 159.095 14
258.723 159.543 14
260.771 159.393 14
262.271 158.889 14
263.651 158.03 14
264.918 156.705 14
265.894 154.893 14
273.916 124.712 14
265.145 122.474 14
264.58 124.53 14
255.86 122.27 14
253.396 131.324 14
246.41 129.614 14
250.048 116.761 14
245.282 115.41 14
3 15 13 0
3 13 15 14
3 0 12 1
3 12 0 13
3 7 2 1
3 7 1 12
3 12 11 10
3 10 9 8
3 8 7 10
3 6 2 7
3 4 3 5
3 6 5 3
3 2 6 3
3 7 12 10
3 0 15 16
3 16 15 31
3 15 14 31
3 31 14 30
3 14 13 30
3 30 13 29
3 1 0 17
3 17 0 16
3 13 12 29
3 29 12 28
3 2 1 18
3 18 1 17
3 12 11 28
3 28 11 27
3 11 10 27
3 27 10 26
3 10 9 26
3 26 9 25
3 9 8 25
3 25 8 24
3 8 7 24
3 24 7 23
3 7 6 23
3 23 6 22
3 4 3 20
3 20 3 19
3 5 4 21
3 21 4 20
3 6 5 22
3 22 5 21
3 3 2 19
3 19 2 18
