ply
format ascii 1.0
comment Created by Open3D
element vertex 12
property double x
property double y
property double z
element face 16
property list uchar uint vertex_indices
end_header
-198.415 221.276 0
-204.197 219.763 0
-205.571 224.951 0
-196.937 227.21 0
-195.739 222.678 0
-198.592 221.932 0
-198.415 221.276 17.5
-204.197 219.763 17.5
-205.571 224.951 17.5
-196.937 227.21 17.5
-195.739 222.678 17.5
-198.592 221.932 17.5
3 2 1 5
3 5 1 0
3 2 5 3
3 4 3 5
3 2 1 8
3 8 1 7
3 1 0 7
3 7 0 6
3 0 5 6
3 6 5 11
3 3 2 9
3 9 2 8
3 4 3 10
3 10 3 9
3 5 4 11
3 11 4 10
