ply
format ascii 1.0
comment Created by Open3D
element vertex 34
property double x
property double y
property double z
element face 49
property list uchar uint vertex_indices
end_header
-30.1683 -87.3004 0
-24.0788 -110.273 0
-22.644 -115.372 0
-22.7471 -118.29 0
-23.3158 -120.042 0
-27.6215 -121.494 0
-28.3642 -118.85 0
-65.3471 -128.479 0
-65.7434 -126.957 0
-101.446 -136.579 0
-100.984 -138.822 0
-109.099 -141.15 0
-116.606 -110.592 0
-103.051 -106.828 0
-102.359 -109.494 0
-69.2443 -100.441 0
-69.9778 -97.5642 0
-30.1683 -87.3004 17.5
-24.0788 -110.273 17.5
-22.644 -115.372 17.5
-22.7471 -118.29 17.5
-23.3158 -120.042 17.5
-27.6215 -121.494 17.5
-28.3642 -118.85 17.5
-65.3471 -128.479 17.5
-65.7434 -126.957 17.5
-101.446 -136.579 17.5
-100.984 -138.822 17.5
-109.099 -141.15 17.5
-116.606 -110.592 17.5
-103.051 -106.828 17.5
-102.359 -109.494 17.5
-69.2443 -100.441 17.5
-69.9778 -97.5642 17.5
3 12 11 9
3 8 14 9
3 10 9 11
3 12 9 14
3 14 13 12
3 16 15 0
3 15 14 8
3 6 8 7
3 6 5 4
3 15 1 0
3 15 6 1
3 6 2 1
3 2 6 3
3 6 4 3
3 6 15 8
3 12 11 29
3 29 11 28
3 9 8 26
3 26 8 25
3 10 9 27
3 27 9 26
3 11 10 28
3 28 10 27
3 14 13 31
3 31 13 30
3 13 12 30
3 30 12 29
3 16 15 33
3 33 15 32
3 0 16 17
3 17 16 33
3 15 14 32
3 32 14 31
3 8 7 25
3 25 7 24
3 7 6 24
3 24 6 23
3 6 5 23
3 23 5 22
3 5 4 22
3 22 4 21
3 1 0 18
3 18 0 17
3 2 1 19
3 19 1 18
3 3 2 20
3 20 2 19
3 4 3 21
3 21 3 20
