ply
format ascii 1.0
comment Created by Open3D
element vertex 14
property double x
property double y
property double z
element face 19
property list uchar uint vertex_indices
end_header
43.147 -152.96 0
46.2292 -141.615 0
50.474 -140.529 0
58.4721 -148.18 0
56.3214 -150.97 0
52.0219 -153.154 0
47.2747 -153.85 0
43.147 -152.96 17.5
46.2292 -141.615 17.5
50.474 -140.529 17.5
58.4721 -148.18 17.5
56.3214 -150.97 17.5
52.0219 -153.154 17.5
47.2747 -153.85 17.5
3 0 6 1
3 1 6 5
3 5 4 2
3 3 2 4
3 5 2 1
3 0 6 7
3 7 6 13
3 1 0 8
3 8 0 7
3 6 5 13
3 13 5 12
3 5 4 12
3 12 4 11
3 3 2 10
3 10 2 9
3 4 3 11
3 11 3 10
3 2 1 9
3 9 1 8
