ply
format ascii 1.0
comment Created by Open3D
element vertex 21
property double x
property double y
property double z
element face 19
property list uchar uint vertex_indices
end_header
-40.2522 -222.146 14
-29.5503 -219.416 14
-35.1318 -197.711 14
-32.6518 -196.087 14
-33.8457 -193.086 14
-34.619 -189.332 14
-37.4856 -189.046 14
-42.0891 -171.151 14
-52.8763 -173.903 14
-50.8107 -181.934 14
-53.6121 -182.646 14
-54.1433 -180.58 14
-56.6031 -181.205 14
-56.0045 -183.538 14
-55.3896 -183.385 14
-54.2766 -187.695 14
-73.5109 -192.595 14
-68.4016 -212.457 14
-48.0398 -207.26 14
-48.5456 -205.271 14
-44.8303 -204.329 14
3 15 16 19
3 14 15 10
3 13 14 12
3 15 6 9
3 12 14 11
3 9 10 15
3 8 9 7
3 14 10 11
3 19 16 17
3 18 19 17
3 20 0 1
3 20 1 2
3 20 6 15
3 7 9 6
3 2 6 20
3 4 6 2
3 4 5 6
3 3 4 2
3 15 19 20
