ply
format ascii 1.0
comment Created by Open3D
element vertex 17
property double x
property double y
property double z
element face 15
property list uchar uint vertex_indices
end_header
-189.204 213.911 17.5
-188.521 211.322 17.5
-187.095 211.695 17.5
-184.388 201.364 17.5
-185.533 201.068 17.5
-184.344 196.525 17.5
-187.103 195.812 17.5
-186.782 194.602 17.5
-195.417 192.353 17.5
-196.159 195.197 17.5
-196.8 197.652 17.5
-197.927 197.356 17.5
-199.588 203.688 17.5
-197.53 204.225 17.5
-198.786 209.024 17.5
-191.885 210.811 17.5
-192.476 213.066 17.5
3 11 10 12
3 6 10 9
3 4 13 10
3 13 15 14
3 12 10 13
3 9 8 6
3 4 10 6
3 5 4 6
3 4 15 13
3 15 0 16
3 0 15 1
3 4 2 1
3 1 15 4
3 3 2 4
3 6 8 7
