ply
format ascii 1.0
comment Created by Open3D
element vertex 14
property double x
property double y
property double z
element face 19
property list uchar uint vertex_indices
end_header
-242.76 52.831 0
-236.61 54.6873 0
-239.888 67.7281 0
-242.094 77.0362 0
-244.682 87.3112 0
-251.377 85.8007 0
-250.612 82.2243 0
-242.76 52.831 14
-236.61 54.6873 14
-239.888 67.7281 14
-242.094 77.0362 14
-244.682 87.3112 14
-251.377 85.8007 14
-250.612 82.2243 14
3 5 6 4
3 4 6 3
3 0 1 2
3 3 6 2
3 2 6 0
3 5 6 12
3 12 6 13
3 4 5 11
3 11 5 12
3 3 4 10
3 10 4 11
3 0 1 7
3 7 1 8
3 1 2 8
3 8 2 9
3 2 3 9
3 9 3 10
3 6 0 13
3 13 0 7
