ply
format ascii 1.0
comment Created by Open3D
element vertex 12
property double x
property double y
property double z
element face 16
property list uchar uint vertex_indices
end_header
-164.243 284.201 0
-161.045 272.803 0
-160.64 271.359 0
-156.201 255.551 0
-175.18 250.272 0
-183.213 278.911 0
-164.243 284.201 14
-161.045 272.803 14
-160.64 271.359 14
-156.201 255.551 14
-175.18 250.272 14
-183.213 278.911 14
3 0 5 1
3 2 5 4
3 2 1 5
3 3 2 4
3 0 5 6
3 6 5 11
3 1 0 7
3 7 0 6
3 5 4 11
3 11 4 10
3 2 1 8
3 8 1 7
3 3 2 9
3 9 2 8
3 4 3 10
3 10 3 9
