ply
format ascii 1.0
comment Created by Open3D
element vertex 16
property double x
property double y
property double z
element face 22
property list uchar uint vertex_indices
end_header
55.4474 134.482 0
54.7233 132.175 0
50.2909 131.102 0
48.3678 132.861 0
46.2025 141.77 0
47.0691 143.276 0
51.5015 144.35 0
53.282 143.379 0
55.4474 134.482 17.5
54.7233 132.175 17.5
50.2909 131.102 17.5
48.3678 132.861 17.5
46.2025 141.77 17.5
47.0691 143.276 17.5
51.5015 144.35 17.5
53.282 143.379 17.5
3 7 4 3
3 6 5 4
3 3 2 0
3 7 3 0
3 6 4 7
3 0 2 1
3 4 3 12
3 12 3 11
3 6 5 14
3 14 5 13
3 5 4 13
3 13 4 12
3 3 2 11
3 11 2 10
3 0 7 8
3 8 7 15
3 7 6 15
3 15 6 14
3 2 1 10
3 10 1 9
3 1 0 9
3 9 0 8
