ply
format ascii 1.0
comment Created by Open3D
element vertex 12
property double x
property double y
property double z
element face 16
property list uchar uint vertex_indices
end_header
-197.288 64.5522 0
-204.539 62.7438 0
-211.872 91.9467 0
-214.038 100.544 0
-206.787 102.353 0
-205.775 98.3206 0
-197.288 64.5522 14
-204.539 62.7438 14
-211.872 91.9467 14
-214.038 100.544 14
-206.787 102.353 14
-205.775 98.3206 14
3 4 3 5
3 5 3 2
3 2 0 5
3 0 2 1
3 4 3 10
3 10 3 9
3 5 4 11
3 11 4 10
3 3 2 9
3 9 2 8
3 0 5 6
3 6 5 11
3 2 1 8
3 8 1 7
3 1 0 7
3 7 0 6
