ply
format ascii 1.0
comment Created by Open3D
element vertex 108
property double x
property double y
property double z
element face 160
property list uchar uint vertex_indices
end_header
20.8815 -24.8721 0
22.3831 -30.4375 0
25.1932 -29.6582 0
27.4129 -37.5567 0
28.6764 -37.4053 0
34.7582 -60.1777 0
31.7343 -61.0672 0
32.4365 -63.034 0
30.9589 -63.4289 0
31.2961 -64.7508 0
36.2504 -63.279 0
37.6342 -62.8727 0
41.2475 -61.7962 0
43.8447 -60.8609 0
44.4912 -67.0119 0
29.5447 -70.8166 0
31.7383 -78.8814 0
40.9543 -76.3907 0
43.5853 -86.4992 0
39.1096 -87.7283 0
37.6576 -88.1345 0
34.1983 -89.0893 0
35.9291 -95.055 0
32.9127 -96.2997 0
35.5541 -105.798 0
33.2736 -106.423 0
14.8754 -111.482 0
10.7531 -111.592 0
10.4382 -111.302 0
8.73324 -110.72 0
7.65197 -109.906 0
6.50294 -108.926 0
5.61899 -107.78 0
4.61643 -106.356 0
-0.282225 -87.3275 0
0.556155 -86.6753 0
-0.964268 -81.6648 0
-3.2102 -79.4157 0
-4.32708 -76.3488 0
-4.52135 -72.9852 0
-3.69569 -70.9455 0
-7.74591 -56.2375 0
-5.28592 -55.5349 0
-3.50092 -41.4778 0
-5.67766 -41.6596 0
-7.41669 -41.0548 0
-8.37786 -40.0418 0
-9.24341 -38.4741 0
-9.46132 -37.2081 0
-9.43186 -35.9762 0
-9.00047 -34.4792 0
-8.03186 -33.117 0
-6.51875 -32.2893 0
-4.68271 -31.8955 0
20.8815 -24.8721 14
22.3831 -30.4375 14
25.1932 -29.6582 14
27.4129 -37.5567 14
28.6764 -37.4053 14
34.7582 -60.1777 14
31.7343 -61.0672 14
32.4365 -63.034 14
30.9589 -63.4289 14
31.2961 -64.7508 14
36.2504 -63.279 14
37.6342 -62.8727 14
41.2475 -61.7962 14
43.8447 -60.8609 14
44.4912 -67.0119 14
29.5447 -70.8166 14
31.7383 -78.8814 14
40.9543 -76.3907 14
43.5853 -86.4992 14
39.1096 -87.7283 14
37.6576 -88.1345 14
34.1983 -89.0893 14
35.9291 -95.055 14
32.9127 -96.2997 14
35.5541 -105.798 14
33.2736 -106.423 14
14.8754 -111.482 14
10.7531 -111.592 14
10.4382 -111.302 14
8.73324 -110.72 14
7.65197 -109.906 14
6.50294 -108.926 14
5.61899 -107.78 14
4.61643 -106.356 14
-0.282225 -87.3275 14
0.556155 -86.6753 14
-0.964268 -81.6648 14
-3.2102 -79.4157 14
-4.32708 -76.3488 14
-4.52135 -72.9852 14
-3.69569 -70.9455 14
-7.74591 -56.2375 14
-5.28592 -55.5349 14
-3.50092 -41.4778 14
-5.67766 -41.6596 14
-7.41669 -41.0548 14
-8.37786 -40.0418 14
-9.24341 -38.4741 14
-9.46132 -37.2081 14
-9.43186 -35.9762 14
-9.00047 -34.4792 14
-8.03186 -33.117 14
-6.51875 -32.2893 14
-4.68271 -31.8955 14
3 35 34 33
3 36 15 40
3 38 37 36
3 39 38 40
3 38 36 40
3 28 26 32
3 29 28 30
3 32 30 28
3 31 30 32
3 33 32 26
3 33 23 35
3 35 16 36
3 46 43 47
3 48 47 43
3 52 50 49
3 52 51 50
3 52 49 48
3 3 43 42
3 44 46 45
3 43 46 44
3 1 53 43
3 43 53 52
3 43 52 48
3 8 42 40
3 42 41 40
3 27 26 28
3 26 25 23
3 21 23 22
3 21 35 23
3 16 15 36
3 35 21 16
3 16 21 20
3 23 25 24
3 8 40 15
3 17 16 19
3 17 19 18
3 19 16 20
3 15 14 10
3 6 4 3
3 3 1 43
3 6 42 8
3 6 3 42
3 53 1 0
3 2 1 3
3 8 15 9
3 10 9 15
3 6 5 4
3 13 12 14
3 11 14 12
3 7 6 8
3 14 11 10
3 23 33 26
3 35 34 89
3 89 34 88
3 34 33 88
3 88 33 87
3 38 37 92
3 92 37 91
3 37 36 91
3 91 36 90
3 39 38 93
3 93 38 92
3 40 39 94
3 94 39 93
3 29 28 83
3 83 28 82
3 30 29 84
3 84 29 83
3 31 30 85
3 85 30 84
3 32 31 86
3 86 31 85
3 33 32 87
3 87 32 86
3 36 35 90
3 90 35 89
3 47 46 101
3 101 46 100
3 48 47 102
3 102 47 101
3 50 49 104
3 104 49 103
3 52 51 106
3 106 51 105
3 51 50 105
3 105 50 104
3 49 48 103
3 103 48 102
3 43 42 97
3 97 42 96
3 46 45 100
3 100 45 99
3 45 44 99
3 99 44 98
3 44 43 98
3 98 43 97
3 53 52 107
3 107 52 106
3 42 41 96
3 96 41 95
3 41 40 95
3 95 40 94
3 27 26 81
3 81 26 80
3 28 27 82
3 82 27 81
3 26 25 80
3 80 25 79
3 23 22 77
3 77 22 76
3 22 21 76
3 76 21 75
3 16 15 70
3 70 15 69
3 21 20 75
3 75 20 74
3 25 24 79
3 79 24 78
3 24 23 78
3 78 23 77
3 17 16 71
3 71 16 70
3 19 18 73
3 73 18 72
3 18 17 72
3 72 17 71
3 20 19 74
3 74 19 73
3 15 14 69
3 69 14 68
3 4 3 58
3 58 3 57
3 1 0 55
3 55 0 54
3 0 53 54
3 54 53 107
3 2 1 56
3 56 1 55
3 3 2 57
3 57 2 56
3 9 8 63
3 63 8 62
3 10 9 64
3 64 9 63
3 6 5 60
3 60 5 59
3 5 4 59
3 59 4 58
3 13 12 67
3 67 12 66
3 14 13 68
3 68 13 67
3 12 11 66
3 66 11 65
3 7 6 61
3 61 6 60
3 8 7 62
3 62 7 61
3 11 10 65
3 65 10 64
