ply
format ascii 1.0
comment Created by Open3D
element vertex 34
property double x
property double y
property double z
element face 49
property list uchar uint vertex_indices
end_header
-189.204 213.911 0
-188.521 211.322 0
-187.095 211.695 0
-184.388 201.364 0
-185.533 201.068 0
-184.344 196.525 0
-187.103 195.812 0
-186.782 194.602 0
-195.417 192.353 0
-196.159 195.197 0
-196.8 197.652 0
-197.927 197.356 0
-199.588 203.688 0
-197.53 204.225 0
-198.786 209.024 0
-191.885 210.811 0
-192.476 213.066 0
-189.204 213.911 17.5
-188.521 211.322 17.5
-187.095 211.695 17.5
-184.388 201.364 17.5
-185.533 201.068 17.5
-184.344 196.525 17.5
-187.103 195.812 17.5
-186.782 194.602 17.5
-195.417 192.353 17.5
-196.159 195.197 17.5
-196.8 197.652 17.5
-197.927 197.356 17.5
-199.588 203.688 17.5
-197.53 204.225 17.5
-198.786 209.024 17.5
-191.885 210.811 17.5
-192.476 213.066 17.5
3 11 10 12
3 6 10 9
3 4 13 10
3 13 15 14
3 12 10 13
3 9 8 6
3 4 10 6
3 5 4 6
3 4 15 13
3 15 0 16
3 0 15 1
3 4 2 1
3 1 15 4
3 3 2 4
3 6 8 7
3 11 10 28
3 28 10 27
3 12 11 29
3 29 11 28
3 10 9 27
3 27 9 26
3 15 14 32
3 32 14 31
3 14 13 31
3 31 13 30
3 13 12 30
3 30 12 29
3 9 8 26
3 26 8 25
3 5 4 22
3 22 4 21
3 6 5 23
3 23 5 22
3 0 16 17
3 17 16 33
3 16 15 33
3 33 15 32
3 1 0 18
3 18 0 17
3 2 1 19
3 19 1 18
3 3 2 20
3 20 2 19
3 4 3 21
3 21 3 20
3 8 7 25
3 25 7 24
3 7 6 24
3 24 6 23
