ply
format ascii 1.0
comment Created by Open3D
element vertex 18
property double x
property double y
property double z
element face 25
property list uchar uint vertex_indices
end_header
-143.919 77.5696 0
-145.756 77.1092 0
-150.333 75.9027 0
-160.07 73.3584 0
-163.794 72.4046 0
-166.92 74.2902 0
-173.211 97.9846 0
-174.737 104.094 0
-152.88 110.13 0
-143.919 77.5696 17.5
-145.756 77.1092 17.5
-150.333 75.9027 17.5
-160.07 73.3584 17.5
-163.794 72.4046 17.5
-166.92 74.2902 17.5
-173.211 97.9846 17.5
-174.737 104.094 17.5
-152.88 110.13 17.5
3 6 5 3
3 8 7 6
3 3 5 4
3 2 8 6
3 8 1 0
3 1 8 2
3 2 6 3
3 6 5 15
3 15 5 14
3 8 7 17
3 17 7 16
3 7 6 16
3 16 6 15
3 5 4 14
3 14 4 13
3 4 3 13
3 13 3 12
3 1 0 10
3 10 0 9
3 0 8 9
3 9 8 17
3 2 1 11
3 11 1 10
3 3 2 12
3 12 2 11
