ply
format ascii 1.0
comment Created by Open3D
element vertex 18
property double x
property double y
property double z
element face 25
property list uchar uint vertex_indices
end_header
-114.366 85.7343 0
-115.34 85.3821 0
-114.944 83.7826 0
-119.984 82.4333 0
-120.44 83.9775 0
-122.071 83.6053 0
-132.12 122.584 0
-125.202 124.493 0
-124.704 122.683 0
-114.366 85.7343 14
-115.34 85.3821 14
-114.944 83.7826 14
-119.984 82.4333 14
-120.44 83.9775 14
-122.071 83.6053 14
-132.12 122.584 14
-125.202 124.493 14
-124.704 122.683 14
3 6 5 8
3 8 7 6
3 5 4 8
3 3 2 4
3 1 0 8
3 1 4 2
3 1 8 4
3 6 5 15
3 15 5 14
3 8 7 17
3 17 7 16
3 7 6 16
3 16 6 15
3 5 4 14
3 14 4 13
3 3 2 12
3 12 2 11
3 4 3 13
3 13 3 12
3 1 0 10
3 10 0 9
3 0 8 9
3 9 8 17
3 2 1 11
3 11 1 10
