ply
format ascii 1.0
comment Created by Open3D
element vertex 24
property double x
property double y
property double z
element face 22
property list uchar uint vertex_indices
end_header
73.2262 195.527 17.5
99.1305 202.406 17.5
100.278 198.129 17.5
104.386 199.215 17.5
105.432 195.316 17.5
104.706 195.118 17.5
106.722 187.587 17.5
107.704 187.85 17.5
108.944 183.195 17.5
104.99 182.142 17.5
104.367 182.244 17.5
105.619 178.644 17.5
95.754 176 17.5
93.2943 175.342 17.5
90.51 174.607 17.5
79.6716 171.722 17.5
78.6594 175.498 17.5
74.7733 174.467 17.5
73.6851 178.522 17.5
74.3257 178.686 17.5
72.318 186.173 17.5
71.3614 185.91 17.5
70.113 190.565 17.5
74.2638 191.673 17.5
3 19 18 17
3 16 19 17
3 23 16 14
3 15 14 16
3 23 14 13
3 22 21 20
3 22 20 23
3 20 19 16
3 20 16 23
3 1 0 23
3 23 13 2
3 11 10 12
3 10 9 6
3 2 12 10
3 8 6 9
3 6 8 7
3 2 10 6
3 1 23 2
3 3 2 5
3 5 2 6
3 5 4 3
3 2 13 12
