ply
format ascii 1.0
comment Created by Open3D
element vertex 25
property double x
property double y
property double z
element face 23
property list uchar uint vertex_indices
end_header
-143.124 -125.004 17.5
-138.268 -143.699 17.5
-136.341 -144.26 17.5
-134.663 -145.331 17.5
-134.017 -146.255 17.5
-133.826 -147.754 17.5
-134.702 -149.704 17.5
-136.03 -151.176 17.5
-137.807 -151.97 17.5
-139.993 -152.207 17.5
-142.235 -151.456 17.5
-143.791 -149.842 17.5
-165.742 -155.489 17.5
-168.24 -154.726 17.5
-169.126 -151.638 17.5
-173.722 -152.978 17.5
-172.92 -155.71 17.5
-174.385 -157.504 17.5
-176.591 -158.929 17.5
-196.774 -164.237 17.5
-203.293 -139.587 17.5
-173.296 -131.724 17.5
-172.698 -134.001 17.5
-155.265 -129.439 17.5
-155.577 -128.239 17.5
3 18 20 19
3 17 15 18
3 13 12 14
3 16 15 17
3 21 20 22
3 15 20 18
3 22 20 15
3 14 22 15
3 14 23 22
3 14 12 11
3 1 11 10
3 9 1 10
3 1 8 7
3 1 9 8
3 6 2 7
3 23 1 0
3 23 11 1
3 23 0 24
3 5 4 3
3 2 6 3
3 2 1 7
3 3 6 5
3 11 23 14
