ply
format ascii 1.0
comment Created by Open3D
element vertex 14
property double x
property double y
property double z
element face 12
property list uchar uint vertex_indices
end_header
-247.039 138.075 14
-247.798 140.83 14
-243.519 142.004 14
-242.197 141.678 14
-241.372 140.655 14
-241.293 138.878 14
-242.329 137.705 14
-240.785 132.128 14
-239.282 132.545 14
-238.075 128.18 14
-248.316 125.36 14
-249.143 128.348 14
-251.765 127.635 14
-254.111 136.133 14
3 0 11 7
3 12 11 13
3 0 2 1
3 6 2 0
3 13 11 0
3 7 11 10
3 7 9 8
3 9 7 10
3 4 2 6
3 2 4 3
3 5 4 6
3 7 6 0
