ply
format ascii 1.0
comment Created by Open3D
element vertex 16
property double x
property double y
property double z
element face 22
property list uchar uint vertex_indices
end_header
-123.742 149.162 0
-103.216 155.036 0
-94.1038 157.305 0
-93.0324 153.35 0
-92.4165 151.128 0
-90.2987 143.441 0
-120.225 135.977 0
-121.736 141.087 0
-123.742 149.162 21
-103.216 155.036 21
-94.1038 157.305 21
-93.0324 153.35 21
-92.4165 151.128 21
-90.2987 143.441 21
-120.225 135.977 21
-121.736 141.087 21
3 7 6 1
3 1 0 7
3 6 5 1
3 4 3 1
3 3 2 1
3 4 1 5
3 7 6 15
3 15 6 14
3 1 0 9
3 9 0 8
3 0 7 8
3 8 7 15
3 6 5 14
3 14 5 13
3 4 3 12
3 12 3 11
3 3 2 11
3 11 2 10
3 2 1 10
3 10 1 9
3 5 4 13
3 13 4 12
