ply
format ascii 1.0
comment Created by Open3D
element vertex 28
property double x
property double y
property double z
element face 40
property list uchar uint vertex_indices
end_header
-247.039 138.075 0
-247.798 140.83 0
-243.519 142.004 0
-242.197 141.678 0
-241.372 140.655 0
-241.293 138.878 0
-242.329 137.705 0
-240.785 132.128 0
-239.282 132.545 0
-238.075 128.18 0
-248.316 125.36 0
-249.143 128.348 0
-251.765 127.635 0
-254.111 136.133 0
-247.039 138.075 14
-247.798 140.83 14
-243.519 142.004 14
-242.197 141.678 14
-241.372 140.655 14
-241.293 138.878 14
-242.329 137.705 14
-240.785 132.128 14
-239.282 132.545 14
-238.075 128.18 14
-248.316 125.36 14
-249.143 128.348 14
-251.765 127.635 14
-254.111 136.133 14
3 0 11 7
3 12 11 13
3 0 2 1
3 6 2 0
3 13 11 0
3 7 11 10
3 7 9 8
3 9 7 10
3 4 2 6
3 2 4 3
3 5 4 6
3 7 6 0
3 12 11 26
3 26 11 25
3 13 12 27
3 27 12 26
3 2 1 16
3 16 1 15
3 1 0 15
3 15 0 14
3 0 13 14
3 14 13 27
3 11 10 25
3 25 10 24
3 9 8 23
3 23 8 22
3 8 7 22
3 22 7 21
3 10 9 24
3 24 9 23
3 4 3 18
3 18 3 17
3 3 2 17
3 17 2 16
3 5 4 19
3 19 4 18
3 6 5 20
3 20 5 19
3 7 6 21
3 21 6 20
