ply
format ascii 1.0
comment Created by Open3D
element vertex 14
property double x
property double y
property double z
element face 12
property list uchar uint vertex_indices
end_header
-185.222 42.9262 14
-174.35 2.291 14
-190.766 -2.06353 14
-191.609 1.0691 14
-244.291 -12.8935 14
-244.072 -13.7156 14
-259.642 -17.8063 14
-265.267 3.45541 14
-254.906 6.18628 14
-253.65 1.43185 14
-249.695 2.46265 14
-251.036 7.51702 14
-250.208 7.73638 14
-254.686 24.477 14
3 7 6 9
3 7 9 8
3 11 10 12
3 13 12 3
3 9 6 4
3 4 10 9
3 3 0 13
3 3 10 4
3 1 0 3
3 3 2 1
3 3 12 10
3 4 6 5
