ply
format ascii 1.0
comment Created by Open3D
element vertex 24
property double x
property double y
property double z
element face 34
property list uchar uint vertex_indices
end_header
-198.612 253.276 0
-198.09 251.177 0
-197.295 251.374 0
-195.762 245.309 0
-194.89 245.528 0
-194.098 242.396 0
-194.952 242.187 0
-194 238.422 0
-206.563 235.287 0
-209.698 247.75 0
-202.122 249.635 0
-202.78 252.235 0
-198.612 253.276 10.5
-198.09 251.177 10.5
-197.295 251.374 10.5
-195.762 245.309 10.5
-194.89 245.528 10.5
-194.098 242.396 10.5
-194.952 242.187 10.5
-194 238.422 10.5
-206.563 235.287 10.5
-209.698 247.75 10.5
-202.122 249.635 10.5
-202.78 252.235 10.5
3 9 8 10
3 1 10 3
3 11 1 0
3 1 11 10
3 10 8 3
3 6 3 8
3 6 5 4
3 3 2 1
3 4 3 6
3 6 8 7
3 9 8 21
3 21 8 20
3 10 9 22
3 22 9 21
3 1 0 13
3 13 0 12
3 0 11 12
3 12 11 23
3 11 10 23
3 23 10 22
3 6 5 18
3 18 5 17
3 5 4 17
3 17 4 16
3 3 2 15
3 15 2 14
3 2 1 14
3 14 1 13
3 4 3 16
3 16 3 15
3 8 7 20
3 20 7 19
3 7 6 19
3 19 6 18
