ply
format ascii 1.0
comment Created by Open3D
element vertex 54
property double x
property double y
property double z
element face 52
property list uchar uint vertex_indices
end_header
20.8815 -24.8721 14
22.3831 -30.4375 14
25.1932 -29.6582 14
27.4129 -37.5567 14
28.6764 -37.4053 14
34.7582 -60.1777 14
31.7343 -61.0672 14
32.4365 -63.034 14
30.9589 -63.4289 14
31.2961 -64.7508 14
36.2504 -63.279 14
37.6342 -62.8727 14
41.2475 -61.7962 14
43.8447 -60.8609 14
44.4912 -67.0119 14
29.5447 -70.8166 14
31.7383 -78.8814 14
40.9543 -76.3907 14
43.5853 -86.4992 14
39.1096 -87.7283 14
37.6576 -88.1345 14
34.1983 -89.0893 14
35.9291 -95.055 14
32.9127 -96.2997 14
35.5541 -105.798 14
33.2736 -106.423 14
14.8754 -111.482 14
10.7531 -111.592 14
10.4382 -111.302 14
8.73324 -110.72 14
7.65197 -109.906 14
6.50294 -108.926 14
5.61899 -107.78 14
4.61643 -106.356 14
-0.282225 -87.3275 14
0.556155 -86.6753 14
-0.964268 -81.6648 14
-3.2102 -79.4157 14
-4.32708 -76.3488 14
-4.52135 -72.9852 14
-3.69569 -70.9455 14
-7.74591 -56.2375 14
-5.28592 -55.5349 14
-3.50092 -41.4778 14
-5.67766 -41.6596 14
-7.41669 -41.0548 14
-8.37786 -40.0418 14
-9.24341 -38.4741 14
-9.46132 -37.2081 14
-9.43186 -35.9762 14
-9.00047 -34.4792 14
-8.03186 -33.117 14
-6.51875 -32.2893 14
-4.68271 -31.8955 14
3 35 34 33
3 36 15 40
3 38 37 36
3 39 38 40
3 38 36 40
3 28 26 32
3 29 28 30
3 32 30 28
3 31 30 32
3 33 32 26
3 33 23 35
3 35 16 36
3 46 43 47
3 48 47 43
3 52 50 49
3 52 51 50
3 52 49 48
3 3 43 42
3 44 46 45
3 43 46 44
3 1 53 43
3 43 53 52
3 43 52 48
3 8 42 40
3 42 41 40
3 27 26 28
3 26 25 23
3 21 23 22
3 21 35 23
3 16 15 36
3 35 21 16
3 16 21 20
3 23 25 24
3 8 40 15
3 17 16 19
3 17 19 18
3 19 16 20
3 15 14 10
3 6 4 3
3 3 1 43
3 6 42 8
3 6 3 42
3 53 1 0
3 2 1 3
3 8 15 9
3 10 9 15
3 6 5 4
3 13 12 14
3 11 14 12
3 7 6 8
3 14 11 10
3 23 33 26
