ply
format ascii 1.0
comment Created by Open3D
element vertex 116
property double x
property double y
property double z
element face 172
property list uchar uint vertex_indices
end_header
-266.598 -120.352 0
-255.909 -159.333 0
-247.939 -157.171 0
-246.412 -162.726 0
-251.136 -164.01 0
-248.816 -172.463 0
-271.194 -178.552 0
-272.215 -174.809 0
-276.768 -176.049 0
-278.708 -168.961 0
-275.027 -167.963 0
-282.316 -141.357 0
-306.112 -147.83 0
-308.357 -139.643 0
-310.569 -140.246 0
-311.421 -137.147 0
-315.068 -138.134 0
-316.07 -139.241 0
-317.063 -140.115 0
-318.438 -140.621 0
-319.864 -140.827 0
-321.195 -140.657 0
-322.678 -140.208 0
-325.488 -129.966 0
-331.928 -131.721 0
-329.726 -139.742 0
-325.225 -138.513 0
-320.686 -155.065 0
-317.022 -154.067 0
-313.681 -166.22 0
-333.232 -171.541 0
-334.422 -167.208 0
-337.967 -168.174 0
-339.182 -163.763 0
-343.563 -164.959 0
-344.812 -160.405 0
-341.019 -159.373 0
-347.279 -136.611 0
-350.124 -137.379 0
-353.549 -124.915 0
-349.133 -123.708 0
-350.154 -119.998 0
-331.414 -114.885 0
-330.638 -117.718 0
-314.229 -113.242 0
-309.935 -128.861 0
-287.428 -122.717 0
-291.672 -107.275 0
-283.071 -104.927 0
-283.67 -102.75 0
-269.457 -98.8658 0
-268.326 -102.987 0
-263.705 -101.725 0
-262.727 -105.269 0
-259.737 -104.457 0
-258.404 -109.334 0
-263.427 -110.706 0
-261.182 -118.882 0
-266.598 -120.352 14
-255.909 -159.333 14
-247.939 -157.171 14
-246.412 -162.726 14
-251.136 -164.01 14
-248.816 -172.463 14
-271.194 -178.552 14
-272.215 -174.809 14
-276.768 -176.049 14
-278.708 -168.961 14
-275.027 -167.963 14
-282.316 -141.357 14
-306.112 -147.83 14
-308.357 -139.643 14
-310.569 -140.246 14
-311.421 -137.147 14
-315.068 -138.134 14
-316.07 -139.241 14
-317.063 -140.115 14
-318.438 -140.621 14
-319.864 -140.827 14
-321.195 -140.657 14
-322.678 -140.208 14
-325.488 -129.966 14
-331.928 -131.721 14
-329.726 -139.742 14
-325.225 -138.513 14
-320.686 -155.065 14
-317.022 -154.067 14
-313.681 -166.22 14
-333.232 -171.541 14
-334.422 -167.208 14
-337.967 -168.174 14
-339.182 -163.763 14
-343.563 -164.959 14
-344.812 -160.405 14
-341.019 -159.373 14
-347.279 -136.611 14
-350.124 -137.379 14
-353.549 -124.915 14
-349.133 -123.708 14
-350.154 -119.998 14
-331.414 -114.885 14
-330.638 -117.718 14
-314.229 -113.242 14
-309.935 -128.861 14
-287.428 -122.717 14
-291.672 -107.275 14
-283.071 -104.927 14
-283.67 -102.75 14
-269.457 -98.8658 14
-268.326 -102.987 14
-263.705 -101.725 14
-262.727 -105.269 14
-259.737 -104.457 14
-258.404 -109.334 14
-263.427 -110.706 14
-261.182 -118.882 14
3 31 30 29
3 32 31 33
3 35 34 36
3 36 33 31
3 33 36 34
3 31 27 36
3 27 29 28
3 29 27 31
3 16 22 21
3 20 19 21
3 17 21 19
3 36 27 25
3 39 38 37
3 24 37 25
3 40 37 24
3 41 43 42
3 40 43 41
3 39 37 40
3 40 24 43
3 27 26 25
3 16 21 17
3 18 17 19
3 16 23 22
3 43 23 44
3 43 24 23
3 23 45 44
3 16 45 23
3 36 25 37
3 9 8 10
3 10 8 7
3 14 13 15
3 12 11 13
3 13 11 46
3 10 1 11
3 7 6 5
3 7 5 4
3 1 4 2
3 4 1 7
3 3 2 4
3 11 1 0
3 7 1 10
3 13 45 15
3 13 46 45
3 15 45 16
3 48 50 49
3 51 50 48
3 47 46 48
3 48 46 0
3 56 51 48
3 56 0 57
3 11 0 46
3 56 55 53
3 52 51 53
3 54 53 55
3 51 56 53
3 56 48 0
3 31 30 89
3 89 30 88
3 30 29 88
3 88 29 87
3 32 31 90
3 90 31 89
3 33 32 91
3 91 32 90
3 35 34 93
3 93 34 92
3 36 35 94
3 94 35 93
3 34 33 92
3 92 33 91
3 29 28 87
3 87 28 86
3 28 27 86
3 86 27 85
3 22 21 80
3 80 21 79
3 20 19 78
3 78 19 77
3 21 20 79
3 79 20 78
3 39 38 97
3 97 38 96
3 38 37 96
3 96 37 95
3 25 24 83
3 83 24 82
3 43 42 101
3 101 42 100
3 42 41 100
3 100 41 99
3 41 40 99
3 99 40 98
3 40 39 98
3 98 39 97
3 27 26 85
3 85 26 84
3 26 25 84
3 84 25 83
3 17 16 75
3 75 16 74
3 18 17 76
3 76 17 75
3 19 18 77
3 77 18 76
3 23 22 81
3 81 22 80
3 44 43 102
3 102 43 101
3 24 23 82
3 82 23 81
3 45 44 103
3 103 44 102
3 37 36 95
3 95 36 94
3 9 8 67
3 67 8 66
3 10 9 68
3 68 9 67
3 8 7 66
3 66 7 65
3 14 13 72
3 72 13 71
3 15 14 73
3 73 14 72
3 12 11 70
3 70 11 69
3 13 12 71
3 71 12 70
3 11 10 69
3 69 10 68
3 7 6 65
3 65 6 64
3 6 5 64
3 64 5 63
3 5 4 63
3 63 4 62
3 2 1 60
3 60 1 59
3 3 2 61
3 61 2 60
3 4 3 62
3 62 3 61
3 1 0 59
3 59 0 58
3 46 45 104
3 104 45 103
3 16 15 74
3 74 15 73
3 50 49 108
3 108 49 107
3 49 48 107
3 107 48 106
3 51 50 109
3 109 50 108
3 47 46 105
3 105 46 104
3 48 47 106
3 106 47 105
3 0 57 58
3 58 57 115
3 57 56 115
3 115 56 114
3 56 55 114
3 114 55 113
3 52 51 110
3 110 51 109
3 53 52 111
3 111 52 110
3 54 53 112
3 112 53 111
3 55 54 113
3 113 54 112
