ply
format ascii 1.0
comment Created by Open3D
element vertex 72
property double x
property double y
property double z
element face 106
property list uchar uint vertex_indices
end_header
36.708 -34.3337 0
38.2885 -33.7726 0
35.7244 -24.1305 0
38.0138 -20.6747 0
42.4633 -19.6009 0
42.0663 -18.2789 0
64.2996 -12.0774 0
69.7248 -15.5684 0
75.5055 -33.6781 0
67.3069 -35.606 0
65.9998 -38.7651 0
64.9211 -42.591 0
64.3835 -45.3086 0
64.188 -47.7942 0
64.6799 -54.2222 0
65.6583 -57.9213 0
66.9065 -62.6867 0
67.6079 -64.8754 0
68.7375 -66.6326 0
69.9678 -68.9229 0
71.8713 -71.4928 0
73.1801 -73.2505 0
75.1715 -75.0215 0
78.6278 -77.7627 0
86.8023 -75.3575 0
87.916 -79.4788 0
85.6685 -80.4374 0
87.7525 -88.1135 0
89.1598 -88.3731 0
90.4844 -90.5194 0
90.3759 -92.4614 0
88.7323 -94.0879 0
85.8639 -94.3897 0
54.0822 -102.859 0
44.4912 -67.0119 0
43.8447 -60.8609 0
36.708 -34.3337 14
38.2885 -33.7726 14
35.7244 -24.1305 14
38.0138 -20.6747 14
42.4633 -19.6009 14
42.0663 -18.2789 14
64.2996 -12.0774 14
69.7248 -15.5684 14
75.5055 -33.6781 14
67.3069 -35.606 14
65.9998 -38.7651 14
64.9211 -42.591 14
64.3835 -45.3086 14
64.188 -47.7942 14
64.6799 -54.2222 14
65.6583 -57.9213 14
66.9065 -62.6867 14
67.6079 -64.8754 14
68.7375 -66.6326 14
69.9678 -68.9229 14
71.8713 -71.4928 14
73.1801 -73.2505 14
75.1715 -75.0215 14
78.6278 -77.7627 14
86.8023 -75.3575 14
87.916 -79.4788 14
85.6685 -80.4374 14
87.7525 -88.1135 14
89.1598 -88.3731 14
90.4844 -90.5194 14
90.3759 -92.4614 14
88.7323 -94.0879 14
85.8639 -94.3897 14
54.0822 -102.859 14
44.4912 -67.0119 14
43.8447 -60.8609 14
3 15 35 34
3 1 35 13
3 14 13 35
3 16 34 17
3 15 14 35
3 1 13 12
3 15 34 16
3 34 33 20
3 1 12 11
3 0 35 1
3 4 3 2
3 2 1 4
3 9 4 1
3 5 4 6
3 6 4 9
3 9 7 6
3 9 1 10
3 11 10 1
3 32 27 23
3 27 32 31
3 24 23 26
3 26 23 27
3 23 22 33
3 31 30 29
3 28 27 29
3 27 31 29
3 24 26 25
3 18 17 34
3 7 9 8
3 18 34 19
3 20 33 21
3 21 33 22
3 34 20 19
3 23 33 32
3 35 34 71
3 71 34 70
3 14 13 50
3 50 13 49
3 17 16 53
3 53 16 52
3 15 14 51
3 51 14 50
3 13 12 49
3 49 12 48
3 16 15 52
3 52 15 51
3 34 33 70
3 70 33 69
3 12 11 48
3 48 11 47
3 0 35 36
3 36 35 71
3 1 0 37
3 37 0 36
3 4 3 40
3 40 3 39
3 3 2 39
3 39 2 38
3 2 1 38
3 38 1 37
3 5 4 41
3 41 4 40
3 6 5 42
3 42 5 41
3 7 6 43
3 43 6 42
3 10 9 46
3 46 9 45
3 11 10 47
3 47 10 46
3 32 31 68
3 68 31 67
3 24 23 60
3 60 23 59
3 27 26 63
3 63 26 62
3 23 22 59
3 59 22 58
3 31 30 67
3 67 30 66
3 30 29 66
3 66 29 65
3 28 27 64
3 64 27 63
3 29 28 65
3 65 28 64
3 26 25 62
3 62 25 61
3 25 24 61
3 61 24 60
3 18 17 54
3 54 17 53
3 9 8 45
3 45 8 44
3 8 7 44
3 44 7 43
3 19 18 55
3 55 18 54
3 21 20 57
3 57 20 56
3 22 21 58
3 58 21 57
3 20 19 56
3 56 19 55
3 33 32 69
3 69 32 68
