ply
format ascii 1.0
comment Created by Open3D
element vertex 18
property double x
property double y
property double z
element face 25
property list uchar uint vertex_indices
end_header
-84.6034 122.767 0
-83.4732 118.524 0
-82.8249 115.725 0
-78.5617 98.2747 0
-79.3087 96.823 0
-80.2275 94.9945 0
-92.4752 91.781 0
-99.5844 118.73 0
-95.2883 119.882 0
-84.6034 122.767 17.5
-83.4732 118.524 17.5
-82.8249 115.725 17.5
-78.5617 98.2747 17.5
-79.3087 96.823 17.5
-80.2275 94.9945 17.5
-92.4752 91.781 17.5
-99.5844 118.73 17.5
-95.2883 119.882 17.5
3 7 6 8
3 1 0 8
3 8 6 2
3 3 6 4
3 1 8 2
3 2 6 3
3 6 5 4
3 7 6 16
3 16 6 15
3 8 7 17
3 17 7 16
3 1 0 10
3 10 0 9
3 0 8 9
3 9 8 17
3 4 3 13
3 13 3 12
3 2 1 11
3 11 1 10
3 3 2 12
3 12 2 11
3 6 5 15
3 15 5 14
3 5 4 14
3 14 4 13
