ply
format ascii 1.0
comment Created by Open3D
element vertex 50
property double x
property double y
property double z
element face 73
property list uchar uint vertex_indices
end_header
-143.124 -125.004 0
-138.268 -143.699 0
-136.341 -144.26 0
-134.663 -145.331 0
-134.017 -146.255 0
-133.826 -147.754 0
-134.702 -149.704 0
-136.03 -151.176 0
-137.807 -151.97 0
-139.993 -152.207 0
-142.235 -151.456 0
-143.791 -149.842 0
-165.742 -155.489 0
-168.24 -154.726 0
-169.126 -151.638 0
-173.722 -152.978 0
-172.92 -155.71 0
-174.385 -157.504 0
-176.591 -158.929 0
-196.774 -164.237 0
-203.293 -139.587 0
-173.296 -131.724 0
-172.698 -134.001 0
-155.265 -129.439 0
-155.577 -128.239 0
-143.124 -125.004 17.5
-138.268 -143.699 17.5
-136.341 -144.26 17.5
-134.663 -145.331 17.5
-134.017 -146.255 17.5
-133.826 -147.754 17.5
-134.702 -149.704 17.5
-136.03 -151.176 17.5
-137.807 -151.97 17.5
-139.993 -152.207 17.5
-142.235 -151.456 17.5
-143.791 -149.842 17.5
-165.742 -155.489 17.5
-168.24 -154.726 17.5
-169.126 -151.638 17.5
-173.722 -152.978 17.5
-172.92 -155.71 17.5
-174.385 -157.504 17.5
-176.591 -158.929 17.5
-196.774 -164.237 17.5
-203.293 -139.587 17.5
-173.296 -131.724 17.5
-172.698 -134.001 17.5
-155.265 -129.439 17.5
-155.577 -128.239 17.5
3 18 20 19
3 17 15 18
3 13 12 14
3 16 15 17
3 21 20 22
3 15 20 18
3 22 20 15
3 14 22 15
3 14 23 22
3 14 12 11
3 1 11 10
3 9 1 10
3 1 8 7
3 1 9 8
3 6 2 7
3 23 1 0
3 23 11 1
3 23 0 24
3 5 4 3
3 2 6 3
3 2 1 7
3 3 6 5
3 11 23 14
3 20 19 45
3 45 19 44
3 19 18 44
3 44 18 43
3 18 17 43
3 43 17 42
3 13 12 38
3 38 12 37
3 14 13 39
3 39 13 38
3 16 15 41
3 41 15 40
3 17 16 42
3 42 16 41
3 21 20 46
3 46 20 45
3 22 21 47
3 47 21 46
3 15 14 40
3 40 14 39
3 23 22 48
3 48 22 47
3 12 11 37
3 37 11 36
3 11 10 36
3 36 10 35
3 10 9 35
3 35 9 34
3 8 7 33
3 33 7 32
3 9 8 34
3 34 8 33
3 7 6 32
3 32 6 31
3 1 0 26
3 26 0 25
3 0 24 25
3 25 24 49
3 24 23 49
3 49 23 48
3 5 4 30
3 30 4 29
3 4 3 29
3 29 3 28
3 3 2 28
3 28 2 27
3 2 1 27
3 27 1 26
3 6 5 31
3 31 5 30
