ply
format ascii 1.0
comment Created by Open3D
element vertex 12
property double x
property double y
property double z
element face 16
property list uchar uint vertex_indices
end_header
75.2967 60.6656 0
80.5926 40.3487 0
94.1212 43.8582 0
91.9287 52.2782 0
102.314 54.9651 0
99.2109 66.8509 0
75.2967 60.6656 14
80.5926 40.3487 14
94.1212 43.8582 14
91.9287 52.2782 14
102.314 54.9651 14
99.2109 66.8509 14
3 0 1 3
3 3 1 2
3 0 3 5
3 4 5 3
3 0 1 6
3 6 1 7
3 1 2 7
3 7 2 8
3 2 3 8
3 8 3 9
3 5 0 11
3 11 0 6
3 4 5 10
3 10 5 11
3 3 4 9
3 9 4 10
