ply
format ascii 1.0
comment Created by Open3D
element vertex 52
property double x
property double y
property double z
element face 76
property list uchar uint vertex_indices
end_header
-147.878 -89.8048 0
-145.744 -97.9916 0
-142.952 -97.2679 0
-140.203 -107.81 0
-151.887 -110.836 0
-152.511 -108.47 0
-159.139 -110.181 0
-158.548 -112.458 0
-181.737 -118.456 0
-182.252 -116.479 0
-187.769 -117.904 0
-187.137 -120.337 0
-200.017 -123.67 0
-210.177 -84.6578 0
-197.664 -81.4231 0
-197.049 -83.8003 0
-192.377 -82.5942 0
-193.119 -79.7504 0
-167.932 -73.237 0
-167.291 -75.692 0
-162.764 -74.5297 0
-163.464 -71.8193 0
-150.61 -68.4968 0
-147.094 -81.9934 0
-145.488 -81.5767 0
-143.633 -88.7083 0
-147.878 -89.8048 21
-145.744 -97.9916 21
-142.952 -97.2679 21
-140.203 -107.81 21
-151.887 -110.836 21
-152.511 -108.47 21
-159.139 -110.181 21
-158.548 -112.458 21
-181.737 -118.456 21
-182.252 -116.479 21
-187.769 -117.904 21
-187.137 -120.337 21
-200.017 -123.67 21
-210.177 -84.6578 21
-197.664 -81.4231 21
-197.049 -83.8003 21
-192.377 -82.5942 21
-193.119 -79.7504 21
-167.932 -73.237 21
-167.291 -75.692 21
-162.764 -74.5297 21
-163.464 -71.8193 21
-150.61 -68.4968 21
-147.094 -81.9934 21
-145.488 -81.5767 21
-143.633 -88.7083 21
3 15 13 12
3 10 12 11
3 10 15 12
3 6 16 9
3 16 10 9
3 15 14 13
3 19 18 17
3 6 19 16
3 19 17 16
3 15 10 16
3 7 9 8
3 7 6 9
3 0 6 5
3 3 1 5
3 1 3 2
3 3 5 4
3 0 5 1
3 22 20 23
3 19 0 20
3 23 20 0
3 20 22 21
3 25 23 0
3 24 23 25
3 0 19 6
3 13 12 39
3 39 12 38
3 12 11 38
3 38 11 37
3 11 10 37
3 37 10 36
3 10 9 36
3 36 9 35
3 15 14 41
3 41 14 40
3 14 13 40
3 40 13 39
3 19 18 45
3 45 18 44
3 18 17 44
3 44 17 43
3 17 16 43
3 43 16 42
3 16 15 42
3 42 15 41
3 9 8 35
3 35 8 34
3 8 7 34
3 34 7 33
3 7 6 33
3 33 6 32
3 6 5 32
3 32 5 31
3 3 2 29
3 29 2 28
3 2 1 28
3 28 1 27
3 5 4 31
3 31 4 30
3 4 3 30
3 30 3 29
3 1 0 27
3 27 0 26
3 23 22 49
3 49 22 48
3 20 19 46
3 46 19 45
3 22 21 48
3 48 21 47
3 21 20 47
3 47 20 46
3 0 25 26
3 26 25 51
3 24 23 50
3 50 23 49
3 25 24 51
3 51 24 50
