ply
format ascii 1.0
comment Created by Open3D
element vertex 20
property double x
property double y
property double z
element face 28
property list uchar uint vertex_indices
end_header
-103.216 155.036 0
-123.742 149.162 0
-128.688 166.415 0
-133.207 165.064 0
-134.445 170.296 0
-135.58 175.705 0
-122.137 179.147 0
-118.628 165.851 0
-106.945 168.955 0
-105.02 162.112 0
-103.216 155.036 17.5
-123.742 149.162 17.5
-128.688 166.415 17.5
-133.207 165.064 17.5
-134.445 170.296 17.5
-135.58 175.705 17.5
-122.137 179.147 17.5
-118.628 165.851 17.5
-106.945 168.955 17.5
-105.02 162.112 17.5
3 6 5 4
3 2 4 3
3 6 4 2
3 1 7 2
3 0 9 7
3 7 6 2
3 8 7 9
3 0 7 1
3 6 5 16
3 16 5 15
3 5 4 15
3 15 4 14
3 4 3 14
3 14 3 13
3 3 2 13
3 13 2 12
3 2 1 12
3 12 1 11
3 0 9 10
3 10 9 19
3 7 6 17
3 17 6 16
3 8 7 18
3 18 7 17
3 9 8 19
3 19 8 18
3 1 0 11
3 11 0 10
