ply
format ascii 1.0
comment Created by Open3D
element vertex 32
property double x
property double y
property double z
element face 46
property list uchar uint vertex_indices
end_header
-7.6843 279.158 0
-7.43971 278.236 0
-4.31379 279.069 0
-0.543585 264.928 0
-2.40547 264.435 0
-2.11867 263.368 0
1.80151 264.399 0
3.5644 257.812 0
-2.16643 256.298 0
2.36288 239.302 0
-23.5071 232.457 0
-34.1428 272.359 0
-25.7985 274.564 0
-25.1237 272.064 0
-19.094 273.655 0
-19.7096 275.977 0
-7.6843 279.158 17.5
-7.43971 278.236 17.5
-4.31379 279.069 17.5
-0.543585 264.928 17.5
-2.40547 264.435 17.5
-2.11867 263.368 17.5
1.80151 264.399 17.5
3.5644 257.812 17.5
-2.16643 256.298 17.5
2.36288 239.302 17.5
-23.5071 232.457 17.5
-34.1428 272.359 17.5
-25.7985 274.564 17.5
-25.1237 272.064 17.5
-19.094 273.655 17.5
-19.7096 275.977 17.5
3 12 11 13
3 13 11 10
3 13 8 14
3 1 14 4
3 1 0 15
3 14 1 15
3 8 13 10
3 5 4 14
3 5 8 7
3 8 10 9
3 5 7 6
3 2 4 3
3 2 1 4
3 14 8 5
3 12 11 28
3 28 11 27
3 13 12 29
3 29 12 28
3 11 10 27
3 27 10 26
3 14 13 30
3 30 13 29
3 1 0 17
3 17 0 16
3 0 15 16
3 16 15 31
3 15 14 31
3 31 14 30
3 5 4 21
3 21 4 20
3 8 7 24
3 24 7 23
3 10 9 26
3 26 9 25
3 9 8 25
3 25 8 24
3 7 6 23
3 23 6 22
3 6 5 22
3 22 5 21
3 4 3 20
3 20 3 19
3 3 2 19
3 19 2 18
3 2 1 18
3 18 1 17
