ply
format ascii 1.0
comment Created by Open3D
element vertex 34
property double x
property double y
property double z
element face 49
property list uchar uint vertex_indices
end_header
77.5712 296.994 0
81.0976 283.985 0
79.8592 283.656 0
81.4875 277.669 0
78.3359 276.824 0
79.9726 270.792 0
83.6622 271.779 0
84.1274 270.457 0
86.008 263.292 0
86.9272 259.76 0
72.664 255.931 0
66.8597 277.304 0
66.0498 280.292 0
72.1821 281.938 0
70.9419 286.514 0
65.2537 284.978 0
63.0518 293.088 0
77.5712 296.994 24.5
81.0976 283.985 24.5
79.8592 283.656 24.5
81.4875 277.669 24.5
78.3359 276.824 24.5
79.9726 270.792 24.5
83.6622 271.779 24.5
84.1274 270.457 24.5
86.008 263.292 24.5
86.9272 259.76 24.5
72.664 255.931 24.5
66.8597 277.304 24.5
66.0498 280.292 24.5
72.1821 281.938 24.5
70.9419 286.514 24.5
65.2537 284.978 24.5
63.0518 293.088 24.5
3 12 11 13
3 2 14 13
3 11 4 13
3 16 15 14
3 14 0 16
3 2 0 14
3 5 11 10
3 5 7 6
3 7 5 8
3 8 5 10
3 10 9 8
3 4 2 13
3 2 4 3
3 2 1 0
3 5 4 11
3 12 11 29
3 29 11 28
3 13 12 30
3 30 12 29
3 14 13 31
3 31 13 30
3 16 15 33
3 33 15 32
3 15 14 32
3 32 14 31
3 0 16 17
3 17 16 33
3 11 10 28
3 28 10 27
3 7 6 24
3 24 6 23
3 6 5 23
3 23 5 22
3 8 7 25
3 25 7 24
3 10 9 27
3 27 9 26
3 9 8 26
3 26 8 25
3 4 3 21
3 21 3 20
3 3 2 20
3 20 2 19
3 2 1 19
3 19 1 18
3 1 0 18
3 18 0 17
3 5 4 22
3 22 4 21
