ply
format ascii 1.0
comment Created by Open3D
element vertex 20
property double x
property double y
property double z
element face 18
property list uchar uint vertex_indices
end_header
-200.017 -123.67 14
-210.177 -84.6578 14
-221.366 -87.5415 14
-220.143 -92.2293 14
-225.985 -93.7425 14
-225.336 -96.2529 14
-230.947 -97.7003 14
-232.819 -90.5021 14
-241.471 -92.7389 14
-236.53 -111.712 14
-238.17 -112.14 14
-232.943 -132.179 14
-224.632 -130.03 14
-227.921 -117.444 14
-225.939 -116.929 14
-230.138 -100.8 14
-221.025 -98.4531 14
-217.382 -112.439 14
-215.033 -111.824 14
-211.197 -126.554 14
3 9 15 8
3 9 10 13
3 12 13 11
3 13 14 9
3 11 13 10
3 9 14 15
3 7 8 6
3 15 6 8
3 15 5 6
3 18 19 0
3 18 0 1
3 17 18 16
3 3 4 5
3 16 1 3
3 1 16 18
3 3 1 2
3 16 3 5
3 15 16 5
