ply
format ascii 1.0
comment Created by Open3D
element vertex 14
property double x
property double y
property double z
element face 19
property list uchar uint vertex_indices
end_header
214.084 201.149 0
221.858 203.688 0
217.918 218.396 0
231.753 221.805 0
242.916 180.681 0
228.824 176.962 0
220.693 174.712 0
214.084 201.149 21
221.858 203.688 21
217.918 218.396 21
231.753 221.805 21
242.916 180.681 21
228.824 176.962 21
220.693 174.712 21
3 5 0 6
3 5 4 1
3 1 3 2
3 3 1 4
3 5 1 0
3 0 6 7
3 7 6 13
3 6 5 13
3 13 5 12
3 5 4 12
3 12 4 11
3 3 2 10
3 10 2 9
3 2 1 9
3 9 1 8
3 4 3 11
3 11 3 10
3 1 0 8
3 8 0 7
