ply
format ascii 1.0
comment Created by Open3D
element vertex 12
property double x
property double y
property double z
element face 16
property list uchar uint vertex_indices
end_header
188.841 198.13 0
199.679 201.005 0
202.55 202.161 0
210.188 171.959 0
204.098 170.279 0
196.863 168.282 0
188.841 198.13 10.5
199.679 201.005 10.5
202.55 202.161 10.5
210.188 171.959 10.5
204.098 170.279 10.5
196.863 168.282 10.5
3 1 0 4
3 4 0 5
3 1 3 2
3 3 1 4
3 1 0 7
3 7 0 6
3 0 5 6
3 6 5 11
3 5 4 11
3 11 4 10
3 3 2 9
3 9 2 8
3 2 1 8
3 8 1 7
3 4 3 10
3 10 3 9
