ply
format ascii 1.0
comment Created by Open3D
element vertex 48
property double x
property double y
property double z
element face 70
property list uchar uint vertex_indices
end_header
73.2262 195.527 0
99.1305 202.406 0
100.278 198.129 0
104.386 199.215 0
105.432 195.316 0
104.706 195.118 0
106.722 187.587 0
107.704 187.85 0
108.944 183.195 0
104.99 182.142 0
104.367 182.244 0
105.619 178.644 0
95.754 176 0
93.2943 175.342 0
90.51 174.607 0
79.6716 171.722 0
78.6594 175.498 0
74.7733 174.467 0
73.6851 178.522 0
74.3257 178.686 0
72.318 186.173 0
71.3614 185.91 0
70.113 190.565 0
74.2638 191.673 0
73.2262 195.527 17.5
99.1305 202.406 17.5
100.278 198.129 17.5
104.386 199.215 17.5
105.432 195.316 17.5
104.706 195.118 17.5
106.722 187.587 17.5
107.704 187.85 17.5
108.944 183.195 17.5
104.99 182.142 17.5
104.367 182.244 17.5
105.619 178.644 17.5
95.754 176 17.5
93.2943 175.342 17.5
90.51 174.607 17.5
79.6716 171.722 17.5
78.6594 175.498 17.5
74.7733 174.467 17.5
73.6851 178.522 17.5
74.3257 178.686 17.5
72.318 186.173 17.5
71.3614 185.91 17.5
70.113 190.565 17.5
74.2638 191.673 17.5
3 19 18 17
3 16 19 17
3 23 16 14
3 15 14 16
3 23 14 13
3 22 21 20
3 22 20 23
3 20 19 16
3 20 16 23
3 1 0 23
3 23 13 2
3 11 10 12
3 10 9 6
3 2 12 10
3 8 6 9
3 6 8 7
3 2 10 6
3 1 23 2
3 3 2 5
3 5 2 6
3 5 4 3
3 2 13 12
3 19 18 43
3 43 18 42
3 18 17 42
3 42 17 41
3 17 16 41
3 41 16 40
3 15 14 39
3 39 14 38
3 16 15 40
3 40 15 39
3 14 13 38
3 38 13 37
3 22 21 46
3 46 21 45
3 21 20 45
3 45 20 44
3 23 22 47
3 47 22 46
3 20 19 44
3 44 19 43
3 1 0 25
3 25 0 24
3 0 23 24
3 24 23 47
3 11 10 35
3 35 10 34
3 12 11 36
3 36 11 35
3 10 9 34
3 34 9 33
3 9 8 33
3 33 8 32
3 8 7 32
3 32 7 31
3 7 6 31
3 31 6 30
3 2 1 26
3 26 1 25
3 3 2 27
3 27 2 26
3 6 5 30
3 30 5 29
3 5 4 29
3 29 4 28
3 4 3 28
3 28 3 27
3 13 12 37
3 37 12 36
